%TF.GenerationSoftware,KiCad,Pcbnew,9.0.8+1*%
%TF.CreationDate,2026-06-26T09:35:40-04:00*%
%TF.ProjectId,om-84_strumplate,6f6d2d38-345f-4737-9472-756d706c6174,rev?*%
%TF.SameCoordinates,Original*%
%TF.FileFunction,Profile,NP*%
%FSLAX46Y46*%
G04 Gerber Fmt 4.6, Leading zero omitted, Abs format (unit mm)*
G04 Created by KiCad (PCBNEW 9.0.8+1) date 2026-06-26 09:35:40*
%MOMM*%
%LPD*%
G01*
G04 APERTURE LIST*
%TA.AperFunction,Profile*%
%ADD10C,0.485000*%
%TD*%
G04 APERTURE END LIST*
D10*
X195279980Y-66983221D02*
X195596331Y-67000578D01*
X195890216Y-67028068D01*
X196157697Y-67066097D01*
X196394833Y-67115069D01*
X196597686Y-67175390D01*
X196762317Y-67247464D01*
X196829068Y-67288035D01*
X196884787Y-67331696D01*
X196928981Y-67378497D01*
X196961158Y-67428490D01*
X196980825Y-67481724D01*
X196987490Y-67538252D01*
X196987490Y-67586561D01*
X196987490Y-67884748D01*
X196987490Y-68359754D01*
X196987490Y-68514143D01*
X196987490Y-73751081D01*
X196987490Y-73908888D01*
X196987490Y-74541365D01*
X196987490Y-75336072D01*
X196987490Y-75474042D01*
X196987490Y-83403089D01*
X196987490Y-83445386D01*
X196987490Y-84122724D01*
X196987490Y-85858381D01*
X196987490Y-86154706D01*
X196987490Y-91615705D01*
X196987490Y-91785047D01*
X196987490Y-92081373D01*
X196987490Y-93351362D01*
X196987490Y-96839613D01*
X196987490Y-98511793D01*
X196987490Y-100378705D01*
X196987490Y-103566266D01*
X196987490Y-103849988D01*
X196987490Y-129588666D01*
X196987490Y-144037977D01*
X196987490Y-144191144D01*
X196987490Y-144473859D01*
X196987490Y-144532362D01*
X196987490Y-145040357D01*
X196987490Y-147072370D01*
X196987490Y-148808027D01*
X196987490Y-152533369D01*
X196987490Y-156576185D01*
X196987490Y-157274671D01*
X196987490Y-158324262D01*
X196987490Y-159335248D01*
X196987490Y-165757490D01*
X196987490Y-171879651D01*
X196987490Y-172175977D01*
X196987490Y-173234327D01*
X196987490Y-178144971D01*
X196987490Y-178356641D01*
X196987490Y-179626630D01*
X196987490Y-179880628D01*
X196987490Y-180198133D01*
X196987490Y-181658643D01*
X196987490Y-182907484D01*
X196987490Y-183902326D01*
X196987490Y-184678449D01*
X196987490Y-185744184D01*
X196987490Y-185899396D01*
X196987490Y-187754651D01*
X196987490Y-187966321D01*
X196987490Y-188177991D01*
X196987490Y-190231153D01*
X196987490Y-192122022D01*
X196987490Y-192157331D01*
X196987490Y-192277235D01*
X196987490Y-194420881D01*
X196987490Y-195182882D01*
X196987490Y-197240987D01*
X196987490Y-197642660D01*
X196987490Y-198253377D01*
X196987490Y-198305501D01*
X196987490Y-198787557D01*
X196987490Y-199650411D01*
X196987490Y-199984090D01*
X196987490Y-200370077D01*
X196987490Y-200856893D01*
X196987490Y-201174398D01*
X196987490Y-201322530D01*
X196987490Y-201957540D01*
X196987490Y-202105733D01*
X196987490Y-202656087D01*
X196987490Y-202994771D01*
X196987490Y-203430013D01*
X196987490Y-204216878D01*
X196987490Y-204434102D01*
X196987490Y-204650472D01*
X196987490Y-204992879D01*
X196987490Y-205365438D01*
X196987490Y-206571920D01*
X196987490Y-212626913D01*
X196979033Y-214798976D01*
X196965626Y-215667932D01*
X196940026Y-216405410D01*
X196897677Y-217021338D01*
X196834023Y-217525645D01*
X196744508Y-217928260D01*
X196688628Y-218094535D01*
X196624575Y-218239110D01*
X196551779Y-218363227D01*
X196469670Y-218468126D01*
X196377678Y-218555048D01*
X196275235Y-218625234D01*
X196161771Y-218679926D01*
X196036715Y-218720365D01*
X195899500Y-218747791D01*
X195749555Y-218763446D01*
X195409196Y-218764407D01*
X195011085Y-218733175D01*
X194023379Y-218613851D01*
X194025638Y-218613729D01*
X191152812Y-218232709D01*
X187844973Y-217764669D01*
X186881373Y-217624967D01*
X185812991Y-217473409D01*
X184657557Y-217306959D01*
X183484683Y-217131490D01*
X182398837Y-216970251D01*
X181452700Y-216838033D01*
X180518969Y-216708753D01*
X179463015Y-216554708D01*
X178568713Y-216422056D01*
X178023684Y-216344198D01*
X176763797Y-216170988D01*
X175187320Y-215949483D01*
X174629573Y-215871572D01*
X174002017Y-215786153D01*
X173705603Y-215744008D01*
X173399279Y-215696363D01*
X173119162Y-215649073D01*
X172901370Y-215607992D01*
X172806823Y-215589716D01*
X172700248Y-215571294D01*
X172585293Y-215553227D01*
X172465602Y-215536016D01*
X172344820Y-215520161D01*
X172226595Y-215506162D01*
X172114570Y-215494521D01*
X172012393Y-215485738D01*
X171910213Y-215476882D01*
X171798182Y-215465073D01*
X171679949Y-215450819D01*
X171559161Y-215434629D01*
X171439466Y-215417011D01*
X171324511Y-215398474D01*
X171217945Y-215379527D01*
X171123416Y-215360677D01*
X171019365Y-215339927D01*
X170885552Y-215315489D01*
X170550860Y-215259138D01*
X170163777Y-215198792D01*
X169768741Y-215141622D01*
X169390401Y-215085383D01*
X169048785Y-215027570D01*
X168903468Y-215000193D01*
X168781396Y-214974965D01*
X168687255Y-214952733D01*
X168625735Y-214934347D01*
X168600882Y-214926116D01*
X168570261Y-214917628D01*
X168493450Y-214900135D01*
X168398776Y-214882387D01*
X168289714Y-214864904D01*
X168169736Y-214848205D01*
X168042318Y-214832809D01*
X167910933Y-214819235D01*
X167779055Y-214808004D01*
X167502940Y-214782392D01*
X167148344Y-214742134D01*
X166276545Y-214627843D01*
X165309337Y-214485469D01*
X164392398Y-214335348D01*
X164135295Y-214292670D01*
X163842074Y-214247434D01*
X163548854Y-214205048D01*
X163291751Y-214170919D01*
X161999741Y-213997243D01*
X160875697Y-213822423D01*
X160423868Y-213742545D01*
X160070680Y-213671934D01*
X159835013Y-213613773D01*
X159767151Y-213590357D01*
X159735751Y-213571248D01*
X159732806Y-213568244D01*
X159728363Y-213565162D01*
X159715149Y-213558793D01*
X159696435Y-213552193D01*
X159672545Y-213545416D01*
X159643806Y-213538514D01*
X159610543Y-213531538D01*
X159573082Y-213524541D01*
X159531749Y-213517576D01*
X159438766Y-213503948D01*
X159334201Y-213491074D01*
X159220657Y-213479371D01*
X159100741Y-213469259D01*
X158864348Y-213450823D01*
X158653877Y-213431842D01*
X158444024Y-213408785D01*
X158209487Y-213378118D01*
X157924960Y-213336311D01*
X157565140Y-213279830D01*
X156518405Y-213108724D01*
X155071971Y-212872198D01*
X154105410Y-212724752D01*
X153841888Y-212684454D01*
X153562487Y-212639951D01*
X153300550Y-212596650D01*
X153089419Y-212559957D01*
X152467124Y-212452749D01*
X151565432Y-212302511D01*
X148909614Y-211866239D01*
X148441471Y-211775832D01*
X148041271Y-211684650D01*
X147703822Y-211588572D01*
X147423934Y-211483480D01*
X147196415Y-211365252D01*
X147100671Y-211299926D01*
X147016074Y-211229770D01*
X146941973Y-211154271D01*
X146877720Y-211072913D01*
X146822665Y-210985182D01*
X146776161Y-210890562D01*
X146706208Y-210678596D01*
X146662669Y-210432895D01*
X146640352Y-210149341D01*
X146634066Y-209823812D01*
X146634066Y-209031576D01*
X146634066Y-208734579D01*
X146634066Y-194189374D01*
X146634066Y-192623060D01*
X146634066Y-186421216D01*
X146634066Y-186145948D01*
X146634066Y-182865125D01*
X146634066Y-179245740D01*
X146634066Y-177912244D01*
X146634066Y-176917402D01*
X146634066Y-176578748D01*
X146634066Y-176240064D01*
X146634066Y-173827070D01*
X146634066Y-173615400D01*
X146634066Y-173530713D01*
X146634066Y-164153882D01*
X146634066Y-164048048D01*
X146634066Y-162693372D01*
X146634066Y-161338697D01*
X146634066Y-160998517D01*
X146634066Y-160360120D01*
X146637302Y-160289622D01*
X146647043Y-160225073D01*
X146663338Y-160166228D01*
X146686240Y-160112842D01*
X146715797Y-160064669D01*
X146752061Y-160021465D01*
X146795083Y-159982985D01*
X146844911Y-159948983D01*
X146901597Y-159919215D01*
X146965191Y-159893435D01*
X147035744Y-159871399D01*
X147113306Y-159852861D01*
X147197927Y-159837577D01*
X147289658Y-159825301D01*
X147388549Y-159815788D01*
X147494651Y-159808793D01*
X147608013Y-159804072D01*
X147728688Y-159801379D01*
X147992172Y-159801096D01*
X148285506Y-159805986D01*
X148609095Y-159814087D01*
X149348647Y-159832082D01*
X149765416Y-159838055D01*
X150214053Y-159839399D01*
X152417666Y-159839399D01*
X152475467Y-159839399D01*
X152988406Y-159839399D01*
X153443484Y-159839399D01*
X153559298Y-159839399D01*
X153747012Y-159839399D01*
X153929568Y-159839399D01*
X154556765Y-159839399D01*
X154675013Y-159834190D01*
X154791302Y-159823230D01*
X154905226Y-159807161D01*
X155016381Y-159786629D01*
X155124362Y-159762278D01*
X155228764Y-159734753D01*
X155329184Y-159704700D01*
X155425216Y-159672761D01*
X155602496Y-159605810D01*
X155757369Y-159539056D01*
X155886597Y-159477657D01*
X155986941Y-159426771D01*
X156219302Y-159306470D01*
X156363650Y-158967786D01*
X156287844Y-157570783D01*
X156179782Y-157232129D01*
X156095095Y-157232129D01*
X155671756Y-157232129D01*
X155001467Y-157232129D01*
X154302981Y-157232129D01*
X152920077Y-157232129D01*
X152529208Y-157232129D01*
X152306247Y-157232129D01*
X150930392Y-157232129D01*
X142421389Y-157232129D01*
X138385562Y-157232129D01*
X132480136Y-157232129D01*
X123610934Y-157232129D01*
X123424533Y-157232129D01*
X122646914Y-157232129D01*
X115841616Y-157232129D01*
X109972903Y-157232129D01*
X101530948Y-157232129D01*
X92020053Y-157232129D01*
X90627047Y-157232129D01*
X86492495Y-157232129D01*
X79810000Y-157232129D01*
X79810000Y-151982893D01*
X79810000Y-148483350D01*
X79810000Y-147791914D01*
X79810000Y-146775922D01*
X79810000Y-145759931D01*
X79810000Y-145082593D01*
X79810000Y-144405256D01*
X79810000Y-143389265D01*
X79810000Y-142373273D01*
X79810000Y-142034620D01*
X79810000Y-141695936D01*
X79810000Y-141357252D01*
X79810000Y-141018598D01*
X79810000Y-140341260D01*
X79810000Y-139663923D01*
X79810000Y-138711408D01*
X79810000Y-135921674D01*
X82984958Y-135921674D01*
X83647555Y-135921674D01*
X83753390Y-135921674D01*
X88086123Y-135921674D01*
X148347628Y-135921674D01*
X152157626Y-135921674D01*
X155396121Y-135921674D01*
X155671298Y-135921674D01*
X156091555Y-135921674D01*
X156144516Y-135927656D01*
X156194543Y-135931372D01*
X156241706Y-135932886D01*
X156286075Y-135932261D01*
X156327720Y-135929560D01*
X156366711Y-135924845D01*
X156403118Y-135918179D01*
X156437011Y-135909627D01*
X156468459Y-135899250D01*
X156497534Y-135887112D01*
X156524305Y-135873276D01*
X156548842Y-135857804D01*
X156571215Y-135840760D01*
X156591493Y-135822207D01*
X156609748Y-135802207D01*
X156626048Y-135780824D01*
X156640464Y-135758121D01*
X156653066Y-135734161D01*
X156663924Y-135709006D01*
X156673107Y-135682720D01*
X156680686Y-135655366D01*
X156686731Y-135627007D01*
X156691312Y-135597705D01*
X156694499Y-135567524D01*
X156696969Y-135504776D01*
X156694702Y-135439268D01*
X156688257Y-135371503D01*
X156678195Y-135301984D01*
X156668301Y-135203578D01*
X156656326Y-135029614D01*
X156627021Y-134548772D01*
X156592068Y-134046977D01*
X156573033Y-133846820D01*
X156563223Y-133769682D01*
X156553256Y-133711744D01*
X156513009Y-133532826D01*
X156492017Y-133452145D01*
X156469552Y-133377193D01*
X156444941Y-133307876D01*
X156417515Y-133244102D01*
X156386600Y-133185777D01*
X156369626Y-133158630D01*
X156351527Y-133132810D01*
X156332221Y-133108306D01*
X156311624Y-133085107D01*
X156289651Y-133063201D01*
X156266219Y-133042576D01*
X156241244Y-133023220D01*
X156214642Y-133005123D01*
X156186328Y-132988272D01*
X156156220Y-132972656D01*
X156124233Y-132958263D01*
X156090284Y-132945082D01*
X156054288Y-132933101D01*
X156016161Y-132922308D01*
X155975820Y-132912692D01*
X155933180Y-132904242D01*
X155840670Y-132890790D01*
X151910861Y-132890790D01*
X146664035Y-132890790D01*
X146664035Y-132418958D01*
X146664035Y-132213483D01*
X146664035Y-132022993D01*
X146664035Y-129334821D01*
X146664035Y-122815504D01*
X146664035Y-97515027D01*
X146664035Y-86372083D01*
X146664035Y-86117292D01*
X146664035Y-86081800D01*
X146664035Y-85810621D01*
X146664035Y-85494916D01*
X146664035Y-85156202D01*
X146664035Y-84821302D01*
X146664035Y-81138288D01*
X146673451Y-79891701D01*
X146705242Y-78927857D01*
X146728730Y-78539311D01*
X146756855Y-78206267D01*
X146789298Y-77923664D01*
X146825740Y-77686441D01*
X146865861Y-77489536D01*
X146909344Y-77327889D01*
X146955869Y-77196438D01*
X147005117Y-77090122D01*
X147056770Y-77003880D01*
X147110508Y-76932651D01*
X147222964Y-76814985D01*
X147265394Y-76780938D01*
X147330190Y-76738178D01*
X147414320Y-76688139D01*
X147514748Y-76632255D01*
X147752370Y-76508692D01*
X148018786Y-76378969D01*
X148289729Y-76254563D01*
X148540929Y-76146952D01*
X148651541Y-76103031D01*
X148748117Y-76067614D01*
X148827624Y-76042135D01*
X148887027Y-76028028D01*
X148935246Y-76019013D01*
X148986912Y-76007439D01*
X149040416Y-75993785D01*
X149094149Y-75978532D01*
X149146504Y-75962159D01*
X149195871Y-75945146D01*
X149240642Y-75927971D01*
X149279208Y-75911115D01*
X149411753Y-75854224D01*
X149652323Y-75756603D01*
X150358477Y-75477869D01*
X151199558Y-75152299D01*
X151977450Y-74857282D01*
X152098388Y-74813668D01*
X152219169Y-74772982D01*
X152336579Y-74736112D01*
X152447406Y-74703951D01*
X152548436Y-74677386D01*
X152636458Y-74657310D01*
X152708258Y-74644611D01*
X152737071Y-74641307D01*
X152760623Y-74640181D01*
X152781157Y-74639828D01*
X152801116Y-74638792D01*
X152820395Y-74637110D01*
X152838891Y-74634815D01*
X152856502Y-74631943D01*
X152873123Y-74628529D01*
X152888651Y-74624608D01*
X152902983Y-74620214D01*
X152916017Y-74615384D01*
X152927647Y-74610152D01*
X152937772Y-74604553D01*
X152946287Y-74598621D01*
X152953090Y-74592393D01*
X152955818Y-74589179D01*
X152958078Y-74585904D01*
X152959858Y-74582572D01*
X152961146Y-74579187D01*
X152961928Y-74575755D01*
X152962191Y-74572279D01*
X152963271Y-74568431D01*
X152966474Y-74563918D01*
X152971748Y-74558762D01*
X152979041Y-74552984D01*
X152999467Y-74539653D01*
X153027331Y-74524101D01*
X153062208Y-74506504D01*
X153103675Y-74487038D01*
X153151310Y-74465880D01*
X153204688Y-74443205D01*
X153263386Y-74419189D01*
X153326982Y-74394010D01*
X153467172Y-74340862D01*
X153621871Y-74285171D01*
X153787692Y-74228346D01*
X154119826Y-74114921D01*
X154413897Y-74010111D01*
X154637999Y-73925574D01*
X154713841Y-73894551D01*
X154760226Y-73872969D01*
X154775880Y-73864875D01*
X154792410Y-73857010D01*
X154809674Y-73849413D01*
X154827530Y-73842125D01*
X154845838Y-73835187D01*
X154864455Y-73828639D01*
X154883241Y-73822522D01*
X154902053Y-73816877D01*
X154920750Y-73811744D01*
X154939191Y-73807164D01*
X154957234Y-73803177D01*
X154974738Y-73799824D01*
X154991562Y-73797145D01*
X155007563Y-73795181D01*
X155022600Y-73793974D01*
X155036532Y-73793562D01*
X155050465Y-73793147D01*
X155065504Y-73791929D01*
X155081508Y-73789949D01*
X155098335Y-73787249D01*
X155115842Y-73783870D01*
X155133889Y-73779854D01*
X155152334Y-73775240D01*
X155171035Y-73770071D01*
X155189849Y-73764388D01*
X155208636Y-73758231D01*
X155227254Y-73751643D01*
X155245560Y-73744664D01*
X155263413Y-73737336D01*
X155280672Y-73729699D01*
X155297194Y-73721796D01*
X155312838Y-73713667D01*
X155330897Y-73704599D01*
X155354480Y-73693985D01*
X155416707Y-73668647D01*
X155496486Y-73638705D01*
X155590785Y-73605211D01*
X155696571Y-73569218D01*
X155810811Y-73531779D01*
X155930473Y-73493945D01*
X156052523Y-73456770D01*
X156296005Y-73382289D01*
X156520839Y-73310266D01*
X156702013Y-73248927D01*
X156768412Y-73224833D01*
X156814517Y-73206495D01*
X156973767Y-73150798D01*
X157264460Y-73060682D01*
X158079814Y-72822813D01*
X158939856Y-72584120D01*
X159286411Y-72492974D01*
X159523867Y-72435835D01*
X159602771Y-72417649D01*
X159697410Y-72393692D01*
X159804209Y-72364988D01*
X159919593Y-72332563D01*
X160039984Y-72297444D01*
X160161808Y-72260654D01*
X160281489Y-72223221D01*
X160395449Y-72186171D01*
X160509775Y-72149026D01*
X160630478Y-72111346D01*
X160876433Y-72038542D01*
X161104141Y-71976083D01*
X161202035Y-71951335D01*
X161284426Y-71932295D01*
X161836031Y-71800982D01*
X162735392Y-71576658D01*
X163707367Y-71328759D01*
X164476809Y-71126722D01*
X164857190Y-71026472D01*
X165248156Y-70928175D01*
X165998996Y-70751509D01*
X166327443Y-70680171D01*
X166603625Y-70624853D01*
X166811829Y-70589070D01*
X166936343Y-70576338D01*
X166958786Y-70575882D01*
X166981473Y-70574565D01*
X167004248Y-70572432D01*
X167026957Y-70569527D01*
X167049446Y-70565892D01*
X167071561Y-70561573D01*
X167093146Y-70556612D01*
X167114047Y-70551054D01*
X167134110Y-70544942D01*
X167153180Y-70538321D01*
X167171103Y-70531233D01*
X167187724Y-70523723D01*
X167202889Y-70515835D01*
X167216443Y-70507613D01*
X167228232Y-70499100D01*
X167238101Y-70490339D01*
X167243377Y-70485774D01*
X167250326Y-70480938D01*
X167269051Y-70470513D01*
X167293886Y-70459172D01*
X167324442Y-70447024D01*
X167360330Y-70434178D01*
X167401163Y-70420743D01*
X167446550Y-70406828D01*
X167496104Y-70392542D01*
X167606154Y-70363292D01*
X167728203Y-70333866D01*
X167859139Y-70305133D01*
X167995852Y-70277967D01*
X168706675Y-70138552D01*
X169472110Y-69981031D01*
X170778162Y-69714691D01*
X172055873Y-69470770D01*
X173070999Y-69292412D01*
X173406892Y-69241302D01*
X173589297Y-69222761D01*
X173617752Y-69222004D01*
X173648316Y-69220092D01*
X173680707Y-69217086D01*
X173714643Y-69213045D01*
X173786022Y-69202094D01*
X173860194Y-69187716D01*
X173934901Y-69170386D01*
X174007885Y-69150582D01*
X174043025Y-69139900D01*
X174076888Y-69128778D01*
X174109190Y-69117276D01*
X174139651Y-69105451D01*
X174172910Y-69092951D01*
X174213424Y-69079465D01*
X174313982Y-69050041D01*
X174436854Y-69018194D01*
X174577571Y-68984938D01*
X174731663Y-68951287D01*
X174894661Y-68918255D01*
X175062095Y-68886857D01*
X175229495Y-68858107D01*
X176667910Y-68624189D01*
X176799077Y-68601077D01*
X176928771Y-68574717D01*
X177053629Y-68546029D01*
X177170291Y-68515932D01*
X177275394Y-68485344D01*
X177365576Y-68455184D01*
X177404022Y-68440552D01*
X177437477Y-68426372D01*
X177465522Y-68412757D01*
X177487735Y-68399824D01*
X177511922Y-68384607D01*
X177535452Y-68371122D01*
X177558379Y-68359362D01*
X177580760Y-68349319D01*
X177602652Y-68340989D01*
X177624111Y-68334363D01*
X177645194Y-68329436D01*
X177665957Y-68326200D01*
X177686457Y-68324650D01*
X177706751Y-68324778D01*
X177726894Y-68326578D01*
X177746943Y-68330044D01*
X177766956Y-68335168D01*
X177786987Y-68341944D01*
X177807094Y-68350366D01*
X177827334Y-68360426D01*
X177837560Y-68365412D01*
X177848864Y-68370002D01*
X177874715Y-68377993D01*
X177904906Y-68384398D01*
X177939457Y-68389215D01*
X177978385Y-68392445D01*
X178021710Y-68394087D01*
X178069449Y-68394138D01*
X178121623Y-68392599D01*
X178178249Y-68389469D01*
X178239346Y-68384746D01*
X178304933Y-68378430D01*
X178375028Y-68370520D01*
X178449651Y-68361014D01*
X178528820Y-68349913D01*
X178612553Y-68337215D01*
X178700869Y-68322920D01*
X179051461Y-68266814D01*
X179409019Y-68214444D01*
X179783477Y-68164670D01*
X180184764Y-68116354D01*
X180622812Y-68068355D01*
X181107553Y-68019534D01*
X182256839Y-67914869D01*
X182812639Y-67864586D01*
X183293223Y-67817060D01*
X183647201Y-67777660D01*
X183760654Y-67762685D01*
X183823184Y-67751753D01*
X183880511Y-67741326D01*
X183979095Y-67727816D01*
X184113552Y-67711791D01*
X184278499Y-67693815D01*
X184678324Y-67654275D01*
X185135501Y-67613722D01*
X185632759Y-67569852D01*
X186141719Y-67521357D01*
X186602648Y-67474114D01*
X186955813Y-67434004D01*
X187222206Y-67402773D01*
X187488785Y-67376247D01*
X187783168Y-67352899D01*
X188132975Y-67331201D01*
X188565823Y-67309629D01*
X189109331Y-67286654D01*
X190638797Y-67230390D01*
X191317519Y-67203002D01*
X191945086Y-67171453D01*
X192451644Y-67139642D01*
X192767337Y-67111463D01*
X193499093Y-67034275D01*
X194235518Y-66987905D01*
X194595635Y-66977290D01*
X194945102Y-66975593D01*
X195279980Y-66983221D01*
M02*
