%TF.GenerationSoftware,KiCad,Pcbnew,9.0.8+1*%
%TF.CreationDate,2026-06-26T09:35:40-04:00*%
%TF.ProjectId,om-84_strumplate,6f6d2d38-345f-4737-9472-756d706c6174,rev?*%
%TF.SameCoordinates,Original*%
%TF.FileFunction,Copper,L1,Top*%
%TF.FilePolarity,Positive*%
%FSLAX46Y46*%
G04 Gerber Fmt 4.6, Leading zero omitted, Abs format (unit mm)*
G04 Created by KiCad (PCBNEW 9.0.8+1) date 2026-06-26 09:35:40*
%MOMM*%
%LPD*%
G01*
G04 APERTURE LIST*
%TA.AperFunction,NonConductor*%
%ADD10C,0.717000*%
%TD*%
%TA.AperFunction,NonConductor*%
%ADD11C,1.004609*%
%TD*%
%TA.AperFunction,NonConductor*%
%ADD12C,1.003990*%
%TD*%
%TA.AperFunction,NonConductor*%
%ADD13C,1.116999*%
%TD*%
%TA.AperFunction,NonConductor*%
%ADD14C,1.044999*%
%TD*%
%ADD15C,1.116999*%
G04 APERTURE END LIST*
D10*
X147670936Y-173471990D02*
X157253395Y-173471990D01*
X147670936Y-203135808D02*
X147670936Y-173471990D01*
X149081184Y-175272252D02*
X158647712Y-175272252D01*
X149081184Y-188061650D02*
X149081184Y-175272252D01*
D11*
X151526008Y-201157994D02*
X151526008Y-204968694D01*
X151526008Y-204968694D02*
X157321632Y-204968694D01*
D12*
X151576606Y-186191411D02*
X151576606Y-189994420D01*
X151576606Y-189994420D02*
X157376686Y-189994420D01*
D10*
X151631843Y-203135808D02*
X147670936Y-203135808D01*
X151633583Y-188061650D02*
X149081184Y-188061650D01*
X157253395Y-155974980D02*
X80005317Y-155974980D01*
X157253395Y-173471990D02*
X157253395Y-155974980D01*
D11*
X157333045Y-201157994D02*
X151526008Y-201157994D01*
D12*
X157388160Y-186191411D02*
X151576606Y-186191411D01*
D10*
X157416267Y-74510960D02*
X157416267Y-137114629D01*
X157416267Y-137114629D02*
X80005317Y-137114629D01*
X158647712Y-154678685D02*
X80005348Y-154678685D01*
X158647712Y-175272252D02*
X158647712Y-154678685D01*
X158780128Y-138430516D02*
X80005348Y-138376225D01*
X158850135Y-85853978D02*
X158780128Y-138430516D01*
D13*
X159061408Y-188072606D02*
X153322120Y-188072606D01*
X159061408Y-191776799D02*
X151129341Y-191776799D01*
X159061408Y-199217259D02*
X151129341Y-199217259D01*
X159061408Y-203081700D02*
X153322120Y-203081700D01*
X159061408Y-206818059D02*
X151129341Y-206818059D01*
X159061439Y-183892735D02*
X151129371Y-183892735D01*
X159061439Y-212120274D02*
X159061439Y-183892735D01*
D10*
X160104316Y-153413274D02*
X80005348Y-153413274D01*
X160104316Y-179544438D02*
X160104316Y-153413274D01*
X160290809Y-139672368D02*
X80005348Y-139626683D01*
X160360816Y-96966557D02*
X160290809Y-139672368D01*
X161691810Y-152209813D02*
X80005348Y-152209813D01*
X161691810Y-177474706D02*
X161691810Y-152209813D01*
X161733253Y-140999669D02*
X80005348Y-140953984D01*
X161803260Y-108271184D02*
X161733253Y-140999669D01*
X163243934Y-142250096D02*
X80005348Y-142204411D01*
X163279304Y-150959355D02*
X80005317Y-150959355D01*
X163279304Y-175281133D02*
X163279304Y-150959355D01*
X163313941Y-119498967D02*
X163243934Y-142250096D01*
X163804237Y-179544438D02*
X160104316Y-179544438D01*
X163804237Y-209548985D02*
X163804237Y-179544438D01*
X164721778Y-149729558D02*
X80005348Y-149729558D01*
X164721778Y-173126012D02*
X164721778Y-149729558D01*
X164793006Y-143500554D02*
X80005317Y-143454869D01*
X164863014Y-130765172D02*
X164793006Y-143500554D01*
X165775855Y-177474706D02*
X161691810Y-177474706D01*
X165775855Y-198291356D02*
X165775855Y-177474706D01*
X166210487Y-148504002D02*
X80005348Y-148504002D01*
X166210487Y-164554417D02*
X166210487Y-148504002D01*
X166321449Y-141972813D02*
X166321449Y-144691045D01*
X166321449Y-144691045D02*
X80005348Y-144691045D01*
X167691352Y-147251958D02*
X80005348Y-147251958D01*
X167691352Y-153326604D02*
X167691352Y-147251958D01*
X167777259Y-175281133D02*
X163279304Y-175281133D01*
X167777259Y-187101964D02*
X167777259Y-175281133D01*
X169172218Y-146020299D02*
X80005348Y-146020299D01*
X169172218Y-147620976D02*
X169172218Y-146020299D01*
X169817115Y-173126012D02*
X164721778Y-173126012D01*
X169817115Y-175797337D02*
X169817115Y-173126012D01*
D14*
X172943824Y-72095006D02*
X172943824Y-76515599D01*
D10*
X172943824Y-74510960D02*
X157416267Y-74510960D01*
D14*
X172943824Y-76515599D02*
X186527595Y-76515599D01*
X172943824Y-83409215D02*
X172943824Y-87829808D01*
D10*
X172943824Y-85853978D02*
X158850135Y-85853978D01*
D14*
X172943824Y-87829808D02*
X186629798Y-87829808D01*
X172943824Y-94714146D02*
X172943824Y-99134740D01*
D10*
X172943824Y-96966557D02*
X160360816Y-96966557D01*
D14*
X172943824Y-99134740D02*
X186629798Y-99134740D01*
X172943824Y-105987065D02*
X172943824Y-110407658D01*
D10*
X172943824Y-108271184D02*
X161803260Y-108271184D01*
D14*
X172943824Y-110407658D02*
X186629798Y-110407658D01*
X172943824Y-117308110D02*
X172943824Y-121728703D01*
D10*
X172943824Y-119498967D02*
X163313941Y-119498967D01*
D14*
X172943824Y-121728703D02*
X186629798Y-121728703D01*
X172943824Y-128516881D02*
X172943824Y-132937474D01*
D10*
X172943824Y-130765172D02*
X164863014Y-130765172D01*
D14*
X172943824Y-132937474D02*
X186629798Y-132937474D01*
X172943824Y-139821874D02*
X172943824Y-144242467D01*
D10*
X172943824Y-141972813D02*
X166321449Y-141972813D01*
D14*
X172943824Y-144242467D02*
X186629798Y-144242467D01*
X172943824Y-151110844D02*
X172943824Y-155531438D01*
D10*
X172943824Y-153326604D02*
X167691352Y-153326604D01*
D14*
X172943824Y-155531438D02*
X186629798Y-155531438D01*
X172943824Y-162319615D02*
X172943824Y-166740209D01*
D10*
X172943824Y-164554417D02*
X166210487Y-164554417D01*
D14*
X172943824Y-166740209D02*
X186629798Y-166740209D01*
X172943824Y-173608586D02*
X172943824Y-178029179D01*
D10*
X172943824Y-175797337D02*
X169817115Y-175797337D01*
D14*
X172943824Y-178029179D02*
X186629798Y-178029179D01*
X172943824Y-184881505D02*
X172943824Y-189302098D01*
D10*
X172943824Y-187101964D02*
X167777259Y-187101964D01*
D14*
X172943824Y-189302098D02*
X186629798Y-189302098D01*
X172943824Y-196122350D02*
X172943824Y-200542943D01*
D10*
X172943824Y-198291356D02*
X165775855Y-198291356D01*
D14*
X172943824Y-200542943D02*
X186629798Y-200542943D01*
X172943824Y-207395268D02*
X172943824Y-211815862D01*
D10*
X172943824Y-209548985D02*
X163804237Y-209548985D01*
D14*
X172943824Y-211815862D02*
X186629798Y-211815862D01*
D10*
X174833778Y-147620976D02*
X169172218Y-147620976D01*
D13*
X174931281Y-69806706D02*
X188265785Y-69806706D01*
X174931312Y-146579778D02*
X174931312Y-148792729D01*
D14*
X186540077Y-72095006D02*
X172943824Y-72095006D01*
X186642280Y-83409215D02*
X172943824Y-83409215D01*
X186642280Y-94714146D02*
X172943824Y-94714146D01*
X186642280Y-105987065D02*
X172943824Y-105987065D01*
X186642280Y-117308110D02*
X172943824Y-117308110D01*
X186642280Y-128516881D02*
X172943824Y-128516881D01*
X186642280Y-139821874D02*
X172943824Y-139821874D01*
X186642280Y-151110844D02*
X172943824Y-151110844D01*
X186642280Y-162319615D02*
X172943824Y-162319615D01*
X186642280Y-173608586D02*
X172943824Y-173608586D01*
X186642280Y-184881505D02*
X172943824Y-184881505D01*
X186642280Y-196122350D02*
X172943824Y-196122350D01*
X186642280Y-207395268D02*
X172943824Y-207395268D01*
D13*
X188265785Y-69806706D02*
X188294685Y-216153294D01*
X188265785Y-74356480D02*
X174931281Y-74356480D01*
X188265785Y-78894536D02*
X174931281Y-78894536D01*
X188265785Y-81107396D02*
X174931281Y-81107396D01*
X188265785Y-85677464D02*
X174931281Y-85677464D01*
X188265785Y-90215459D02*
X174931281Y-90215459D01*
X188265785Y-92428319D02*
X174931281Y-92428319D01*
X188265785Y-96998387D02*
X174931281Y-96998387D01*
X188265785Y-101456242D02*
X174931281Y-101456242D01*
X188265785Y-103669103D02*
X174931281Y-103669103D01*
X188265785Y-108239171D02*
X174931281Y-108239171D01*
X188265785Y-112697087D02*
X174931281Y-112697087D01*
X188265785Y-114909947D02*
X174931281Y-114909947D01*
X188265785Y-119480016D02*
X174931281Y-119480016D01*
X188265785Y-124034123D02*
X174931281Y-124034123D01*
X188265785Y-126246983D02*
X174931281Y-126246983D01*
X188265785Y-130817052D02*
X174931281Y-130817052D01*
X188265785Y-135210820D02*
X174931281Y-135210820D01*
X188265785Y-137423680D02*
X174931281Y-137423680D01*
X188265785Y-141993749D02*
X174931281Y-141993749D01*
X188265785Y-148792729D02*
X174931312Y-148792729D01*
X188265785Y-153362798D02*
X174931281Y-153362798D01*
X188265785Y-157788609D02*
X174931281Y-157788609D01*
X188265785Y-160001469D02*
X174931281Y-160001469D01*
X188265785Y-164571538D02*
X174931281Y-164571538D01*
X188265785Y-168997380D02*
X174931281Y-168997380D01*
X188265785Y-171210240D02*
X174931281Y-171210240D01*
X188265785Y-175780309D02*
X174931281Y-175780309D01*
X188265785Y-180350469D02*
X174931281Y-180350469D01*
X188265785Y-182563329D02*
X174931281Y-182563329D01*
X188265785Y-187133397D02*
X174931281Y-187133397D01*
X188265785Y-191623387D02*
X174931281Y-191623387D01*
X188265785Y-193836247D02*
X174931281Y-193836247D01*
X188265785Y-198406316D02*
X174931281Y-198406316D01*
X188265785Y-202832158D02*
X174931281Y-202832158D01*
X188265785Y-205045018D02*
X174931281Y-205045018D01*
X188265785Y-209615086D02*
X174931281Y-209615086D01*
X188265815Y-146579778D02*
X174931312Y-146579778D01*
D15*
X188294685Y-216153294D02*
X173445031Y-214104635D01*
X159061439Y-212120274D01*
M02*
