%TF.GenerationSoftware,KiCad,Pcbnew,9.0.8+1*%
%TF.CreationDate,2026-10-08T21:21:41-04:00*%
%TF.ProjectId,om-84_strumplate,6f6d2d38-345f-4737-9472-756d706c6174,1.1*%
%TF.SameCoordinates,Original*%
%TF.FileFunction,Legend,Top*%
%TF.FilePolarity,Positive*%
%FSLAX46Y46*%
G04 Gerber Fmt 4.6, Leading zero omitted, Abs format (unit mm)*
G04 Created by KiCad (PCBNEW 9.0.8+1) date 2026-10-08 21:21:41*
%MOMM*%
%LPD*%
G01*
G04 APERTURE LIST*
%ADD10C,0.300000*%
%ADD11C,0.180000*%
%ADD12C,0.160000*%
%ADD13C,0.150000*%
%ADD14C,0.200000*%
%ADD15C,0.000000*%
%ADD16C,0.250000*%
G04 APERTURE END LIST*
D10*
X114323809Y-144309638D02*
X114704762Y-144309638D01*
X114704762Y-144309638D02*
X114895238Y-144404876D01*
X114895238Y-144404876D02*
X115085714Y-144595352D01*
X115085714Y-144595352D02*
X115180952Y-144976304D01*
X115180952Y-144976304D02*
X115180952Y-145642971D01*
X115180952Y-145642971D02*
X115085714Y-146023923D01*
X115085714Y-146023923D02*
X114895238Y-146214400D01*
X114895238Y-146214400D02*
X114704762Y-146309638D01*
X114704762Y-146309638D02*
X114323809Y-146309638D01*
X114323809Y-146309638D02*
X114133333Y-146214400D01*
X114133333Y-146214400D02*
X113942857Y-146023923D01*
X113942857Y-146023923D02*
X113847619Y-145642971D01*
X113847619Y-145642971D02*
X113847619Y-144976304D01*
X113847619Y-144976304D02*
X113942857Y-144595352D01*
X113942857Y-144595352D02*
X114133333Y-144404876D01*
X114133333Y-144404876D02*
X114323809Y-144309638D01*
X116038095Y-146309638D02*
X116038095Y-144309638D01*
X116038095Y-144309638D02*
X116704762Y-145738209D01*
X116704762Y-145738209D02*
X117371428Y-144309638D01*
X117371428Y-144309638D02*
X117371428Y-146309638D01*
X118323809Y-145547733D02*
X119847619Y-145547733D01*
X121085713Y-145166780D02*
X120895237Y-145071542D01*
X120895237Y-145071542D02*
X120799999Y-144976304D01*
X120799999Y-144976304D02*
X120704761Y-144785828D01*
X120704761Y-144785828D02*
X120704761Y-144690590D01*
X120704761Y-144690590D02*
X120799999Y-144500114D01*
X120799999Y-144500114D02*
X120895237Y-144404876D01*
X120895237Y-144404876D02*
X121085713Y-144309638D01*
X121085713Y-144309638D02*
X121466666Y-144309638D01*
X121466666Y-144309638D02*
X121657142Y-144404876D01*
X121657142Y-144404876D02*
X121752380Y-144500114D01*
X121752380Y-144500114D02*
X121847618Y-144690590D01*
X121847618Y-144690590D02*
X121847618Y-144785828D01*
X121847618Y-144785828D02*
X121752380Y-144976304D01*
X121752380Y-144976304D02*
X121657142Y-145071542D01*
X121657142Y-145071542D02*
X121466666Y-145166780D01*
X121466666Y-145166780D02*
X121085713Y-145166780D01*
X121085713Y-145166780D02*
X120895237Y-145262019D01*
X120895237Y-145262019D02*
X120799999Y-145357257D01*
X120799999Y-145357257D02*
X120704761Y-145547733D01*
X120704761Y-145547733D02*
X120704761Y-145928685D01*
X120704761Y-145928685D02*
X120799999Y-146119161D01*
X120799999Y-146119161D02*
X120895237Y-146214400D01*
X120895237Y-146214400D02*
X121085713Y-146309638D01*
X121085713Y-146309638D02*
X121466666Y-146309638D01*
X121466666Y-146309638D02*
X121657142Y-146214400D01*
X121657142Y-146214400D02*
X121752380Y-146119161D01*
X121752380Y-146119161D02*
X121847618Y-145928685D01*
X121847618Y-145928685D02*
X121847618Y-145547733D01*
X121847618Y-145547733D02*
X121752380Y-145357257D01*
X121752380Y-145357257D02*
X121657142Y-145262019D01*
X121657142Y-145262019D02*
X121466666Y-145166780D01*
X123561904Y-144976304D02*
X123561904Y-146309638D01*
X123085713Y-144214400D02*
X122609523Y-145642971D01*
X122609523Y-145642971D02*
X123847618Y-145642971D01*
D11*
X116971428Y-147945782D02*
X117371428Y-149145782D01*
X117371428Y-149145782D02*
X117771428Y-147945782D01*
X118799999Y-149145782D02*
X118114285Y-149145782D01*
X118457142Y-149145782D02*
X118457142Y-147945782D01*
X118457142Y-147945782D02*
X118342856Y-148117211D01*
X118342856Y-148117211D02*
X118228571Y-148231497D01*
X118228571Y-148231497D02*
X118114285Y-148288640D01*
X119314285Y-149031497D02*
X119371428Y-149088640D01*
X119371428Y-149088640D02*
X119314285Y-149145782D01*
X119314285Y-149145782D02*
X119257142Y-149088640D01*
X119257142Y-149088640D02*
X119314285Y-149031497D01*
X119314285Y-149031497D02*
X119314285Y-149145782D01*
X120514285Y-149145782D02*
X119828571Y-149145782D01*
X120171428Y-149145782D02*
X120171428Y-147945782D01*
X120171428Y-147945782D02*
X120057142Y-148117211D01*
X120057142Y-148117211D02*
X119942857Y-148231497D01*
X119942857Y-148231497D02*
X119828571Y-148288640D01*
D12*
X96045238Y-151668084D02*
X96045238Y-150368084D01*
X96788095Y-151668084D02*
X96230953Y-150925227D01*
X96788095Y-150368084D02*
X96045238Y-151110941D01*
X97840476Y-151606180D02*
X97716667Y-151668084D01*
X97716667Y-151668084D02*
X97469048Y-151668084D01*
X97469048Y-151668084D02*
X97345238Y-151606180D01*
X97345238Y-151606180D02*
X97283334Y-151482370D01*
X97283334Y-151482370D02*
X97283334Y-150987132D01*
X97283334Y-150987132D02*
X97345238Y-150863322D01*
X97345238Y-150863322D02*
X97469048Y-150801418D01*
X97469048Y-150801418D02*
X97716667Y-150801418D01*
X97716667Y-150801418D02*
X97840476Y-150863322D01*
X97840476Y-150863322D02*
X97902381Y-150987132D01*
X97902381Y-150987132D02*
X97902381Y-151110941D01*
X97902381Y-151110941D02*
X97283334Y-151234751D01*
X98335715Y-150801418D02*
X98645239Y-151668084D01*
X98954762Y-150801418D02*
X98645239Y-151668084D01*
X98645239Y-151668084D02*
X98521429Y-151977608D01*
X98521429Y-151977608D02*
X98459524Y-152039513D01*
X98459524Y-152039513D02*
X98335715Y-152101418D01*
X101492857Y-151668084D02*
X101430953Y-151668084D01*
X101430953Y-151668084D02*
X101307143Y-151606180D01*
X101307143Y-151606180D02*
X101121429Y-151420465D01*
X101121429Y-151420465D02*
X100811905Y-151049037D01*
X100811905Y-151049037D02*
X100688095Y-150863322D01*
X100688095Y-150863322D02*
X100626191Y-150677608D01*
X100626191Y-150677608D02*
X100626191Y-150553799D01*
X100626191Y-150553799D02*
X100688095Y-150429989D01*
X100688095Y-150429989D02*
X100811905Y-150368084D01*
X100811905Y-150368084D02*
X100873810Y-150368084D01*
X100873810Y-150368084D02*
X100997619Y-150429989D01*
X100997619Y-150429989D02*
X101059524Y-150553799D01*
X101059524Y-150553799D02*
X101059524Y-150615703D01*
X101059524Y-150615703D02*
X100997619Y-150739513D01*
X100997619Y-150739513D02*
X100935714Y-150801418D01*
X100935714Y-150801418D02*
X100564286Y-151049037D01*
X100564286Y-151049037D02*
X100502381Y-151110941D01*
X100502381Y-151110941D02*
X100440476Y-151234751D01*
X100440476Y-151234751D02*
X100440476Y-151420465D01*
X100440476Y-151420465D02*
X100502381Y-151544275D01*
X100502381Y-151544275D02*
X100564286Y-151606180D01*
X100564286Y-151606180D02*
X100688095Y-151668084D01*
X100688095Y-151668084D02*
X100873810Y-151668084D01*
X100873810Y-151668084D02*
X100997619Y-151606180D01*
X100997619Y-151606180D02*
X101059524Y-151544275D01*
X101059524Y-151544275D02*
X101245238Y-151296656D01*
X101245238Y-151296656D02*
X101307143Y-151110941D01*
X101307143Y-151110941D02*
X101307143Y-150987132D01*
X103783333Y-151544275D02*
X103721429Y-151606180D01*
X103721429Y-151606180D02*
X103535714Y-151668084D01*
X103535714Y-151668084D02*
X103411905Y-151668084D01*
X103411905Y-151668084D02*
X103226191Y-151606180D01*
X103226191Y-151606180D02*
X103102381Y-151482370D01*
X103102381Y-151482370D02*
X103040476Y-151358560D01*
X103040476Y-151358560D02*
X102978572Y-151110941D01*
X102978572Y-151110941D02*
X102978572Y-150925227D01*
X102978572Y-150925227D02*
X103040476Y-150677608D01*
X103040476Y-150677608D02*
X103102381Y-150553799D01*
X103102381Y-150553799D02*
X103226191Y-150429989D01*
X103226191Y-150429989D02*
X103411905Y-150368084D01*
X103411905Y-150368084D02*
X103535714Y-150368084D01*
X103535714Y-150368084D02*
X103721429Y-150429989D01*
X103721429Y-150429989D02*
X103783333Y-150491894D01*
X104897619Y-151668084D02*
X104897619Y-150987132D01*
X104897619Y-150987132D02*
X104835714Y-150863322D01*
X104835714Y-150863322D02*
X104711905Y-150801418D01*
X104711905Y-150801418D02*
X104464286Y-150801418D01*
X104464286Y-150801418D02*
X104340476Y-150863322D01*
X104897619Y-151606180D02*
X104773810Y-151668084D01*
X104773810Y-151668084D02*
X104464286Y-151668084D01*
X104464286Y-151668084D02*
X104340476Y-151606180D01*
X104340476Y-151606180D02*
X104278572Y-151482370D01*
X104278572Y-151482370D02*
X104278572Y-151358560D01*
X104278572Y-151358560D02*
X104340476Y-151234751D01*
X104340476Y-151234751D02*
X104464286Y-151172846D01*
X104464286Y-151172846D02*
X104773810Y-151172846D01*
X104773810Y-151172846D02*
X104897619Y-151110941D01*
X105516666Y-151668084D02*
X105516666Y-150368084D01*
X105516666Y-150863322D02*
X105640476Y-150801418D01*
X105640476Y-150801418D02*
X105888095Y-150801418D01*
X105888095Y-150801418D02*
X106011904Y-150863322D01*
X106011904Y-150863322D02*
X106073809Y-150925227D01*
X106073809Y-150925227D02*
X106135714Y-151049037D01*
X106135714Y-151049037D02*
X106135714Y-151420465D01*
X106135714Y-151420465D02*
X106073809Y-151544275D01*
X106073809Y-151544275D02*
X106011904Y-151606180D01*
X106011904Y-151606180D02*
X105888095Y-151668084D01*
X105888095Y-151668084D02*
X105640476Y-151668084D01*
X105640476Y-151668084D02*
X105516666Y-151606180D01*
X106878571Y-151668084D02*
X106754761Y-151606180D01*
X106754761Y-151606180D02*
X106692856Y-151482370D01*
X106692856Y-151482370D02*
X106692856Y-150368084D01*
X107869046Y-151606180D02*
X107745237Y-151668084D01*
X107745237Y-151668084D02*
X107497618Y-151668084D01*
X107497618Y-151668084D02*
X107373808Y-151606180D01*
X107373808Y-151606180D02*
X107311904Y-151482370D01*
X107311904Y-151482370D02*
X107311904Y-150987132D01*
X107311904Y-150987132D02*
X107373808Y-150863322D01*
X107373808Y-150863322D02*
X107497618Y-150801418D01*
X107497618Y-150801418D02*
X107745237Y-150801418D01*
X107745237Y-150801418D02*
X107869046Y-150863322D01*
X107869046Y-150863322D02*
X107930951Y-150987132D01*
X107930951Y-150987132D02*
X107930951Y-151110941D01*
X107930951Y-151110941D02*
X107311904Y-151234751D01*
X110221427Y-151544275D02*
X110159523Y-151606180D01*
X110159523Y-151606180D02*
X109973808Y-151668084D01*
X109973808Y-151668084D02*
X109849999Y-151668084D01*
X109849999Y-151668084D02*
X109664285Y-151606180D01*
X109664285Y-151606180D02*
X109540475Y-151482370D01*
X109540475Y-151482370D02*
X109478570Y-151358560D01*
X109478570Y-151358560D02*
X109416666Y-151110941D01*
X109416666Y-151110941D02*
X109416666Y-150925227D01*
X109416666Y-150925227D02*
X109478570Y-150677608D01*
X109478570Y-150677608D02*
X109540475Y-150553799D01*
X109540475Y-150553799D02*
X109664285Y-150429989D01*
X109664285Y-150429989D02*
X109849999Y-150368084D01*
X109849999Y-150368084D02*
X109973808Y-150368084D01*
X109973808Y-150368084D02*
X110159523Y-150429989D01*
X110159523Y-150429989D02*
X110221427Y-150491894D01*
X110964285Y-151668084D02*
X110840475Y-151606180D01*
X110840475Y-151606180D02*
X110778570Y-151544275D01*
X110778570Y-151544275D02*
X110716666Y-151420465D01*
X110716666Y-151420465D02*
X110716666Y-151049037D01*
X110716666Y-151049037D02*
X110778570Y-150925227D01*
X110778570Y-150925227D02*
X110840475Y-150863322D01*
X110840475Y-150863322D02*
X110964285Y-150801418D01*
X110964285Y-150801418D02*
X111149999Y-150801418D01*
X111149999Y-150801418D02*
X111273808Y-150863322D01*
X111273808Y-150863322D02*
X111335713Y-150925227D01*
X111335713Y-150925227D02*
X111397618Y-151049037D01*
X111397618Y-151049037D02*
X111397618Y-151420465D01*
X111397618Y-151420465D02*
X111335713Y-151544275D01*
X111335713Y-151544275D02*
X111273808Y-151606180D01*
X111273808Y-151606180D02*
X111149999Y-151668084D01*
X111149999Y-151668084D02*
X110964285Y-151668084D01*
X111954760Y-151544275D02*
X112016665Y-151606180D01*
X112016665Y-151606180D02*
X111954760Y-151668084D01*
X111954760Y-151668084D02*
X111892856Y-151606180D01*
X111892856Y-151606180D02*
X111954760Y-151544275D01*
X111954760Y-151544275D02*
X111954760Y-151668084D01*
D13*
X96628573Y-153572342D02*
X96628573Y-152372342D01*
X96742859Y-153115200D02*
X97085716Y-153572342D01*
X97085716Y-152772342D02*
X96628573Y-153229485D01*
X98057145Y-153515200D02*
X97942859Y-153572342D01*
X97942859Y-153572342D02*
X97714288Y-153572342D01*
X97714288Y-153572342D02*
X97600002Y-153515200D01*
X97600002Y-153515200D02*
X97542859Y-153400914D01*
X97542859Y-153400914D02*
X97542859Y-152943771D01*
X97542859Y-152943771D02*
X97600002Y-152829485D01*
X97600002Y-152829485D02*
X97714288Y-152772342D01*
X97714288Y-152772342D02*
X97942859Y-152772342D01*
X97942859Y-152772342D02*
X98057145Y-152829485D01*
X98057145Y-152829485D02*
X98114288Y-152943771D01*
X98114288Y-152943771D02*
X98114288Y-153058057D01*
X98114288Y-153058057D02*
X97542859Y-153172342D01*
X98514287Y-152772342D02*
X98800001Y-153572342D01*
X99085716Y-152772342D02*
X98800001Y-153572342D01*
X98800001Y-153572342D02*
X98685716Y-153858057D01*
X98685716Y-153858057D02*
X98628573Y-153915200D01*
X98628573Y-153915200D02*
X98514287Y-153972342D01*
X100057145Y-153572342D02*
X100057145Y-152943771D01*
X100057145Y-152943771D02*
X100000002Y-152829485D01*
X100000002Y-152829485D02*
X99885716Y-152772342D01*
X99885716Y-152772342D02*
X99657145Y-152772342D01*
X99657145Y-152772342D02*
X99542859Y-152829485D01*
X100057145Y-153515200D02*
X99942859Y-153572342D01*
X99942859Y-153572342D02*
X99657145Y-153572342D01*
X99657145Y-153572342D02*
X99542859Y-153515200D01*
X99542859Y-153515200D02*
X99485716Y-153400914D01*
X99485716Y-153400914D02*
X99485716Y-153286628D01*
X99485716Y-153286628D02*
X99542859Y-153172342D01*
X99542859Y-153172342D02*
X99657145Y-153115200D01*
X99657145Y-153115200D02*
X99942859Y-153115200D01*
X99942859Y-153115200D02*
X100057145Y-153058057D01*
X100628573Y-152772342D02*
X100628573Y-153572342D01*
X100628573Y-152886628D02*
X100685716Y-152829485D01*
X100685716Y-152829485D02*
X100800001Y-152772342D01*
X100800001Y-152772342D02*
X100971430Y-152772342D01*
X100971430Y-152772342D02*
X101085716Y-152829485D01*
X101085716Y-152829485D02*
X101142859Y-152943771D01*
X101142859Y-152943771D02*
X101142859Y-153572342D01*
X102228573Y-153572342D02*
X102228573Y-152372342D01*
X102228573Y-153515200D02*
X102114287Y-153572342D01*
X102114287Y-153572342D02*
X101885715Y-153572342D01*
X101885715Y-153572342D02*
X101771430Y-153515200D01*
X101771430Y-153515200D02*
X101714287Y-153458057D01*
X101714287Y-153458057D02*
X101657144Y-153343771D01*
X101657144Y-153343771D02*
X101657144Y-153000914D01*
X101657144Y-153000914D02*
X101714287Y-152886628D01*
X101714287Y-152886628D02*
X101771430Y-152829485D01*
X101771430Y-152829485D02*
X101885715Y-152772342D01*
X101885715Y-152772342D02*
X102114287Y-152772342D01*
X102114287Y-152772342D02*
X102228573Y-152829485D01*
X103314287Y-153515200D02*
X103200001Y-153572342D01*
X103200001Y-153572342D02*
X102971429Y-153572342D01*
X102971429Y-153572342D02*
X102857144Y-153515200D01*
X102857144Y-153515200D02*
X102800001Y-153458057D01*
X102800001Y-153458057D02*
X102742858Y-153343771D01*
X102742858Y-153343771D02*
X102742858Y-153000914D01*
X102742858Y-153000914D02*
X102800001Y-152886628D01*
X102800001Y-152886628D02*
X102857144Y-152829485D01*
X102857144Y-152829485D02*
X102971429Y-152772342D01*
X102971429Y-152772342D02*
X103200001Y-152772342D01*
X103200001Y-152772342D02*
X103314287Y-152829485D01*
X104342858Y-153572342D02*
X104342858Y-152943771D01*
X104342858Y-152943771D02*
X104285715Y-152829485D01*
X104285715Y-152829485D02*
X104171429Y-152772342D01*
X104171429Y-152772342D02*
X103942858Y-152772342D01*
X103942858Y-152772342D02*
X103828572Y-152829485D01*
X104342858Y-153515200D02*
X104228572Y-153572342D01*
X104228572Y-153572342D02*
X103942858Y-153572342D01*
X103942858Y-153572342D02*
X103828572Y-153515200D01*
X103828572Y-153515200D02*
X103771429Y-153400914D01*
X103771429Y-153400914D02*
X103771429Y-153286628D01*
X103771429Y-153286628D02*
X103828572Y-153172342D01*
X103828572Y-153172342D02*
X103942858Y-153115200D01*
X103942858Y-153115200D02*
X104228572Y-153115200D01*
X104228572Y-153115200D02*
X104342858Y-153058057D01*
X104914286Y-153572342D02*
X104914286Y-152372342D01*
X104914286Y-152829485D02*
X105028572Y-152772342D01*
X105028572Y-152772342D02*
X105257143Y-152772342D01*
X105257143Y-152772342D02*
X105371429Y-152829485D01*
X105371429Y-152829485D02*
X105428572Y-152886628D01*
X105428572Y-152886628D02*
X105485714Y-153000914D01*
X105485714Y-153000914D02*
X105485714Y-153343771D01*
X105485714Y-153343771D02*
X105428572Y-153458057D01*
X105428572Y-153458057D02*
X105371429Y-153515200D01*
X105371429Y-153515200D02*
X105257143Y-153572342D01*
X105257143Y-153572342D02*
X105028572Y-153572342D01*
X105028572Y-153572342D02*
X104914286Y-153515200D01*
X106171428Y-153572342D02*
X106057143Y-153515200D01*
X106057143Y-153515200D02*
X106000000Y-153400914D01*
X106000000Y-153400914D02*
X106000000Y-152372342D01*
X107085714Y-153515200D02*
X106971428Y-153572342D01*
X106971428Y-153572342D02*
X106742857Y-153572342D01*
X106742857Y-153572342D02*
X106628571Y-153515200D01*
X106628571Y-153515200D02*
X106571428Y-153400914D01*
X106571428Y-153400914D02*
X106571428Y-152943771D01*
X106571428Y-152943771D02*
X106628571Y-152829485D01*
X106628571Y-152829485D02*
X106742857Y-152772342D01*
X106742857Y-152772342D02*
X106971428Y-152772342D01*
X106971428Y-152772342D02*
X107085714Y-152829485D01*
X107085714Y-152829485D02*
X107142857Y-152943771D01*
X107142857Y-152943771D02*
X107142857Y-153058057D01*
X107142857Y-153058057D02*
X106571428Y-153172342D01*
X107657142Y-153458057D02*
X107714285Y-153515200D01*
X107714285Y-153515200D02*
X107657142Y-153572342D01*
X107657142Y-153572342D02*
X107599999Y-153515200D01*
X107599999Y-153515200D02*
X107657142Y-153458057D01*
X107657142Y-153458057D02*
X107657142Y-153572342D01*
X108742857Y-153515200D02*
X108628571Y-153572342D01*
X108628571Y-153572342D02*
X108399999Y-153572342D01*
X108399999Y-153572342D02*
X108285714Y-153515200D01*
X108285714Y-153515200D02*
X108228571Y-153458057D01*
X108228571Y-153458057D02*
X108171428Y-153343771D01*
X108171428Y-153343771D02*
X108171428Y-153000914D01*
X108171428Y-153000914D02*
X108228571Y-152886628D01*
X108228571Y-152886628D02*
X108285714Y-152829485D01*
X108285714Y-152829485D02*
X108399999Y-152772342D01*
X108399999Y-152772342D02*
X108628571Y-152772342D01*
X108628571Y-152772342D02*
X108742857Y-152829485D01*
X109428570Y-153572342D02*
X109314285Y-153515200D01*
X109314285Y-153515200D02*
X109257142Y-153458057D01*
X109257142Y-153458057D02*
X109199999Y-153343771D01*
X109199999Y-153343771D02*
X109199999Y-153000914D01*
X109199999Y-153000914D02*
X109257142Y-152886628D01*
X109257142Y-152886628D02*
X109314285Y-152829485D01*
X109314285Y-152829485D02*
X109428570Y-152772342D01*
X109428570Y-152772342D02*
X109599999Y-152772342D01*
X109599999Y-152772342D02*
X109714285Y-152829485D01*
X109714285Y-152829485D02*
X109771428Y-152886628D01*
X109771428Y-152886628D02*
X109828570Y-153000914D01*
X109828570Y-153000914D02*
X109828570Y-153343771D01*
X109828570Y-153343771D02*
X109771428Y-153458057D01*
X109771428Y-153458057D02*
X109714285Y-153515200D01*
X109714285Y-153515200D02*
X109599999Y-153572342D01*
X109599999Y-153572342D02*
X109428570Y-153572342D01*
X110342856Y-153572342D02*
X110342856Y-152772342D01*
X110342856Y-152886628D02*
X110399999Y-152829485D01*
X110399999Y-152829485D02*
X110514284Y-152772342D01*
X110514284Y-152772342D02*
X110685713Y-152772342D01*
X110685713Y-152772342D02*
X110799999Y-152829485D01*
X110799999Y-152829485D02*
X110857142Y-152943771D01*
X110857142Y-152943771D02*
X110857142Y-153572342D01*
X110857142Y-152943771D02*
X110914284Y-152829485D01*
X110914284Y-152829485D02*
X111028570Y-152772342D01*
X111028570Y-152772342D02*
X111199999Y-152772342D01*
X111199999Y-152772342D02*
X111314284Y-152829485D01*
X111314284Y-152829485D02*
X111371427Y-152943771D01*
X111371427Y-152943771D02*
X111371427Y-153572342D01*
D14*
%TO.C,REF\u002A\u002A*%
X105078800Y-149525000D02*
X102696500Y-149525000D01*
X102696500Y-139525000D01*
X105078800Y-139525000D01*
X105078800Y-149525000D01*
D15*
G36*
X105073700Y-145836600D02*
G01*
X103933600Y-145836600D01*
X103933600Y-139530100D01*
X105073700Y-139530100D01*
X105073700Y-145836600D01*
G37*
D16*
X101248900Y-142019900D02*
X101310200Y-141897400D01*
X101310200Y-141897400D02*
X101374800Y-141787900D01*
X101374800Y-141787900D02*
X101442000Y-141690700D01*
X101442000Y-141690700D02*
X101511600Y-141605100D01*
X101511600Y-141605100D02*
X101582900Y-141530400D01*
X101582900Y-141530400D02*
X101655400Y-141465900D01*
X101655400Y-141465900D02*
X101728800Y-141410900D01*
X101728800Y-141410900D02*
X101802500Y-141364800D01*
X101802500Y-141364800D02*
X101876100Y-141326900D01*
X101876100Y-141326900D02*
X101949000Y-141296400D01*
X101949000Y-141296400D02*
X102020800Y-141272700D01*
X102020800Y-141272700D02*
X102091000Y-141255000D01*
X102091000Y-141255000D02*
X102159100Y-141242800D01*
X102159100Y-141242800D02*
X102224600Y-141235300D01*
X102224600Y-141235300D02*
X102287100Y-141231800D01*
X102287100Y-141231800D02*
X102346100Y-141231600D01*
X102346100Y-141231600D02*
X102401100Y-141234100D01*
X102401100Y-141234100D02*
X102451600Y-141238500D01*
X102451600Y-141238500D02*
X102497100Y-141244200D01*
X102497100Y-141244200D02*
X102537200Y-141250500D01*
X102537200Y-141250500D02*
X102571300Y-141256600D01*
X102571300Y-141256600D02*
X102599000Y-141262000D01*
X102599000Y-141262000D02*
X102619900Y-141265900D01*
X102619900Y-141265900D02*
X102633400Y-141267600D01*
X105142700Y-141842400D02*
X105164900Y-141847000D01*
X105164900Y-141847000D02*
X105206800Y-141860900D01*
X105206800Y-141860900D02*
X105266700Y-141883600D01*
X105266700Y-141883600D02*
X105343000Y-141914000D01*
X105343000Y-141914000D02*
X105433700Y-141951500D01*
X105433700Y-141951500D02*
X105537300Y-141995100D01*
X105537300Y-141995100D02*
X105651800Y-142044200D01*
X105651800Y-142044200D02*
X105775700Y-142097800D01*
X105775700Y-142097800D02*
X105907000Y-142155200D01*
X105907000Y-142155200D02*
X106044200Y-142215500D01*
X106044200Y-142215500D02*
X106185400Y-142277900D01*
X106185400Y-142277900D02*
X106328800Y-142341700D01*
X106328800Y-142341700D02*
X106472800Y-142405900D01*
X106472800Y-142405900D02*
X106615500Y-142469900D01*
X106615500Y-142469900D02*
X106755300Y-142532700D01*
X106755300Y-142532700D02*
X106890300Y-142593600D01*
X106890300Y-142593600D02*
X107018900Y-142651800D01*
X107018900Y-142651800D02*
X107139200Y-142706300D01*
X107139200Y-142706300D02*
X107249500Y-142756500D01*
X107249500Y-142756500D02*
X107348100Y-142801500D01*
X107348100Y-142801500D02*
X107433200Y-142840500D01*
X107433200Y-142840500D02*
X107503100Y-142872700D01*
X107503100Y-142872700D02*
X107556000Y-142897300D01*
X107556000Y-142897300D02*
X107590100Y-142913400D01*
X107590100Y-142913400D02*
X107786300Y-143025900D01*
X107786300Y-143025900D02*
X107940100Y-143153300D01*
X107940100Y-143153300D02*
X108052400Y-143294100D01*
X108052400Y-143294100D02*
X108124100Y-143446600D01*
X108124100Y-143446600D02*
X108156400Y-143609300D01*
X108156400Y-143609300D02*
X108150200Y-143780500D01*
X108150200Y-143780500D02*
X108106400Y-143958500D01*
X108106400Y-143958500D02*
X108026100Y-144141900D01*
X108026100Y-144141900D02*
X107910300Y-144328900D01*
X107910300Y-144328900D02*
X107760000Y-144518000D01*
X107760000Y-144518000D02*
X107576100Y-144707500D01*
X107576100Y-144707500D02*
X107359700Y-144895900D01*
X107359700Y-144895900D02*
X107111700Y-145081500D01*
X107111700Y-145081500D02*
X106833100Y-145262800D01*
X106833100Y-145262800D02*
X106525000Y-145438000D01*
X106525000Y-145438000D02*
X106188300Y-145605600D01*
X106188300Y-145605600D02*
X105824000Y-145764000D01*
X105824000Y-145764000D02*
X105433100Y-145911600D01*
X105433100Y-145911600D02*
X105016600Y-146046800D01*
X105016600Y-146046800D02*
X104575400Y-146167800D01*
X104575400Y-146167800D02*
X104110700Y-146273300D01*
X104110700Y-146273300D02*
X103623300Y-146361400D01*
X103623300Y-146361400D02*
X103114300Y-146430700D01*
X103114300Y-146430700D02*
X102584600Y-146479500D01*
X102584600Y-146479500D02*
X102480000Y-146486800D01*
X102480000Y-146486800D02*
X102372900Y-146494300D01*
X102372900Y-146494300D02*
X102263900Y-146502000D01*
X102263900Y-146502000D02*
X102153800Y-146510000D01*
X102153800Y-146510000D02*
X102043100Y-146518300D01*
X102043100Y-146518300D02*
X101932700Y-146527100D01*
X101932700Y-146527100D02*
X101823100Y-146536300D01*
X101823100Y-146536300D02*
X101715000Y-146546100D01*
X101715000Y-146546100D02*
X101609100Y-146556400D01*
X101609100Y-146556400D02*
X101506200Y-146567500D01*
X101506200Y-146567500D02*
X101406800Y-146579200D01*
X101406800Y-146579200D02*
X101311700Y-146591800D01*
X101311700Y-146591800D02*
X101221400Y-146605200D01*
X101221400Y-146605200D02*
X101136800Y-146619500D01*
X101136800Y-146619500D02*
X101058500Y-146634700D01*
X101058500Y-146634700D02*
X100987200Y-146651100D01*
X100987200Y-146651100D02*
X100923400Y-146668500D01*
X100923400Y-146668500D02*
X100868000Y-146687100D01*
X100868000Y-146687100D02*
X100821600Y-146706900D01*
X100821600Y-146706900D02*
X100784900Y-146728000D01*
X100784900Y-146728000D02*
X100758500Y-146750400D01*
X100758500Y-146750400D02*
X100743100Y-146774200D01*
X100743100Y-146774200D02*
X100739400Y-146799600D01*
X100739400Y-146799600D02*
X100748200Y-146826400D01*
X100748200Y-146826400D02*
X100774500Y-146864900D01*
X100774500Y-146864900D02*
X100811200Y-146904100D01*
X100811200Y-146904100D02*
X100857700Y-146944000D01*
X100857700Y-146944000D02*
X100913100Y-146984200D01*
X100913100Y-146984200D02*
X100976500Y-147024600D01*
X100976500Y-147024600D02*
X101047200Y-147064900D01*
X101047200Y-147064900D02*
X101124400Y-147105000D01*
X101124400Y-147105000D02*
X101207300Y-147144500D01*
X101207300Y-147144500D02*
X101295000Y-147183400D01*
X101295000Y-147183400D02*
X101386800Y-147221300D01*
X101386800Y-147221300D02*
X101481900Y-147258100D01*
X101481900Y-147258100D02*
X101579400Y-147293500D01*
X101579400Y-147293500D02*
X101678500Y-147327300D01*
X101678500Y-147327300D02*
X101778500Y-147359400D01*
X101778500Y-147359400D02*
X101878600Y-147389400D01*
X101878600Y-147389400D02*
X101977900Y-147417100D01*
X101977900Y-147417100D02*
X102075600Y-147442500D01*
X102075600Y-147442500D02*
X102170900Y-147465100D01*
X102170900Y-147465100D02*
X102263100Y-147484900D01*
X102263100Y-147484900D02*
X102351300Y-147501500D01*
X102351300Y-147501500D02*
X102434700Y-147514800D01*
X102434700Y-147514800D02*
X102512500Y-147524600D01*
X102512500Y-147524600D02*
X102584000Y-147530600D01*
X102584000Y-147530600D02*
X102648200Y-147532700D01*
X105140100Y-147940500D02*
X105241000Y-147950200D01*
X105241000Y-147950200D02*
X105326800Y-147972400D01*
X105326800Y-147972400D02*
X105398800Y-148005600D01*
X105398800Y-148005600D02*
X105458200Y-148048000D01*
X105458200Y-148048000D02*
X105506100Y-148098200D01*
X105506100Y-148098200D02*
X105544000Y-148154500D01*
X105544000Y-148154500D02*
X105572800Y-148215300D01*
X105572800Y-148215300D02*
X105594000Y-148279000D01*
X105594000Y-148279000D02*
X105608700Y-148343900D01*
X105608700Y-148343900D02*
X105618200Y-148408600D01*
X105618200Y-148408600D02*
X105623700Y-148471300D01*
X105623700Y-148471300D02*
X105626500Y-148530400D01*
X105626500Y-148530400D02*
X105627700Y-148584500D01*
X105627700Y-148584500D02*
X105628600Y-148631700D01*
X105628600Y-148631700D02*
X105630400Y-148670600D01*
X105630400Y-148670600D02*
X105634400Y-148699600D01*
X105634400Y-148699600D02*
X105641800Y-148716900D01*
X105641800Y-148716900D02*
X105653900Y-148721100D01*
X105653900Y-148721100D02*
X105671800Y-148710500D01*
X105671800Y-148710500D02*
X105696700Y-148683500D01*
X105696700Y-148683500D02*
X105730100Y-148638400D01*
X105730100Y-148638400D02*
X105772900Y-148573800D01*
X105772900Y-148573800D02*
X105826600Y-148488000D01*
X105826600Y-148488000D02*
X105892300Y-148379300D01*
X105892300Y-148379300D02*
X105904900Y-148366700D01*
X105904900Y-148366700D02*
X105922000Y-148362700D01*
X105922000Y-148362700D02*
X105943500Y-148366400D01*
X105943500Y-148366400D02*
X105969000Y-148377000D01*
X105969000Y-148377000D02*
X105998400Y-148393400D01*
X105998400Y-148393400D02*
X106031600Y-148414900D01*
X106031600Y-148414900D02*
X106068100Y-148440600D01*
X106068100Y-148440600D02*
X106108000Y-148469500D01*
X106108000Y-148469500D02*
X106150900Y-148500900D01*
X106150900Y-148500900D02*
X106196600Y-148533700D01*
X106196600Y-148533700D02*
X106244900Y-148567200D01*
X106244900Y-148567200D02*
X106295600Y-148600500D01*
X106295600Y-148600500D02*
X106348500Y-148632600D01*
X106348500Y-148632600D02*
X106403300Y-148662800D01*
X106403300Y-148662800D02*
X106459900Y-148690000D01*
X106459900Y-148690000D02*
X106518100Y-148713400D01*
X106518100Y-148713400D02*
X106577600Y-148732200D01*
X106577600Y-148732200D02*
X106638200Y-148745500D01*
X106638200Y-148745500D02*
X106699700Y-148752300D01*
X106699700Y-148752300D02*
X106761900Y-148751800D01*
X106761900Y-148751800D02*
X106824600Y-148743100D01*
X106824600Y-148743100D02*
X106887600Y-148725400D01*
X106887600Y-148725400D02*
X106950600Y-148697700D01*
X106950600Y-148697700D02*
X107013400Y-148659200D01*
D15*
G36*
X101464400Y-142199700D02*
G01*
X100828800Y-143493800D01*
X100343500Y-143255400D01*
X100979100Y-141961300D01*
X101464400Y-142199700D01*
G37*
G36*
X100706200Y-143542200D02*
G01*
X100274700Y-144420800D01*
X99945200Y-144258900D01*
X100376700Y-143380300D01*
X100706200Y-143542200D01*
G37*
G36*
X100062300Y-144440800D02*
G01*
X100281000Y-144548100D01*
X100078600Y-144683800D01*
X99876300Y-144819500D01*
X99859900Y-144576500D01*
X99843600Y-144333400D01*
X100062300Y-144440800D01*
G37*
G36*
X125620000Y-138695000D02*
G01*
X141380000Y-138695000D01*
X141380000Y-139155000D01*
X125620000Y-139155000D01*
X125620000Y-138695000D01*
G37*
G36*
X125620000Y-139145000D02*
G01*
X141380000Y-139145000D01*
X141380000Y-139605000D01*
X125620000Y-139605000D01*
X125620000Y-139145000D01*
G37*
G36*
X125620000Y-139595000D02*
G01*
X141380000Y-139595000D01*
X141380000Y-140055000D01*
X125620000Y-140055000D01*
X125620000Y-139595000D01*
G37*
G36*
X125620000Y-140045000D02*
G01*
X126980000Y-140045000D01*
X126980000Y-140505000D01*
X125620000Y-140505000D01*
X125620000Y-140045000D01*
G37*
G36*
X130120000Y-140045000D02*
G01*
X131030000Y-140045000D01*
X131030000Y-140505000D01*
X130120000Y-140505000D01*
X130120000Y-140045000D01*
G37*
G36*
X131470000Y-140045000D02*
G01*
X131930000Y-140045000D01*
X131930000Y-140505000D01*
X131470000Y-140505000D01*
X131470000Y-140045000D01*
G37*
G36*
X133720000Y-140045000D02*
G01*
X135080000Y-140045000D01*
X135080000Y-140505000D01*
X133720000Y-140505000D01*
X133720000Y-140045000D01*
G37*
G36*
X136420000Y-140045000D02*
G01*
X136880000Y-140045000D01*
X136880000Y-140505000D01*
X136420000Y-140505000D01*
X136420000Y-140045000D01*
G37*
G36*
X140020000Y-140045000D02*
G01*
X141380000Y-140045000D01*
X141380000Y-140505000D01*
X140020000Y-140505000D01*
X140020000Y-140045000D01*
G37*
G36*
X125620000Y-140495000D02*
G01*
X126980000Y-140495000D01*
X126980000Y-140955000D01*
X125620000Y-140955000D01*
X125620000Y-140495000D01*
G37*
G36*
X127420000Y-140495000D02*
G01*
X129680000Y-140495000D01*
X129680000Y-140955000D01*
X127420000Y-140955000D01*
X127420000Y-140495000D01*
G37*
G36*
X130120000Y-140495000D02*
G01*
X130580000Y-140495000D01*
X130580000Y-140955000D01*
X130120000Y-140955000D01*
X130120000Y-140495000D01*
G37*
G36*
X131020000Y-140495000D02*
G01*
X132380000Y-140495000D01*
X132380000Y-140955000D01*
X131020000Y-140955000D01*
X131020000Y-140495000D01*
G37*
G36*
X132820000Y-140495000D02*
G01*
X133730000Y-140495000D01*
X133730000Y-140955000D01*
X132820000Y-140955000D01*
X132820000Y-140495000D01*
G37*
G36*
X134170000Y-140495000D02*
G01*
X135980000Y-140495000D01*
X135980000Y-140955000D01*
X134170000Y-140955000D01*
X134170000Y-140495000D01*
G37*
G36*
X136420000Y-140495000D02*
G01*
X136880000Y-140495000D01*
X136880000Y-140955000D01*
X136420000Y-140955000D01*
X136420000Y-140495000D01*
G37*
G36*
X137320000Y-140495000D02*
G01*
X139580000Y-140495000D01*
X139580000Y-140955000D01*
X137320000Y-140955000D01*
X137320000Y-140495000D01*
G37*
G36*
X140020000Y-140495000D02*
G01*
X141380000Y-140495000D01*
X141380000Y-140955000D01*
X140020000Y-140955000D01*
X140020000Y-140495000D01*
G37*
G36*
X125620000Y-140945000D02*
G01*
X126980000Y-140945000D01*
X126980000Y-141405000D01*
X125620000Y-141405000D01*
X125620000Y-140945000D01*
G37*
G36*
X127420000Y-140945000D02*
G01*
X127880000Y-140945000D01*
X127880000Y-141405000D01*
X127420000Y-141405000D01*
X127420000Y-140945000D01*
G37*
G36*
X129220000Y-140945000D02*
G01*
X129680000Y-140945000D01*
X129680000Y-141405000D01*
X129220000Y-141405000D01*
X129220000Y-140945000D01*
G37*
G36*
X130120000Y-140945000D02*
G01*
X130580000Y-140945000D01*
X130580000Y-141405000D01*
X130120000Y-141405000D01*
X130120000Y-140945000D01*
G37*
G36*
X131020000Y-140945000D02*
G01*
X131930000Y-140945000D01*
X131930000Y-141405000D01*
X131020000Y-141405000D01*
X131020000Y-140945000D01*
G37*
G36*
X132370000Y-140945000D02*
G01*
X132830000Y-140945000D01*
X132830000Y-141405000D01*
X132370000Y-141405000D01*
X132370000Y-140945000D01*
G37*
G36*
X133720000Y-140945000D02*
G01*
X134180000Y-140945000D01*
X134180000Y-141405000D01*
X133720000Y-141405000D01*
X133720000Y-140945000D01*
G37*
G36*
X135070000Y-140945000D02*
G01*
X135530000Y-140945000D01*
X135530000Y-141405000D01*
X135070000Y-141405000D01*
X135070000Y-140945000D01*
G37*
G36*
X135970000Y-140945000D02*
G01*
X136880000Y-140945000D01*
X136880000Y-141405000D01*
X135970000Y-141405000D01*
X135970000Y-140945000D01*
G37*
G36*
X137320000Y-140945000D02*
G01*
X137780000Y-140945000D01*
X137780000Y-141405000D01*
X137320000Y-141405000D01*
X137320000Y-140945000D01*
G37*
G36*
X139120000Y-140945000D02*
G01*
X139580000Y-140945000D01*
X139580000Y-141405000D01*
X139120000Y-141405000D01*
X139120000Y-140945000D01*
G37*
G36*
X140020000Y-140945000D02*
G01*
X141380000Y-140945000D01*
X141380000Y-141405000D01*
X140020000Y-141405000D01*
X140020000Y-140945000D01*
G37*
G36*
X125620000Y-141395000D02*
G01*
X126980000Y-141395000D01*
X126980000Y-141855000D01*
X125620000Y-141855000D01*
X125620000Y-141395000D01*
G37*
G36*
X127420000Y-141395000D02*
G01*
X127880000Y-141395000D01*
X127880000Y-141855000D01*
X127420000Y-141855000D01*
X127420000Y-141395000D01*
G37*
G36*
X129220000Y-141395000D02*
G01*
X129680000Y-141395000D01*
X129680000Y-141855000D01*
X129220000Y-141855000D01*
X129220000Y-141395000D01*
G37*
G36*
X130120000Y-141395000D02*
G01*
X130580000Y-141395000D01*
X130580000Y-141855000D01*
X130120000Y-141855000D01*
X130120000Y-141395000D01*
G37*
G36*
X131920000Y-141395000D02*
G01*
X132380000Y-141395000D01*
X132380000Y-141855000D01*
X131920000Y-141855000D01*
X131920000Y-141395000D01*
G37*
G36*
X132820000Y-141395000D02*
G01*
X133730000Y-141395000D01*
X133730000Y-141855000D01*
X132820000Y-141855000D01*
X132820000Y-141395000D01*
G37*
G36*
X136420000Y-141395000D02*
G01*
X136880000Y-141395000D01*
X136880000Y-141855000D01*
X136420000Y-141855000D01*
X136420000Y-141395000D01*
G37*
G36*
X137320000Y-141395000D02*
G01*
X137780000Y-141395000D01*
X137780000Y-141855000D01*
X137320000Y-141855000D01*
X137320000Y-141395000D01*
G37*
G36*
X139120000Y-141395000D02*
G01*
X139580000Y-141395000D01*
X139580000Y-141855000D01*
X139120000Y-141855000D01*
X139120000Y-141395000D01*
G37*
G36*
X140020000Y-141395000D02*
G01*
X141380000Y-141395000D01*
X141380000Y-141855000D01*
X140020000Y-141855000D01*
X140020000Y-141395000D01*
G37*
G36*
X125620000Y-141845000D02*
G01*
X126980000Y-141845000D01*
X126980000Y-142305000D01*
X125620000Y-142305000D01*
X125620000Y-141845000D01*
G37*
G36*
X127420000Y-141845000D02*
G01*
X127880000Y-141845000D01*
X127880000Y-142305000D01*
X127420000Y-142305000D01*
X127420000Y-141845000D01*
G37*
G36*
X129220000Y-141845000D02*
G01*
X129680000Y-141845000D01*
X129680000Y-142305000D01*
X129220000Y-142305000D01*
X129220000Y-141845000D01*
G37*
G36*
X130120000Y-141845000D02*
G01*
X130580000Y-141845000D01*
X130580000Y-142305000D01*
X130120000Y-142305000D01*
X130120000Y-141845000D01*
G37*
G36*
X131020000Y-141845000D02*
G01*
X131480000Y-141845000D01*
X131480000Y-142305000D01*
X131020000Y-142305000D01*
X131020000Y-141845000D01*
G37*
G36*
X132820000Y-141845000D02*
G01*
X133280000Y-141845000D01*
X133280000Y-142305000D01*
X132820000Y-142305000D01*
X132820000Y-141845000D01*
G37*
G36*
X134170000Y-141845000D02*
G01*
X135080000Y-141845000D01*
X135080000Y-142305000D01*
X134170000Y-142305000D01*
X134170000Y-141845000D01*
G37*
G36*
X135520000Y-141845000D02*
G01*
X136880000Y-141845000D01*
X136880000Y-142305000D01*
X135520000Y-142305000D01*
X135520000Y-141845000D01*
G37*
G36*
X137320000Y-141845000D02*
G01*
X137780000Y-141845000D01*
X137780000Y-142305000D01*
X137320000Y-142305000D01*
X137320000Y-141845000D01*
G37*
G36*
X139120000Y-141845000D02*
G01*
X139580000Y-141845000D01*
X139580000Y-142305000D01*
X139120000Y-142305000D01*
X139120000Y-141845000D01*
G37*
G36*
X140020000Y-141845000D02*
G01*
X141380000Y-141845000D01*
X141380000Y-142305000D01*
X140020000Y-142305000D01*
X140020000Y-141845000D01*
G37*
G36*
X125620000Y-142295000D02*
G01*
X126980000Y-142295000D01*
X126980000Y-142755000D01*
X125620000Y-142755000D01*
X125620000Y-142295000D01*
G37*
G36*
X127420000Y-142295000D02*
G01*
X129680000Y-142295000D01*
X129680000Y-142755000D01*
X127420000Y-142755000D01*
X127420000Y-142295000D01*
G37*
G36*
X130120000Y-142295000D02*
G01*
X130580000Y-142295000D01*
X130580000Y-142755000D01*
X130120000Y-142755000D01*
X130120000Y-142295000D01*
G37*
G36*
X131020000Y-142295000D02*
G01*
X131930000Y-142295000D01*
X131930000Y-142755000D01*
X131020000Y-142755000D01*
X131020000Y-142295000D01*
G37*
G36*
X133270000Y-142295000D02*
G01*
X134630000Y-142295000D01*
X134630000Y-142755000D01*
X133270000Y-142755000D01*
X133270000Y-142295000D01*
G37*
G36*
X135520000Y-142295000D02*
G01*
X135980000Y-142295000D01*
X135980000Y-142755000D01*
X135520000Y-142755000D01*
X135520000Y-142295000D01*
G37*
G36*
X136420000Y-142295000D02*
G01*
X136880000Y-142295000D01*
X136880000Y-142755000D01*
X136420000Y-142755000D01*
X136420000Y-142295000D01*
G37*
G36*
X137320000Y-142295000D02*
G01*
X139580000Y-142295000D01*
X139580000Y-142755000D01*
X137320000Y-142755000D01*
X137320000Y-142295000D01*
G37*
G36*
X140020000Y-142295000D02*
G01*
X141380000Y-142295000D01*
X141380000Y-142755000D01*
X140020000Y-142755000D01*
X140020000Y-142295000D01*
G37*
G36*
X125620000Y-142745000D02*
G01*
X126980000Y-142745000D01*
X126980000Y-143205000D01*
X125620000Y-143205000D01*
X125620000Y-142745000D01*
G37*
G36*
X130120000Y-142745000D02*
G01*
X130580000Y-142745000D01*
X130580000Y-143205000D01*
X130120000Y-143205000D01*
X130120000Y-142745000D01*
G37*
G36*
X131020000Y-142745000D02*
G01*
X131480000Y-142745000D01*
X131480000Y-143205000D01*
X131020000Y-143205000D01*
X131020000Y-142745000D01*
G37*
G36*
X131920000Y-142745000D02*
G01*
X132380000Y-142745000D01*
X132380000Y-143205000D01*
X131920000Y-143205000D01*
X131920000Y-142745000D01*
G37*
G36*
X132820000Y-142745000D02*
G01*
X133280000Y-142745000D01*
X133280000Y-143205000D01*
X132820000Y-143205000D01*
X132820000Y-142745000D01*
G37*
G36*
X133720000Y-142745000D02*
G01*
X134180000Y-142745000D01*
X134180000Y-143205000D01*
X133720000Y-143205000D01*
X133720000Y-142745000D01*
G37*
G36*
X134620000Y-142745000D02*
G01*
X135080000Y-142745000D01*
X135080000Y-143205000D01*
X134620000Y-143205000D01*
X134620000Y-142745000D01*
G37*
G36*
X135520000Y-142745000D02*
G01*
X135980000Y-142745000D01*
X135980000Y-143205000D01*
X135520000Y-143205000D01*
X135520000Y-142745000D01*
G37*
G36*
X136420000Y-142745000D02*
G01*
X136880000Y-142745000D01*
X136880000Y-143205000D01*
X136420000Y-143205000D01*
X136420000Y-142745000D01*
G37*
G36*
X140020000Y-142745000D02*
G01*
X141380000Y-142745000D01*
X141380000Y-143205000D01*
X140020000Y-143205000D01*
X140020000Y-142745000D01*
G37*
G36*
X125620000Y-143195000D02*
G01*
X131480000Y-143195000D01*
X131480000Y-143655000D01*
X125620000Y-143655000D01*
X125620000Y-143195000D01*
G37*
G36*
X133270000Y-143195000D02*
G01*
X134180000Y-143195000D01*
X134180000Y-143655000D01*
X133270000Y-143655000D01*
X133270000Y-143195000D01*
G37*
G36*
X135070000Y-143195000D02*
G01*
X135980000Y-143195000D01*
X135980000Y-143655000D01*
X135070000Y-143655000D01*
X135070000Y-143195000D01*
G37*
G36*
X136420000Y-143195000D02*
G01*
X141380000Y-143195000D01*
X141380000Y-143655000D01*
X136420000Y-143655000D01*
X136420000Y-143195000D01*
G37*
G36*
X125620000Y-143645000D02*
G01*
X127880000Y-143645000D01*
X127880000Y-144105000D01*
X125620000Y-144105000D01*
X125620000Y-143645000D01*
G37*
G36*
X128320000Y-143645000D02*
G01*
X129230000Y-143645000D01*
X129230000Y-144105000D01*
X128320000Y-144105000D01*
X128320000Y-143645000D01*
G37*
G36*
X131470000Y-143645000D02*
G01*
X132830000Y-143645000D01*
X132830000Y-144105000D01*
X131470000Y-144105000D01*
X131470000Y-143645000D01*
G37*
G36*
X134170000Y-143645000D02*
G01*
X134630000Y-143645000D01*
X134630000Y-144105000D01*
X134170000Y-144105000D01*
X134170000Y-143645000D01*
G37*
G36*
X135070000Y-143645000D02*
G01*
X135530000Y-143645000D01*
X135530000Y-144105000D01*
X135070000Y-144105000D01*
X135070000Y-143645000D01*
G37*
G36*
X136870000Y-143645000D02*
G01*
X137330000Y-143645000D01*
X137330000Y-144105000D01*
X136870000Y-144105000D01*
X136870000Y-143645000D01*
G37*
G36*
X139570000Y-143645000D02*
G01*
X141380000Y-143645000D01*
X141380000Y-144105000D01*
X139570000Y-144105000D01*
X139570000Y-143645000D01*
G37*
G36*
X125620000Y-144095000D02*
G01*
X127430000Y-144095000D01*
X127430000Y-144555000D01*
X125620000Y-144555000D01*
X125620000Y-144095000D01*
G37*
G36*
X127870000Y-144095000D02*
G01*
X128330000Y-144095000D01*
X128330000Y-144555000D01*
X127870000Y-144555000D01*
X127870000Y-144095000D01*
G37*
G36*
X128770000Y-144095000D02*
G01*
X130580000Y-144095000D01*
X130580000Y-144555000D01*
X128770000Y-144555000D01*
X128770000Y-144095000D01*
G37*
G36*
X132820000Y-144095000D02*
G01*
X133280000Y-144095000D01*
X133280000Y-144555000D01*
X132820000Y-144555000D01*
X132820000Y-144095000D01*
G37*
G36*
X133720000Y-144095000D02*
G01*
X134180000Y-144095000D01*
X134180000Y-144555000D01*
X133720000Y-144555000D01*
X133720000Y-144095000D01*
G37*
G36*
X134620000Y-144095000D02*
G01*
X135530000Y-144095000D01*
X135530000Y-144555000D01*
X134620000Y-144555000D01*
X134620000Y-144095000D01*
G37*
G36*
X136420000Y-144095000D02*
G01*
X136880000Y-144095000D01*
X136880000Y-144555000D01*
X136420000Y-144555000D01*
X136420000Y-144095000D01*
G37*
G36*
X137770000Y-144095000D02*
G01*
X138230000Y-144095000D01*
X138230000Y-144555000D01*
X137770000Y-144555000D01*
X137770000Y-144095000D01*
G37*
G36*
X138670000Y-144095000D02*
G01*
X139130000Y-144095000D01*
X139130000Y-144555000D01*
X138670000Y-144555000D01*
X138670000Y-144095000D01*
G37*
G36*
X140020000Y-144095000D02*
G01*
X141380000Y-144095000D01*
X141380000Y-144555000D01*
X140020000Y-144555000D01*
X140020000Y-144095000D01*
G37*
G36*
X125620000Y-144545000D02*
G01*
X126980000Y-144545000D01*
X126980000Y-145005000D01*
X125620000Y-145005000D01*
X125620000Y-144545000D01*
G37*
G36*
X127870000Y-144545000D02*
G01*
X128330000Y-144545000D01*
X128330000Y-145005000D01*
X127870000Y-145005000D01*
X127870000Y-144545000D01*
G37*
G36*
X130570000Y-144545000D02*
G01*
X131030000Y-144545000D01*
X131030000Y-145005000D01*
X130570000Y-145005000D01*
X130570000Y-144545000D01*
G37*
G36*
X132370000Y-144545000D02*
G01*
X134630000Y-144545000D01*
X134630000Y-145005000D01*
X132370000Y-145005000D01*
X132370000Y-144545000D01*
G37*
G36*
X135070000Y-144545000D02*
G01*
X135530000Y-144545000D01*
X135530000Y-145005000D01*
X135070000Y-145005000D01*
X135070000Y-144545000D01*
G37*
G36*
X135970000Y-144545000D02*
G01*
X136430000Y-144545000D01*
X136430000Y-145005000D01*
X135970000Y-145005000D01*
X135970000Y-144545000D01*
G37*
G36*
X136870000Y-144545000D02*
G01*
X137330000Y-144545000D01*
X137330000Y-145005000D01*
X136870000Y-145005000D01*
X136870000Y-144545000D01*
G37*
G36*
X139120000Y-144545000D02*
G01*
X139580000Y-144545000D01*
X139580000Y-145005000D01*
X139120000Y-145005000D01*
X139120000Y-144545000D01*
G37*
G36*
X140020000Y-144545000D02*
G01*
X141380000Y-144545000D01*
X141380000Y-145005000D01*
X140020000Y-145005000D01*
X140020000Y-144545000D01*
G37*
G36*
X125620000Y-144995000D02*
G01*
X127430000Y-144995000D01*
X127430000Y-145455000D01*
X125620000Y-145455000D01*
X125620000Y-144995000D01*
G37*
G36*
X129220000Y-144995000D02*
G01*
X130130000Y-144995000D01*
X130130000Y-145455000D01*
X129220000Y-145455000D01*
X129220000Y-144995000D01*
G37*
G36*
X131920000Y-144995000D02*
G01*
X132830000Y-144995000D01*
X132830000Y-145455000D01*
X131920000Y-145455000D01*
X131920000Y-144995000D01*
G37*
G36*
X133270000Y-144995000D02*
G01*
X135080000Y-144995000D01*
X135080000Y-145455000D01*
X133270000Y-145455000D01*
X133270000Y-144995000D01*
G37*
G36*
X136420000Y-144995000D02*
G01*
X136880000Y-144995000D01*
X136880000Y-145455000D01*
X136420000Y-145455000D01*
X136420000Y-144995000D01*
G37*
G36*
X138670000Y-144995000D02*
G01*
X141380000Y-144995000D01*
X141380000Y-145455000D01*
X138670000Y-145455000D01*
X138670000Y-144995000D01*
G37*
G36*
X125620000Y-145445000D02*
G01*
X127880000Y-145445000D01*
X127880000Y-145905000D01*
X125620000Y-145905000D01*
X125620000Y-145445000D01*
G37*
G36*
X128320000Y-145445000D02*
G01*
X129680000Y-145445000D01*
X129680000Y-145905000D01*
X128320000Y-145905000D01*
X128320000Y-145445000D01*
G37*
G36*
X130120000Y-145445000D02*
G01*
X131030000Y-145445000D01*
X131030000Y-145905000D01*
X130120000Y-145905000D01*
X130120000Y-145445000D01*
G37*
G36*
X131920000Y-145445000D02*
G01*
X132380000Y-145445000D01*
X132380000Y-145905000D01*
X131920000Y-145905000D01*
X131920000Y-145445000D01*
G37*
G36*
X132820000Y-145445000D02*
G01*
X135080000Y-145445000D01*
X135080000Y-145905000D01*
X132820000Y-145905000D01*
X132820000Y-145445000D01*
G37*
G36*
X135520000Y-145445000D02*
G01*
X135980000Y-145445000D01*
X135980000Y-145905000D01*
X135520000Y-145905000D01*
X135520000Y-145445000D01*
G37*
G36*
X137320000Y-145445000D02*
G01*
X138230000Y-145445000D01*
X138230000Y-145905000D01*
X137320000Y-145905000D01*
X137320000Y-145445000D01*
G37*
G36*
X138670000Y-145445000D02*
G01*
X139130000Y-145445000D01*
X139130000Y-145905000D01*
X138670000Y-145905000D01*
X138670000Y-145445000D01*
G37*
G36*
X139570000Y-145445000D02*
G01*
X141380000Y-145445000D01*
X141380000Y-145905000D01*
X139570000Y-145905000D01*
X139570000Y-145445000D01*
G37*
G36*
X125620000Y-145895000D02*
G01*
X128330000Y-145895000D01*
X128330000Y-146355000D01*
X125620000Y-146355000D01*
X125620000Y-145895000D01*
G37*
G36*
X128770000Y-145895000D02*
G01*
X130130000Y-145895000D01*
X130130000Y-146355000D01*
X128770000Y-146355000D01*
X128770000Y-145895000D01*
G37*
G36*
X130570000Y-145895000D02*
G01*
X131030000Y-145895000D01*
X131030000Y-146355000D01*
X130570000Y-146355000D01*
X130570000Y-145895000D01*
G37*
G36*
X131470000Y-145895000D02*
G01*
X131930000Y-145895000D01*
X131930000Y-146355000D01*
X131470000Y-146355000D01*
X131470000Y-145895000D01*
G37*
G36*
X132370000Y-145895000D02*
G01*
X132830000Y-145895000D01*
X132830000Y-146355000D01*
X132370000Y-146355000D01*
X132370000Y-145895000D01*
G37*
G36*
X133270000Y-145895000D02*
G01*
X133730000Y-145895000D01*
X133730000Y-146355000D01*
X133270000Y-146355000D01*
X133270000Y-145895000D01*
G37*
G36*
X134170000Y-145895000D02*
G01*
X134630000Y-145895000D01*
X134630000Y-146355000D01*
X134170000Y-146355000D01*
X134170000Y-145895000D01*
G37*
G36*
X135070000Y-145895000D02*
G01*
X135530000Y-145895000D01*
X135530000Y-146355000D01*
X135070000Y-146355000D01*
X135070000Y-145895000D01*
G37*
G36*
X136420000Y-145895000D02*
G01*
X136880000Y-145895000D01*
X136880000Y-146355000D01*
X136420000Y-146355000D01*
X136420000Y-145895000D01*
G37*
G36*
X137320000Y-145895000D02*
G01*
X138230000Y-145895000D01*
X138230000Y-146355000D01*
X137320000Y-146355000D01*
X137320000Y-145895000D01*
G37*
G36*
X138670000Y-145895000D02*
G01*
X139580000Y-145895000D01*
X139580000Y-146355000D01*
X138670000Y-146355000D01*
X138670000Y-145895000D01*
G37*
G36*
X140020000Y-145895000D02*
G01*
X141380000Y-145895000D01*
X141380000Y-146355000D01*
X140020000Y-146355000D01*
X140020000Y-145895000D01*
G37*
G36*
X125620000Y-146345000D02*
G01*
X127430000Y-146345000D01*
X127430000Y-146805000D01*
X125620000Y-146805000D01*
X125620000Y-146345000D01*
G37*
G36*
X127870000Y-146345000D02*
G01*
X128780000Y-146345000D01*
X128780000Y-146805000D01*
X127870000Y-146805000D01*
X127870000Y-146345000D01*
G37*
G36*
X129220000Y-146345000D02*
G01*
X129680000Y-146345000D01*
X129680000Y-146805000D01*
X129220000Y-146805000D01*
X129220000Y-146345000D01*
G37*
G36*
X130120000Y-146345000D02*
G01*
X131030000Y-146345000D01*
X131030000Y-146805000D01*
X130120000Y-146805000D01*
X130120000Y-146345000D01*
G37*
G36*
X131920000Y-146345000D02*
G01*
X132380000Y-146345000D01*
X132380000Y-146805000D01*
X131920000Y-146805000D01*
X131920000Y-146345000D01*
G37*
G36*
X134170000Y-146345000D02*
G01*
X134630000Y-146345000D01*
X134630000Y-146805000D01*
X134170000Y-146805000D01*
X134170000Y-146345000D01*
G37*
G36*
X135070000Y-146345000D02*
G01*
X135530000Y-146345000D01*
X135530000Y-146805000D01*
X135070000Y-146805000D01*
X135070000Y-146345000D01*
G37*
G36*
X135970000Y-146345000D02*
G01*
X136880000Y-146345000D01*
X136880000Y-146805000D01*
X135970000Y-146805000D01*
X135970000Y-146345000D01*
G37*
G36*
X137320000Y-146345000D02*
G01*
X138230000Y-146345000D01*
X138230000Y-146805000D01*
X137320000Y-146805000D01*
X137320000Y-146345000D01*
G37*
G36*
X139120000Y-146345000D02*
G01*
X139580000Y-146345000D01*
X139580000Y-146805000D01*
X139120000Y-146805000D01*
X139120000Y-146345000D01*
G37*
G36*
X140020000Y-146345000D02*
G01*
X141380000Y-146345000D01*
X141380000Y-146805000D01*
X140020000Y-146805000D01*
X140020000Y-146345000D01*
G37*
G36*
X125620000Y-146795000D02*
G01*
X126980000Y-146795000D01*
X126980000Y-147255000D01*
X125620000Y-147255000D01*
X125620000Y-146795000D01*
G37*
G36*
X127420000Y-146795000D02*
G01*
X127880000Y-146795000D01*
X127880000Y-147255000D01*
X127420000Y-147255000D01*
X127420000Y-146795000D01*
G37*
G36*
X129220000Y-146795000D02*
G01*
X130580000Y-146795000D01*
X130580000Y-147255000D01*
X129220000Y-147255000D01*
X129220000Y-146795000D01*
G37*
G36*
X131470000Y-146795000D02*
G01*
X133280000Y-146795000D01*
X133280000Y-147255000D01*
X131470000Y-147255000D01*
X131470000Y-146795000D01*
G37*
G36*
X134620000Y-146795000D02*
G01*
X135080000Y-146795000D01*
X135080000Y-147255000D01*
X134620000Y-147255000D01*
X134620000Y-146795000D01*
G37*
G36*
X135970000Y-146795000D02*
G01*
X136430000Y-146795000D01*
X136430000Y-147255000D01*
X135970000Y-147255000D01*
X135970000Y-146795000D01*
G37*
G36*
X136870000Y-146795000D02*
G01*
X138230000Y-146795000D01*
X138230000Y-147255000D01*
X136870000Y-147255000D01*
X136870000Y-146795000D01*
G37*
G36*
X138670000Y-146795000D02*
G01*
X139580000Y-146795000D01*
X139580000Y-147255000D01*
X138670000Y-147255000D01*
X138670000Y-146795000D01*
G37*
G36*
X140020000Y-146795000D02*
G01*
X141380000Y-146795000D01*
X141380000Y-147255000D01*
X140020000Y-147255000D01*
X140020000Y-146795000D01*
G37*
G36*
X125620000Y-147245000D02*
G01*
X127430000Y-147245000D01*
X127430000Y-147705000D01*
X125620000Y-147705000D01*
X125620000Y-147245000D01*
G37*
G36*
X128770000Y-147245000D02*
G01*
X129230000Y-147245000D01*
X129230000Y-147705000D01*
X128770000Y-147705000D01*
X128770000Y-147245000D01*
G37*
G36*
X131020000Y-147245000D02*
G01*
X132830000Y-147245000D01*
X132830000Y-147705000D01*
X131020000Y-147705000D01*
X131020000Y-147245000D01*
G37*
G36*
X133720000Y-147245000D02*
G01*
X135080000Y-147245000D01*
X135080000Y-147705000D01*
X133720000Y-147705000D01*
X133720000Y-147245000D01*
G37*
G36*
X135520000Y-147245000D02*
G01*
X135980000Y-147245000D01*
X135980000Y-147705000D01*
X135520000Y-147705000D01*
X135520000Y-147245000D01*
G37*
G36*
X137770000Y-147245000D02*
G01*
X141380000Y-147245000D01*
X141380000Y-147705000D01*
X137770000Y-147705000D01*
X137770000Y-147245000D01*
G37*
G36*
X125620000Y-147695000D02*
G01*
X127880000Y-147695000D01*
X127880000Y-148155000D01*
X125620000Y-148155000D01*
X125620000Y-147695000D01*
G37*
G36*
X128320000Y-147695000D02*
G01*
X128780000Y-147695000D01*
X128780000Y-148155000D01*
X128320000Y-148155000D01*
X128320000Y-147695000D01*
G37*
G36*
X129220000Y-147695000D02*
G01*
X130130000Y-147695000D01*
X130130000Y-148155000D01*
X129220000Y-148155000D01*
X129220000Y-147695000D01*
G37*
G36*
X131470000Y-147695000D02*
G01*
X131930000Y-147695000D01*
X131930000Y-148155000D01*
X131470000Y-148155000D01*
X131470000Y-147695000D01*
G37*
G36*
X132370000Y-147695000D02*
G01*
X132830000Y-147695000D01*
X132830000Y-148155000D01*
X132370000Y-148155000D01*
X132370000Y-147695000D01*
G37*
G36*
X133270000Y-147695000D02*
G01*
X133730000Y-147695000D01*
X133730000Y-148155000D01*
X133270000Y-148155000D01*
X133270000Y-147695000D01*
G37*
G36*
X136420000Y-147695000D02*
G01*
X136880000Y-147695000D01*
X136880000Y-148155000D01*
X136420000Y-148155000D01*
X136420000Y-147695000D01*
G37*
G36*
X137770000Y-147695000D02*
G01*
X139580000Y-147695000D01*
X139580000Y-148155000D01*
X137770000Y-148155000D01*
X137770000Y-147695000D01*
G37*
G36*
X140020000Y-147695000D02*
G01*
X141380000Y-147695000D01*
X141380000Y-148155000D01*
X140020000Y-148155000D01*
X140020000Y-147695000D01*
G37*
G36*
X125620000Y-148145000D02*
G01*
X126980000Y-148145000D01*
X126980000Y-148605000D01*
X125620000Y-148605000D01*
X125620000Y-148145000D01*
G37*
G36*
X127870000Y-148145000D02*
G01*
X128330000Y-148145000D01*
X128330000Y-148605000D01*
X127870000Y-148605000D01*
X127870000Y-148145000D01*
G37*
G36*
X131020000Y-148145000D02*
G01*
X131480000Y-148145000D01*
X131480000Y-148605000D01*
X131020000Y-148605000D01*
X131020000Y-148145000D01*
G37*
G36*
X132820000Y-148145000D02*
G01*
X133730000Y-148145000D01*
X133730000Y-148605000D01*
X132820000Y-148605000D01*
X132820000Y-148145000D01*
G37*
G36*
X135070000Y-148145000D02*
G01*
X135530000Y-148145000D01*
X135530000Y-148605000D01*
X135070000Y-148605000D01*
X135070000Y-148145000D01*
G37*
G36*
X135970000Y-148145000D02*
G01*
X137330000Y-148145000D01*
X137330000Y-148605000D01*
X135970000Y-148605000D01*
X135970000Y-148145000D01*
G37*
G36*
X137770000Y-148145000D02*
G01*
X139580000Y-148145000D01*
X139580000Y-148605000D01*
X137770000Y-148605000D01*
X137770000Y-148145000D01*
G37*
G36*
X140020000Y-148145000D02*
G01*
X141380000Y-148145000D01*
X141380000Y-148605000D01*
X140020000Y-148605000D01*
X140020000Y-148145000D01*
G37*
G36*
X125620000Y-148595000D02*
G01*
X127880000Y-148595000D01*
X127880000Y-149055000D01*
X125620000Y-149055000D01*
X125620000Y-148595000D01*
G37*
G36*
X129220000Y-148595000D02*
G01*
X130580000Y-148595000D01*
X130580000Y-149055000D01*
X129220000Y-149055000D01*
X129220000Y-148595000D01*
G37*
G36*
X131020000Y-148595000D02*
G01*
X133280000Y-148595000D01*
X133280000Y-149055000D01*
X131020000Y-149055000D01*
X131020000Y-148595000D01*
G37*
G36*
X134170000Y-148595000D02*
G01*
X135530000Y-148595000D01*
X135530000Y-149055000D01*
X134170000Y-149055000D01*
X134170000Y-148595000D01*
G37*
G36*
X135970000Y-148595000D02*
G01*
X136430000Y-148595000D01*
X136430000Y-149055000D01*
X135970000Y-149055000D01*
X135970000Y-148595000D01*
G37*
G36*
X137320000Y-148595000D02*
G01*
X138230000Y-148595000D01*
X138230000Y-149055000D01*
X137320000Y-149055000D01*
X137320000Y-148595000D01*
G37*
G36*
X138670000Y-148595000D02*
G01*
X139130000Y-148595000D01*
X139130000Y-149055000D01*
X138670000Y-149055000D01*
X138670000Y-148595000D01*
G37*
G36*
X140020000Y-148595000D02*
G01*
X141380000Y-148595000D01*
X141380000Y-149055000D01*
X140020000Y-149055000D01*
X140020000Y-148595000D01*
G37*
G36*
X125620000Y-149045000D02*
G01*
X126980000Y-149045000D01*
X126980000Y-149505000D01*
X125620000Y-149505000D01*
X125620000Y-149045000D01*
G37*
G36*
X129220000Y-149045000D02*
G01*
X129680000Y-149045000D01*
X129680000Y-149505000D01*
X129220000Y-149505000D01*
X129220000Y-149045000D01*
G37*
G36*
X130120000Y-149045000D02*
G01*
X130580000Y-149045000D01*
X130580000Y-149505000D01*
X130120000Y-149505000D01*
X130120000Y-149045000D01*
G37*
G36*
X131020000Y-149045000D02*
G01*
X132830000Y-149045000D01*
X132830000Y-149505000D01*
X131020000Y-149505000D01*
X131020000Y-149045000D01*
G37*
G36*
X133270000Y-149045000D02*
G01*
X133730000Y-149045000D01*
X133730000Y-149505000D01*
X133270000Y-149505000D01*
X133270000Y-149045000D01*
G37*
G36*
X134170000Y-149045000D02*
G01*
X134630000Y-149045000D01*
X134630000Y-149505000D01*
X134170000Y-149505000D01*
X134170000Y-149045000D01*
G37*
G36*
X138670000Y-149045000D02*
G01*
X139580000Y-149045000D01*
X139580000Y-149505000D01*
X138670000Y-149505000D01*
X138670000Y-149045000D01*
G37*
G36*
X140020000Y-149045000D02*
G01*
X141380000Y-149045000D01*
X141380000Y-149505000D01*
X140020000Y-149505000D01*
X140020000Y-149045000D01*
G37*
G36*
X125620000Y-149495000D02*
G01*
X130580000Y-149495000D01*
X130580000Y-149955000D01*
X125620000Y-149955000D01*
X125620000Y-149495000D01*
G37*
G36*
X131020000Y-149495000D02*
G01*
X131480000Y-149495000D01*
X131480000Y-149955000D01*
X131020000Y-149955000D01*
X131020000Y-149495000D01*
G37*
G36*
X132820000Y-149495000D02*
G01*
X134180000Y-149495000D01*
X134180000Y-149955000D01*
X132820000Y-149955000D01*
X132820000Y-149495000D01*
G37*
G36*
X135070000Y-149495000D02*
G01*
X135980000Y-149495000D01*
X135980000Y-149955000D01*
X135070000Y-149955000D01*
X135070000Y-149495000D01*
G37*
G36*
X136420000Y-149495000D02*
G01*
X137780000Y-149495000D01*
X137780000Y-149955000D01*
X136420000Y-149955000D01*
X136420000Y-149495000D01*
G37*
G36*
X138670000Y-149495000D02*
G01*
X139580000Y-149495000D01*
X139580000Y-149955000D01*
X138670000Y-149955000D01*
X138670000Y-149495000D01*
G37*
G36*
X140020000Y-149495000D02*
G01*
X141380000Y-149495000D01*
X141380000Y-149955000D01*
X140020000Y-149955000D01*
X140020000Y-149495000D01*
G37*
G36*
X125620000Y-149945000D02*
G01*
X126980000Y-149945000D01*
X126980000Y-150405000D01*
X125620000Y-150405000D01*
X125620000Y-149945000D01*
G37*
G36*
X130120000Y-149945000D02*
G01*
X130580000Y-149945000D01*
X130580000Y-150405000D01*
X130120000Y-150405000D01*
X130120000Y-149945000D01*
G37*
G36*
X131470000Y-149945000D02*
G01*
X131930000Y-149945000D01*
X131930000Y-150405000D01*
X131470000Y-150405000D01*
X131470000Y-149945000D01*
G37*
G36*
X133270000Y-149945000D02*
G01*
X133730000Y-149945000D01*
X133730000Y-150405000D01*
X133270000Y-150405000D01*
X133270000Y-149945000D01*
G37*
G36*
X134170000Y-149945000D02*
G01*
X134630000Y-149945000D01*
X134630000Y-150405000D01*
X134170000Y-150405000D01*
X134170000Y-149945000D01*
G37*
G36*
X135520000Y-149945000D02*
G01*
X135980000Y-149945000D01*
X135980000Y-150405000D01*
X135520000Y-150405000D01*
X135520000Y-149945000D01*
G37*
G36*
X136420000Y-149945000D02*
G01*
X136880000Y-149945000D01*
X136880000Y-150405000D01*
X136420000Y-150405000D01*
X136420000Y-149945000D01*
G37*
G36*
X137320000Y-149945000D02*
G01*
X137780000Y-149945000D01*
X137780000Y-150405000D01*
X137320000Y-150405000D01*
X137320000Y-149945000D01*
G37*
G36*
X139120000Y-149945000D02*
G01*
X139580000Y-149945000D01*
X139580000Y-150405000D01*
X139120000Y-150405000D01*
X139120000Y-149945000D01*
G37*
G36*
X140020000Y-149945000D02*
G01*
X141380000Y-149945000D01*
X141380000Y-150405000D01*
X140020000Y-150405000D01*
X140020000Y-149945000D01*
G37*
G36*
X125620000Y-150395000D02*
G01*
X126980000Y-150395000D01*
X126980000Y-150855000D01*
X125620000Y-150855000D01*
X125620000Y-150395000D01*
G37*
G36*
X127420000Y-150395000D02*
G01*
X129680000Y-150395000D01*
X129680000Y-150855000D01*
X127420000Y-150855000D01*
X127420000Y-150395000D01*
G37*
G36*
X130120000Y-150395000D02*
G01*
X130580000Y-150395000D01*
X130580000Y-150855000D01*
X130120000Y-150855000D01*
X130120000Y-150395000D01*
G37*
G36*
X131470000Y-150395000D02*
G01*
X132830000Y-150395000D01*
X132830000Y-150855000D01*
X131470000Y-150855000D01*
X131470000Y-150395000D01*
G37*
G36*
X133720000Y-150395000D02*
G01*
X134180000Y-150395000D01*
X134180000Y-150855000D01*
X133720000Y-150855000D01*
X133720000Y-150395000D01*
G37*
G36*
X134620000Y-150395000D02*
G01*
X135530000Y-150395000D01*
X135530000Y-150855000D01*
X134620000Y-150855000D01*
X134620000Y-150395000D01*
G37*
G36*
X136420000Y-150395000D02*
G01*
X137780000Y-150395000D01*
X137780000Y-150855000D01*
X136420000Y-150855000D01*
X136420000Y-150395000D01*
G37*
G36*
X138670000Y-150395000D02*
G01*
X139130000Y-150395000D01*
X139130000Y-150855000D01*
X138670000Y-150855000D01*
X138670000Y-150395000D01*
G37*
G36*
X139570000Y-150395000D02*
G01*
X141380000Y-150395000D01*
X141380000Y-150855000D01*
X139570000Y-150855000D01*
X139570000Y-150395000D01*
G37*
G36*
X125620000Y-150845000D02*
G01*
X126980000Y-150845000D01*
X126980000Y-151305000D01*
X125620000Y-151305000D01*
X125620000Y-150845000D01*
G37*
G36*
X127420000Y-150845000D02*
G01*
X127880000Y-150845000D01*
X127880000Y-151305000D01*
X127420000Y-151305000D01*
X127420000Y-150845000D01*
G37*
G36*
X129220000Y-150845000D02*
G01*
X129680000Y-150845000D01*
X129680000Y-151305000D01*
X129220000Y-151305000D01*
X129220000Y-150845000D01*
G37*
G36*
X130120000Y-150845000D02*
G01*
X131030000Y-150845000D01*
X131030000Y-151305000D01*
X130120000Y-151305000D01*
X130120000Y-150845000D01*
G37*
G36*
X131470000Y-150845000D02*
G01*
X132830000Y-150845000D01*
X132830000Y-151305000D01*
X131470000Y-151305000D01*
X131470000Y-150845000D01*
G37*
G36*
X133270000Y-150845000D02*
G01*
X134630000Y-150845000D01*
X134630000Y-151305000D01*
X133270000Y-151305000D01*
X133270000Y-150845000D01*
G37*
G36*
X138220000Y-150845000D02*
G01*
X139130000Y-150845000D01*
X139130000Y-151305000D01*
X138220000Y-151305000D01*
X138220000Y-150845000D01*
G37*
G36*
X140020000Y-150845000D02*
G01*
X141380000Y-150845000D01*
X141380000Y-151305000D01*
X140020000Y-151305000D01*
X140020000Y-150845000D01*
G37*
G36*
X125620000Y-151295000D02*
G01*
X126980000Y-151295000D01*
X126980000Y-151755000D01*
X125620000Y-151755000D01*
X125620000Y-151295000D01*
G37*
G36*
X127420000Y-151295000D02*
G01*
X127880000Y-151295000D01*
X127880000Y-151755000D01*
X127420000Y-151755000D01*
X127420000Y-151295000D01*
G37*
G36*
X129220000Y-151295000D02*
G01*
X129680000Y-151295000D01*
X129680000Y-151755000D01*
X129220000Y-151755000D01*
X129220000Y-151295000D01*
G37*
G36*
X130120000Y-151295000D02*
G01*
X131480000Y-151295000D01*
X131480000Y-151755000D01*
X130120000Y-151755000D01*
X130120000Y-151295000D01*
G37*
G36*
X131920000Y-151295000D02*
G01*
X132830000Y-151295000D01*
X132830000Y-151755000D01*
X131920000Y-151755000D01*
X131920000Y-151295000D01*
G37*
G36*
X133270000Y-151295000D02*
G01*
X133730000Y-151295000D01*
X133730000Y-151755000D01*
X133270000Y-151755000D01*
X133270000Y-151295000D01*
G37*
G36*
X134170000Y-151295000D02*
G01*
X134630000Y-151295000D01*
X134630000Y-151755000D01*
X134170000Y-151755000D01*
X134170000Y-151295000D01*
G37*
G36*
X135070000Y-151295000D02*
G01*
X135530000Y-151295000D01*
X135530000Y-151755000D01*
X135070000Y-151755000D01*
X135070000Y-151295000D01*
G37*
G36*
X136420000Y-151295000D02*
G01*
X137330000Y-151295000D01*
X137330000Y-151755000D01*
X136420000Y-151755000D01*
X136420000Y-151295000D01*
G37*
G36*
X138220000Y-151295000D02*
G01*
X139130000Y-151295000D01*
X139130000Y-151755000D01*
X138220000Y-151755000D01*
X138220000Y-151295000D01*
G37*
G36*
X139570000Y-151295000D02*
G01*
X141380000Y-151295000D01*
X141380000Y-151755000D01*
X139570000Y-151755000D01*
X139570000Y-151295000D01*
G37*
G36*
X125620000Y-151745000D02*
G01*
X126980000Y-151745000D01*
X126980000Y-152205000D01*
X125620000Y-152205000D01*
X125620000Y-151745000D01*
G37*
G36*
X127420000Y-151745000D02*
G01*
X127880000Y-151745000D01*
X127880000Y-152205000D01*
X127420000Y-152205000D01*
X127420000Y-151745000D01*
G37*
G36*
X129220000Y-151745000D02*
G01*
X129680000Y-151745000D01*
X129680000Y-152205000D01*
X129220000Y-152205000D01*
X129220000Y-151745000D01*
G37*
G36*
X130120000Y-151745000D02*
G01*
X130580000Y-151745000D01*
X130580000Y-152205000D01*
X130120000Y-152205000D01*
X130120000Y-151745000D01*
G37*
G36*
X131020000Y-151745000D02*
G01*
X131930000Y-151745000D01*
X131930000Y-152205000D01*
X131020000Y-152205000D01*
X131020000Y-151745000D01*
G37*
G36*
X132370000Y-151745000D02*
G01*
X134180000Y-151745000D01*
X134180000Y-152205000D01*
X132370000Y-152205000D01*
X132370000Y-151745000D01*
G37*
G36*
X135070000Y-151745000D02*
G01*
X136430000Y-151745000D01*
X136430000Y-152205000D01*
X135070000Y-152205000D01*
X135070000Y-151745000D01*
G37*
G36*
X136870000Y-151745000D02*
G01*
X137780000Y-151745000D01*
X137780000Y-152205000D01*
X136870000Y-152205000D01*
X136870000Y-151745000D01*
G37*
G36*
X138220000Y-151745000D02*
G01*
X138680000Y-151745000D01*
X138680000Y-152205000D01*
X138220000Y-152205000D01*
X138220000Y-151745000D01*
G37*
G36*
X140020000Y-151745000D02*
G01*
X141380000Y-151745000D01*
X141380000Y-152205000D01*
X140020000Y-152205000D01*
X140020000Y-151745000D01*
G37*
G36*
X125620000Y-152195000D02*
G01*
X126980000Y-152195000D01*
X126980000Y-152655000D01*
X125620000Y-152655000D01*
X125620000Y-152195000D01*
G37*
G36*
X127420000Y-152195000D02*
G01*
X129680000Y-152195000D01*
X129680000Y-152655000D01*
X127420000Y-152655000D01*
X127420000Y-152195000D01*
G37*
G36*
X130120000Y-152195000D02*
G01*
X131930000Y-152195000D01*
X131930000Y-152655000D01*
X130120000Y-152655000D01*
X130120000Y-152195000D01*
G37*
G36*
X133270000Y-152195000D02*
G01*
X133730000Y-152195000D01*
X133730000Y-152655000D01*
X133270000Y-152655000D01*
X133270000Y-152195000D01*
G37*
G36*
X134170000Y-152195000D02*
G01*
X135080000Y-152195000D01*
X135080000Y-152655000D01*
X134170000Y-152655000D01*
X134170000Y-152195000D01*
G37*
G36*
X135520000Y-152195000D02*
G01*
X135980000Y-152195000D01*
X135980000Y-152655000D01*
X135520000Y-152655000D01*
X135520000Y-152195000D01*
G37*
G36*
X137320000Y-152195000D02*
G01*
X138230000Y-152195000D01*
X138230000Y-152655000D01*
X137320000Y-152655000D01*
X137320000Y-152195000D01*
G37*
G36*
X138670000Y-152195000D02*
G01*
X141380000Y-152195000D01*
X141380000Y-152655000D01*
X138670000Y-152655000D01*
X138670000Y-152195000D01*
G37*
G36*
X125620000Y-152645000D02*
G01*
X126980000Y-152645000D01*
X126980000Y-153105000D01*
X125620000Y-153105000D01*
X125620000Y-152645000D01*
G37*
G36*
X130120000Y-152645000D02*
G01*
X131030000Y-152645000D01*
X131030000Y-153105000D01*
X130120000Y-153105000D01*
X130120000Y-152645000D01*
G37*
G36*
X131470000Y-152645000D02*
G01*
X132380000Y-152645000D01*
X132380000Y-153105000D01*
X131470000Y-153105000D01*
X131470000Y-152645000D01*
G37*
G36*
X133720000Y-152645000D02*
G01*
X134630000Y-152645000D01*
X134630000Y-153105000D01*
X133720000Y-153105000D01*
X133720000Y-152645000D01*
G37*
G36*
X135070000Y-152645000D02*
G01*
X135980000Y-152645000D01*
X135980000Y-153105000D01*
X135070000Y-153105000D01*
X135070000Y-152645000D01*
G37*
G36*
X136870000Y-152645000D02*
G01*
X137330000Y-152645000D01*
X137330000Y-153105000D01*
X136870000Y-153105000D01*
X136870000Y-152645000D01*
G37*
G36*
X138670000Y-152645000D02*
G01*
X139580000Y-152645000D01*
X139580000Y-153105000D01*
X138670000Y-153105000D01*
X138670000Y-152645000D01*
G37*
G36*
X140020000Y-152645000D02*
G01*
X141380000Y-152645000D01*
X141380000Y-153105000D01*
X140020000Y-153105000D01*
X140020000Y-152645000D01*
G37*
G36*
X125620000Y-153095000D02*
G01*
X141380000Y-153095000D01*
X141380000Y-153555000D01*
X125620000Y-153555000D01*
X125620000Y-153095000D01*
G37*
G36*
X125620000Y-153545000D02*
G01*
X141380000Y-153545000D01*
X141380000Y-154005000D01*
X125620000Y-154005000D01*
X125620000Y-153545000D01*
G37*
G36*
X125620000Y-153995000D02*
G01*
X141380000Y-153995000D01*
X141380000Y-154455000D01*
X125620000Y-154455000D01*
X125620000Y-153995000D01*
G37*
%TD*%
M02*
