%TF.GenerationSoftware,KiCad,Pcbnew,9.0.8+1*%
%TF.CreationDate,2026-10-08T20:37:42-04:00*%
%TF.ProjectId,om27_strumplate,6f6d3237-5f73-4747-9275-6d706c617465,rev?*%
%TF.SameCoordinates,Original*%
%TF.FileFunction,Legend,Top*%
%TF.FilePolarity,Positive*%
%FSLAX46Y46*%
G04 Gerber Fmt 4.6, Leading zero omitted, Abs format (unit mm)*
G04 Created by KiCad (PCBNEW 9.0.8+1) date 2026-10-08 20:37:42*
%MOMM*%
%LPD*%
G01*
G04 APERTURE LIST*
%ADD10C,0.180000*%
%ADD11C,0.150000*%
%ADD12C,0.200000*%
%ADD13C,0.000000*%
%ADD14C,0.250000*%
G04 APERTURE END LIST*
D10*
X147821428Y-84449568D02*
X147821428Y-82949568D01*
X148678571Y-84449568D02*
X148035714Y-83592425D01*
X148678571Y-82949568D02*
X147821428Y-83806711D01*
X149892857Y-84378140D02*
X149750000Y-84449568D01*
X149750000Y-84449568D02*
X149464286Y-84449568D01*
X149464286Y-84449568D02*
X149321428Y-84378140D01*
X149321428Y-84378140D02*
X149250000Y-84235282D01*
X149250000Y-84235282D02*
X149250000Y-83663854D01*
X149250000Y-83663854D02*
X149321428Y-83520997D01*
X149321428Y-83520997D02*
X149464286Y-83449568D01*
X149464286Y-83449568D02*
X149750000Y-83449568D01*
X149750000Y-83449568D02*
X149892857Y-83520997D01*
X149892857Y-83520997D02*
X149964286Y-83663854D01*
X149964286Y-83663854D02*
X149964286Y-83806711D01*
X149964286Y-83806711D02*
X149250000Y-83949568D01*
X150464285Y-83449568D02*
X150821428Y-84449568D01*
X151178571Y-83449568D02*
X150821428Y-84449568D01*
X150821428Y-84449568D02*
X150678571Y-84806711D01*
X150678571Y-84806711D02*
X150607142Y-84878140D01*
X150607142Y-84878140D02*
X150464285Y-84949568D01*
X154107142Y-84449568D02*
X154035714Y-84449568D01*
X154035714Y-84449568D02*
X153892856Y-84378140D01*
X153892856Y-84378140D02*
X153678571Y-84163854D01*
X153678571Y-84163854D02*
X153321428Y-83735282D01*
X153321428Y-83735282D02*
X153178571Y-83520997D01*
X153178571Y-83520997D02*
X153107142Y-83306711D01*
X153107142Y-83306711D02*
X153107142Y-83163854D01*
X153107142Y-83163854D02*
X153178571Y-83020997D01*
X153178571Y-83020997D02*
X153321428Y-82949568D01*
X153321428Y-82949568D02*
X153392856Y-82949568D01*
X153392856Y-82949568D02*
X153535714Y-83020997D01*
X153535714Y-83020997D02*
X153607142Y-83163854D01*
X153607142Y-83163854D02*
X153607142Y-83235282D01*
X153607142Y-83235282D02*
X153535714Y-83378140D01*
X153535714Y-83378140D02*
X153464285Y-83449568D01*
X153464285Y-83449568D02*
X153035714Y-83735282D01*
X153035714Y-83735282D02*
X152964285Y-83806711D01*
X152964285Y-83806711D02*
X152892856Y-83949568D01*
X152892856Y-83949568D02*
X152892856Y-84163854D01*
X152892856Y-84163854D02*
X152964285Y-84306711D01*
X152964285Y-84306711D02*
X153035714Y-84378140D01*
X153035714Y-84378140D02*
X153178571Y-84449568D01*
X153178571Y-84449568D02*
X153392856Y-84449568D01*
X153392856Y-84449568D02*
X153535714Y-84378140D01*
X153535714Y-84378140D02*
X153607142Y-84306711D01*
X153607142Y-84306711D02*
X153821428Y-84020997D01*
X153821428Y-84020997D02*
X153892856Y-83806711D01*
X153892856Y-83806711D02*
X153892856Y-83663854D01*
X156749999Y-84306711D02*
X156678571Y-84378140D01*
X156678571Y-84378140D02*
X156464285Y-84449568D01*
X156464285Y-84449568D02*
X156321428Y-84449568D01*
X156321428Y-84449568D02*
X156107142Y-84378140D01*
X156107142Y-84378140D02*
X155964285Y-84235282D01*
X155964285Y-84235282D02*
X155892856Y-84092425D01*
X155892856Y-84092425D02*
X155821428Y-83806711D01*
X155821428Y-83806711D02*
X155821428Y-83592425D01*
X155821428Y-83592425D02*
X155892856Y-83306711D01*
X155892856Y-83306711D02*
X155964285Y-83163854D01*
X155964285Y-83163854D02*
X156107142Y-83020997D01*
X156107142Y-83020997D02*
X156321428Y-82949568D01*
X156321428Y-82949568D02*
X156464285Y-82949568D01*
X156464285Y-82949568D02*
X156678571Y-83020997D01*
X156678571Y-83020997D02*
X156749999Y-83092425D01*
X158035714Y-84449568D02*
X158035714Y-83663854D01*
X158035714Y-83663854D02*
X157964285Y-83520997D01*
X157964285Y-83520997D02*
X157821428Y-83449568D01*
X157821428Y-83449568D02*
X157535714Y-83449568D01*
X157535714Y-83449568D02*
X157392856Y-83520997D01*
X158035714Y-84378140D02*
X157892856Y-84449568D01*
X157892856Y-84449568D02*
X157535714Y-84449568D01*
X157535714Y-84449568D02*
X157392856Y-84378140D01*
X157392856Y-84378140D02*
X157321428Y-84235282D01*
X157321428Y-84235282D02*
X157321428Y-84092425D01*
X157321428Y-84092425D02*
X157392856Y-83949568D01*
X157392856Y-83949568D02*
X157535714Y-83878140D01*
X157535714Y-83878140D02*
X157892856Y-83878140D01*
X157892856Y-83878140D02*
X158035714Y-83806711D01*
X158749999Y-84449568D02*
X158749999Y-82949568D01*
X158749999Y-83520997D02*
X158892857Y-83449568D01*
X158892857Y-83449568D02*
X159178571Y-83449568D01*
X159178571Y-83449568D02*
X159321428Y-83520997D01*
X159321428Y-83520997D02*
X159392857Y-83592425D01*
X159392857Y-83592425D02*
X159464285Y-83735282D01*
X159464285Y-83735282D02*
X159464285Y-84163854D01*
X159464285Y-84163854D02*
X159392857Y-84306711D01*
X159392857Y-84306711D02*
X159321428Y-84378140D01*
X159321428Y-84378140D02*
X159178571Y-84449568D01*
X159178571Y-84449568D02*
X158892857Y-84449568D01*
X158892857Y-84449568D02*
X158749999Y-84378140D01*
X160321428Y-84449568D02*
X160178571Y-84378140D01*
X160178571Y-84378140D02*
X160107142Y-84235282D01*
X160107142Y-84235282D02*
X160107142Y-82949568D01*
X161464285Y-84378140D02*
X161321428Y-84449568D01*
X161321428Y-84449568D02*
X161035714Y-84449568D01*
X161035714Y-84449568D02*
X160892856Y-84378140D01*
X160892856Y-84378140D02*
X160821428Y-84235282D01*
X160821428Y-84235282D02*
X160821428Y-83663854D01*
X160821428Y-83663854D02*
X160892856Y-83520997D01*
X160892856Y-83520997D02*
X161035714Y-83449568D01*
X161035714Y-83449568D02*
X161321428Y-83449568D01*
X161321428Y-83449568D02*
X161464285Y-83520997D01*
X161464285Y-83520997D02*
X161535714Y-83663854D01*
X161535714Y-83663854D02*
X161535714Y-83806711D01*
X161535714Y-83806711D02*
X160821428Y-83949568D01*
X164178570Y-84306711D02*
X164107142Y-84378140D01*
X164107142Y-84378140D02*
X163892856Y-84449568D01*
X163892856Y-84449568D02*
X163749999Y-84449568D01*
X163749999Y-84449568D02*
X163535713Y-84378140D01*
X163535713Y-84378140D02*
X163392856Y-84235282D01*
X163392856Y-84235282D02*
X163321427Y-84092425D01*
X163321427Y-84092425D02*
X163249999Y-83806711D01*
X163249999Y-83806711D02*
X163249999Y-83592425D01*
X163249999Y-83592425D02*
X163321427Y-83306711D01*
X163321427Y-83306711D02*
X163392856Y-83163854D01*
X163392856Y-83163854D02*
X163535713Y-83020997D01*
X163535713Y-83020997D02*
X163749999Y-82949568D01*
X163749999Y-82949568D02*
X163892856Y-82949568D01*
X163892856Y-82949568D02*
X164107142Y-83020997D01*
X164107142Y-83020997D02*
X164178570Y-83092425D01*
X165035713Y-84449568D02*
X164892856Y-84378140D01*
X164892856Y-84378140D02*
X164821427Y-84306711D01*
X164821427Y-84306711D02*
X164749999Y-84163854D01*
X164749999Y-84163854D02*
X164749999Y-83735282D01*
X164749999Y-83735282D02*
X164821427Y-83592425D01*
X164821427Y-83592425D02*
X164892856Y-83520997D01*
X164892856Y-83520997D02*
X165035713Y-83449568D01*
X165035713Y-83449568D02*
X165249999Y-83449568D01*
X165249999Y-83449568D02*
X165392856Y-83520997D01*
X165392856Y-83520997D02*
X165464285Y-83592425D01*
X165464285Y-83592425D02*
X165535713Y-83735282D01*
X165535713Y-83735282D02*
X165535713Y-84163854D01*
X165535713Y-84163854D02*
X165464285Y-84306711D01*
X165464285Y-84306711D02*
X165392856Y-84378140D01*
X165392856Y-84378140D02*
X165249999Y-84449568D01*
X165249999Y-84449568D02*
X165035713Y-84449568D01*
X166178570Y-84306711D02*
X166249999Y-84378140D01*
X166249999Y-84378140D02*
X166178570Y-84449568D01*
X166178570Y-84449568D02*
X166107142Y-84378140D01*
X166107142Y-84378140D02*
X166178570Y-84306711D01*
X166178570Y-84306711D02*
X166178570Y-84449568D01*
D11*
X149628573Y-86162342D02*
X149628573Y-84962342D01*
X149742859Y-85705200D02*
X150085716Y-86162342D01*
X150085716Y-85362342D02*
X149628573Y-85819485D01*
X151057145Y-86105200D02*
X150942859Y-86162342D01*
X150942859Y-86162342D02*
X150714288Y-86162342D01*
X150714288Y-86162342D02*
X150600002Y-86105200D01*
X150600002Y-86105200D02*
X150542859Y-85990914D01*
X150542859Y-85990914D02*
X150542859Y-85533771D01*
X150542859Y-85533771D02*
X150600002Y-85419485D01*
X150600002Y-85419485D02*
X150714288Y-85362342D01*
X150714288Y-85362342D02*
X150942859Y-85362342D01*
X150942859Y-85362342D02*
X151057145Y-85419485D01*
X151057145Y-85419485D02*
X151114288Y-85533771D01*
X151114288Y-85533771D02*
X151114288Y-85648057D01*
X151114288Y-85648057D02*
X150542859Y-85762342D01*
X151514287Y-85362342D02*
X151800001Y-86162342D01*
X152085716Y-85362342D02*
X151800001Y-86162342D01*
X151800001Y-86162342D02*
X151685716Y-86448057D01*
X151685716Y-86448057D02*
X151628573Y-86505200D01*
X151628573Y-86505200D02*
X151514287Y-86562342D01*
X153057145Y-86162342D02*
X153057145Y-85533771D01*
X153057145Y-85533771D02*
X153000002Y-85419485D01*
X153000002Y-85419485D02*
X152885716Y-85362342D01*
X152885716Y-85362342D02*
X152657145Y-85362342D01*
X152657145Y-85362342D02*
X152542859Y-85419485D01*
X153057145Y-86105200D02*
X152942859Y-86162342D01*
X152942859Y-86162342D02*
X152657145Y-86162342D01*
X152657145Y-86162342D02*
X152542859Y-86105200D01*
X152542859Y-86105200D02*
X152485716Y-85990914D01*
X152485716Y-85990914D02*
X152485716Y-85876628D01*
X152485716Y-85876628D02*
X152542859Y-85762342D01*
X152542859Y-85762342D02*
X152657145Y-85705200D01*
X152657145Y-85705200D02*
X152942859Y-85705200D01*
X152942859Y-85705200D02*
X153057145Y-85648057D01*
X153628573Y-85362342D02*
X153628573Y-86162342D01*
X153628573Y-85476628D02*
X153685716Y-85419485D01*
X153685716Y-85419485D02*
X153800001Y-85362342D01*
X153800001Y-85362342D02*
X153971430Y-85362342D01*
X153971430Y-85362342D02*
X154085716Y-85419485D01*
X154085716Y-85419485D02*
X154142859Y-85533771D01*
X154142859Y-85533771D02*
X154142859Y-86162342D01*
X155228573Y-86162342D02*
X155228573Y-84962342D01*
X155228573Y-86105200D02*
X155114287Y-86162342D01*
X155114287Y-86162342D02*
X154885715Y-86162342D01*
X154885715Y-86162342D02*
X154771430Y-86105200D01*
X154771430Y-86105200D02*
X154714287Y-86048057D01*
X154714287Y-86048057D02*
X154657144Y-85933771D01*
X154657144Y-85933771D02*
X154657144Y-85590914D01*
X154657144Y-85590914D02*
X154714287Y-85476628D01*
X154714287Y-85476628D02*
X154771430Y-85419485D01*
X154771430Y-85419485D02*
X154885715Y-85362342D01*
X154885715Y-85362342D02*
X155114287Y-85362342D01*
X155114287Y-85362342D02*
X155228573Y-85419485D01*
X156314287Y-86105200D02*
X156200001Y-86162342D01*
X156200001Y-86162342D02*
X155971429Y-86162342D01*
X155971429Y-86162342D02*
X155857144Y-86105200D01*
X155857144Y-86105200D02*
X155800001Y-86048057D01*
X155800001Y-86048057D02*
X155742858Y-85933771D01*
X155742858Y-85933771D02*
X155742858Y-85590914D01*
X155742858Y-85590914D02*
X155800001Y-85476628D01*
X155800001Y-85476628D02*
X155857144Y-85419485D01*
X155857144Y-85419485D02*
X155971429Y-85362342D01*
X155971429Y-85362342D02*
X156200001Y-85362342D01*
X156200001Y-85362342D02*
X156314287Y-85419485D01*
X157342858Y-86162342D02*
X157342858Y-85533771D01*
X157342858Y-85533771D02*
X157285715Y-85419485D01*
X157285715Y-85419485D02*
X157171429Y-85362342D01*
X157171429Y-85362342D02*
X156942858Y-85362342D01*
X156942858Y-85362342D02*
X156828572Y-85419485D01*
X157342858Y-86105200D02*
X157228572Y-86162342D01*
X157228572Y-86162342D02*
X156942858Y-86162342D01*
X156942858Y-86162342D02*
X156828572Y-86105200D01*
X156828572Y-86105200D02*
X156771429Y-85990914D01*
X156771429Y-85990914D02*
X156771429Y-85876628D01*
X156771429Y-85876628D02*
X156828572Y-85762342D01*
X156828572Y-85762342D02*
X156942858Y-85705200D01*
X156942858Y-85705200D02*
X157228572Y-85705200D01*
X157228572Y-85705200D02*
X157342858Y-85648057D01*
X157914286Y-86162342D02*
X157914286Y-84962342D01*
X157914286Y-85419485D02*
X158028572Y-85362342D01*
X158028572Y-85362342D02*
X158257143Y-85362342D01*
X158257143Y-85362342D02*
X158371429Y-85419485D01*
X158371429Y-85419485D02*
X158428572Y-85476628D01*
X158428572Y-85476628D02*
X158485714Y-85590914D01*
X158485714Y-85590914D02*
X158485714Y-85933771D01*
X158485714Y-85933771D02*
X158428572Y-86048057D01*
X158428572Y-86048057D02*
X158371429Y-86105200D01*
X158371429Y-86105200D02*
X158257143Y-86162342D01*
X158257143Y-86162342D02*
X158028572Y-86162342D01*
X158028572Y-86162342D02*
X157914286Y-86105200D01*
X159171428Y-86162342D02*
X159057143Y-86105200D01*
X159057143Y-86105200D02*
X159000000Y-85990914D01*
X159000000Y-85990914D02*
X159000000Y-84962342D01*
X160085714Y-86105200D02*
X159971428Y-86162342D01*
X159971428Y-86162342D02*
X159742857Y-86162342D01*
X159742857Y-86162342D02*
X159628571Y-86105200D01*
X159628571Y-86105200D02*
X159571428Y-85990914D01*
X159571428Y-85990914D02*
X159571428Y-85533771D01*
X159571428Y-85533771D02*
X159628571Y-85419485D01*
X159628571Y-85419485D02*
X159742857Y-85362342D01*
X159742857Y-85362342D02*
X159971428Y-85362342D01*
X159971428Y-85362342D02*
X160085714Y-85419485D01*
X160085714Y-85419485D02*
X160142857Y-85533771D01*
X160142857Y-85533771D02*
X160142857Y-85648057D01*
X160142857Y-85648057D02*
X159571428Y-85762342D01*
X160657142Y-86048057D02*
X160714285Y-86105200D01*
X160714285Y-86105200D02*
X160657142Y-86162342D01*
X160657142Y-86162342D02*
X160599999Y-86105200D01*
X160599999Y-86105200D02*
X160657142Y-86048057D01*
X160657142Y-86048057D02*
X160657142Y-86162342D01*
X161742857Y-86105200D02*
X161628571Y-86162342D01*
X161628571Y-86162342D02*
X161399999Y-86162342D01*
X161399999Y-86162342D02*
X161285714Y-86105200D01*
X161285714Y-86105200D02*
X161228571Y-86048057D01*
X161228571Y-86048057D02*
X161171428Y-85933771D01*
X161171428Y-85933771D02*
X161171428Y-85590914D01*
X161171428Y-85590914D02*
X161228571Y-85476628D01*
X161228571Y-85476628D02*
X161285714Y-85419485D01*
X161285714Y-85419485D02*
X161399999Y-85362342D01*
X161399999Y-85362342D02*
X161628571Y-85362342D01*
X161628571Y-85362342D02*
X161742857Y-85419485D01*
X162428570Y-86162342D02*
X162314285Y-86105200D01*
X162314285Y-86105200D02*
X162257142Y-86048057D01*
X162257142Y-86048057D02*
X162199999Y-85933771D01*
X162199999Y-85933771D02*
X162199999Y-85590914D01*
X162199999Y-85590914D02*
X162257142Y-85476628D01*
X162257142Y-85476628D02*
X162314285Y-85419485D01*
X162314285Y-85419485D02*
X162428570Y-85362342D01*
X162428570Y-85362342D02*
X162599999Y-85362342D01*
X162599999Y-85362342D02*
X162714285Y-85419485D01*
X162714285Y-85419485D02*
X162771428Y-85476628D01*
X162771428Y-85476628D02*
X162828570Y-85590914D01*
X162828570Y-85590914D02*
X162828570Y-85933771D01*
X162828570Y-85933771D02*
X162771428Y-86048057D01*
X162771428Y-86048057D02*
X162714285Y-86105200D01*
X162714285Y-86105200D02*
X162599999Y-86162342D01*
X162599999Y-86162342D02*
X162428570Y-86162342D01*
X163342856Y-86162342D02*
X163342856Y-85362342D01*
X163342856Y-85476628D02*
X163399999Y-85419485D01*
X163399999Y-85419485D02*
X163514284Y-85362342D01*
X163514284Y-85362342D02*
X163685713Y-85362342D01*
X163685713Y-85362342D02*
X163799999Y-85419485D01*
X163799999Y-85419485D02*
X163857142Y-85533771D01*
X163857142Y-85533771D02*
X163857142Y-86162342D01*
X163857142Y-85533771D02*
X163914284Y-85419485D01*
X163914284Y-85419485D02*
X164028570Y-85362342D01*
X164028570Y-85362342D02*
X164199999Y-85362342D01*
X164199999Y-85362342D02*
X164314284Y-85419485D01*
X164314284Y-85419485D02*
X164371427Y-85533771D01*
X164371427Y-85533771D02*
X164371427Y-86162342D01*
D12*
%TO.C,REF\u002A\u002A*%
X158078800Y-82115000D02*
X155696500Y-82115000D01*
X155696500Y-72115000D01*
X158078800Y-72115000D01*
X158078800Y-82115000D01*
D13*
G36*
X158073700Y-78426600D02*
G01*
X156933600Y-78426600D01*
X156933600Y-72120100D01*
X158073700Y-72120100D01*
X158073700Y-78426600D01*
G37*
D14*
X154248900Y-74609900D02*
X154310200Y-74487400D01*
X154310200Y-74487400D02*
X154374800Y-74377900D01*
X154374800Y-74377900D02*
X154442000Y-74280700D01*
X154442000Y-74280700D02*
X154511600Y-74195100D01*
X154511600Y-74195100D02*
X154582900Y-74120400D01*
X154582900Y-74120400D02*
X154655400Y-74055900D01*
X154655400Y-74055900D02*
X154728800Y-74000900D01*
X154728800Y-74000900D02*
X154802500Y-73954800D01*
X154802500Y-73954800D02*
X154876100Y-73916900D01*
X154876100Y-73916900D02*
X154949000Y-73886400D01*
X154949000Y-73886400D02*
X155020800Y-73862700D01*
X155020800Y-73862700D02*
X155091000Y-73845000D01*
X155091000Y-73845000D02*
X155159100Y-73832800D01*
X155159100Y-73832800D02*
X155224600Y-73825300D01*
X155224600Y-73825300D02*
X155287100Y-73821800D01*
X155287100Y-73821800D02*
X155346100Y-73821600D01*
X155346100Y-73821600D02*
X155401100Y-73824100D01*
X155401100Y-73824100D02*
X155451600Y-73828500D01*
X155451600Y-73828500D02*
X155497100Y-73834200D01*
X155497100Y-73834200D02*
X155537200Y-73840500D01*
X155537200Y-73840500D02*
X155571300Y-73846600D01*
X155571300Y-73846600D02*
X155599000Y-73852000D01*
X155599000Y-73852000D02*
X155619900Y-73855900D01*
X155619900Y-73855900D02*
X155633400Y-73857600D01*
X158142700Y-74432400D02*
X158164900Y-74437000D01*
X158164900Y-74437000D02*
X158206800Y-74450900D01*
X158206800Y-74450900D02*
X158266700Y-74473600D01*
X158266700Y-74473600D02*
X158343000Y-74504000D01*
X158343000Y-74504000D02*
X158433700Y-74541500D01*
X158433700Y-74541500D02*
X158537300Y-74585100D01*
X158537300Y-74585100D02*
X158651800Y-74634200D01*
X158651800Y-74634200D02*
X158775700Y-74687800D01*
X158775700Y-74687800D02*
X158907000Y-74745200D01*
X158907000Y-74745200D02*
X159044200Y-74805500D01*
X159044200Y-74805500D02*
X159185400Y-74867900D01*
X159185400Y-74867900D02*
X159328800Y-74931700D01*
X159328800Y-74931700D02*
X159472800Y-74995900D01*
X159472800Y-74995900D02*
X159615500Y-75059900D01*
X159615500Y-75059900D02*
X159755300Y-75122700D01*
X159755300Y-75122700D02*
X159890300Y-75183600D01*
X159890300Y-75183600D02*
X160018900Y-75241800D01*
X160018900Y-75241800D02*
X160139200Y-75296300D01*
X160139200Y-75296300D02*
X160249500Y-75346500D01*
X160249500Y-75346500D02*
X160348100Y-75391500D01*
X160348100Y-75391500D02*
X160433200Y-75430500D01*
X160433200Y-75430500D02*
X160503100Y-75462700D01*
X160503100Y-75462700D02*
X160556000Y-75487300D01*
X160556000Y-75487300D02*
X160590100Y-75503400D01*
X160590100Y-75503400D02*
X160786300Y-75615900D01*
X160786300Y-75615900D02*
X160940100Y-75743300D01*
X160940100Y-75743300D02*
X161052400Y-75884100D01*
X161052400Y-75884100D02*
X161124100Y-76036600D01*
X161124100Y-76036600D02*
X161156400Y-76199300D01*
X161156400Y-76199300D02*
X161150200Y-76370500D01*
X161150200Y-76370500D02*
X161106400Y-76548500D01*
X161106400Y-76548500D02*
X161026100Y-76731900D01*
X161026100Y-76731900D02*
X160910300Y-76918900D01*
X160910300Y-76918900D02*
X160760000Y-77108000D01*
X160760000Y-77108000D02*
X160576100Y-77297500D01*
X160576100Y-77297500D02*
X160359700Y-77485900D01*
X160359700Y-77485900D02*
X160111700Y-77671500D01*
X160111700Y-77671500D02*
X159833100Y-77852800D01*
X159833100Y-77852800D02*
X159525000Y-78028000D01*
X159525000Y-78028000D02*
X159188300Y-78195600D01*
X159188300Y-78195600D02*
X158824000Y-78354000D01*
X158824000Y-78354000D02*
X158433100Y-78501600D01*
X158433100Y-78501600D02*
X158016600Y-78636800D01*
X158016600Y-78636800D02*
X157575400Y-78757800D01*
X157575400Y-78757800D02*
X157110700Y-78863300D01*
X157110700Y-78863300D02*
X156623300Y-78951400D01*
X156623300Y-78951400D02*
X156114300Y-79020700D01*
X156114300Y-79020700D02*
X155584600Y-79069500D01*
X155584600Y-79069500D02*
X155480000Y-79076800D01*
X155480000Y-79076800D02*
X155372900Y-79084300D01*
X155372900Y-79084300D02*
X155263900Y-79092000D01*
X155263900Y-79092000D02*
X155153800Y-79100000D01*
X155153800Y-79100000D02*
X155043100Y-79108300D01*
X155043100Y-79108300D02*
X154932700Y-79117100D01*
X154932700Y-79117100D02*
X154823100Y-79126300D01*
X154823100Y-79126300D02*
X154715000Y-79136100D01*
X154715000Y-79136100D02*
X154609100Y-79146400D01*
X154609100Y-79146400D02*
X154506200Y-79157500D01*
X154506200Y-79157500D02*
X154406800Y-79169200D01*
X154406800Y-79169200D02*
X154311700Y-79181800D01*
X154311700Y-79181800D02*
X154221400Y-79195200D01*
X154221400Y-79195200D02*
X154136800Y-79209500D01*
X154136800Y-79209500D02*
X154058500Y-79224700D01*
X154058500Y-79224700D02*
X153987200Y-79241100D01*
X153987200Y-79241100D02*
X153923400Y-79258500D01*
X153923400Y-79258500D02*
X153868000Y-79277100D01*
X153868000Y-79277100D02*
X153821600Y-79296900D01*
X153821600Y-79296900D02*
X153784900Y-79318000D01*
X153784900Y-79318000D02*
X153758500Y-79340400D01*
X153758500Y-79340400D02*
X153743100Y-79364200D01*
X153743100Y-79364200D02*
X153739400Y-79389600D01*
X153739400Y-79389600D02*
X153748200Y-79416400D01*
X153748200Y-79416400D02*
X153774500Y-79454900D01*
X153774500Y-79454900D02*
X153811200Y-79494100D01*
X153811200Y-79494100D02*
X153857700Y-79534000D01*
X153857700Y-79534000D02*
X153913100Y-79574200D01*
X153913100Y-79574200D02*
X153976500Y-79614600D01*
X153976500Y-79614600D02*
X154047200Y-79654900D01*
X154047200Y-79654900D02*
X154124400Y-79695000D01*
X154124400Y-79695000D02*
X154207300Y-79734500D01*
X154207300Y-79734500D02*
X154295000Y-79773400D01*
X154295000Y-79773400D02*
X154386800Y-79811300D01*
X154386800Y-79811300D02*
X154481900Y-79848100D01*
X154481900Y-79848100D02*
X154579400Y-79883500D01*
X154579400Y-79883500D02*
X154678500Y-79917300D01*
X154678500Y-79917300D02*
X154778500Y-79949400D01*
X154778500Y-79949400D02*
X154878600Y-79979400D01*
X154878600Y-79979400D02*
X154977900Y-80007100D01*
X154977900Y-80007100D02*
X155075600Y-80032500D01*
X155075600Y-80032500D02*
X155170900Y-80055100D01*
X155170900Y-80055100D02*
X155263100Y-80074900D01*
X155263100Y-80074900D02*
X155351300Y-80091500D01*
X155351300Y-80091500D02*
X155434700Y-80104800D01*
X155434700Y-80104800D02*
X155512500Y-80114600D01*
X155512500Y-80114600D02*
X155584000Y-80120600D01*
X155584000Y-80120600D02*
X155648200Y-80122700D01*
X158140100Y-80530500D02*
X158241000Y-80540200D01*
X158241000Y-80540200D02*
X158326800Y-80562400D01*
X158326800Y-80562400D02*
X158398800Y-80595600D01*
X158398800Y-80595600D02*
X158458200Y-80638000D01*
X158458200Y-80638000D02*
X158506100Y-80688200D01*
X158506100Y-80688200D02*
X158544000Y-80744500D01*
X158544000Y-80744500D02*
X158572800Y-80805300D01*
X158572800Y-80805300D02*
X158594000Y-80869000D01*
X158594000Y-80869000D02*
X158608700Y-80933900D01*
X158608700Y-80933900D02*
X158618200Y-80998600D01*
X158618200Y-80998600D02*
X158623700Y-81061300D01*
X158623700Y-81061300D02*
X158626500Y-81120400D01*
X158626500Y-81120400D02*
X158627700Y-81174500D01*
X158627700Y-81174500D02*
X158628600Y-81221700D01*
X158628600Y-81221700D02*
X158630400Y-81260600D01*
X158630400Y-81260600D02*
X158634400Y-81289600D01*
X158634400Y-81289600D02*
X158641800Y-81306900D01*
X158641800Y-81306900D02*
X158653900Y-81311100D01*
X158653900Y-81311100D02*
X158671800Y-81300500D01*
X158671800Y-81300500D02*
X158696700Y-81273500D01*
X158696700Y-81273500D02*
X158730100Y-81228400D01*
X158730100Y-81228400D02*
X158772900Y-81163800D01*
X158772900Y-81163800D02*
X158826600Y-81078000D01*
X158826600Y-81078000D02*
X158892300Y-80969300D01*
X158892300Y-80969300D02*
X158904900Y-80956700D01*
X158904900Y-80956700D02*
X158922000Y-80952700D01*
X158922000Y-80952700D02*
X158943500Y-80956400D01*
X158943500Y-80956400D02*
X158969000Y-80967000D01*
X158969000Y-80967000D02*
X158998400Y-80983400D01*
X158998400Y-80983400D02*
X159031600Y-81004900D01*
X159031600Y-81004900D02*
X159068100Y-81030600D01*
X159068100Y-81030600D02*
X159108000Y-81059500D01*
X159108000Y-81059500D02*
X159150900Y-81090900D01*
X159150900Y-81090900D02*
X159196600Y-81123700D01*
X159196600Y-81123700D02*
X159244900Y-81157200D01*
X159244900Y-81157200D02*
X159295600Y-81190500D01*
X159295600Y-81190500D02*
X159348500Y-81222600D01*
X159348500Y-81222600D02*
X159403300Y-81252800D01*
X159403300Y-81252800D02*
X159459900Y-81280000D01*
X159459900Y-81280000D02*
X159518100Y-81303400D01*
X159518100Y-81303400D02*
X159577600Y-81322200D01*
X159577600Y-81322200D02*
X159638200Y-81335500D01*
X159638200Y-81335500D02*
X159699700Y-81342300D01*
X159699700Y-81342300D02*
X159761900Y-81341800D01*
X159761900Y-81341800D02*
X159824600Y-81333100D01*
X159824600Y-81333100D02*
X159887600Y-81315400D01*
X159887600Y-81315400D02*
X159950600Y-81287700D01*
X159950600Y-81287700D02*
X160013400Y-81249200D01*
D13*
G36*
X154464400Y-74789700D02*
G01*
X153828800Y-76083800D01*
X153343500Y-75845400D01*
X153979100Y-74551300D01*
X154464400Y-74789700D01*
G37*
G36*
X153706200Y-76132200D02*
G01*
X153274700Y-77010800D01*
X152945200Y-76848900D01*
X153376700Y-75970300D01*
X153706200Y-76132200D01*
G37*
G36*
X153062300Y-77030800D02*
G01*
X153281000Y-77138100D01*
X153078600Y-77273800D01*
X152876300Y-77409500D01*
X152859900Y-77166500D01*
X152843600Y-76923400D01*
X153062300Y-77030800D01*
G37*
G36*
X168145000Y-71810000D02*
G01*
X182855000Y-71810000D01*
X182855000Y-72240000D01*
X168145000Y-72240000D01*
X168145000Y-71810000D01*
G37*
G36*
X168145000Y-72230000D02*
G01*
X182855000Y-72230000D01*
X182855000Y-72660000D01*
X168145000Y-72660000D01*
X168145000Y-72230000D01*
G37*
G36*
X168145000Y-72650000D02*
G01*
X182855000Y-72650000D01*
X182855000Y-73080000D01*
X168145000Y-73080000D01*
X168145000Y-72650000D01*
G37*
G36*
X168145000Y-73070000D02*
G01*
X169415000Y-73070000D01*
X169415000Y-73500000D01*
X168145000Y-73500000D01*
X168145000Y-73070000D01*
G37*
G36*
X172345000Y-73070000D02*
G01*
X173195000Y-73070000D01*
X173195000Y-73500000D01*
X172345000Y-73500000D01*
X172345000Y-73070000D01*
G37*
G36*
X173605000Y-73070000D02*
G01*
X174035000Y-73070000D01*
X174035000Y-73500000D01*
X173605000Y-73500000D01*
X173605000Y-73070000D01*
G37*
G36*
X175705000Y-73070000D02*
G01*
X176975000Y-73070000D01*
X176975000Y-73500000D01*
X175705000Y-73500000D01*
X175705000Y-73070000D01*
G37*
G36*
X178225000Y-73070000D02*
G01*
X178655000Y-73070000D01*
X178655000Y-73500000D01*
X178225000Y-73500000D01*
X178225000Y-73070000D01*
G37*
G36*
X181585000Y-73070000D02*
G01*
X182855000Y-73070000D01*
X182855000Y-73500000D01*
X181585000Y-73500000D01*
X181585000Y-73070000D01*
G37*
G36*
X168145000Y-73490000D02*
G01*
X169415000Y-73490000D01*
X169415000Y-73920000D01*
X168145000Y-73920000D01*
X168145000Y-73490000D01*
G37*
G36*
X169825000Y-73490000D02*
G01*
X171935000Y-73490000D01*
X171935000Y-73920000D01*
X169825000Y-73920000D01*
X169825000Y-73490000D01*
G37*
G36*
X172345000Y-73490000D02*
G01*
X172775000Y-73490000D01*
X172775000Y-73920000D01*
X172345000Y-73920000D01*
X172345000Y-73490000D01*
G37*
G36*
X173185000Y-73490000D02*
G01*
X174455000Y-73490000D01*
X174455000Y-73920000D01*
X173185000Y-73920000D01*
X173185000Y-73490000D01*
G37*
G36*
X174865000Y-73490000D02*
G01*
X175715000Y-73490000D01*
X175715000Y-73920000D01*
X174865000Y-73920000D01*
X174865000Y-73490000D01*
G37*
G36*
X176125000Y-73490000D02*
G01*
X177815000Y-73490000D01*
X177815000Y-73920000D01*
X176125000Y-73920000D01*
X176125000Y-73490000D01*
G37*
G36*
X178225000Y-73490000D02*
G01*
X178655000Y-73490000D01*
X178655000Y-73920000D01*
X178225000Y-73920000D01*
X178225000Y-73490000D01*
G37*
G36*
X179065000Y-73490000D02*
G01*
X181175000Y-73490000D01*
X181175000Y-73920000D01*
X179065000Y-73920000D01*
X179065000Y-73490000D01*
G37*
G36*
X181585000Y-73490000D02*
G01*
X182855000Y-73490000D01*
X182855000Y-73920000D01*
X181585000Y-73920000D01*
X181585000Y-73490000D01*
G37*
G36*
X168145000Y-73910000D02*
G01*
X169415000Y-73910000D01*
X169415000Y-74340000D01*
X168145000Y-74340000D01*
X168145000Y-73910000D01*
G37*
G36*
X169825000Y-73910000D02*
G01*
X170255000Y-73910000D01*
X170255000Y-74340000D01*
X169825000Y-74340000D01*
X169825000Y-73910000D01*
G37*
G36*
X171505000Y-73910000D02*
G01*
X171935000Y-73910000D01*
X171935000Y-74340000D01*
X171505000Y-74340000D01*
X171505000Y-73910000D01*
G37*
G36*
X172345000Y-73910000D02*
G01*
X172775000Y-73910000D01*
X172775000Y-74340000D01*
X172345000Y-74340000D01*
X172345000Y-73910000D01*
G37*
G36*
X173185000Y-73910000D02*
G01*
X174035000Y-73910000D01*
X174035000Y-74340000D01*
X173185000Y-74340000D01*
X173185000Y-73910000D01*
G37*
G36*
X174445000Y-73910000D02*
G01*
X174875000Y-73910000D01*
X174875000Y-74340000D01*
X174445000Y-74340000D01*
X174445000Y-73910000D01*
G37*
G36*
X175705000Y-73910000D02*
G01*
X176135000Y-73910000D01*
X176135000Y-74340000D01*
X175705000Y-74340000D01*
X175705000Y-73910000D01*
G37*
G36*
X176965000Y-73910000D02*
G01*
X177395000Y-73910000D01*
X177395000Y-74340000D01*
X176965000Y-74340000D01*
X176965000Y-73910000D01*
G37*
G36*
X177805000Y-73910000D02*
G01*
X178655000Y-73910000D01*
X178655000Y-74340000D01*
X177805000Y-74340000D01*
X177805000Y-73910000D01*
G37*
G36*
X179065000Y-73910000D02*
G01*
X179495000Y-73910000D01*
X179495000Y-74340000D01*
X179065000Y-74340000D01*
X179065000Y-73910000D01*
G37*
G36*
X180745000Y-73910000D02*
G01*
X181175000Y-73910000D01*
X181175000Y-74340000D01*
X180745000Y-74340000D01*
X180745000Y-73910000D01*
G37*
G36*
X181585000Y-73910000D02*
G01*
X182855000Y-73910000D01*
X182855000Y-74340000D01*
X181585000Y-74340000D01*
X181585000Y-73910000D01*
G37*
G36*
X168145000Y-74330000D02*
G01*
X169415000Y-74330000D01*
X169415000Y-74760000D01*
X168145000Y-74760000D01*
X168145000Y-74330000D01*
G37*
G36*
X169825000Y-74330000D02*
G01*
X170255000Y-74330000D01*
X170255000Y-74760000D01*
X169825000Y-74760000D01*
X169825000Y-74330000D01*
G37*
G36*
X171505000Y-74330000D02*
G01*
X171935000Y-74330000D01*
X171935000Y-74760000D01*
X171505000Y-74760000D01*
X171505000Y-74330000D01*
G37*
G36*
X172345000Y-74330000D02*
G01*
X172775000Y-74330000D01*
X172775000Y-74760000D01*
X172345000Y-74760000D01*
X172345000Y-74330000D01*
G37*
G36*
X174025000Y-74330000D02*
G01*
X174455000Y-74330000D01*
X174455000Y-74760000D01*
X174025000Y-74760000D01*
X174025000Y-74330000D01*
G37*
G36*
X174865000Y-74330000D02*
G01*
X175715000Y-74330000D01*
X175715000Y-74760000D01*
X174865000Y-74760000D01*
X174865000Y-74330000D01*
G37*
G36*
X178225000Y-74330000D02*
G01*
X178655000Y-74330000D01*
X178655000Y-74760000D01*
X178225000Y-74760000D01*
X178225000Y-74330000D01*
G37*
G36*
X179065000Y-74330000D02*
G01*
X179495000Y-74330000D01*
X179495000Y-74760000D01*
X179065000Y-74760000D01*
X179065000Y-74330000D01*
G37*
G36*
X180745000Y-74330000D02*
G01*
X181175000Y-74330000D01*
X181175000Y-74760000D01*
X180745000Y-74760000D01*
X180745000Y-74330000D01*
G37*
G36*
X181585000Y-74330000D02*
G01*
X182855000Y-74330000D01*
X182855000Y-74760000D01*
X181585000Y-74760000D01*
X181585000Y-74330000D01*
G37*
G36*
X168145000Y-74750000D02*
G01*
X169415000Y-74750000D01*
X169415000Y-75180000D01*
X168145000Y-75180000D01*
X168145000Y-74750000D01*
G37*
G36*
X169825000Y-74750000D02*
G01*
X170255000Y-74750000D01*
X170255000Y-75180000D01*
X169825000Y-75180000D01*
X169825000Y-74750000D01*
G37*
G36*
X171505000Y-74750000D02*
G01*
X171935000Y-74750000D01*
X171935000Y-75180000D01*
X171505000Y-75180000D01*
X171505000Y-74750000D01*
G37*
G36*
X172345000Y-74750000D02*
G01*
X172775000Y-74750000D01*
X172775000Y-75180000D01*
X172345000Y-75180000D01*
X172345000Y-74750000D01*
G37*
G36*
X173185000Y-74750000D02*
G01*
X173615000Y-74750000D01*
X173615000Y-75180000D01*
X173185000Y-75180000D01*
X173185000Y-74750000D01*
G37*
G36*
X174865000Y-74750000D02*
G01*
X175295000Y-74750000D01*
X175295000Y-75180000D01*
X174865000Y-75180000D01*
X174865000Y-74750000D01*
G37*
G36*
X176125000Y-74750000D02*
G01*
X176975000Y-74750000D01*
X176975000Y-75180000D01*
X176125000Y-75180000D01*
X176125000Y-74750000D01*
G37*
G36*
X177385000Y-74750000D02*
G01*
X178655000Y-74750000D01*
X178655000Y-75180000D01*
X177385000Y-75180000D01*
X177385000Y-74750000D01*
G37*
G36*
X179065000Y-74750000D02*
G01*
X179495000Y-74750000D01*
X179495000Y-75180000D01*
X179065000Y-75180000D01*
X179065000Y-74750000D01*
G37*
G36*
X180745000Y-74750000D02*
G01*
X181175000Y-74750000D01*
X181175000Y-75180000D01*
X180745000Y-75180000D01*
X180745000Y-74750000D01*
G37*
G36*
X181585000Y-74750000D02*
G01*
X182855000Y-74750000D01*
X182855000Y-75180000D01*
X181585000Y-75180000D01*
X181585000Y-74750000D01*
G37*
G36*
X168145000Y-75170000D02*
G01*
X169415000Y-75170000D01*
X169415000Y-75600000D01*
X168145000Y-75600000D01*
X168145000Y-75170000D01*
G37*
G36*
X169825000Y-75170000D02*
G01*
X171935000Y-75170000D01*
X171935000Y-75600000D01*
X169825000Y-75600000D01*
X169825000Y-75170000D01*
G37*
G36*
X172345000Y-75170000D02*
G01*
X172775000Y-75170000D01*
X172775000Y-75600000D01*
X172345000Y-75600000D01*
X172345000Y-75170000D01*
G37*
G36*
X173185000Y-75170000D02*
G01*
X174035000Y-75170000D01*
X174035000Y-75600000D01*
X173185000Y-75600000D01*
X173185000Y-75170000D01*
G37*
G36*
X175285000Y-75170000D02*
G01*
X176555000Y-75170000D01*
X176555000Y-75600000D01*
X175285000Y-75600000D01*
X175285000Y-75170000D01*
G37*
G36*
X177385000Y-75170000D02*
G01*
X177815000Y-75170000D01*
X177815000Y-75600000D01*
X177385000Y-75600000D01*
X177385000Y-75170000D01*
G37*
G36*
X178225000Y-75170000D02*
G01*
X178655000Y-75170000D01*
X178655000Y-75600000D01*
X178225000Y-75600000D01*
X178225000Y-75170000D01*
G37*
G36*
X179065000Y-75170000D02*
G01*
X181175000Y-75170000D01*
X181175000Y-75600000D01*
X179065000Y-75600000D01*
X179065000Y-75170000D01*
G37*
G36*
X181585000Y-75170000D02*
G01*
X182855000Y-75170000D01*
X182855000Y-75600000D01*
X181585000Y-75600000D01*
X181585000Y-75170000D01*
G37*
G36*
X168145000Y-75590000D02*
G01*
X169415000Y-75590000D01*
X169415000Y-76020000D01*
X168145000Y-76020000D01*
X168145000Y-75590000D01*
G37*
G36*
X172345000Y-75590000D02*
G01*
X172775000Y-75590000D01*
X172775000Y-76020000D01*
X172345000Y-76020000D01*
X172345000Y-75590000D01*
G37*
G36*
X173185000Y-75590000D02*
G01*
X173615000Y-75590000D01*
X173615000Y-76020000D01*
X173185000Y-76020000D01*
X173185000Y-75590000D01*
G37*
G36*
X174025000Y-75590000D02*
G01*
X174455000Y-75590000D01*
X174455000Y-76020000D01*
X174025000Y-76020000D01*
X174025000Y-75590000D01*
G37*
G36*
X174865000Y-75590000D02*
G01*
X175295000Y-75590000D01*
X175295000Y-76020000D01*
X174865000Y-76020000D01*
X174865000Y-75590000D01*
G37*
G36*
X175705000Y-75590000D02*
G01*
X176135000Y-75590000D01*
X176135000Y-76020000D01*
X175705000Y-76020000D01*
X175705000Y-75590000D01*
G37*
G36*
X176545000Y-75590000D02*
G01*
X176975000Y-75590000D01*
X176975000Y-76020000D01*
X176545000Y-76020000D01*
X176545000Y-75590000D01*
G37*
G36*
X177385000Y-75590000D02*
G01*
X177815000Y-75590000D01*
X177815000Y-76020000D01*
X177385000Y-76020000D01*
X177385000Y-75590000D01*
G37*
G36*
X178225000Y-75590000D02*
G01*
X178655000Y-75590000D01*
X178655000Y-76020000D01*
X178225000Y-76020000D01*
X178225000Y-75590000D01*
G37*
G36*
X181585000Y-75590000D02*
G01*
X182855000Y-75590000D01*
X182855000Y-76020000D01*
X181585000Y-76020000D01*
X181585000Y-75590000D01*
G37*
G36*
X168145000Y-76010000D02*
G01*
X173615000Y-76010000D01*
X173615000Y-76440000D01*
X168145000Y-76440000D01*
X168145000Y-76010000D01*
G37*
G36*
X175285000Y-76010000D02*
G01*
X176135000Y-76010000D01*
X176135000Y-76440000D01*
X175285000Y-76440000D01*
X175285000Y-76010000D01*
G37*
G36*
X176965000Y-76010000D02*
G01*
X177815000Y-76010000D01*
X177815000Y-76440000D01*
X176965000Y-76440000D01*
X176965000Y-76010000D01*
G37*
G36*
X178225000Y-76010000D02*
G01*
X182855000Y-76010000D01*
X182855000Y-76440000D01*
X178225000Y-76440000D01*
X178225000Y-76010000D01*
G37*
G36*
X168145000Y-76430000D02*
G01*
X170255000Y-76430000D01*
X170255000Y-76860000D01*
X168145000Y-76860000D01*
X168145000Y-76430000D01*
G37*
G36*
X170665000Y-76430000D02*
G01*
X171515000Y-76430000D01*
X171515000Y-76860000D01*
X170665000Y-76860000D01*
X170665000Y-76430000D01*
G37*
G36*
X173605000Y-76430000D02*
G01*
X174875000Y-76430000D01*
X174875000Y-76860000D01*
X173605000Y-76860000D01*
X173605000Y-76430000D01*
G37*
G36*
X176125000Y-76430000D02*
G01*
X176555000Y-76430000D01*
X176555000Y-76860000D01*
X176125000Y-76860000D01*
X176125000Y-76430000D01*
G37*
G36*
X176965000Y-76430000D02*
G01*
X177395000Y-76430000D01*
X177395000Y-76860000D01*
X176965000Y-76860000D01*
X176965000Y-76430000D01*
G37*
G36*
X178645000Y-76430000D02*
G01*
X179075000Y-76430000D01*
X179075000Y-76860000D01*
X178645000Y-76860000D01*
X178645000Y-76430000D01*
G37*
G36*
X181165000Y-76430000D02*
G01*
X182855000Y-76430000D01*
X182855000Y-76860000D01*
X181165000Y-76860000D01*
X181165000Y-76430000D01*
G37*
G36*
X168145000Y-76850000D02*
G01*
X169835000Y-76850000D01*
X169835000Y-77280000D01*
X168145000Y-77280000D01*
X168145000Y-76850000D01*
G37*
G36*
X170245000Y-76850000D02*
G01*
X170675000Y-76850000D01*
X170675000Y-77280000D01*
X170245000Y-77280000D01*
X170245000Y-76850000D01*
G37*
G36*
X171085000Y-76850000D02*
G01*
X172775000Y-76850000D01*
X172775000Y-77280000D01*
X171085000Y-77280000D01*
X171085000Y-76850000D01*
G37*
G36*
X174865000Y-76850000D02*
G01*
X175295000Y-76850000D01*
X175295000Y-77280000D01*
X174865000Y-77280000D01*
X174865000Y-76850000D01*
G37*
G36*
X175705000Y-76850000D02*
G01*
X176135000Y-76850000D01*
X176135000Y-77280000D01*
X175705000Y-77280000D01*
X175705000Y-76850000D01*
G37*
G36*
X176545000Y-76850000D02*
G01*
X177395000Y-76850000D01*
X177395000Y-77280000D01*
X176545000Y-77280000D01*
X176545000Y-76850000D01*
G37*
G36*
X178225000Y-76850000D02*
G01*
X178655000Y-76850000D01*
X178655000Y-77280000D01*
X178225000Y-77280000D01*
X178225000Y-76850000D01*
G37*
G36*
X179485000Y-76850000D02*
G01*
X179915000Y-76850000D01*
X179915000Y-77280000D01*
X179485000Y-77280000D01*
X179485000Y-76850000D01*
G37*
G36*
X180325000Y-76850000D02*
G01*
X180755000Y-76850000D01*
X180755000Y-77280000D01*
X180325000Y-77280000D01*
X180325000Y-76850000D01*
G37*
G36*
X181585000Y-76850000D02*
G01*
X182855000Y-76850000D01*
X182855000Y-77280000D01*
X181585000Y-77280000D01*
X181585000Y-76850000D01*
G37*
G36*
X168145000Y-77270000D02*
G01*
X169415000Y-77270000D01*
X169415000Y-77700000D01*
X168145000Y-77700000D01*
X168145000Y-77270000D01*
G37*
G36*
X170245000Y-77270000D02*
G01*
X170675000Y-77270000D01*
X170675000Y-77700000D01*
X170245000Y-77700000D01*
X170245000Y-77270000D01*
G37*
G36*
X172765000Y-77270000D02*
G01*
X173195000Y-77270000D01*
X173195000Y-77700000D01*
X172765000Y-77700000D01*
X172765000Y-77270000D01*
G37*
G36*
X174445000Y-77270000D02*
G01*
X176555000Y-77270000D01*
X176555000Y-77700000D01*
X174445000Y-77700000D01*
X174445000Y-77270000D01*
G37*
G36*
X176965000Y-77270000D02*
G01*
X177395000Y-77270000D01*
X177395000Y-77700000D01*
X176965000Y-77700000D01*
X176965000Y-77270000D01*
G37*
G36*
X177805000Y-77270000D02*
G01*
X178235000Y-77270000D01*
X178235000Y-77700000D01*
X177805000Y-77700000D01*
X177805000Y-77270000D01*
G37*
G36*
X178645000Y-77270000D02*
G01*
X179075000Y-77270000D01*
X179075000Y-77700000D01*
X178645000Y-77700000D01*
X178645000Y-77270000D01*
G37*
G36*
X180745000Y-77270000D02*
G01*
X181175000Y-77270000D01*
X181175000Y-77700000D01*
X180745000Y-77700000D01*
X180745000Y-77270000D01*
G37*
G36*
X181585000Y-77270000D02*
G01*
X182855000Y-77270000D01*
X182855000Y-77700000D01*
X181585000Y-77700000D01*
X181585000Y-77270000D01*
G37*
G36*
X168145000Y-77690000D02*
G01*
X169835000Y-77690000D01*
X169835000Y-78120000D01*
X168145000Y-78120000D01*
X168145000Y-77690000D01*
G37*
G36*
X171505000Y-77690000D02*
G01*
X172355000Y-77690000D01*
X172355000Y-78120000D01*
X171505000Y-78120000D01*
X171505000Y-77690000D01*
G37*
G36*
X174025000Y-77690000D02*
G01*
X174875000Y-77690000D01*
X174875000Y-78120000D01*
X174025000Y-78120000D01*
X174025000Y-77690000D01*
G37*
G36*
X175285000Y-77690000D02*
G01*
X176975000Y-77690000D01*
X176975000Y-78120000D01*
X175285000Y-78120000D01*
X175285000Y-77690000D01*
G37*
G36*
X178225000Y-77690000D02*
G01*
X178655000Y-77690000D01*
X178655000Y-78120000D01*
X178225000Y-78120000D01*
X178225000Y-77690000D01*
G37*
G36*
X180325000Y-77690000D02*
G01*
X182855000Y-77690000D01*
X182855000Y-78120000D01*
X180325000Y-78120000D01*
X180325000Y-77690000D01*
G37*
G36*
X168145000Y-78110000D02*
G01*
X170255000Y-78110000D01*
X170255000Y-78540000D01*
X168145000Y-78540000D01*
X168145000Y-78110000D01*
G37*
G36*
X170665000Y-78110000D02*
G01*
X171935000Y-78110000D01*
X171935000Y-78540000D01*
X170665000Y-78540000D01*
X170665000Y-78110000D01*
G37*
G36*
X172345000Y-78110000D02*
G01*
X173195000Y-78110000D01*
X173195000Y-78540000D01*
X172345000Y-78540000D01*
X172345000Y-78110000D01*
G37*
G36*
X174025000Y-78110000D02*
G01*
X174455000Y-78110000D01*
X174455000Y-78540000D01*
X174025000Y-78540000D01*
X174025000Y-78110000D01*
G37*
G36*
X174865000Y-78110000D02*
G01*
X176975000Y-78110000D01*
X176975000Y-78540000D01*
X174865000Y-78540000D01*
X174865000Y-78110000D01*
G37*
G36*
X177385000Y-78110000D02*
G01*
X177815000Y-78110000D01*
X177815000Y-78540000D01*
X177385000Y-78540000D01*
X177385000Y-78110000D01*
G37*
G36*
X179065000Y-78110000D02*
G01*
X179915000Y-78110000D01*
X179915000Y-78540000D01*
X179065000Y-78540000D01*
X179065000Y-78110000D01*
G37*
G36*
X180325000Y-78110000D02*
G01*
X180755000Y-78110000D01*
X180755000Y-78540000D01*
X180325000Y-78540000D01*
X180325000Y-78110000D01*
G37*
G36*
X181165000Y-78110000D02*
G01*
X182855000Y-78110000D01*
X182855000Y-78540000D01*
X181165000Y-78540000D01*
X181165000Y-78110000D01*
G37*
G36*
X168145000Y-78530000D02*
G01*
X170675000Y-78530000D01*
X170675000Y-78960000D01*
X168145000Y-78960000D01*
X168145000Y-78530000D01*
G37*
G36*
X171085000Y-78530000D02*
G01*
X172355000Y-78530000D01*
X172355000Y-78960000D01*
X171085000Y-78960000D01*
X171085000Y-78530000D01*
G37*
G36*
X172765000Y-78530000D02*
G01*
X173195000Y-78530000D01*
X173195000Y-78960000D01*
X172765000Y-78960000D01*
X172765000Y-78530000D01*
G37*
G36*
X173605000Y-78530000D02*
G01*
X174035000Y-78530000D01*
X174035000Y-78960000D01*
X173605000Y-78960000D01*
X173605000Y-78530000D01*
G37*
G36*
X174445000Y-78530000D02*
G01*
X174875000Y-78530000D01*
X174875000Y-78960000D01*
X174445000Y-78960000D01*
X174445000Y-78530000D01*
G37*
G36*
X175285000Y-78530000D02*
G01*
X175715000Y-78530000D01*
X175715000Y-78960000D01*
X175285000Y-78960000D01*
X175285000Y-78530000D01*
G37*
G36*
X176125000Y-78530000D02*
G01*
X176555000Y-78530000D01*
X176555000Y-78960000D01*
X176125000Y-78960000D01*
X176125000Y-78530000D01*
G37*
G36*
X176965000Y-78530000D02*
G01*
X177395000Y-78530000D01*
X177395000Y-78960000D01*
X176965000Y-78960000D01*
X176965000Y-78530000D01*
G37*
G36*
X178225000Y-78530000D02*
G01*
X178655000Y-78530000D01*
X178655000Y-78960000D01*
X178225000Y-78960000D01*
X178225000Y-78530000D01*
G37*
G36*
X179065000Y-78530000D02*
G01*
X179915000Y-78530000D01*
X179915000Y-78960000D01*
X179065000Y-78960000D01*
X179065000Y-78530000D01*
G37*
G36*
X180325000Y-78530000D02*
G01*
X181175000Y-78530000D01*
X181175000Y-78960000D01*
X180325000Y-78960000D01*
X180325000Y-78530000D01*
G37*
G36*
X181585000Y-78530000D02*
G01*
X182855000Y-78530000D01*
X182855000Y-78960000D01*
X181585000Y-78960000D01*
X181585000Y-78530000D01*
G37*
G36*
X168145000Y-78950000D02*
G01*
X169835000Y-78950000D01*
X169835000Y-79380000D01*
X168145000Y-79380000D01*
X168145000Y-78950000D01*
G37*
G36*
X170245000Y-78950000D02*
G01*
X171095000Y-78950000D01*
X171095000Y-79380000D01*
X170245000Y-79380000D01*
X170245000Y-78950000D01*
G37*
G36*
X171505000Y-78950000D02*
G01*
X171935000Y-78950000D01*
X171935000Y-79380000D01*
X171505000Y-79380000D01*
X171505000Y-78950000D01*
G37*
G36*
X172345000Y-78950000D02*
G01*
X173195000Y-78950000D01*
X173195000Y-79380000D01*
X172345000Y-79380000D01*
X172345000Y-78950000D01*
G37*
G36*
X174025000Y-78950000D02*
G01*
X174455000Y-78950000D01*
X174455000Y-79380000D01*
X174025000Y-79380000D01*
X174025000Y-78950000D01*
G37*
G36*
X176125000Y-78950000D02*
G01*
X176555000Y-78950000D01*
X176555000Y-79380000D01*
X176125000Y-79380000D01*
X176125000Y-78950000D01*
G37*
G36*
X176965000Y-78950000D02*
G01*
X177395000Y-78950000D01*
X177395000Y-79380000D01*
X176965000Y-79380000D01*
X176965000Y-78950000D01*
G37*
G36*
X177805000Y-78950000D02*
G01*
X178655000Y-78950000D01*
X178655000Y-79380000D01*
X177805000Y-79380000D01*
X177805000Y-78950000D01*
G37*
G36*
X179065000Y-78950000D02*
G01*
X179915000Y-78950000D01*
X179915000Y-79380000D01*
X179065000Y-79380000D01*
X179065000Y-78950000D01*
G37*
G36*
X180745000Y-78950000D02*
G01*
X181175000Y-78950000D01*
X181175000Y-79380000D01*
X180745000Y-79380000D01*
X180745000Y-78950000D01*
G37*
G36*
X181585000Y-78950000D02*
G01*
X182855000Y-78950000D01*
X182855000Y-79380000D01*
X181585000Y-79380000D01*
X181585000Y-78950000D01*
G37*
G36*
X168145000Y-79370000D02*
G01*
X169415000Y-79370000D01*
X169415000Y-79800000D01*
X168145000Y-79800000D01*
X168145000Y-79370000D01*
G37*
G36*
X169825000Y-79370000D02*
G01*
X170255000Y-79370000D01*
X170255000Y-79800000D01*
X169825000Y-79800000D01*
X169825000Y-79370000D01*
G37*
G36*
X171505000Y-79370000D02*
G01*
X172775000Y-79370000D01*
X172775000Y-79800000D01*
X171505000Y-79800000D01*
X171505000Y-79370000D01*
G37*
G36*
X173605000Y-79370000D02*
G01*
X175295000Y-79370000D01*
X175295000Y-79800000D01*
X173605000Y-79800000D01*
X173605000Y-79370000D01*
G37*
G36*
X176545000Y-79370000D02*
G01*
X176975000Y-79370000D01*
X176975000Y-79800000D01*
X176545000Y-79800000D01*
X176545000Y-79370000D01*
G37*
G36*
X177805000Y-79370000D02*
G01*
X178235000Y-79370000D01*
X178235000Y-79800000D01*
X177805000Y-79800000D01*
X177805000Y-79370000D01*
G37*
G36*
X178645000Y-79370000D02*
G01*
X179915000Y-79370000D01*
X179915000Y-79800000D01*
X178645000Y-79800000D01*
X178645000Y-79370000D01*
G37*
G36*
X180325000Y-79370000D02*
G01*
X181175000Y-79370000D01*
X181175000Y-79800000D01*
X180325000Y-79800000D01*
X180325000Y-79370000D01*
G37*
G36*
X181585000Y-79370000D02*
G01*
X182855000Y-79370000D01*
X182855000Y-79800000D01*
X181585000Y-79800000D01*
X181585000Y-79370000D01*
G37*
G36*
X168145000Y-79790000D02*
G01*
X169835000Y-79790000D01*
X169835000Y-80220000D01*
X168145000Y-80220000D01*
X168145000Y-79790000D01*
G37*
G36*
X171085000Y-79790000D02*
G01*
X171515000Y-79790000D01*
X171515000Y-80220000D01*
X171085000Y-80220000D01*
X171085000Y-79790000D01*
G37*
G36*
X173185000Y-79790000D02*
G01*
X174875000Y-79790000D01*
X174875000Y-80220000D01*
X173185000Y-80220000D01*
X173185000Y-79790000D01*
G37*
G36*
X175705000Y-79790000D02*
G01*
X176975000Y-79790000D01*
X176975000Y-80220000D01*
X175705000Y-80220000D01*
X175705000Y-79790000D01*
G37*
G36*
X177385000Y-79790000D02*
G01*
X177815000Y-79790000D01*
X177815000Y-80220000D01*
X177385000Y-80220000D01*
X177385000Y-79790000D01*
G37*
G36*
X179485000Y-79790000D02*
G01*
X182855000Y-79790000D01*
X182855000Y-80220000D01*
X179485000Y-80220000D01*
X179485000Y-79790000D01*
G37*
G36*
X168145000Y-80210000D02*
G01*
X170255000Y-80210000D01*
X170255000Y-80640000D01*
X168145000Y-80640000D01*
X168145000Y-80210000D01*
G37*
G36*
X170665000Y-80210000D02*
G01*
X171095000Y-80210000D01*
X171095000Y-80640000D01*
X170665000Y-80640000D01*
X170665000Y-80210000D01*
G37*
G36*
X171505000Y-80210000D02*
G01*
X172355000Y-80210000D01*
X172355000Y-80640000D01*
X171505000Y-80640000D01*
X171505000Y-80210000D01*
G37*
G36*
X173605000Y-80210000D02*
G01*
X174035000Y-80210000D01*
X174035000Y-80640000D01*
X173605000Y-80640000D01*
X173605000Y-80210000D01*
G37*
G36*
X174445000Y-80210000D02*
G01*
X174875000Y-80210000D01*
X174875000Y-80640000D01*
X174445000Y-80640000D01*
X174445000Y-80210000D01*
G37*
G36*
X175285000Y-80210000D02*
G01*
X175715000Y-80210000D01*
X175715000Y-80640000D01*
X175285000Y-80640000D01*
X175285000Y-80210000D01*
G37*
G36*
X178225000Y-80210000D02*
G01*
X178655000Y-80210000D01*
X178655000Y-80640000D01*
X178225000Y-80640000D01*
X178225000Y-80210000D01*
G37*
G36*
X179485000Y-80210000D02*
G01*
X181175000Y-80210000D01*
X181175000Y-80640000D01*
X179485000Y-80640000D01*
X179485000Y-80210000D01*
G37*
G36*
X181585000Y-80210000D02*
G01*
X182855000Y-80210000D01*
X182855000Y-80640000D01*
X181585000Y-80640000D01*
X181585000Y-80210000D01*
G37*
G36*
X168145000Y-80630000D02*
G01*
X169415000Y-80630000D01*
X169415000Y-81060000D01*
X168145000Y-81060000D01*
X168145000Y-80630000D01*
G37*
G36*
X170245000Y-80630000D02*
G01*
X170675000Y-80630000D01*
X170675000Y-81060000D01*
X170245000Y-81060000D01*
X170245000Y-80630000D01*
G37*
G36*
X173185000Y-80630000D02*
G01*
X173615000Y-80630000D01*
X173615000Y-81060000D01*
X173185000Y-81060000D01*
X173185000Y-80630000D01*
G37*
G36*
X174865000Y-80630000D02*
G01*
X175715000Y-80630000D01*
X175715000Y-81060000D01*
X174865000Y-81060000D01*
X174865000Y-80630000D01*
G37*
G36*
X176965000Y-80630000D02*
G01*
X177395000Y-80630000D01*
X177395000Y-81060000D01*
X176965000Y-81060000D01*
X176965000Y-80630000D01*
G37*
G36*
X177805000Y-80630000D02*
G01*
X179075000Y-80630000D01*
X179075000Y-81060000D01*
X177805000Y-81060000D01*
X177805000Y-80630000D01*
G37*
G36*
X179485000Y-80630000D02*
G01*
X181175000Y-80630000D01*
X181175000Y-81060000D01*
X179485000Y-81060000D01*
X179485000Y-80630000D01*
G37*
G36*
X181585000Y-80630000D02*
G01*
X182855000Y-80630000D01*
X182855000Y-81060000D01*
X181585000Y-81060000D01*
X181585000Y-80630000D01*
G37*
G36*
X168145000Y-81050000D02*
G01*
X170255000Y-81050000D01*
X170255000Y-81480000D01*
X168145000Y-81480000D01*
X168145000Y-81050000D01*
G37*
G36*
X171505000Y-81050000D02*
G01*
X172775000Y-81050000D01*
X172775000Y-81480000D01*
X171505000Y-81480000D01*
X171505000Y-81050000D01*
G37*
G36*
X173185000Y-81050000D02*
G01*
X175295000Y-81050000D01*
X175295000Y-81480000D01*
X173185000Y-81480000D01*
X173185000Y-81050000D01*
G37*
G36*
X176125000Y-81050000D02*
G01*
X177395000Y-81050000D01*
X177395000Y-81480000D01*
X176125000Y-81480000D01*
X176125000Y-81050000D01*
G37*
G36*
X177805000Y-81050000D02*
G01*
X178235000Y-81050000D01*
X178235000Y-81480000D01*
X177805000Y-81480000D01*
X177805000Y-81050000D01*
G37*
G36*
X179065000Y-81050000D02*
G01*
X179915000Y-81050000D01*
X179915000Y-81480000D01*
X179065000Y-81480000D01*
X179065000Y-81050000D01*
G37*
G36*
X180325000Y-81050000D02*
G01*
X180755000Y-81050000D01*
X180755000Y-81480000D01*
X180325000Y-81480000D01*
X180325000Y-81050000D01*
G37*
G36*
X181585000Y-81050000D02*
G01*
X182855000Y-81050000D01*
X182855000Y-81480000D01*
X181585000Y-81480000D01*
X181585000Y-81050000D01*
G37*
G36*
X168145000Y-81470000D02*
G01*
X169415000Y-81470000D01*
X169415000Y-81900000D01*
X168145000Y-81900000D01*
X168145000Y-81470000D01*
G37*
G36*
X171505000Y-81470000D02*
G01*
X171935000Y-81470000D01*
X171935000Y-81900000D01*
X171505000Y-81900000D01*
X171505000Y-81470000D01*
G37*
G36*
X172345000Y-81470000D02*
G01*
X172775000Y-81470000D01*
X172775000Y-81900000D01*
X172345000Y-81900000D01*
X172345000Y-81470000D01*
G37*
G36*
X173185000Y-81470000D02*
G01*
X174875000Y-81470000D01*
X174875000Y-81900000D01*
X173185000Y-81900000D01*
X173185000Y-81470000D01*
G37*
G36*
X175285000Y-81470000D02*
G01*
X175715000Y-81470000D01*
X175715000Y-81900000D01*
X175285000Y-81900000D01*
X175285000Y-81470000D01*
G37*
G36*
X176125000Y-81470000D02*
G01*
X176555000Y-81470000D01*
X176555000Y-81900000D01*
X176125000Y-81900000D01*
X176125000Y-81470000D01*
G37*
G36*
X180325000Y-81470000D02*
G01*
X181175000Y-81470000D01*
X181175000Y-81900000D01*
X180325000Y-81900000D01*
X180325000Y-81470000D01*
G37*
G36*
X181585000Y-81470000D02*
G01*
X182855000Y-81470000D01*
X182855000Y-81900000D01*
X181585000Y-81900000D01*
X181585000Y-81470000D01*
G37*
G36*
X168145000Y-81890000D02*
G01*
X172775000Y-81890000D01*
X172775000Y-82320000D01*
X168145000Y-82320000D01*
X168145000Y-81890000D01*
G37*
G36*
X173185000Y-81890000D02*
G01*
X173615000Y-81890000D01*
X173615000Y-82320000D01*
X173185000Y-82320000D01*
X173185000Y-81890000D01*
G37*
G36*
X174865000Y-81890000D02*
G01*
X176135000Y-81890000D01*
X176135000Y-82320000D01*
X174865000Y-82320000D01*
X174865000Y-81890000D01*
G37*
G36*
X176965000Y-81890000D02*
G01*
X177815000Y-81890000D01*
X177815000Y-82320000D01*
X176965000Y-82320000D01*
X176965000Y-81890000D01*
G37*
G36*
X178225000Y-81890000D02*
G01*
X179495000Y-81890000D01*
X179495000Y-82320000D01*
X178225000Y-82320000D01*
X178225000Y-81890000D01*
G37*
G36*
X180325000Y-81890000D02*
G01*
X181175000Y-81890000D01*
X181175000Y-82320000D01*
X180325000Y-82320000D01*
X180325000Y-81890000D01*
G37*
G36*
X181585000Y-81890000D02*
G01*
X182855000Y-81890000D01*
X182855000Y-82320000D01*
X181585000Y-82320000D01*
X181585000Y-81890000D01*
G37*
G36*
X168145000Y-82310000D02*
G01*
X169415000Y-82310000D01*
X169415000Y-82740000D01*
X168145000Y-82740000D01*
X168145000Y-82310000D01*
G37*
G36*
X172345000Y-82310000D02*
G01*
X172775000Y-82310000D01*
X172775000Y-82740000D01*
X172345000Y-82740000D01*
X172345000Y-82310000D01*
G37*
G36*
X173605000Y-82310000D02*
G01*
X174035000Y-82310000D01*
X174035000Y-82740000D01*
X173605000Y-82740000D01*
X173605000Y-82310000D01*
G37*
G36*
X175285000Y-82310000D02*
G01*
X175715000Y-82310000D01*
X175715000Y-82740000D01*
X175285000Y-82740000D01*
X175285000Y-82310000D01*
G37*
G36*
X176125000Y-82310000D02*
G01*
X176555000Y-82310000D01*
X176555000Y-82740000D01*
X176125000Y-82740000D01*
X176125000Y-82310000D01*
G37*
G36*
X177385000Y-82310000D02*
G01*
X177815000Y-82310000D01*
X177815000Y-82740000D01*
X177385000Y-82740000D01*
X177385000Y-82310000D01*
G37*
G36*
X178225000Y-82310000D02*
G01*
X178655000Y-82310000D01*
X178655000Y-82740000D01*
X178225000Y-82740000D01*
X178225000Y-82310000D01*
G37*
G36*
X179065000Y-82310000D02*
G01*
X179495000Y-82310000D01*
X179495000Y-82740000D01*
X179065000Y-82740000D01*
X179065000Y-82310000D01*
G37*
G36*
X180745000Y-82310000D02*
G01*
X181175000Y-82310000D01*
X181175000Y-82740000D01*
X180745000Y-82740000D01*
X180745000Y-82310000D01*
G37*
G36*
X181585000Y-82310000D02*
G01*
X182855000Y-82310000D01*
X182855000Y-82740000D01*
X181585000Y-82740000D01*
X181585000Y-82310000D01*
G37*
G36*
X168145000Y-82730000D02*
G01*
X169415000Y-82730000D01*
X169415000Y-83160000D01*
X168145000Y-83160000D01*
X168145000Y-82730000D01*
G37*
G36*
X169825000Y-82730000D02*
G01*
X171935000Y-82730000D01*
X171935000Y-83160000D01*
X169825000Y-83160000D01*
X169825000Y-82730000D01*
G37*
G36*
X172345000Y-82730000D02*
G01*
X172775000Y-82730000D01*
X172775000Y-83160000D01*
X172345000Y-83160000D01*
X172345000Y-82730000D01*
G37*
G36*
X173605000Y-82730000D02*
G01*
X174875000Y-82730000D01*
X174875000Y-83160000D01*
X173605000Y-83160000D01*
X173605000Y-82730000D01*
G37*
G36*
X175705000Y-82730000D02*
G01*
X176135000Y-82730000D01*
X176135000Y-83160000D01*
X175705000Y-83160000D01*
X175705000Y-82730000D01*
G37*
G36*
X176545000Y-82730000D02*
G01*
X177395000Y-82730000D01*
X177395000Y-83160000D01*
X176545000Y-83160000D01*
X176545000Y-82730000D01*
G37*
G36*
X178225000Y-82730000D02*
G01*
X179495000Y-82730000D01*
X179495000Y-83160000D01*
X178225000Y-83160000D01*
X178225000Y-82730000D01*
G37*
G36*
X180325000Y-82730000D02*
G01*
X180755000Y-82730000D01*
X180755000Y-83160000D01*
X180325000Y-83160000D01*
X180325000Y-82730000D01*
G37*
G36*
X181165000Y-82730000D02*
G01*
X182855000Y-82730000D01*
X182855000Y-83160000D01*
X181165000Y-83160000D01*
X181165000Y-82730000D01*
G37*
G36*
X168145000Y-83150000D02*
G01*
X169415000Y-83150000D01*
X169415000Y-83580000D01*
X168145000Y-83580000D01*
X168145000Y-83150000D01*
G37*
G36*
X169825000Y-83150000D02*
G01*
X170255000Y-83150000D01*
X170255000Y-83580000D01*
X169825000Y-83580000D01*
X169825000Y-83150000D01*
G37*
G36*
X171505000Y-83150000D02*
G01*
X171935000Y-83150000D01*
X171935000Y-83580000D01*
X171505000Y-83580000D01*
X171505000Y-83150000D01*
G37*
G36*
X172345000Y-83150000D02*
G01*
X173195000Y-83150000D01*
X173195000Y-83580000D01*
X172345000Y-83580000D01*
X172345000Y-83150000D01*
G37*
G36*
X173605000Y-83150000D02*
G01*
X174875000Y-83150000D01*
X174875000Y-83580000D01*
X173605000Y-83580000D01*
X173605000Y-83150000D01*
G37*
G36*
X175285000Y-83150000D02*
G01*
X176555000Y-83150000D01*
X176555000Y-83580000D01*
X175285000Y-83580000D01*
X175285000Y-83150000D01*
G37*
G36*
X179905000Y-83150000D02*
G01*
X180755000Y-83150000D01*
X180755000Y-83580000D01*
X179905000Y-83580000D01*
X179905000Y-83150000D01*
G37*
G36*
X181585000Y-83150000D02*
G01*
X182855000Y-83150000D01*
X182855000Y-83580000D01*
X181585000Y-83580000D01*
X181585000Y-83150000D01*
G37*
G36*
X168145000Y-83570000D02*
G01*
X169415000Y-83570000D01*
X169415000Y-84000000D01*
X168145000Y-84000000D01*
X168145000Y-83570000D01*
G37*
G36*
X169825000Y-83570000D02*
G01*
X170255000Y-83570000D01*
X170255000Y-84000000D01*
X169825000Y-84000000D01*
X169825000Y-83570000D01*
G37*
G36*
X171505000Y-83570000D02*
G01*
X171935000Y-83570000D01*
X171935000Y-84000000D01*
X171505000Y-84000000D01*
X171505000Y-83570000D01*
G37*
G36*
X172345000Y-83570000D02*
G01*
X173615000Y-83570000D01*
X173615000Y-84000000D01*
X172345000Y-84000000D01*
X172345000Y-83570000D01*
G37*
G36*
X174025000Y-83570000D02*
G01*
X174875000Y-83570000D01*
X174875000Y-84000000D01*
X174025000Y-84000000D01*
X174025000Y-83570000D01*
G37*
G36*
X175285000Y-83570000D02*
G01*
X175715000Y-83570000D01*
X175715000Y-84000000D01*
X175285000Y-84000000D01*
X175285000Y-83570000D01*
G37*
G36*
X176125000Y-83570000D02*
G01*
X176555000Y-83570000D01*
X176555000Y-84000000D01*
X176125000Y-84000000D01*
X176125000Y-83570000D01*
G37*
G36*
X176965000Y-83570000D02*
G01*
X177395000Y-83570000D01*
X177395000Y-84000000D01*
X176965000Y-84000000D01*
X176965000Y-83570000D01*
G37*
G36*
X178225000Y-83570000D02*
G01*
X179075000Y-83570000D01*
X179075000Y-84000000D01*
X178225000Y-84000000D01*
X178225000Y-83570000D01*
G37*
G36*
X179905000Y-83570000D02*
G01*
X180755000Y-83570000D01*
X180755000Y-84000000D01*
X179905000Y-84000000D01*
X179905000Y-83570000D01*
G37*
G36*
X181165000Y-83570000D02*
G01*
X182855000Y-83570000D01*
X182855000Y-84000000D01*
X181165000Y-84000000D01*
X181165000Y-83570000D01*
G37*
G36*
X168145000Y-83990000D02*
G01*
X169415000Y-83990000D01*
X169415000Y-84420000D01*
X168145000Y-84420000D01*
X168145000Y-83990000D01*
G37*
G36*
X169825000Y-83990000D02*
G01*
X170255000Y-83990000D01*
X170255000Y-84420000D01*
X169825000Y-84420000D01*
X169825000Y-83990000D01*
G37*
G36*
X171505000Y-83990000D02*
G01*
X171935000Y-83990000D01*
X171935000Y-84420000D01*
X171505000Y-84420000D01*
X171505000Y-83990000D01*
G37*
G36*
X172345000Y-83990000D02*
G01*
X172775000Y-83990000D01*
X172775000Y-84420000D01*
X172345000Y-84420000D01*
X172345000Y-83990000D01*
G37*
G36*
X173185000Y-83990000D02*
G01*
X174035000Y-83990000D01*
X174035000Y-84420000D01*
X173185000Y-84420000D01*
X173185000Y-83990000D01*
G37*
G36*
X174445000Y-83990000D02*
G01*
X176135000Y-83990000D01*
X176135000Y-84420000D01*
X174445000Y-84420000D01*
X174445000Y-83990000D01*
G37*
G36*
X176965000Y-83990000D02*
G01*
X178235000Y-83990000D01*
X178235000Y-84420000D01*
X176965000Y-84420000D01*
X176965000Y-83990000D01*
G37*
G36*
X178645000Y-83990000D02*
G01*
X179495000Y-83990000D01*
X179495000Y-84420000D01*
X178645000Y-84420000D01*
X178645000Y-83990000D01*
G37*
G36*
X179905000Y-83990000D02*
G01*
X180335000Y-83990000D01*
X180335000Y-84420000D01*
X179905000Y-84420000D01*
X179905000Y-83990000D01*
G37*
G36*
X181585000Y-83990000D02*
G01*
X182855000Y-83990000D01*
X182855000Y-84420000D01*
X181585000Y-84420000D01*
X181585000Y-83990000D01*
G37*
G36*
X168145000Y-84410000D02*
G01*
X169415000Y-84410000D01*
X169415000Y-84840000D01*
X168145000Y-84840000D01*
X168145000Y-84410000D01*
G37*
G36*
X169825000Y-84410000D02*
G01*
X171935000Y-84410000D01*
X171935000Y-84840000D01*
X169825000Y-84840000D01*
X169825000Y-84410000D01*
G37*
G36*
X172345000Y-84410000D02*
G01*
X174035000Y-84410000D01*
X174035000Y-84840000D01*
X172345000Y-84840000D01*
X172345000Y-84410000D01*
G37*
G36*
X175285000Y-84410000D02*
G01*
X175715000Y-84410000D01*
X175715000Y-84840000D01*
X175285000Y-84840000D01*
X175285000Y-84410000D01*
G37*
G36*
X176125000Y-84410000D02*
G01*
X176975000Y-84410000D01*
X176975000Y-84840000D01*
X176125000Y-84840000D01*
X176125000Y-84410000D01*
G37*
G36*
X177385000Y-84410000D02*
G01*
X177815000Y-84410000D01*
X177815000Y-84840000D01*
X177385000Y-84840000D01*
X177385000Y-84410000D01*
G37*
G36*
X179065000Y-84410000D02*
G01*
X179915000Y-84410000D01*
X179915000Y-84840000D01*
X179065000Y-84840000D01*
X179065000Y-84410000D01*
G37*
G36*
X180325000Y-84410000D02*
G01*
X182855000Y-84410000D01*
X182855000Y-84840000D01*
X180325000Y-84840000D01*
X180325000Y-84410000D01*
G37*
G36*
X168145000Y-84830000D02*
G01*
X169415000Y-84830000D01*
X169415000Y-85260000D01*
X168145000Y-85260000D01*
X168145000Y-84830000D01*
G37*
G36*
X172345000Y-84830000D02*
G01*
X173195000Y-84830000D01*
X173195000Y-85260000D01*
X172345000Y-85260000D01*
X172345000Y-84830000D01*
G37*
G36*
X173605000Y-84830000D02*
G01*
X174455000Y-84830000D01*
X174455000Y-85260000D01*
X173605000Y-85260000D01*
X173605000Y-84830000D01*
G37*
G36*
X175705000Y-84830000D02*
G01*
X176555000Y-84830000D01*
X176555000Y-85260000D01*
X175705000Y-85260000D01*
X175705000Y-84830000D01*
G37*
G36*
X176965000Y-84830000D02*
G01*
X177815000Y-84830000D01*
X177815000Y-85260000D01*
X176965000Y-85260000D01*
X176965000Y-84830000D01*
G37*
G36*
X178645000Y-84830000D02*
G01*
X179075000Y-84830000D01*
X179075000Y-85260000D01*
X178645000Y-85260000D01*
X178645000Y-84830000D01*
G37*
G36*
X180325000Y-84830000D02*
G01*
X181175000Y-84830000D01*
X181175000Y-85260000D01*
X180325000Y-85260000D01*
X180325000Y-84830000D01*
G37*
G36*
X181585000Y-84830000D02*
G01*
X182855000Y-84830000D01*
X182855000Y-85260000D01*
X181585000Y-85260000D01*
X181585000Y-84830000D01*
G37*
G36*
X168145000Y-85250000D02*
G01*
X182855000Y-85250000D01*
X182855000Y-85680000D01*
X168145000Y-85680000D01*
X168145000Y-85250000D01*
G37*
G36*
X168145000Y-85670000D02*
G01*
X182855000Y-85670000D01*
X182855000Y-86100000D01*
X168145000Y-86100000D01*
X168145000Y-85670000D01*
G37*
G36*
X168145000Y-86090000D02*
G01*
X182855000Y-86090000D01*
X182855000Y-86520000D01*
X168145000Y-86520000D01*
X168145000Y-86090000D01*
G37*
%TD*%
M02*
