%TF.GenerationSoftware,KiCad,Pcbnew,9.0.8+1*%
%TF.CreationDate,2026-07-01T06:45:55-04:00*%
%TF.ProjectId,om27_strumplate,6f6d3237-5f73-4747-9275-6d706c617465,rev?*%
%TF.SameCoordinates,Original*%
%TF.FileFunction,Copper,L1,Top*%
%TF.FilePolarity,Positive*%
%FSLAX46Y46*%
G04 Gerber Fmt 4.6, Leading zero omitted, Abs format (unit mm)*
G04 Created by KiCad (PCBNEW 9.0.8+1) date 2026-07-01 06:45:55*
%MOMM*%
%LPD*%
G01*
G04 APERTURE LIST*
%TA.AperFunction,NonConductor*%
%ADD10C,0.000000*%
%TD*%
G04 APERTURE END LIST*
D10*
%TA.AperFunction,NonConductor*%
G36*
X109395830Y-25123160D02*
G01*
X118860887Y-25123160D01*
X118860887Y-71826221D01*
X194085247Y-71826221D01*
X194085247Y-72529529D01*
X118860918Y-72529529D01*
X118860918Y-72547137D01*
X117860979Y-72547137D01*
X117860979Y-26123099D01*
X109395861Y-26123099D01*
X109395861Y-28753958D01*
X91327717Y-28753958D01*
X91327717Y-27553000D01*
X108196978Y-27553000D01*
X108196978Y-23913932D01*
X91327717Y-23913932D01*
X91327717Y-22715049D01*
X109395830Y-22715049D01*
X109395830Y-25123160D01*
G37*
%TD.AperFunction*%
%TA.AperFunction,NonConductor*%
G36*
X109395830Y-49140584D02*
G01*
X115892076Y-49140584D01*
X115892076Y-74331805D01*
X194085247Y-74331805D01*
X194085247Y-75048541D01*
X115892107Y-75048541D01*
X115892107Y-75056537D01*
X114892168Y-75056537D01*
X114892168Y-50140737D01*
X109395861Y-50140737D01*
X109395861Y-52734363D01*
X91327717Y-52734363D01*
X91327717Y-51533406D01*
X108196978Y-51533406D01*
X108196978Y-47894368D01*
X91327717Y-47894368D01*
X91327717Y-46695485D01*
X109395830Y-46695241D01*
X109395830Y-49140584D01*
G37*
%TD.AperFunction*%
%TA.AperFunction,NonConductor*%
G36*
X109395861Y-34667868D02*
G01*
X109395861Y-37152455D01*
X117401567Y-37152455D01*
X117401567Y-73101672D01*
X194085247Y-73101672D01*
X194085247Y-73810687D01*
X117401567Y-73810687D01*
X117401567Y-73835986D01*
X116401628Y-73835986D01*
X116401628Y-38152364D01*
X109395861Y-38152364D01*
X109395861Y-40707234D01*
X91327717Y-40707234D01*
X91327717Y-39507833D01*
X108196978Y-39507833D01*
X108196978Y-35869284D01*
X91327717Y-35869284D01*
X91327717Y-34667807D01*
X109395861Y-34667868D01*
G37*
%TD.AperFunction*%
%TA.AperFunction,NonConductor*%
G36*
X109395861Y-61105426D02*
G01*
X114417253Y-61105426D01*
X114417253Y-75607409D01*
X194085247Y-75607409D01*
X194085247Y-76330371D01*
X113579576Y-76330371D01*
X113579576Y-76312762D01*
X113417314Y-76312762D01*
X113417314Y-62105365D01*
X109395861Y-62105365D01*
X109395861Y-64759997D01*
X91327717Y-64759997D01*
X91327717Y-63560596D01*
X108196978Y-63560596D01*
X108196978Y-59922046D01*
X91327717Y-59922046D01*
X91327717Y-58720569D01*
X109395861Y-58720569D01*
X109395861Y-61105426D01*
G37*
%TD.AperFunction*%
%TA.AperFunction,NonConductor*%
G36*
X109395891Y-73093768D02*
G01*
X113081438Y-73093768D01*
X113081438Y-76839801D01*
X194085247Y-76839801D01*
X194085247Y-77568439D01*
X112300066Y-77568439D01*
X112300066Y-77548846D01*
X112081469Y-77548846D01*
X112081469Y-74093768D01*
X109395861Y-74093768D01*
X109395861Y-76754077D01*
X91327717Y-76754077D01*
X91327717Y-75554675D01*
X108196978Y-75554675D01*
X108196978Y-71916125D01*
X91327717Y-71916125D01*
X91327717Y-70716723D01*
X109395891Y-70716662D01*
X109395891Y-73093768D01*
G37*
%TD.AperFunction*%
%TA.AperFunction,NonConductor*%
G36*
X115892076Y-81816333D02*
G01*
X115892076Y-81828235D01*
X194085247Y-81828235D01*
X194085247Y-82542895D01*
X115892076Y-82542895D01*
X115892076Y-109982528D01*
X109395830Y-109982528D01*
X109395830Y-112650557D01*
X91327686Y-112650557D01*
X91327686Y-111451156D01*
X108196947Y-111451156D01*
X108196947Y-107812606D01*
X91327686Y-107812606D01*
X91327686Y-106611129D01*
X109395830Y-106611129D01*
X109395830Y-108982589D01*
X114892138Y-108982589D01*
X114892138Y-81816272D01*
X115892076Y-81816333D01*
G37*
%TD.AperFunction*%
%TA.AperFunction,NonConductor*%
G36*
X117401537Y-83064258D02*
G01*
X194085216Y-83064258D01*
X194085216Y-83773242D01*
X117401537Y-83773242D01*
X117401537Y-121990035D01*
X109395830Y-121990035D01*
X109395830Y-124732467D01*
X91327686Y-124732467D01*
X91327686Y-123533065D01*
X108196947Y-123533065D01*
X108196947Y-119894515D01*
X91327686Y-119894515D01*
X91327686Y-118695113D01*
X109395830Y-118695113D01*
X109395830Y-120990035D01*
X116401598Y-120990035D01*
X116401598Y-83058520D01*
X117401537Y-83058032D01*
X117401537Y-83064258D01*
G37*
%TD.AperFunction*%
%TA.AperFunction,NonConductor*%
G36*
X118860887Y-84301013D02*
G01*
X118860887Y-84303027D01*
X194085247Y-84303027D01*
X194085247Y-85005843D01*
X118860887Y-85005843D01*
X118860887Y-133972884D01*
X109395830Y-133972884D01*
X109395830Y-136728805D01*
X91327686Y-136728805D01*
X91327686Y-135527327D01*
X108196947Y-135527327D01*
X108196947Y-131888778D01*
X91327686Y-131888778D01*
X91327686Y-130689376D01*
X109395830Y-130689376D01*
X109395830Y-132972945D01*
X117860949Y-132972945D01*
X117860949Y-84300830D01*
X118860887Y-84301013D01*
G37*
%TD.AperFunction*%
%TA.AperFunction,NonConductor*%
G36*
X120360552Y-85537032D02*
G01*
X120360552Y-85541060D01*
X194085247Y-85541060D01*
X194085247Y-86236129D01*
X120360552Y-86236129D01*
X120360552Y-146056747D01*
X109395861Y-146056747D01*
X109395861Y-148767676D01*
X91327717Y-148767676D01*
X91327717Y-147566207D01*
X108196978Y-147566207D01*
X108196978Y-143927657D01*
X91327717Y-143927657D01*
X91327717Y-142728255D01*
X109395861Y-142728255D01*
X109395861Y-145056808D01*
X119360613Y-145056808D01*
X119360613Y-85536910D01*
X120360552Y-85537032D01*
G37*
%TD.AperFunction*%
%TA.AperFunction,NonConductor*%
G36*
X121948593Y-86736312D02*
G01*
X194085278Y-86736312D01*
X194085278Y-87423629D01*
X121948593Y-87423629D01*
X121948593Y-157962989D01*
X109395861Y-157962989D01*
X109395861Y-160761817D01*
X91327717Y-160761817D01*
X91327717Y-159560340D01*
X108196978Y-159560340D01*
X108196978Y-155923865D01*
X91327717Y-155923865D01*
X91327717Y-154722388D01*
X109395861Y-154722388D01*
X109395861Y-156963050D01*
X120948626Y-156963050D01*
X120948626Y-86726485D01*
X121948593Y-86726302D01*
X121948593Y-86736312D01*
G37*
%TD.AperFunction*%
%TA.AperFunction,NonConductor*%
G36*
X194085247Y-80036975D02*
G01*
X113081408Y-80036975D01*
X113081408Y-86058333D01*
X109395861Y-86058333D01*
X109395861Y-88705184D01*
X91327717Y-88705184D01*
X91327717Y-87503707D01*
X108196978Y-87503707D01*
X108196978Y-83867236D01*
X91327717Y-83867236D01*
X91327717Y-82665759D01*
X109395861Y-82665759D01*
X109395861Y-85058394D01*
X112081469Y-85058394D01*
X112081469Y-79312488D01*
X112253557Y-79312488D01*
X112253557Y-79308459D01*
X194085247Y-79308337D01*
X194085247Y-80036975D01*
G37*
%TD.AperFunction*%
%TA.AperFunction,NonConductor*%
G36*
X194085247Y-80590442D02*
G01*
X194085247Y-81312854D01*
X114417253Y-81312854D01*
X114417253Y-97964950D01*
X109395861Y-97964950D01*
X109395861Y-100656783D01*
X91327717Y-100656783D01*
X91327717Y-99455306D01*
X108196978Y-99455306D01*
X108196978Y-95816756D01*
X91327717Y-95816756D01*
X91327717Y-94617354D01*
X109395861Y-94617354D01*
X109395861Y-96965011D01*
X113417314Y-96965011D01*
X113417314Y-80595996D01*
X113794542Y-80595996D01*
X113794542Y-80590014D01*
X194085247Y-80590442D01*
G37*
%TD.AperFunction*%
%TA.AperFunction,NonConductor*%
G36*
X139937118Y-42603902D02*
G01*
X139937118Y-43603841D01*
X127562180Y-43603841D01*
X127562180Y-47267690D01*
X139985702Y-47267690D01*
X139985702Y-48467092D01*
X127562180Y-48467092D01*
X127562180Y-51721150D01*
X139985702Y-51721150D01*
X139985702Y-52922107D01*
X127147720Y-52922107D01*
X127147720Y-52859607D01*
X120475786Y-52859607D01*
X120475786Y-70595996D01*
X194085247Y-70595996D01*
X194085247Y-71291034D01*
X120475786Y-71291034D01*
X120475786Y-71295032D01*
X119475847Y-71295032D01*
X119475847Y-51859517D01*
X126561722Y-51859517D01*
X126561722Y-42603749D01*
X139937118Y-42603902D01*
G37*
%TD.AperFunction*%
%TA.AperFunction,NonConductor*%
G36*
X120428545Y-40284932D02*
G01*
X141979691Y-40284932D01*
X141979691Y-45451009D01*
X141987686Y-50912160D01*
X128891830Y-50912160D01*
X128891830Y-49712758D01*
X140787247Y-49712758D01*
X140782242Y-46081990D01*
X128914230Y-46081990D01*
X128914230Y-44882588D01*
X140781204Y-44882588D01*
X140781204Y-41486409D01*
X119230577Y-41486409D01*
X119230577Y-21554801D01*
X90268513Y-21554801D01*
X90273517Y-25226401D01*
X107658007Y-25226401D01*
X107658007Y-26226340D01*
X90275074Y-26226340D01*
X90280079Y-29925863D01*
X109441179Y-29925863D01*
X109441179Y-31124746D01*
X90456806Y-31124746D01*
X90456806Y-32294699D01*
X109441179Y-32294699D01*
X109441179Y-33494101D01*
X90284717Y-33494101D01*
X90289722Y-37222554D01*
X107657671Y-37222554D01*
X107657671Y-38222493D01*
X90291279Y-38222493D01*
X90296284Y-41964894D01*
X109440844Y-41964894D01*
X109440844Y-43163777D01*
X90456470Y-43163777D01*
X90456470Y-44332173D01*
X109440844Y-44332173D01*
X109440844Y-45533132D01*
X90301441Y-45533132D01*
X90306446Y-49216634D01*
X107657335Y-49216634D01*
X107657335Y-50216573D01*
X90307483Y-50216573D01*
X90313496Y-54046832D01*
X109440996Y-54046832D01*
X109440996Y-55247790D01*
X90456623Y-55247790D01*
X90456623Y-56416186D01*
X109440996Y-56416186D01*
X109440996Y-57615069D01*
X90318134Y-57615069D01*
X90323139Y-61210711D01*
X107658312Y-61210711D01*
X107658312Y-62210650D01*
X90325519Y-62210650D01*
X90330524Y-65953052D01*
X109441484Y-65953052D01*
X109441484Y-67154010D01*
X90457111Y-67154010D01*
X90457111Y-68322406D01*
X109441484Y-68322406D01*
X109441484Y-69523364D01*
X90335163Y-69523364D01*
X90340168Y-73249743D01*
X107657976Y-73249743D01*
X107657976Y-74249682D01*
X90341724Y-74249682D01*
X90346729Y-77949206D01*
X109395708Y-77949206D01*
X109395708Y-79224597D01*
X110452501Y-79224597D01*
X110452501Y-78068072D01*
X111452440Y-78068072D01*
X111452440Y-78070086D01*
X194085125Y-78070086D01*
X194085125Y-78806476D01*
X111452440Y-78806476D01*
X111452440Y-79224536D01*
X111458452Y-79224536D01*
X111458452Y-80224475D01*
X109396044Y-80224475D01*
X109396044Y-81517444D01*
X90351734Y-81517444D01*
X90356739Y-85198897D01*
X107657457Y-85198897D01*
X107657457Y-86199386D01*
X90357746Y-86199386D01*
X90362751Y-89898360D01*
X109440660Y-89898360D01*
X109440660Y-91097762D01*
X90456287Y-91097762D01*
X90456287Y-92267745D01*
X109440660Y-92267745D01*
X109440660Y-93466659D01*
X90367939Y-93466659D01*
X90372944Y-97060226D01*
X107657152Y-97060226D01*
X107657152Y-98060714D01*
X90373981Y-98060714D01*
X90379993Y-101849593D01*
X109440844Y-101849593D01*
X109440844Y-103048995D01*
X90456470Y-103048995D01*
X90456470Y-104218429D01*
X109440844Y-104218429D01*
X109440844Y-105417830D01*
X90384632Y-105417830D01*
X90389637Y-109099288D01*
X107657305Y-109099288D01*
X107657305Y-110099776D01*
X90391163Y-110099776D01*
X90396168Y-113886641D01*
X109440477Y-113886641D01*
X109440477Y-115088119D01*
X90456104Y-115088119D01*
X90456104Y-116256026D01*
X109440477Y-116256026D01*
X109440477Y-117454940D01*
X90401325Y-117454940D01*
X90406330Y-121138411D01*
X107658190Y-121138411D01*
X107658190Y-122138839D01*
X90408588Y-122138839D01*
X90413593Y-125882796D01*
X109441362Y-125882796D01*
X109441362Y-127082198D01*
X90456989Y-127082198D01*
X90456989Y-128250106D01*
X109441362Y-128250106D01*
X109441362Y-129451095D01*
X90418751Y-129451095D01*
X90423755Y-133178023D01*
X107657854Y-133178023D01*
X107657854Y-134177962D01*
X90425312Y-134177962D01*
X90430317Y-137919845D01*
X109441027Y-137919845D01*
X109441027Y-139121322D01*
X90456653Y-139121322D01*
X90456653Y-140289229D01*
X109441027Y-140289229D01*
X109441027Y-141490218D01*
X90434955Y-141490218D01*
X90439960Y-145217147D01*
X107657518Y-145217147D01*
X107657518Y-146217086D01*
X90441517Y-146217086D01*
X90446522Y-149916053D01*
X109440691Y-149916053D01*
X109440691Y-151115455D01*
X90456318Y-151115455D01*
X90456318Y-152285376D01*
X109440691Y-152285376D01*
X109440691Y-153484290D01*
X90451679Y-153484290D01*
X90456684Y-157166236D01*
X107657701Y-157166236D01*
X107657701Y-158166175D01*
X90458240Y-158166175D01*
X90463245Y-161609351D01*
X109361284Y-161609351D01*
X109361284Y-162609290D01*
X89414173Y-162609290D01*
X89414173Y-162568519D01*
X89329975Y-162568519D01*
X89317585Y-153484290D01*
X89256092Y-153484290D01*
X89256092Y-149916053D01*
X89312397Y-149916053D01*
X89300495Y-141490218D01*
X89256092Y-141490218D01*
X89256092Y-137919906D01*
X89295887Y-137919906D01*
X89283985Y-129451156D01*
X89256092Y-129451156D01*
X89256092Y-125882918D01*
X89278797Y-125882918D01*
X89267384Y-117455001D01*
X89255970Y-117455001D01*
X89255970Y-113886764D01*
X89261982Y-113886764D01*
X89213821Y-79148242D01*
X90347919Y-79148242D01*
X90349964Y-80316638D01*
X108196947Y-80316638D01*
X108196947Y-79148242D01*
X90347919Y-79148242D01*
X89213821Y-79148242D01*
X89132801Y-20708976D01*
X89141804Y-20708976D01*
X89141804Y-20353446D01*
X120428545Y-20353324D01*
X120428545Y-40284932D01*
G37*
%TD.AperFunction*%
M02*
