%TF.GenerationSoftware,KiCad,Pcbnew,9.0.8+1*%
%TF.CreationDate,2026-07-01T06:45:56-04:00*%
%TF.ProjectId,om27_strumplate,6f6d3237-5f73-4747-9275-6d706c617465,rev?*%
%TF.SameCoordinates,Original*%
%TF.FileFunction,Profile,NP*%
%FSLAX46Y46*%
G04 Gerber Fmt 4.6, Leading zero omitted, Abs format (unit mm)*
G04 Created by KiCad (PCBNEW 9.0.8+1) date 2026-07-01 06:45:56*
%MOMM*%
%LPD*%
G01*
G04 APERTURE LIST*
%TA.AperFunction,Profile*%
%ADD10C,0.199999*%
%TD*%
G04 APERTURE END LIST*
D10*
X192777287Y-88565751D02*
X192789814Y-88562345D01*
X192823467Y-88562345D01*
X192777287Y-88565751D01*
X192669811Y-88594977D02*
X192493006Y-88627997D01*
X192361585Y-88641308D01*
X192288070Y-88639199D01*
X192276940Y-88633703D01*
X192284981Y-88625960D01*
X192364837Y-88605879D01*
X192540159Y-88583244D01*
X192777287Y-88565751D01*
X192669811Y-88594977D01*
X84060000Y-13080000D02*
X84192406Y-13084643D01*
X84331609Y-13093066D01*
X84477740Y-13105266D01*
X84630933Y-13121236D01*
X84791320Y-13140970D01*
X84959033Y-13164464D01*
X85087675Y-13182104D01*
X85226227Y-13198635D01*
X85370331Y-13213689D01*
X85515628Y-13226895D01*
X85657761Y-13237884D01*
X85792372Y-13246286D01*
X85915102Y-13251732D01*
X86021594Y-13253850D01*
X86117667Y-13255864D01*
X86210538Y-13260989D01*
X86297943Y-13268879D01*
X86377616Y-13279191D01*
X86447294Y-13291578D01*
X86477678Y-13298442D01*
X86504714Y-13305696D01*
X86528118Y-13313296D01*
X86547609Y-13321199D01*
X86562904Y-13329363D01*
X86573718Y-13337743D01*
X86578811Y-13342026D01*
X86585582Y-13346395D01*
X86603967Y-13355355D01*
X86628487Y-13364554D01*
X86658752Y-13373921D01*
X86694377Y-13383387D01*
X86734973Y-13392881D01*
X86780154Y-13402334D01*
X86829532Y-13411675D01*
X86882719Y-13420836D01*
X86939328Y-13429745D01*
X87061262Y-13446529D01*
X87192236Y-13461469D01*
X87329150Y-13474004D01*
X87468456Y-13486400D01*
X87606306Y-13500965D01*
X87739119Y-13517165D01*
X87863315Y-13534467D01*
X87975310Y-13552338D01*
X88071526Y-13570246D01*
X88148379Y-13587657D01*
X88202289Y-13604039D01*
X88222965Y-13611591D01*
X88243672Y-13618555D01*
X88264276Y-13624911D01*
X88284644Y-13630638D01*
X88304642Y-13635717D01*
X88324139Y-13640128D01*
X88342999Y-13643850D01*
X88361091Y-13646863D01*
X88378280Y-13649147D01*
X88394433Y-13650683D01*
X88409418Y-13651449D01*
X88423101Y-13651426D01*
X88435348Y-13650594D01*
X88446027Y-13648933D01*
X88455004Y-13646421D01*
X88462146Y-13643041D01*
X88466323Y-13641299D01*
X88472629Y-13639893D01*
X88491400Y-13638065D01*
X88517996Y-13637514D01*
X88551954Y-13638197D01*
X88640104Y-13643093D01*
X88752147Y-13652406D01*
X88884380Y-13665792D01*
X89033100Y-13682905D01*
X89194605Y-13703400D01*
X89365191Y-13726933D01*
X90072585Y-13825269D01*
X90589343Y-13891881D01*
X90804090Y-13919240D01*
X91107134Y-13961205D01*
X91458198Y-14012057D01*
X91817004Y-14066075D01*
X92164122Y-14116519D01*
X92483359Y-14157636D01*
X92739293Y-14185191D01*
X92832452Y-14192560D01*
X92896502Y-14194951D01*
X92920219Y-14195289D01*
X92943271Y-14196558D01*
X92965538Y-14198712D01*
X92986902Y-14201703D01*
X93007242Y-14205485D01*
X93026440Y-14210012D01*
X93044376Y-14215237D01*
X93060931Y-14221112D01*
X93075985Y-14227592D01*
X93089419Y-14234630D01*
X93101114Y-14242179D01*
X93110950Y-14250192D01*
X93118808Y-14258623D01*
X93121958Y-14262980D01*
X93124569Y-14267424D01*
X93126625Y-14271950D01*
X93128113Y-14276551D01*
X93129016Y-14281221D01*
X93129321Y-14285954D01*
X93129639Y-14291288D01*
X93130591Y-14296375D01*
X93132171Y-14301216D01*
X93134373Y-14305809D01*
X93137189Y-14310154D01*
X93140616Y-14314250D01*
X93144646Y-14318095D01*
X93149273Y-14321690D01*
X93154493Y-14325033D01*
X93160298Y-14328123D01*
X93166683Y-14330959D01*
X93173641Y-14333542D01*
X93181168Y-14335869D01*
X93189256Y-14337939D01*
X93197901Y-14339753D01*
X93207095Y-14341309D01*
X93216833Y-14342607D01*
X93227109Y-14343645D01*
X93237917Y-14344422D01*
X93249251Y-14344939D01*
X93261105Y-14345193D01*
X93273474Y-14345185D01*
X93286350Y-14344912D01*
X93299729Y-14344375D01*
X93313604Y-14343573D01*
X93327969Y-14342504D01*
X93342818Y-14341168D01*
X93358146Y-14339563D01*
X93390212Y-14335548D01*
X93424120Y-14330449D01*
X93454404Y-14325987D01*
X93484336Y-14322457D01*
X93513740Y-14319840D01*
X93542439Y-14318122D01*
X93570258Y-14317285D01*
X93597020Y-14317315D01*
X93622549Y-14318194D01*
X93646670Y-14319905D01*
X93669205Y-14322434D01*
X93689980Y-14325763D01*
X93708817Y-14329876D01*
X93725541Y-14334758D01*
X93739975Y-14340391D01*
X93751943Y-14346760D01*
X93761270Y-14353847D01*
X93764888Y-14357656D01*
X93767779Y-14361638D01*
X93770703Y-14365691D01*
X93774418Y-14369693D01*
X93778901Y-14373638D01*
X93784128Y-14377523D01*
X93790075Y-14381340D01*
X93796719Y-14385086D01*
X93812002Y-14392344D01*
X93829788Y-14399254D01*
X93849888Y-14405777D01*
X93872113Y-14411871D01*
X93896273Y-14417497D01*
X93922180Y-14422612D01*
X93949645Y-14427178D01*
X93978478Y-14431152D01*
X94008491Y-14434495D01*
X94039494Y-14437166D01*
X94071298Y-14439124D01*
X94103714Y-14440329D01*
X94136553Y-14440740D01*
X94217941Y-14443461D01*
X94326983Y-14451259D01*
X94458926Y-14463585D01*
X94609015Y-14479894D01*
X94772495Y-14499635D01*
X94944611Y-14522261D01*
X95120608Y-14547226D01*
X95295733Y-14573979D01*
X95975523Y-14678369D01*
X96250063Y-14718119D01*
X96431353Y-14742223D01*
X96995996Y-14818676D01*
X97695925Y-14925797D01*
X98356234Y-15035682D01*
X98616874Y-15082941D01*
X98802019Y-15120427D01*
X98888925Y-15138363D01*
X98990043Y-15156585D01*
X99101725Y-15174588D01*
X99220327Y-15191865D01*
X99342203Y-15207910D01*
X99463709Y-15222218D01*
X99581198Y-15234282D01*
X99691026Y-15243596D01*
X99879095Y-15258913D01*
X100068197Y-15277644D01*
X100271770Y-15301697D01*
X100503252Y-15332986D01*
X100776081Y-15373419D01*
X101103696Y-15424909D01*
X101977037Y-15568700D01*
X102359755Y-15629059D01*
X102838518Y-15699189D01*
X103352208Y-15770389D01*
X103839708Y-15833958D01*
X104297132Y-15893584D01*
X104728967Y-15954045D01*
X105086587Y-16008281D01*
X105321367Y-16049229D01*
X105416915Y-16067404D01*
X105542798Y-16089414D01*
X105864038Y-16141572D01*
X106242030Y-16198965D01*
X106633714Y-16254857D01*
X107903703Y-16432469D01*
X108065255Y-16453680D01*
X108254793Y-16474896D01*
X108448702Y-16493675D01*
X108623369Y-16507573D01*
X108706819Y-16513868D01*
X108798031Y-16521954D01*
X108991933Y-16542149D01*
X109181470Y-16565457D01*
X109267224Y-16577434D01*
X109343034Y-16589177D01*
X109506209Y-16613692D01*
X109700132Y-16639066D01*
X109900526Y-16662322D01*
X110083116Y-16680486D01*
X110165313Y-16688541D01*
X110245002Y-16697924D01*
X110320225Y-16708292D01*
X110389024Y-16719304D01*
X110449440Y-16730620D01*
X110499515Y-16741897D01*
X110537290Y-16752796D01*
X110550954Y-16757997D01*
X110560808Y-16762975D01*
X110586315Y-16775742D01*
X110621336Y-16788567D01*
X110665334Y-16801377D01*
X110717770Y-16814097D01*
X110778106Y-16826655D01*
X110845804Y-16838978D01*
X110920326Y-16850991D01*
X111001134Y-16862622D01*
X111179458Y-16884444D01*
X111376470Y-16903857D01*
X111587866Y-16920275D01*
X111809343Y-16933110D01*
X111915110Y-16939083D01*
X112016715Y-16946463D01*
X112111725Y-16954962D01*
X112197706Y-16964291D01*
X112272224Y-16974161D01*
X112332846Y-16984282D01*
X112377138Y-16994366D01*
X112392399Y-16999304D01*
X112402666Y-17004124D01*
X112423805Y-17014922D01*
X112452970Y-17026283D01*
X112489633Y-17038110D01*
X112533261Y-17050305D01*
X112583325Y-17062771D01*
X112639293Y-17075409D01*
X112766824Y-17100812D01*
X112911610Y-17125731D01*
X113069407Y-17149384D01*
X113235971Y-17170989D01*
X113407060Y-17189763D01*
X113592008Y-17210298D01*
X113845212Y-17241345D01*
X114133336Y-17278675D01*
X114423049Y-17318059D01*
X114719446Y-17357525D01*
X115025768Y-17395085D01*
X115305900Y-17426488D01*
X115523727Y-17447484D01*
X115705742Y-17463344D01*
X115872057Y-17479989D01*
X116029994Y-17498494D01*
X116186874Y-17519936D01*
X116350019Y-17545390D01*
X116526753Y-17575933D01*
X116724396Y-17612641D01*
X116950271Y-17656590D01*
X117051738Y-17675487D01*
X117150243Y-17691658D01*
X117243353Y-17704852D01*
X117328639Y-17714818D01*
X117403670Y-17721305D01*
X117466015Y-17724062D01*
X117491670Y-17723963D01*
X117513242Y-17722837D01*
X117530428Y-17720654D01*
X117542922Y-17717381D01*
X117553946Y-17714040D01*
X117566815Y-17711647D01*
X117581372Y-17710176D01*
X117597457Y-17709605D01*
X117614912Y-17709908D01*
X117633580Y-17711062D01*
X117653300Y-17713042D01*
X117673915Y-17715825D01*
X117695267Y-17719385D01*
X117717197Y-17723700D01*
X117739546Y-17728745D01*
X117762156Y-17734496D01*
X117784868Y-17740928D01*
X117807524Y-17748018D01*
X117829966Y-17755741D01*
X117852035Y-17764073D01*
X117875575Y-17772737D01*
X117902333Y-17781399D01*
X117932005Y-17790005D01*
X117964288Y-17798500D01*
X118035470Y-17814937D01*
X118113449Y-17830269D01*
X118195793Y-17844058D01*
X118280073Y-17855865D01*
X118363857Y-17865248D01*
X118444717Y-17871769D01*
X118592660Y-17882325D01*
X118713809Y-17893315D01*
X118760430Y-17898572D01*
X118795666Y-17903458D01*
X118817953Y-17907812D01*
X118823752Y-17909739D01*
X118825729Y-17911473D01*
X118826338Y-17912361D01*
X118828145Y-17913334D01*
X118835234Y-17915522D01*
X118846757Y-17918011D01*
X118862475Y-17920774D01*
X118905542Y-17927018D01*
X118962524Y-17934041D01*
X119031511Y-17941630D01*
X119110592Y-17949573D01*
X119197858Y-17957658D01*
X119291397Y-17965672D01*
X119389895Y-17975048D01*
X119491354Y-17986946D01*
X119592869Y-18000879D01*
X119691536Y-18016362D01*
X119784448Y-18032909D01*
X119868702Y-18050035D01*
X119941394Y-18067254D01*
X119999618Y-18084080D01*
X120024674Y-18091998D01*
X120049716Y-18099269D01*
X120074583Y-18105875D01*
X120099117Y-18111795D01*
X120123159Y-18117011D01*
X120146549Y-18121503D01*
X120169130Y-18125251D01*
X120190742Y-18128235D01*
X120211226Y-18130437D01*
X120230423Y-18131836D01*
X120248174Y-18132414D01*
X120264320Y-18132150D01*
X120278702Y-18131025D01*
X120291162Y-18129019D01*
X120301540Y-18126114D01*
X120309677Y-18122288D01*
X120313892Y-18120314D01*
X120319554Y-18118678D01*
X120335048Y-18116402D01*
X120355828Y-18115421D01*
X120381563Y-18115693D01*
X120411920Y-18117179D01*
X120446568Y-18119837D01*
X120485176Y-18123628D01*
X120527412Y-18128510D01*
X120621442Y-18141387D01*
X120726007Y-18158144D01*
X120838454Y-18178457D01*
X120956131Y-18202000D01*
X121220202Y-18255913D01*
X121464942Y-18302595D01*
X121695309Y-18342766D01*
X121916259Y-18377148D01*
X122132752Y-18406464D01*
X122349746Y-18431434D01*
X122572199Y-18452781D01*
X122805068Y-18471226D01*
X122918344Y-18481140D01*
X123045734Y-18495355D01*
X123182899Y-18513203D01*
X123325496Y-18534020D01*
X123469185Y-18557138D01*
X123609624Y-18581892D01*
X123742472Y-18607615D01*
X123863388Y-18633641D01*
X124061946Y-18677051D01*
X124260073Y-18716185D01*
X124460612Y-18751454D01*
X124666408Y-18783269D01*
X124880305Y-18812039D01*
X125105147Y-18838175D01*
X125343779Y-18862089D01*
X125599044Y-18884190D01*
X125808841Y-18902879D01*
X126013061Y-18924523D01*
X126209472Y-18948784D01*
X126395839Y-18975319D01*
X126569932Y-19003791D01*
X126729516Y-19033857D01*
X126872360Y-19065179D01*
X126996231Y-19097416D01*
X127034549Y-19108016D01*
X127070224Y-19117048D01*
X127103365Y-19124506D01*
X127134080Y-19130383D01*
X127162479Y-19134672D01*
X127188669Y-19137366D01*
X127212761Y-19138459D01*
X127234863Y-19137944D01*
X127255083Y-19135813D01*
X127273532Y-19132061D01*
X127290317Y-19126680D01*
X127305547Y-19119664D01*
X127319332Y-19111005D01*
X127331781Y-19100698D01*
X127343001Y-19088734D01*
X127353103Y-19075108D01*
X127358036Y-19067833D01*
X127362865Y-19061064D01*
X127367599Y-19054802D01*
X127372246Y-19049049D01*
X127376814Y-19043806D01*
X127381310Y-19039074D01*
X127385744Y-19034855D01*
X127390122Y-19031150D01*
X127394454Y-19027961D01*
X127398746Y-19025288D01*
X127403007Y-19023134D01*
X127407246Y-19021500D01*
X127411469Y-19020387D01*
X127415685Y-19019796D01*
X127419903Y-19019729D01*
X127424129Y-19020188D01*
X127428372Y-19021173D01*
X127432641Y-19022687D01*
X127436943Y-19024729D01*
X127441285Y-19027303D01*
X127445677Y-19030409D01*
X127450127Y-19034049D01*
X127454641Y-19038223D01*
X127459228Y-19042934D01*
X127463897Y-19048183D01*
X127468655Y-19053972D01*
X127473510Y-19060300D01*
X127478471Y-19067171D01*
X127483545Y-19074585D01*
X127488740Y-19082544D01*
X127499526Y-19100102D01*
X127504991Y-19108702D01*
X127510970Y-19116940D01*
X127517478Y-19124817D01*
X127524532Y-19132338D01*
X127532146Y-19139505D01*
X127540336Y-19146323D01*
X127549117Y-19152795D01*
X127558505Y-19158923D01*
X127568515Y-19164712D01*
X127579162Y-19170165D01*
X127590463Y-19175285D01*
X127602432Y-19180076D01*
X127615085Y-19184541D01*
X127628438Y-19188684D01*
X127642505Y-19192507D01*
X127657302Y-19196015D01*
X127672845Y-19199210D01*
X127689150Y-19202097D01*
X127706230Y-19204678D01*
X127724103Y-19206957D01*
X127762286Y-19210622D01*
X127803822Y-19213120D01*
X127848835Y-19214477D01*
X127897447Y-19214721D01*
X127949783Y-19213880D01*
X128005966Y-19211979D01*
X128094153Y-19209990D01*
X128135788Y-19210300D01*
X128175530Y-19211440D01*
X128213189Y-19213381D01*
X128248573Y-19216092D01*
X128281492Y-19219545D01*
X128311756Y-19223710D01*
X128339173Y-19228556D01*
X128363553Y-19234055D01*
X128384705Y-19240176D01*
X128402439Y-19246891D01*
X128416564Y-19254169D01*
X128426889Y-19261981D01*
X128430568Y-19266078D01*
X128433225Y-19270297D01*
X128434836Y-19274635D01*
X128435378Y-19279088D01*
X128435683Y-19283426D01*
X128436586Y-19287661D01*
X128438074Y-19291788D01*
X128440130Y-19295804D01*
X128442741Y-19299703D01*
X128445891Y-19303482D01*
X128449565Y-19307136D01*
X128453749Y-19310661D01*
X128458427Y-19314053D01*
X128463585Y-19317308D01*
X128469208Y-19320421D01*
X128475280Y-19323388D01*
X128481787Y-19326205D01*
X128488714Y-19328868D01*
X128496046Y-19331373D01*
X128503768Y-19333714D01*
X128511866Y-19335889D01*
X128520323Y-19337892D01*
X128529126Y-19339720D01*
X128538259Y-19341368D01*
X128547708Y-19342832D01*
X128557457Y-19344108D01*
X128567492Y-19345192D01*
X128577797Y-19346078D01*
X128588359Y-19346764D01*
X128599161Y-19347245D01*
X128610189Y-19347517D01*
X128621428Y-19347575D01*
X128632864Y-19347415D01*
X128644480Y-19347033D01*
X128656263Y-19346424D01*
X128668197Y-19345585D01*
X128717558Y-19342839D01*
X128768619Y-19342162D01*
X128819904Y-19343435D01*
X128869937Y-19346535D01*
X128917242Y-19351342D01*
X128960343Y-19357735D01*
X128979856Y-19361488D01*
X128997764Y-19365591D01*
X129013884Y-19370031D01*
X129028030Y-19374791D01*
X129044461Y-19379926D01*
X129067273Y-19385469D01*
X129130405Y-19397565D01*
X129214149Y-19410662D01*
X129315227Y-19424344D01*
X129430363Y-19438195D01*
X129556279Y-19451798D01*
X129689699Y-19464738D01*
X129827346Y-19476597D01*
X129964233Y-19488657D01*
X130095474Y-19502192D01*
X130217944Y-19516742D01*
X130328517Y-19531850D01*
X130424069Y-19547054D01*
X130501473Y-19561896D01*
X130557605Y-19575917D01*
X130576718Y-19582476D01*
X130589340Y-19588658D01*
X130607777Y-19599841D01*
X130627412Y-19610140D01*
X130648908Y-19619666D01*
X130672925Y-19628527D01*
X130700125Y-19636834D01*
X130731170Y-19644697D01*
X130766721Y-19652224D01*
X130807441Y-19659527D01*
X130853991Y-19666715D01*
X130907033Y-19673897D01*
X130967228Y-19681184D01*
X131035239Y-19688685D01*
X131111726Y-19696510D01*
X131197352Y-19704769D01*
X131398666Y-19723027D01*
X131569989Y-19740006D01*
X131754798Y-19761376D01*
X131930876Y-19784400D01*
X132076004Y-19806340D01*
X133127030Y-19977814D01*
X133983215Y-20107060D01*
X134636153Y-20192887D01*
X134883777Y-20219146D01*
X135077438Y-20234105D01*
X135187364Y-20241884D01*
X135296646Y-20252741D01*
X135402409Y-20266180D01*
X135501781Y-20281708D01*
X135591887Y-20298831D01*
X135669854Y-20317056D01*
X135703388Y-20326427D01*
X135732809Y-20335887D01*
X135757758Y-20345376D01*
X135777877Y-20354832D01*
X135795486Y-20363897D01*
X135813058Y-20372248D01*
X135830484Y-20379864D01*
X135847653Y-20386719D01*
X135864455Y-20392791D01*
X135880779Y-20398054D01*
X135896515Y-20402487D01*
X135911552Y-20406064D01*
X135925780Y-20408762D01*
X135939089Y-20410557D01*
X135951369Y-20411425D01*
X135962508Y-20411343D01*
X135972396Y-20410287D01*
X135980924Y-20408233D01*
X135984642Y-20406824D01*
X135987979Y-20405157D01*
X135990921Y-20403229D01*
X135993454Y-20401036D01*
X135996635Y-20398854D01*
X136001496Y-20396957D01*
X136016077Y-20394005D01*
X136036833Y-20392152D01*
X136063400Y-20391370D01*
X136095414Y-20391631D01*
X136132512Y-20392907D01*
X136220504Y-20398392D01*
X136324467Y-20407601D01*
X136441490Y-20420309D01*
X136568664Y-20436292D01*
X136703079Y-20455327D01*
X137189166Y-20523965D01*
X137634941Y-20579285D01*
X138003182Y-20617045D01*
X138146596Y-20628013D01*
X138256668Y-20633000D01*
X138270254Y-20633434D01*
X138284755Y-20634340D01*
X138315976Y-20637462D01*
X138349286Y-20642155D01*
X138383644Y-20648209D01*
X138418004Y-20655412D01*
X138451323Y-20663551D01*
X138482558Y-20672417D01*
X138497068Y-20677056D01*
X138510665Y-20681798D01*
X138526464Y-20686659D01*
X138547420Y-20691694D01*
X138603419Y-20702129D01*
X138675884Y-20712786D01*
X138762039Y-20723347D01*
X138859105Y-20733497D01*
X138964306Y-20742918D01*
X139074865Y-20751293D01*
X139188003Y-20758305D01*
X139421726Y-20773796D01*
X139651287Y-20793656D01*
X139850285Y-20815318D01*
X139930075Y-20826023D01*
X139992324Y-20836217D01*
X140233890Y-20880936D01*
X140457992Y-20921513D01*
X140851381Y-20997233D01*
X141217353Y-21078981D01*
X141548192Y-21164245D01*
X141836181Y-21250511D01*
X141961696Y-21293236D01*
X142073605Y-21335269D01*
X142170943Y-21376296D01*
X142252746Y-21416005D01*
X142318050Y-21454080D01*
X142365889Y-21490207D01*
X142395301Y-21524073D01*
X142402794Y-21540059D01*
X142405319Y-21555363D01*
X142405698Y-21558623D01*
X142406822Y-21562614D01*
X142411234Y-21572700D01*
X142418406Y-21585439D01*
X142428189Y-21600648D01*
X142440434Y-21618148D01*
X142454992Y-21637754D01*
X142471715Y-21659287D01*
X142490455Y-21682564D01*
X142511062Y-21707403D01*
X142533388Y-21733623D01*
X142557284Y-21761042D01*
X142582602Y-21789479D01*
X142609192Y-21818751D01*
X142636907Y-21848677D01*
X142665597Y-21879075D01*
X142695114Y-21909763D01*
X142764020Y-21985766D01*
X142828197Y-22067060D01*
X142887681Y-22153781D01*
X142942514Y-22246066D01*
X142992734Y-22344052D01*
X143038381Y-22447873D01*
X143079493Y-22557668D01*
X143116111Y-22673573D01*
X143148274Y-22795722D01*
X143176021Y-22924254D01*
X143199391Y-23059304D01*
X143218423Y-23201009D01*
X143233158Y-23349504D01*
X143243634Y-23504928D01*
X143249891Y-23667414D01*
X143251968Y-23837101D01*
X143253733Y-23985448D01*
X143258791Y-24127255D01*
X143266788Y-24259174D01*
X143277370Y-24377857D01*
X143290182Y-24479959D01*
X143304870Y-24562130D01*
X143312806Y-24594696D01*
X143321079Y-24621024D01*
X143329643Y-24640696D01*
X143338455Y-24653294D01*
X143343815Y-24659313D01*
X143348853Y-24666331D01*
X143353565Y-24674352D01*
X143357949Y-24683384D01*
X143362002Y-24693430D01*
X143365724Y-24704498D01*
X143369110Y-24716591D01*
X143372160Y-24729716D01*
X143377241Y-24759085D01*
X143380946Y-24792647D01*
X143383259Y-24830448D01*
X143384162Y-24872532D01*
X143383637Y-24918943D01*
X143381665Y-24969726D01*
X143378229Y-25024925D01*
X143373311Y-25084584D01*
X143366892Y-25148749D01*
X143358955Y-25217463D01*
X143349482Y-25290771D01*
X143338455Y-25368717D01*
X143318921Y-25806247D01*
X143308217Y-26805064D01*
X143306800Y-30604537D01*
X143338455Y-46236695D01*
X143408332Y-63835481D01*
X143409617Y-66213308D01*
X143385436Y-66589564D01*
X143338455Y-66726045D01*
X142078992Y-66650894D01*
X140921576Y-66611537D01*
X140377683Y-66607993D01*
X139855158Y-66616651D01*
X139352620Y-66638594D01*
X138868686Y-66674909D01*
X138401976Y-66726678D01*
X137951109Y-66794986D01*
X137514702Y-66880918D01*
X137091375Y-66985558D01*
X136679747Y-67109990D01*
X136278435Y-67255300D01*
X135886058Y-67422570D01*
X135501235Y-67612886D01*
X135471548Y-67623467D01*
X135441554Y-67635684D01*
X135380929Y-67664736D01*
X135319919Y-67699458D01*
X135259081Y-67739266D01*
X135198976Y-67783578D01*
X135140162Y-67831810D01*
X135083197Y-67883378D01*
X135028640Y-67937699D01*
X134977050Y-67994191D01*
X134928986Y-68052270D01*
X134885006Y-68111352D01*
X134845669Y-68170854D01*
X134811534Y-68230193D01*
X134783159Y-68288786D01*
X134771306Y-68317620D01*
X134761103Y-68346049D01*
X134752620Y-68373999D01*
X134745925Y-68401399D01*
X134727510Y-68492247D01*
X134711508Y-68580667D01*
X134697917Y-68666591D01*
X134686740Y-68749949D01*
X134677976Y-68830673D01*
X134671624Y-68908693D01*
X134667687Y-68983941D01*
X134666164Y-69056348D01*
X134667055Y-69125845D01*
X134670361Y-69192363D01*
X134676081Y-69255833D01*
X134684217Y-69316186D01*
X134694769Y-69373355D01*
X134707736Y-69427268D01*
X134723120Y-69477858D01*
X134740920Y-69525056D01*
X134752258Y-69549279D01*
X134765283Y-69571878D01*
X134779917Y-69592908D01*
X134796082Y-69612426D01*
X134813702Y-69630488D01*
X134832697Y-69647150D01*
X134852991Y-69662469D01*
X134874506Y-69676499D01*
X134897165Y-69689298D01*
X134920889Y-69700921D01*
X134945600Y-69711424D01*
X134971223Y-69720864D01*
X134997677Y-69729297D01*
X135024887Y-69736778D01*
X135081260Y-69749112D01*
X135139721Y-69758314D01*
X135199649Y-69764833D01*
X135260422Y-69769118D01*
X135321419Y-69771617D01*
X135441600Y-69773055D01*
X135555221Y-69772737D01*
X191958446Y-69772737D01*
X193325072Y-69923093D01*
X193548440Y-69955547D01*
X193732191Y-69995111D01*
X193810413Y-70018991D01*
X193880174Y-70046366D01*
X193941956Y-70077809D01*
X193996238Y-70113893D01*
X194043503Y-70155190D01*
X194084232Y-70202274D01*
X194118906Y-70255716D01*
X194148006Y-70316090D01*
X194172012Y-70383969D01*
X194191407Y-70459924D01*
X194206672Y-70544529D01*
X194218286Y-70638356D01*
X194232492Y-70855969D01*
X194237874Y-71117344D01*
X194237560Y-71789704D01*
X194237560Y-73564485D01*
X194237560Y-74262971D01*
X194237560Y-74508851D01*
X194237560Y-75080354D01*
X194237560Y-75781312D01*
X194237560Y-86703305D01*
X194235823Y-86912553D01*
X194215697Y-87106688D01*
X194178747Y-87286247D01*
X194126537Y-87451765D01*
X194060634Y-87603779D01*
X193982601Y-87742824D01*
X193894005Y-87869438D01*
X193796409Y-87984155D01*
X193691379Y-88087512D01*
X193580481Y-88180045D01*
X193465278Y-88262290D01*
X193347337Y-88334784D01*
X193228221Y-88398061D01*
X193109497Y-88452659D01*
X192879482Y-88537961D01*
X192789814Y-88562345D01*
X135673477Y-88562345D01*
X135552309Y-88677811D01*
X135433300Y-88810771D01*
X135318200Y-88958978D01*
X135208764Y-89120190D01*
X135106741Y-89292161D01*
X135013886Y-89472649D01*
X134931950Y-89659408D01*
X134862686Y-89850194D01*
X134807845Y-90042763D01*
X134786381Y-90139015D01*
X134769181Y-90234872D01*
X134756462Y-90330052D01*
X134748445Y-90424275D01*
X134745347Y-90517261D01*
X134747389Y-90608728D01*
X134754789Y-90698398D01*
X134767767Y-90785988D01*
X134786541Y-90871219D01*
X134811330Y-90953810D01*
X134842353Y-91033481D01*
X134879830Y-91109950D01*
X134923980Y-91182938D01*
X134975021Y-91252164D01*
X135014915Y-91296402D01*
X135054085Y-91338009D01*
X135093220Y-91377066D01*
X135133011Y-91413657D01*
X135174147Y-91447866D01*
X135217318Y-91479774D01*
X135263215Y-91509464D01*
X135312526Y-91537021D01*
X135365942Y-91562525D01*
X135424153Y-91586062D01*
X135487849Y-91607712D01*
X135557719Y-91627560D01*
X135634453Y-91645687D01*
X135718742Y-91662178D01*
X135811275Y-91677114D01*
X135912742Y-91690579D01*
X136023833Y-91702656D01*
X136145238Y-91713428D01*
X136277646Y-91722977D01*
X136421748Y-91731386D01*
X136578234Y-91738739D01*
X136747793Y-91745118D01*
X137128891Y-91755286D01*
X137570560Y-91762554D01*
X138078321Y-91767585D01*
X138657692Y-91771041D01*
X139314193Y-91773587D01*
X142362197Y-91783689D01*
X142639205Y-91991452D01*
X142711299Y-92047366D01*
X142782324Y-92106319D01*
X142851854Y-92168243D01*
X142919464Y-92233070D01*
X142984728Y-92300733D01*
X143047220Y-92371162D01*
X143106516Y-92444289D01*
X143162189Y-92520047D01*
X143213814Y-92598367D01*
X143260966Y-92679181D01*
X143303218Y-92762420D01*
X143322374Y-92804928D01*
X143340146Y-92848017D01*
X143356480Y-92891678D01*
X143371324Y-92935903D01*
X143384623Y-92980683D01*
X143396326Y-93026010D01*
X143406378Y-93071875D01*
X143414727Y-93118269D01*
X143421319Y-93165185D01*
X143426101Y-93212613D01*
X143426101Y-143110463D01*
X143430099Y-159554616D01*
X143240005Y-159959157D01*
X143201708Y-160043044D01*
X143165767Y-160126370D01*
X143132983Y-160206950D01*
X143104160Y-160282598D01*
X143080098Y-160351127D01*
X143061602Y-160410352D01*
X143049471Y-160458087D01*
X143046044Y-160476963D01*
X143044509Y-160492147D01*
X143042872Y-160507279D01*
X143039179Y-160523881D01*
X143033569Y-160541796D01*
X143026180Y-160560869D01*
X143006617Y-160601860D01*
X142981596Y-160645604D01*
X142952223Y-160690849D01*
X142919604Y-160736346D01*
X142884844Y-160780843D01*
X142849048Y-160823091D01*
X142813323Y-160861837D01*
X142778774Y-160895832D01*
X142746507Y-160923825D01*
X142717627Y-160944564D01*
X142704803Y-160951824D01*
X142693241Y-160956801D01*
X142683078Y-160959339D01*
X142674453Y-160959283D01*
X142667504Y-160956475D01*
X142662369Y-160950760D01*
X142659187Y-160941981D01*
X142658096Y-160929982D01*
X142657378Y-160917109D01*
X142655277Y-160905163D01*
X142651875Y-160894138D01*
X142647253Y-160884029D01*
X142641493Y-160874830D01*
X142634675Y-160866536D01*
X142626881Y-160859141D01*
X142618191Y-160852640D01*
X142608688Y-160847028D01*
X142598452Y-160842298D01*
X142587565Y-160838446D01*
X142576107Y-160835467D01*
X142564160Y-160833353D01*
X142551806Y-160832101D01*
X142539125Y-160831704D01*
X142526199Y-160832158D01*
X142513108Y-160833457D01*
X142499935Y-160835594D01*
X142486760Y-160838565D01*
X142473664Y-160842365D01*
X142460729Y-160846988D01*
X142448036Y-160852428D01*
X142435666Y-160858680D01*
X142423701Y-160865738D01*
X142412221Y-160873597D01*
X142401308Y-160882252D01*
X142391043Y-160891697D01*
X142381507Y-160901927D01*
X142372781Y-160912935D01*
X142364947Y-160924718D01*
X142358086Y-160937268D01*
X142352279Y-160950582D01*
X142349708Y-160956794D01*
X142346804Y-160962918D01*
X142343579Y-160968947D01*
X142340045Y-160974872D01*
X142336214Y-160980685D01*
X142332098Y-160986381D01*
X142327709Y-160991950D01*
X142323059Y-160997387D01*
X142318160Y-161002681D01*
X142313024Y-161007828D01*
X142307663Y-161012818D01*
X142302090Y-161017645D01*
X142296315Y-161022300D01*
X142290352Y-161026777D01*
X142284212Y-161031068D01*
X142277908Y-161035165D01*
X142271451Y-161039061D01*
X142264853Y-161042748D01*
X142258126Y-161046218D01*
X142251283Y-161049465D01*
X142244335Y-161052480D01*
X142237294Y-161055257D01*
X142230173Y-161057787D01*
X142222984Y-161060063D01*
X142215738Y-161062078D01*
X142208447Y-161063823D01*
X142201124Y-161065292D01*
X142193781Y-161066478D01*
X142186429Y-161067371D01*
X142179081Y-161067966D01*
X142171748Y-161068253D01*
X142164443Y-161068227D01*
X142132818Y-161069431D01*
X142089020Y-161074118D01*
X141966150Y-161093674D01*
X141798326Y-161126355D01*
X141588039Y-161171620D01*
X141337782Y-161228931D01*
X141050048Y-161297747D01*
X140727328Y-161377527D01*
X140372116Y-161467732D01*
X139573493Y-161661560D01*
X138370483Y-161943246D01*
X137162872Y-162220154D01*
X136350448Y-162399648D01*
X135805141Y-162515126D01*
X135207443Y-162644704D01*
X134797209Y-162728447D01*
X134149642Y-162853219D01*
X133353646Y-163002167D01*
X132498123Y-163158437D01*
X130908775Y-163447846D01*
X130000442Y-163618398D01*
X129284700Y-163747737D01*
X128158794Y-163934236D01*
X126831878Y-164144098D01*
X125513107Y-164343526D01*
X124143962Y-164539273D01*
X123058425Y-164688375D01*
X122989011Y-164698471D01*
X122921329Y-164710818D01*
X122857070Y-164724936D01*
X122797924Y-164740346D01*
X122745579Y-164756568D01*
X122722485Y-164764834D01*
X122701726Y-164773124D01*
X122683512Y-164781377D01*
X122668055Y-164789533D01*
X122655565Y-164797534D01*
X122646255Y-164805318D01*
X122642106Y-164809066D01*
X122637323Y-164812658D01*
X122631927Y-164816093D01*
X122625942Y-164819368D01*
X122612287Y-164825430D01*
X122596531Y-164830828D01*
X122578849Y-164835546D01*
X122559415Y-164839567D01*
X122538401Y-164842875D01*
X122515983Y-164845452D01*
X122492334Y-164847284D01*
X122467628Y-164848352D01*
X122442038Y-164848641D01*
X122415740Y-164848135D01*
X122388905Y-164846816D01*
X122361710Y-164844668D01*
X122334327Y-164841674D01*
X122306930Y-164837819D01*
X122272890Y-164834477D01*
X122226013Y-164832989D01*
X122097075Y-164835306D01*
X121926761Y-164844232D01*
X121721713Y-164859231D01*
X121488578Y-164879764D01*
X121233999Y-164905295D01*
X120964621Y-164935285D01*
X120687087Y-164969197D01*
X119656281Y-165093722D01*
X118367069Y-165238236D01*
X116920850Y-165391695D01*
X115419021Y-165543050D01*
X115314115Y-165554889D01*
X115217995Y-165568760D01*
X115132639Y-165584159D01*
X115060028Y-165600579D01*
X115029119Y-165609015D01*
X115002139Y-165617516D01*
X114979333Y-165626020D01*
X114960951Y-165634464D01*
X114947239Y-165642784D01*
X114938445Y-165650917D01*
X114935969Y-165654894D01*
X114934816Y-165658801D01*
X114935016Y-165662629D01*
X114936599Y-165666371D01*
X114938719Y-165669984D01*
X114940506Y-165673434D01*
X114941963Y-165676719D01*
X114943096Y-165679839D01*
X114943909Y-165682790D01*
X114944408Y-165685572D01*
X114944598Y-165688182D01*
X114944483Y-165690619D01*
X114944068Y-165692882D01*
X114943358Y-165694968D01*
X114942358Y-165696876D01*
X114941073Y-165698603D01*
X114939507Y-165700150D01*
X114937666Y-165701513D01*
X114935555Y-165702691D01*
X114933177Y-165703683D01*
X114930539Y-165704486D01*
X114927646Y-165705099D01*
X114924501Y-165705521D01*
X114921109Y-165705748D01*
X114917477Y-165705781D01*
X114913608Y-165705617D01*
X114909508Y-165705254D01*
X114905181Y-165704691D01*
X114900632Y-165703925D01*
X114895866Y-165702956D01*
X114890889Y-165701782D01*
X114885704Y-165700401D01*
X114880317Y-165698810D01*
X114874732Y-165697009D01*
X114868955Y-165694996D01*
X114862991Y-165692769D01*
X114823846Y-165685008D01*
X114760146Y-165681444D01*
X114674610Y-165681788D01*
X114569959Y-165685753D01*
X114314190Y-165703388D01*
X114014596Y-165732038D01*
X113692934Y-165769394D01*
X113370963Y-165813147D01*
X113070442Y-165860986D01*
X112813127Y-165910604D01*
X112715132Y-165929705D01*
X112598657Y-165948663D01*
X112468041Y-165966981D01*
X112327627Y-165984162D01*
X112181755Y-165999712D01*
X112034767Y-166013133D01*
X111891004Y-166023929D01*
X111754808Y-166031606D01*
X111459735Y-166053193D01*
X111116268Y-166091117D01*
X110751443Y-166140793D01*
X110392297Y-166197633D01*
X110065867Y-166257052D01*
X109799190Y-166314465D01*
X109696707Y-166340986D01*
X109619302Y-166365285D01*
X109570353Y-166386790D01*
X109557605Y-166396316D01*
X109553239Y-166404927D01*
X109552705Y-166407748D01*
X109551136Y-166410567D01*
X109548560Y-166413379D01*
X109545000Y-166416180D01*
X109540483Y-166418965D01*
X109535036Y-166421730D01*
X109521451Y-166427185D01*
X109504451Y-166432509D01*
X109484243Y-166437669D01*
X109461032Y-166442628D01*
X109435026Y-166447354D01*
X109406430Y-166451812D01*
X109375450Y-166455967D01*
X109342294Y-166459785D01*
X109307167Y-166463232D01*
X109270276Y-166466273D01*
X109231826Y-166468873D01*
X109192025Y-166470999D01*
X109151079Y-166472615D01*
X108957697Y-166484116D01*
X108721555Y-166506548D01*
X108455754Y-166538009D01*
X108173398Y-166576600D01*
X107887591Y-166620420D01*
X107611435Y-166667567D01*
X107358033Y-166716141D01*
X107140489Y-166764241D01*
X107065543Y-166781364D01*
X106982264Y-166798593D01*
X106893431Y-166815461D01*
X106801820Y-166831502D01*
X106710210Y-166846250D01*
X106621376Y-166859239D01*
X106538098Y-166870001D01*
X106463151Y-166878072D01*
X106324814Y-166891967D01*
X106188513Y-166908330D01*
X106036329Y-166930238D01*
X105850343Y-166960767D01*
X105612636Y-167002995D01*
X105305287Y-167059999D01*
X104409990Y-167230641D01*
X104389934Y-167235209D01*
X104370561Y-167241055D01*
X104351953Y-167248102D01*
X104334193Y-167256273D01*
X104317361Y-167265490D01*
X104301539Y-167275676D01*
X104286811Y-167286752D01*
X104273256Y-167298642D01*
X104260957Y-167311268D01*
X104249996Y-167324553D01*
X104240455Y-167338418D01*
X104236242Y-167345544D01*
X104232415Y-167352787D01*
X104228983Y-167360136D01*
X104225958Y-167367582D01*
X104223349Y-167375115D01*
X104221166Y-167382725D01*
X104219420Y-167390403D01*
X104218121Y-167398139D01*
X104217280Y-167405924D01*
X104216905Y-167413747D01*
X104215825Y-167458889D01*
X104214884Y-167476612D01*
X104213537Y-167491100D01*
X104211680Y-167502351D01*
X104210527Y-167506761D01*
X104209208Y-167510361D01*
X104207708Y-167513151D01*
X104206016Y-167515129D01*
X104204118Y-167516296D01*
X104202001Y-167516652D01*
X104199652Y-167516196D01*
X104197058Y-167514928D01*
X104194206Y-167512847D01*
X104191082Y-167509954D01*
X104187675Y-167506248D01*
X104183970Y-167501728D01*
X104175616Y-167490248D01*
X104165917Y-167475510D01*
X104154768Y-167457514D01*
X104127702Y-167411733D01*
X104121589Y-167401477D01*
X104115502Y-167391781D01*
X104109431Y-167382642D01*
X104103364Y-167374057D01*
X104097289Y-167366022D01*
X104091195Y-167358535D01*
X104085068Y-167351591D01*
X104078899Y-167345188D01*
X104072675Y-167339322D01*
X104066385Y-167333990D01*
X104060016Y-167329190D01*
X104053557Y-167324917D01*
X104046996Y-167321168D01*
X104040322Y-167317940D01*
X104033522Y-167315230D01*
X104026586Y-167313035D01*
X104019501Y-167311351D01*
X104012256Y-167310175D01*
X104004838Y-167309504D01*
X103997236Y-167309335D01*
X103989439Y-167309663D01*
X103981435Y-167310487D01*
X103973211Y-167311803D01*
X103964757Y-167313607D01*
X103956060Y-167315896D01*
X103947109Y-167318668D01*
X103937892Y-167321918D01*
X103928397Y-167325643D01*
X103918613Y-167329841D01*
X103908528Y-167334508D01*
X103898130Y-167339640D01*
X103887407Y-167345235D01*
X103871511Y-167353363D01*
X103855581Y-167360786D01*
X103839719Y-167367486D01*
X103824029Y-167373444D01*
X103808614Y-167378642D01*
X103793577Y-167383062D01*
X103779020Y-167386685D01*
X103765047Y-167389493D01*
X103751760Y-167391468D01*
X103739263Y-167392591D01*
X103727659Y-167392845D01*
X103717050Y-167392210D01*
X103707540Y-167390669D01*
X103699232Y-167388202D01*
X103695560Y-167386617D01*
X103692228Y-167384793D01*
X103689247Y-167382729D01*
X103686632Y-167380422D01*
X103678689Y-167373809D01*
X103669390Y-167368394D01*
X103658853Y-167364128D01*
X103647192Y-167360963D01*
X103634524Y-167358853D01*
X103620965Y-167357748D01*
X103606629Y-167357602D01*
X103591634Y-167358366D01*
X103560128Y-167362434D01*
X103527373Y-167369570D01*
X103494296Y-167379392D01*
X103461824Y-167391519D01*
X103430884Y-167405566D01*
X103402403Y-167421153D01*
X103377309Y-167437897D01*
X103366321Y-167446584D01*
X103356527Y-167455416D01*
X103348043Y-167464347D01*
X103340985Y-167473328D01*
X103335469Y-167482311D01*
X103331610Y-167491249D01*
X103329525Y-167500094D01*
X103329329Y-167508799D01*
X103331139Y-167517314D01*
X103335069Y-167525594D01*
X103337699Y-167529636D01*
X103340483Y-167533510D01*
X103343415Y-167537214D01*
X103346487Y-167540745D01*
X103349691Y-167544101D01*
X103353018Y-167547280D01*
X103356462Y-167550280D01*
X103360014Y-167553099D01*
X103363667Y-167555733D01*
X103367412Y-167558182D01*
X103371242Y-167560443D01*
X103375149Y-167562513D01*
X103379126Y-167564390D01*
X103383164Y-167566073D01*
X103387256Y-167567559D01*
X103391393Y-167568845D01*
X103395569Y-167569930D01*
X103399774Y-167570811D01*
X103404002Y-167571486D01*
X103408245Y-167571953D01*
X103412494Y-167572209D01*
X103416742Y-167572253D01*
X103420982Y-167572082D01*
X103425204Y-167571693D01*
X103429402Y-167571086D01*
X103433568Y-167570257D01*
X103437693Y-167569204D01*
X103441771Y-167567925D01*
X103445793Y-167566418D01*
X103449751Y-167564681D01*
X103453637Y-167562711D01*
X103457445Y-167560506D01*
X103461252Y-167558307D01*
X103465148Y-167556361D01*
X103469126Y-167554665D01*
X103473178Y-167553216D01*
X103477295Y-167552011D01*
X103481470Y-167551047D01*
X103485693Y-167550322D01*
X103489958Y-167549832D01*
X103494256Y-167549576D01*
X103498579Y-167549549D01*
X103502918Y-167549749D01*
X103507266Y-167550174D01*
X103511615Y-167550820D01*
X103515956Y-167551685D01*
X103520282Y-167552766D01*
X103524583Y-167554059D01*
X103528853Y-167555563D01*
X103533083Y-167557274D01*
X103537265Y-167559189D01*
X103541391Y-167561306D01*
X103545453Y-167563621D01*
X103549442Y-167566133D01*
X103553351Y-167568838D01*
X103557171Y-167571733D01*
X103560895Y-167574815D01*
X103564514Y-167578082D01*
X103568020Y-167581530D01*
X103571405Y-167585158D01*
X103574661Y-167588961D01*
X103577780Y-167592938D01*
X103580754Y-167597085D01*
X103583574Y-167601400D01*
X103586158Y-167606002D01*
X103588176Y-167610524D01*
X103589636Y-167614961D01*
X103590547Y-167619311D01*
X103590915Y-167623567D01*
X103590749Y-167627725D01*
X103590058Y-167631783D01*
X103588848Y-167635734D01*
X103587128Y-167639574D01*
X103584906Y-167643301D01*
X103582190Y-167646908D01*
X103578988Y-167650392D01*
X103575307Y-167653748D01*
X103571156Y-167656972D01*
X103566543Y-167660060D01*
X103561475Y-167663007D01*
X103555961Y-167665809D01*
X103550009Y-167668462D01*
X103543626Y-167670961D01*
X103536820Y-167673302D01*
X103529600Y-167675480D01*
X103521973Y-167677492D01*
X103513948Y-167679333D01*
X103505532Y-167680999D01*
X103496733Y-167682485D01*
X103487560Y-167683787D01*
X103478020Y-167684900D01*
X103468121Y-167685821D01*
X103457871Y-167686544D01*
X103447278Y-167687067D01*
X103436351Y-167687383D01*
X103425096Y-167687490D01*
X103403248Y-167687030D01*
X103381455Y-167685680D01*
X103359852Y-167683487D01*
X103338577Y-167680494D01*
X103317767Y-167676748D01*
X103297557Y-167672294D01*
X103278086Y-167667177D01*
X103259489Y-167661443D01*
X103241902Y-167655136D01*
X103225464Y-167648303D01*
X103210309Y-167640987D01*
X103196576Y-167633236D01*
X103184400Y-167625094D01*
X103173919Y-167616606D01*
X103165269Y-167607818D01*
X103158586Y-167598775D01*
X103155006Y-167593752D01*
X103150633Y-167588979D01*
X103145477Y-167584456D01*
X103139551Y-167580183D01*
X103132866Y-167576163D01*
X103125435Y-167572395D01*
X103117270Y-167568881D01*
X103108381Y-167565621D01*
X103098782Y-167562617D01*
X103088483Y-167559868D01*
X103065837Y-167555144D01*
X103040537Y-167551454D01*
X103012678Y-167548806D01*
X102982355Y-167547208D01*
X102949664Y-167546665D01*
X102914699Y-167547185D01*
X102877555Y-167548774D01*
X102838327Y-167551441D01*
X102797111Y-167555190D01*
X102754001Y-167560031D01*
X102709092Y-167565969D01*
X102346709Y-167623218D01*
X101904101Y-167701976D01*
X100926748Y-167893411D01*
X100074095Y-168079060D01*
X99787363Y-168150587D01*
X99695142Y-168177678D01*
X99643205Y-168197713D01*
X99625677Y-168206679D01*
X99607942Y-168214965D01*
X99590121Y-168222545D01*
X99572337Y-168229395D01*
X99554710Y-168235490D01*
X99537362Y-168240805D01*
X99520415Y-168245316D01*
X99503992Y-168248998D01*
X99488212Y-168251825D01*
X99473199Y-168253774D01*
X99459073Y-168254819D01*
X99445958Y-168254936D01*
X99433973Y-168254100D01*
X99423241Y-168252286D01*
X99413884Y-168249470D01*
X99409758Y-168247678D01*
X99406023Y-168245625D01*
X99401910Y-168243622D01*
X99396661Y-168241973D01*
X99382890Y-168239717D01*
X99364980Y-168238815D01*
X99343202Y-168239223D01*
X99317826Y-168240898D01*
X99289123Y-168243797D01*
X99257364Y-168247875D01*
X99222818Y-168253091D01*
X99185757Y-168259400D01*
X99146450Y-168266758D01*
X99105169Y-168275123D01*
X99062185Y-168284451D01*
X99017767Y-168294699D01*
X98972186Y-168305823D01*
X98925713Y-168317779D01*
X98878618Y-168330525D01*
X98683746Y-168382304D01*
X98492368Y-168429196D01*
X98326482Y-168466052D01*
X98259972Y-168479107D01*
X98208085Y-168487722D01*
X97788884Y-168566291D01*
X97118172Y-168712643D01*
X95389529Y-169119428D01*
X93756787Y-169529543D01*
X93205951Y-169680058D01*
X92954577Y-169764455D01*
X92941595Y-169771063D01*
X92921927Y-169779072D01*
X92864140Y-169798859D01*
X92784433Y-169822941D01*
X92686026Y-169850446D01*
X92572137Y-169880500D01*
X92445983Y-169912230D01*
X92310783Y-169944762D01*
X92169756Y-169977223D01*
X91864056Y-170048537D01*
X91543765Y-170127530D01*
X91246888Y-170204589D01*
X91011431Y-170270101D01*
X90813913Y-170326492D01*
X90620371Y-170378686D01*
X90453025Y-170420884D01*
X90386119Y-170436422D01*
X90334094Y-170447286D01*
X90283648Y-170457928D01*
X90221268Y-170472832D01*
X90149416Y-170491317D01*
X90070552Y-170512704D01*
X89987135Y-170536312D01*
X89901627Y-170561462D01*
X89816489Y-170587474D01*
X89734179Y-170613668D01*
X89570643Y-170665235D01*
X89412372Y-170712365D01*
X89277423Y-170749842D01*
X89224338Y-170763331D01*
X89183856Y-170772451D01*
X89143504Y-170781608D01*
X89090835Y-170795205D01*
X89028074Y-170812583D01*
X88957446Y-170833085D01*
X88881176Y-170856052D01*
X88801489Y-170880825D01*
X88720610Y-170906746D01*
X88640765Y-170933156D01*
X88462759Y-170990464D01*
X88259757Y-171051751D01*
X88056760Y-171109680D01*
X87878772Y-171156911D01*
X87401094Y-171289979D01*
X86618396Y-171519956D01*
X85725057Y-171788968D01*
X84915454Y-172039144D01*
X84717085Y-172098845D01*
X84626214Y-172123865D01*
X84540360Y-172145727D01*
X84459129Y-172164479D01*
X84382129Y-172180169D01*
X84308966Y-172192845D01*
X84239246Y-172202554D01*
X84172575Y-172209343D01*
X84108562Y-172213261D01*
X84046811Y-172214355D01*
X83986929Y-172212672D01*
X83928524Y-172208260D01*
X83871200Y-172201167D01*
X83814566Y-172191440D01*
X83758228Y-172179128D01*
X83759204Y-172179097D01*
X83629054Y-172143302D01*
X83502667Y-172099671D01*
X83380133Y-172048284D01*
X83261538Y-171989225D01*
X83146974Y-171922577D01*
X83036527Y-171848421D01*
X82930289Y-171766839D01*
X82828346Y-171677915D01*
X82730788Y-171581730D01*
X82637703Y-171478367D01*
X82549181Y-171367907D01*
X82465311Y-171250435D01*
X82386181Y-171126031D01*
X82311879Y-170994779D01*
X82242496Y-170856759D01*
X82178119Y-170712056D01*
X82145568Y-170556329D01*
X82122153Y-170230265D01*
X82106847Y-169676582D01*
X82098623Y-168837999D01*
X82099305Y-166077005D01*
X82115978Y-161489027D01*
X82164403Y-144999099D01*
X82179711Y-132180640D01*
X82178119Y-115702176D01*
X82178119Y-60584169D01*
X82178119Y-32898166D01*
X82178119Y-14821843D01*
X82178119Y-14437871D01*
X82261754Y-14263348D01*
X82349551Y-14088337D01*
X82395662Y-14001847D01*
X82443596Y-13916673D01*
X82493613Y-13833295D01*
X82545974Y-13752191D01*
X82600940Y-13673841D01*
X82658771Y-13598724D01*
X82719727Y-13527321D01*
X82784071Y-13460109D01*
X82852061Y-13397569D01*
X82923960Y-13340180D01*
X83000027Y-13288421D01*
X83039706Y-13264803D01*
X83080524Y-13242772D01*
X83152268Y-13209296D01*
X83229481Y-13179656D01*
X83312296Y-13153848D01*
X83400846Y-13131865D01*
X83495263Y-13113703D01*
X83595680Y-13099355D01*
X83702229Y-13088817D01*
X83815044Y-13082082D01*
X83934256Y-13079145D01*
X84060000Y-13080000D01*
M02*
