%TF.GenerationSoftware,KiCad,Pcbnew,9.0.8+1*%
%TF.CreationDate,2026-10-08T21:21:42-04:00*%
%TF.ProjectId,om27_strumplate,6f6d3237-5f73-4747-9275-6d706c617465,1.1*%
%TF.SameCoordinates,Original*%
%TF.FileFunction,Legend,Top*%
%TF.FilePolarity,Positive*%
%FSLAX46Y46*%
G04 Gerber Fmt 4.6, Leading zero omitted, Abs format (unit mm)*
G04 Created by KiCad (PCBNEW 9.0.8+1) date 2026-10-08 21:21:42*
%MOMM*%
%LPD*%
G01*
G04 APERTURE LIST*
%ADD10C,0.300000*%
%ADD11C,0.180000*%
%ADD12C,0.160000*%
%ADD13C,0.150000*%
%ADD14C,0.200000*%
%ADD15C,0.000000*%
%ADD16C,0.250000*%
G04 APERTURE END LIST*
D10*
X164609638Y-83641190D02*
X164609638Y-83260237D01*
X164609638Y-83260237D02*
X164704876Y-83069761D01*
X164704876Y-83069761D02*
X164895352Y-82879285D01*
X164895352Y-82879285D02*
X165276304Y-82784047D01*
X165276304Y-82784047D02*
X165942971Y-82784047D01*
X165942971Y-82784047D02*
X166323923Y-82879285D01*
X166323923Y-82879285D02*
X166514400Y-83069761D01*
X166514400Y-83069761D02*
X166609638Y-83260237D01*
X166609638Y-83260237D02*
X166609638Y-83641190D01*
X166609638Y-83641190D02*
X166514400Y-83831666D01*
X166514400Y-83831666D02*
X166323923Y-84022142D01*
X166323923Y-84022142D02*
X165942971Y-84117380D01*
X165942971Y-84117380D02*
X165276304Y-84117380D01*
X165276304Y-84117380D02*
X164895352Y-84022142D01*
X164895352Y-84022142D02*
X164704876Y-83831666D01*
X164704876Y-83831666D02*
X164609638Y-83641190D01*
X166609638Y-81926904D02*
X164609638Y-81926904D01*
X164609638Y-81926904D02*
X166038209Y-81260237D01*
X166038209Y-81260237D02*
X164609638Y-80593571D01*
X164609638Y-80593571D02*
X166609638Y-80593571D01*
X165847733Y-79641190D02*
X165847733Y-78117381D01*
X164800114Y-77260238D02*
X164704876Y-77165000D01*
X164704876Y-77165000D02*
X164609638Y-76974524D01*
X164609638Y-76974524D02*
X164609638Y-76498333D01*
X164609638Y-76498333D02*
X164704876Y-76307857D01*
X164704876Y-76307857D02*
X164800114Y-76212619D01*
X164800114Y-76212619D02*
X164990590Y-76117381D01*
X164990590Y-76117381D02*
X165181066Y-76117381D01*
X165181066Y-76117381D02*
X165466780Y-76212619D01*
X165466780Y-76212619D02*
X166609638Y-77355476D01*
X166609638Y-77355476D02*
X166609638Y-76117381D01*
X164609638Y-75450714D02*
X164609638Y-74117381D01*
X164609638Y-74117381D02*
X166609638Y-74974524D01*
D11*
X167445782Y-80993571D02*
X168645782Y-80593571D01*
X168645782Y-80593571D02*
X167445782Y-80193571D01*
X168645782Y-79165000D02*
X168645782Y-79850714D01*
X168645782Y-79507857D02*
X167445782Y-79507857D01*
X167445782Y-79507857D02*
X167617211Y-79622143D01*
X167617211Y-79622143D02*
X167731497Y-79736428D01*
X167731497Y-79736428D02*
X167788640Y-79850714D01*
X168531497Y-78650714D02*
X168588640Y-78593571D01*
X168588640Y-78593571D02*
X168645782Y-78650714D01*
X168645782Y-78650714D02*
X168588640Y-78707857D01*
X168588640Y-78707857D02*
X168531497Y-78650714D01*
X168531497Y-78650714D02*
X168645782Y-78650714D01*
X168645782Y-77450714D02*
X168645782Y-78136428D01*
X168645782Y-77793571D02*
X167445782Y-77793571D01*
X167445782Y-77793571D02*
X167617211Y-77907857D01*
X167617211Y-77907857D02*
X167731497Y-78022142D01*
X167731497Y-78022142D02*
X167788640Y-78136428D01*
D12*
X147045238Y-84258084D02*
X147045238Y-82958084D01*
X147788095Y-84258084D02*
X147230953Y-83515227D01*
X147788095Y-82958084D02*
X147045238Y-83700941D01*
X148840476Y-84196180D02*
X148716667Y-84258084D01*
X148716667Y-84258084D02*
X148469048Y-84258084D01*
X148469048Y-84258084D02*
X148345238Y-84196180D01*
X148345238Y-84196180D02*
X148283334Y-84072370D01*
X148283334Y-84072370D02*
X148283334Y-83577132D01*
X148283334Y-83577132D02*
X148345238Y-83453322D01*
X148345238Y-83453322D02*
X148469048Y-83391418D01*
X148469048Y-83391418D02*
X148716667Y-83391418D01*
X148716667Y-83391418D02*
X148840476Y-83453322D01*
X148840476Y-83453322D02*
X148902381Y-83577132D01*
X148902381Y-83577132D02*
X148902381Y-83700941D01*
X148902381Y-83700941D02*
X148283334Y-83824751D01*
X149335715Y-83391418D02*
X149645239Y-84258084D01*
X149954762Y-83391418D02*
X149645239Y-84258084D01*
X149645239Y-84258084D02*
X149521429Y-84567608D01*
X149521429Y-84567608D02*
X149459524Y-84629513D01*
X149459524Y-84629513D02*
X149335715Y-84691418D01*
X152492857Y-84258084D02*
X152430953Y-84258084D01*
X152430953Y-84258084D02*
X152307143Y-84196180D01*
X152307143Y-84196180D02*
X152121429Y-84010465D01*
X152121429Y-84010465D02*
X151811905Y-83639037D01*
X151811905Y-83639037D02*
X151688095Y-83453322D01*
X151688095Y-83453322D02*
X151626191Y-83267608D01*
X151626191Y-83267608D02*
X151626191Y-83143799D01*
X151626191Y-83143799D02*
X151688095Y-83019989D01*
X151688095Y-83019989D02*
X151811905Y-82958084D01*
X151811905Y-82958084D02*
X151873810Y-82958084D01*
X151873810Y-82958084D02*
X151997619Y-83019989D01*
X151997619Y-83019989D02*
X152059524Y-83143799D01*
X152059524Y-83143799D02*
X152059524Y-83205703D01*
X152059524Y-83205703D02*
X151997619Y-83329513D01*
X151997619Y-83329513D02*
X151935714Y-83391418D01*
X151935714Y-83391418D02*
X151564286Y-83639037D01*
X151564286Y-83639037D02*
X151502381Y-83700941D01*
X151502381Y-83700941D02*
X151440476Y-83824751D01*
X151440476Y-83824751D02*
X151440476Y-84010465D01*
X151440476Y-84010465D02*
X151502381Y-84134275D01*
X151502381Y-84134275D02*
X151564286Y-84196180D01*
X151564286Y-84196180D02*
X151688095Y-84258084D01*
X151688095Y-84258084D02*
X151873810Y-84258084D01*
X151873810Y-84258084D02*
X151997619Y-84196180D01*
X151997619Y-84196180D02*
X152059524Y-84134275D01*
X152059524Y-84134275D02*
X152245238Y-83886656D01*
X152245238Y-83886656D02*
X152307143Y-83700941D01*
X152307143Y-83700941D02*
X152307143Y-83577132D01*
X154783333Y-84134275D02*
X154721429Y-84196180D01*
X154721429Y-84196180D02*
X154535714Y-84258084D01*
X154535714Y-84258084D02*
X154411905Y-84258084D01*
X154411905Y-84258084D02*
X154226191Y-84196180D01*
X154226191Y-84196180D02*
X154102381Y-84072370D01*
X154102381Y-84072370D02*
X154040476Y-83948560D01*
X154040476Y-83948560D02*
X153978572Y-83700941D01*
X153978572Y-83700941D02*
X153978572Y-83515227D01*
X153978572Y-83515227D02*
X154040476Y-83267608D01*
X154040476Y-83267608D02*
X154102381Y-83143799D01*
X154102381Y-83143799D02*
X154226191Y-83019989D01*
X154226191Y-83019989D02*
X154411905Y-82958084D01*
X154411905Y-82958084D02*
X154535714Y-82958084D01*
X154535714Y-82958084D02*
X154721429Y-83019989D01*
X154721429Y-83019989D02*
X154783333Y-83081894D01*
X155897619Y-84258084D02*
X155897619Y-83577132D01*
X155897619Y-83577132D02*
X155835714Y-83453322D01*
X155835714Y-83453322D02*
X155711905Y-83391418D01*
X155711905Y-83391418D02*
X155464286Y-83391418D01*
X155464286Y-83391418D02*
X155340476Y-83453322D01*
X155897619Y-84196180D02*
X155773810Y-84258084D01*
X155773810Y-84258084D02*
X155464286Y-84258084D01*
X155464286Y-84258084D02*
X155340476Y-84196180D01*
X155340476Y-84196180D02*
X155278572Y-84072370D01*
X155278572Y-84072370D02*
X155278572Y-83948560D01*
X155278572Y-83948560D02*
X155340476Y-83824751D01*
X155340476Y-83824751D02*
X155464286Y-83762846D01*
X155464286Y-83762846D02*
X155773810Y-83762846D01*
X155773810Y-83762846D02*
X155897619Y-83700941D01*
X156516666Y-84258084D02*
X156516666Y-82958084D01*
X156516666Y-83453322D02*
X156640476Y-83391418D01*
X156640476Y-83391418D02*
X156888095Y-83391418D01*
X156888095Y-83391418D02*
X157011904Y-83453322D01*
X157011904Y-83453322D02*
X157073809Y-83515227D01*
X157073809Y-83515227D02*
X157135714Y-83639037D01*
X157135714Y-83639037D02*
X157135714Y-84010465D01*
X157135714Y-84010465D02*
X157073809Y-84134275D01*
X157073809Y-84134275D02*
X157011904Y-84196180D01*
X157011904Y-84196180D02*
X156888095Y-84258084D01*
X156888095Y-84258084D02*
X156640476Y-84258084D01*
X156640476Y-84258084D02*
X156516666Y-84196180D01*
X157878571Y-84258084D02*
X157754761Y-84196180D01*
X157754761Y-84196180D02*
X157692856Y-84072370D01*
X157692856Y-84072370D02*
X157692856Y-82958084D01*
X158869046Y-84196180D02*
X158745237Y-84258084D01*
X158745237Y-84258084D02*
X158497618Y-84258084D01*
X158497618Y-84258084D02*
X158373808Y-84196180D01*
X158373808Y-84196180D02*
X158311904Y-84072370D01*
X158311904Y-84072370D02*
X158311904Y-83577132D01*
X158311904Y-83577132D02*
X158373808Y-83453322D01*
X158373808Y-83453322D02*
X158497618Y-83391418D01*
X158497618Y-83391418D02*
X158745237Y-83391418D01*
X158745237Y-83391418D02*
X158869046Y-83453322D01*
X158869046Y-83453322D02*
X158930951Y-83577132D01*
X158930951Y-83577132D02*
X158930951Y-83700941D01*
X158930951Y-83700941D02*
X158311904Y-83824751D01*
X161221427Y-84134275D02*
X161159523Y-84196180D01*
X161159523Y-84196180D02*
X160973808Y-84258084D01*
X160973808Y-84258084D02*
X160849999Y-84258084D01*
X160849999Y-84258084D02*
X160664285Y-84196180D01*
X160664285Y-84196180D02*
X160540475Y-84072370D01*
X160540475Y-84072370D02*
X160478570Y-83948560D01*
X160478570Y-83948560D02*
X160416666Y-83700941D01*
X160416666Y-83700941D02*
X160416666Y-83515227D01*
X160416666Y-83515227D02*
X160478570Y-83267608D01*
X160478570Y-83267608D02*
X160540475Y-83143799D01*
X160540475Y-83143799D02*
X160664285Y-83019989D01*
X160664285Y-83019989D02*
X160849999Y-82958084D01*
X160849999Y-82958084D02*
X160973808Y-82958084D01*
X160973808Y-82958084D02*
X161159523Y-83019989D01*
X161159523Y-83019989D02*
X161221427Y-83081894D01*
X161964285Y-84258084D02*
X161840475Y-84196180D01*
X161840475Y-84196180D02*
X161778570Y-84134275D01*
X161778570Y-84134275D02*
X161716666Y-84010465D01*
X161716666Y-84010465D02*
X161716666Y-83639037D01*
X161716666Y-83639037D02*
X161778570Y-83515227D01*
X161778570Y-83515227D02*
X161840475Y-83453322D01*
X161840475Y-83453322D02*
X161964285Y-83391418D01*
X161964285Y-83391418D02*
X162149999Y-83391418D01*
X162149999Y-83391418D02*
X162273808Y-83453322D01*
X162273808Y-83453322D02*
X162335713Y-83515227D01*
X162335713Y-83515227D02*
X162397618Y-83639037D01*
X162397618Y-83639037D02*
X162397618Y-84010465D01*
X162397618Y-84010465D02*
X162335713Y-84134275D01*
X162335713Y-84134275D02*
X162273808Y-84196180D01*
X162273808Y-84196180D02*
X162149999Y-84258084D01*
X162149999Y-84258084D02*
X161964285Y-84258084D01*
X162954760Y-84134275D02*
X163016665Y-84196180D01*
X163016665Y-84196180D02*
X162954760Y-84258084D01*
X162954760Y-84258084D02*
X162892856Y-84196180D01*
X162892856Y-84196180D02*
X162954760Y-84134275D01*
X162954760Y-84134275D02*
X162954760Y-84258084D01*
D13*
X147628573Y-86162342D02*
X147628573Y-84962342D01*
X147742859Y-85705200D02*
X148085716Y-86162342D01*
X148085716Y-85362342D02*
X147628573Y-85819485D01*
X149057145Y-86105200D02*
X148942859Y-86162342D01*
X148942859Y-86162342D02*
X148714288Y-86162342D01*
X148714288Y-86162342D02*
X148600002Y-86105200D01*
X148600002Y-86105200D02*
X148542859Y-85990914D01*
X148542859Y-85990914D02*
X148542859Y-85533771D01*
X148542859Y-85533771D02*
X148600002Y-85419485D01*
X148600002Y-85419485D02*
X148714288Y-85362342D01*
X148714288Y-85362342D02*
X148942859Y-85362342D01*
X148942859Y-85362342D02*
X149057145Y-85419485D01*
X149057145Y-85419485D02*
X149114288Y-85533771D01*
X149114288Y-85533771D02*
X149114288Y-85648057D01*
X149114288Y-85648057D02*
X148542859Y-85762342D01*
X149514287Y-85362342D02*
X149800001Y-86162342D01*
X150085716Y-85362342D02*
X149800001Y-86162342D01*
X149800001Y-86162342D02*
X149685716Y-86448057D01*
X149685716Y-86448057D02*
X149628573Y-86505200D01*
X149628573Y-86505200D02*
X149514287Y-86562342D01*
X151057145Y-86162342D02*
X151057145Y-85533771D01*
X151057145Y-85533771D02*
X151000002Y-85419485D01*
X151000002Y-85419485D02*
X150885716Y-85362342D01*
X150885716Y-85362342D02*
X150657145Y-85362342D01*
X150657145Y-85362342D02*
X150542859Y-85419485D01*
X151057145Y-86105200D02*
X150942859Y-86162342D01*
X150942859Y-86162342D02*
X150657145Y-86162342D01*
X150657145Y-86162342D02*
X150542859Y-86105200D01*
X150542859Y-86105200D02*
X150485716Y-85990914D01*
X150485716Y-85990914D02*
X150485716Y-85876628D01*
X150485716Y-85876628D02*
X150542859Y-85762342D01*
X150542859Y-85762342D02*
X150657145Y-85705200D01*
X150657145Y-85705200D02*
X150942859Y-85705200D01*
X150942859Y-85705200D02*
X151057145Y-85648057D01*
X151628573Y-85362342D02*
X151628573Y-86162342D01*
X151628573Y-85476628D02*
X151685716Y-85419485D01*
X151685716Y-85419485D02*
X151800001Y-85362342D01*
X151800001Y-85362342D02*
X151971430Y-85362342D01*
X151971430Y-85362342D02*
X152085716Y-85419485D01*
X152085716Y-85419485D02*
X152142859Y-85533771D01*
X152142859Y-85533771D02*
X152142859Y-86162342D01*
X153228573Y-86162342D02*
X153228573Y-84962342D01*
X153228573Y-86105200D02*
X153114287Y-86162342D01*
X153114287Y-86162342D02*
X152885715Y-86162342D01*
X152885715Y-86162342D02*
X152771430Y-86105200D01*
X152771430Y-86105200D02*
X152714287Y-86048057D01*
X152714287Y-86048057D02*
X152657144Y-85933771D01*
X152657144Y-85933771D02*
X152657144Y-85590914D01*
X152657144Y-85590914D02*
X152714287Y-85476628D01*
X152714287Y-85476628D02*
X152771430Y-85419485D01*
X152771430Y-85419485D02*
X152885715Y-85362342D01*
X152885715Y-85362342D02*
X153114287Y-85362342D01*
X153114287Y-85362342D02*
X153228573Y-85419485D01*
X154314287Y-86105200D02*
X154200001Y-86162342D01*
X154200001Y-86162342D02*
X153971429Y-86162342D01*
X153971429Y-86162342D02*
X153857144Y-86105200D01*
X153857144Y-86105200D02*
X153800001Y-86048057D01*
X153800001Y-86048057D02*
X153742858Y-85933771D01*
X153742858Y-85933771D02*
X153742858Y-85590914D01*
X153742858Y-85590914D02*
X153800001Y-85476628D01*
X153800001Y-85476628D02*
X153857144Y-85419485D01*
X153857144Y-85419485D02*
X153971429Y-85362342D01*
X153971429Y-85362342D02*
X154200001Y-85362342D01*
X154200001Y-85362342D02*
X154314287Y-85419485D01*
X155342858Y-86162342D02*
X155342858Y-85533771D01*
X155342858Y-85533771D02*
X155285715Y-85419485D01*
X155285715Y-85419485D02*
X155171429Y-85362342D01*
X155171429Y-85362342D02*
X154942858Y-85362342D01*
X154942858Y-85362342D02*
X154828572Y-85419485D01*
X155342858Y-86105200D02*
X155228572Y-86162342D01*
X155228572Y-86162342D02*
X154942858Y-86162342D01*
X154942858Y-86162342D02*
X154828572Y-86105200D01*
X154828572Y-86105200D02*
X154771429Y-85990914D01*
X154771429Y-85990914D02*
X154771429Y-85876628D01*
X154771429Y-85876628D02*
X154828572Y-85762342D01*
X154828572Y-85762342D02*
X154942858Y-85705200D01*
X154942858Y-85705200D02*
X155228572Y-85705200D01*
X155228572Y-85705200D02*
X155342858Y-85648057D01*
X155914286Y-86162342D02*
X155914286Y-84962342D01*
X155914286Y-85419485D02*
X156028572Y-85362342D01*
X156028572Y-85362342D02*
X156257143Y-85362342D01*
X156257143Y-85362342D02*
X156371429Y-85419485D01*
X156371429Y-85419485D02*
X156428572Y-85476628D01*
X156428572Y-85476628D02*
X156485714Y-85590914D01*
X156485714Y-85590914D02*
X156485714Y-85933771D01*
X156485714Y-85933771D02*
X156428572Y-86048057D01*
X156428572Y-86048057D02*
X156371429Y-86105200D01*
X156371429Y-86105200D02*
X156257143Y-86162342D01*
X156257143Y-86162342D02*
X156028572Y-86162342D01*
X156028572Y-86162342D02*
X155914286Y-86105200D01*
X157171428Y-86162342D02*
X157057143Y-86105200D01*
X157057143Y-86105200D02*
X157000000Y-85990914D01*
X157000000Y-85990914D02*
X157000000Y-84962342D01*
X158085714Y-86105200D02*
X157971428Y-86162342D01*
X157971428Y-86162342D02*
X157742857Y-86162342D01*
X157742857Y-86162342D02*
X157628571Y-86105200D01*
X157628571Y-86105200D02*
X157571428Y-85990914D01*
X157571428Y-85990914D02*
X157571428Y-85533771D01*
X157571428Y-85533771D02*
X157628571Y-85419485D01*
X157628571Y-85419485D02*
X157742857Y-85362342D01*
X157742857Y-85362342D02*
X157971428Y-85362342D01*
X157971428Y-85362342D02*
X158085714Y-85419485D01*
X158085714Y-85419485D02*
X158142857Y-85533771D01*
X158142857Y-85533771D02*
X158142857Y-85648057D01*
X158142857Y-85648057D02*
X157571428Y-85762342D01*
X158657142Y-86048057D02*
X158714285Y-86105200D01*
X158714285Y-86105200D02*
X158657142Y-86162342D01*
X158657142Y-86162342D02*
X158599999Y-86105200D01*
X158599999Y-86105200D02*
X158657142Y-86048057D01*
X158657142Y-86048057D02*
X158657142Y-86162342D01*
X159742857Y-86105200D02*
X159628571Y-86162342D01*
X159628571Y-86162342D02*
X159399999Y-86162342D01*
X159399999Y-86162342D02*
X159285714Y-86105200D01*
X159285714Y-86105200D02*
X159228571Y-86048057D01*
X159228571Y-86048057D02*
X159171428Y-85933771D01*
X159171428Y-85933771D02*
X159171428Y-85590914D01*
X159171428Y-85590914D02*
X159228571Y-85476628D01*
X159228571Y-85476628D02*
X159285714Y-85419485D01*
X159285714Y-85419485D02*
X159399999Y-85362342D01*
X159399999Y-85362342D02*
X159628571Y-85362342D01*
X159628571Y-85362342D02*
X159742857Y-85419485D01*
X160428570Y-86162342D02*
X160314285Y-86105200D01*
X160314285Y-86105200D02*
X160257142Y-86048057D01*
X160257142Y-86048057D02*
X160199999Y-85933771D01*
X160199999Y-85933771D02*
X160199999Y-85590914D01*
X160199999Y-85590914D02*
X160257142Y-85476628D01*
X160257142Y-85476628D02*
X160314285Y-85419485D01*
X160314285Y-85419485D02*
X160428570Y-85362342D01*
X160428570Y-85362342D02*
X160599999Y-85362342D01*
X160599999Y-85362342D02*
X160714285Y-85419485D01*
X160714285Y-85419485D02*
X160771428Y-85476628D01*
X160771428Y-85476628D02*
X160828570Y-85590914D01*
X160828570Y-85590914D02*
X160828570Y-85933771D01*
X160828570Y-85933771D02*
X160771428Y-86048057D01*
X160771428Y-86048057D02*
X160714285Y-86105200D01*
X160714285Y-86105200D02*
X160599999Y-86162342D01*
X160599999Y-86162342D02*
X160428570Y-86162342D01*
X161342856Y-86162342D02*
X161342856Y-85362342D01*
X161342856Y-85476628D02*
X161399999Y-85419485D01*
X161399999Y-85419485D02*
X161514284Y-85362342D01*
X161514284Y-85362342D02*
X161685713Y-85362342D01*
X161685713Y-85362342D02*
X161799999Y-85419485D01*
X161799999Y-85419485D02*
X161857142Y-85533771D01*
X161857142Y-85533771D02*
X161857142Y-86162342D01*
X161857142Y-85533771D02*
X161914284Y-85419485D01*
X161914284Y-85419485D02*
X162028570Y-85362342D01*
X162028570Y-85362342D02*
X162199999Y-85362342D01*
X162199999Y-85362342D02*
X162314284Y-85419485D01*
X162314284Y-85419485D02*
X162371427Y-85533771D01*
X162371427Y-85533771D02*
X162371427Y-86162342D01*
D14*
%TO.C,REF\u002A\u002A*%
X156078800Y-82115000D02*
X153696500Y-82115000D01*
X153696500Y-72115000D01*
X156078800Y-72115000D01*
X156078800Y-82115000D01*
D15*
G36*
X156073700Y-78426600D02*
G01*
X154933600Y-78426600D01*
X154933600Y-72120100D01*
X156073700Y-72120100D01*
X156073700Y-78426600D01*
G37*
D16*
X152248900Y-74609900D02*
X152310200Y-74487400D01*
X152310200Y-74487400D02*
X152374800Y-74377900D01*
X152374800Y-74377900D02*
X152442000Y-74280700D01*
X152442000Y-74280700D02*
X152511600Y-74195100D01*
X152511600Y-74195100D02*
X152582900Y-74120400D01*
X152582900Y-74120400D02*
X152655400Y-74055900D01*
X152655400Y-74055900D02*
X152728800Y-74000900D01*
X152728800Y-74000900D02*
X152802500Y-73954800D01*
X152802500Y-73954800D02*
X152876100Y-73916900D01*
X152876100Y-73916900D02*
X152949000Y-73886400D01*
X152949000Y-73886400D02*
X153020800Y-73862700D01*
X153020800Y-73862700D02*
X153091000Y-73845000D01*
X153091000Y-73845000D02*
X153159100Y-73832800D01*
X153159100Y-73832800D02*
X153224600Y-73825300D01*
X153224600Y-73825300D02*
X153287100Y-73821800D01*
X153287100Y-73821800D02*
X153346100Y-73821600D01*
X153346100Y-73821600D02*
X153401100Y-73824100D01*
X153401100Y-73824100D02*
X153451600Y-73828500D01*
X153451600Y-73828500D02*
X153497100Y-73834200D01*
X153497100Y-73834200D02*
X153537200Y-73840500D01*
X153537200Y-73840500D02*
X153571300Y-73846600D01*
X153571300Y-73846600D02*
X153599000Y-73852000D01*
X153599000Y-73852000D02*
X153619900Y-73855900D01*
X153619900Y-73855900D02*
X153633400Y-73857600D01*
X156142700Y-74432400D02*
X156164900Y-74437000D01*
X156164900Y-74437000D02*
X156206800Y-74450900D01*
X156206800Y-74450900D02*
X156266700Y-74473600D01*
X156266700Y-74473600D02*
X156343000Y-74504000D01*
X156343000Y-74504000D02*
X156433700Y-74541500D01*
X156433700Y-74541500D02*
X156537300Y-74585100D01*
X156537300Y-74585100D02*
X156651800Y-74634200D01*
X156651800Y-74634200D02*
X156775700Y-74687800D01*
X156775700Y-74687800D02*
X156907000Y-74745200D01*
X156907000Y-74745200D02*
X157044200Y-74805500D01*
X157044200Y-74805500D02*
X157185400Y-74867900D01*
X157185400Y-74867900D02*
X157328800Y-74931700D01*
X157328800Y-74931700D02*
X157472800Y-74995900D01*
X157472800Y-74995900D02*
X157615500Y-75059900D01*
X157615500Y-75059900D02*
X157755300Y-75122700D01*
X157755300Y-75122700D02*
X157890300Y-75183600D01*
X157890300Y-75183600D02*
X158018900Y-75241800D01*
X158018900Y-75241800D02*
X158139200Y-75296300D01*
X158139200Y-75296300D02*
X158249500Y-75346500D01*
X158249500Y-75346500D02*
X158348100Y-75391500D01*
X158348100Y-75391500D02*
X158433200Y-75430500D01*
X158433200Y-75430500D02*
X158503100Y-75462700D01*
X158503100Y-75462700D02*
X158556000Y-75487300D01*
X158556000Y-75487300D02*
X158590100Y-75503400D01*
X158590100Y-75503400D02*
X158786300Y-75615900D01*
X158786300Y-75615900D02*
X158940100Y-75743300D01*
X158940100Y-75743300D02*
X159052400Y-75884100D01*
X159052400Y-75884100D02*
X159124100Y-76036600D01*
X159124100Y-76036600D02*
X159156400Y-76199300D01*
X159156400Y-76199300D02*
X159150200Y-76370500D01*
X159150200Y-76370500D02*
X159106400Y-76548500D01*
X159106400Y-76548500D02*
X159026100Y-76731900D01*
X159026100Y-76731900D02*
X158910300Y-76918900D01*
X158910300Y-76918900D02*
X158760000Y-77108000D01*
X158760000Y-77108000D02*
X158576100Y-77297500D01*
X158576100Y-77297500D02*
X158359700Y-77485900D01*
X158359700Y-77485900D02*
X158111700Y-77671500D01*
X158111700Y-77671500D02*
X157833100Y-77852800D01*
X157833100Y-77852800D02*
X157525000Y-78028000D01*
X157525000Y-78028000D02*
X157188300Y-78195600D01*
X157188300Y-78195600D02*
X156824000Y-78354000D01*
X156824000Y-78354000D02*
X156433100Y-78501600D01*
X156433100Y-78501600D02*
X156016600Y-78636800D01*
X156016600Y-78636800D02*
X155575400Y-78757800D01*
X155575400Y-78757800D02*
X155110700Y-78863300D01*
X155110700Y-78863300D02*
X154623300Y-78951400D01*
X154623300Y-78951400D02*
X154114300Y-79020700D01*
X154114300Y-79020700D02*
X153584600Y-79069500D01*
X153584600Y-79069500D02*
X153480000Y-79076800D01*
X153480000Y-79076800D02*
X153372900Y-79084300D01*
X153372900Y-79084300D02*
X153263900Y-79092000D01*
X153263900Y-79092000D02*
X153153800Y-79100000D01*
X153153800Y-79100000D02*
X153043100Y-79108300D01*
X153043100Y-79108300D02*
X152932700Y-79117100D01*
X152932700Y-79117100D02*
X152823100Y-79126300D01*
X152823100Y-79126300D02*
X152715000Y-79136100D01*
X152715000Y-79136100D02*
X152609100Y-79146400D01*
X152609100Y-79146400D02*
X152506200Y-79157500D01*
X152506200Y-79157500D02*
X152406800Y-79169200D01*
X152406800Y-79169200D02*
X152311700Y-79181800D01*
X152311700Y-79181800D02*
X152221400Y-79195200D01*
X152221400Y-79195200D02*
X152136800Y-79209500D01*
X152136800Y-79209500D02*
X152058500Y-79224700D01*
X152058500Y-79224700D02*
X151987200Y-79241100D01*
X151987200Y-79241100D02*
X151923400Y-79258500D01*
X151923400Y-79258500D02*
X151868000Y-79277100D01*
X151868000Y-79277100D02*
X151821600Y-79296900D01*
X151821600Y-79296900D02*
X151784900Y-79318000D01*
X151784900Y-79318000D02*
X151758500Y-79340400D01*
X151758500Y-79340400D02*
X151743100Y-79364200D01*
X151743100Y-79364200D02*
X151739400Y-79389600D01*
X151739400Y-79389600D02*
X151748200Y-79416400D01*
X151748200Y-79416400D02*
X151774500Y-79454900D01*
X151774500Y-79454900D02*
X151811200Y-79494100D01*
X151811200Y-79494100D02*
X151857700Y-79534000D01*
X151857700Y-79534000D02*
X151913100Y-79574200D01*
X151913100Y-79574200D02*
X151976500Y-79614600D01*
X151976500Y-79614600D02*
X152047200Y-79654900D01*
X152047200Y-79654900D02*
X152124400Y-79695000D01*
X152124400Y-79695000D02*
X152207300Y-79734500D01*
X152207300Y-79734500D02*
X152295000Y-79773400D01*
X152295000Y-79773400D02*
X152386800Y-79811300D01*
X152386800Y-79811300D02*
X152481900Y-79848100D01*
X152481900Y-79848100D02*
X152579400Y-79883500D01*
X152579400Y-79883500D02*
X152678500Y-79917300D01*
X152678500Y-79917300D02*
X152778500Y-79949400D01*
X152778500Y-79949400D02*
X152878600Y-79979400D01*
X152878600Y-79979400D02*
X152977900Y-80007100D01*
X152977900Y-80007100D02*
X153075600Y-80032500D01*
X153075600Y-80032500D02*
X153170900Y-80055100D01*
X153170900Y-80055100D02*
X153263100Y-80074900D01*
X153263100Y-80074900D02*
X153351300Y-80091500D01*
X153351300Y-80091500D02*
X153434700Y-80104800D01*
X153434700Y-80104800D02*
X153512500Y-80114600D01*
X153512500Y-80114600D02*
X153584000Y-80120600D01*
X153584000Y-80120600D02*
X153648200Y-80122700D01*
X156140100Y-80530500D02*
X156241000Y-80540200D01*
X156241000Y-80540200D02*
X156326800Y-80562400D01*
X156326800Y-80562400D02*
X156398800Y-80595600D01*
X156398800Y-80595600D02*
X156458200Y-80638000D01*
X156458200Y-80638000D02*
X156506100Y-80688200D01*
X156506100Y-80688200D02*
X156544000Y-80744500D01*
X156544000Y-80744500D02*
X156572800Y-80805300D01*
X156572800Y-80805300D02*
X156594000Y-80869000D01*
X156594000Y-80869000D02*
X156608700Y-80933900D01*
X156608700Y-80933900D02*
X156618200Y-80998600D01*
X156618200Y-80998600D02*
X156623700Y-81061300D01*
X156623700Y-81061300D02*
X156626500Y-81120400D01*
X156626500Y-81120400D02*
X156627700Y-81174500D01*
X156627700Y-81174500D02*
X156628600Y-81221700D01*
X156628600Y-81221700D02*
X156630400Y-81260600D01*
X156630400Y-81260600D02*
X156634400Y-81289600D01*
X156634400Y-81289600D02*
X156641800Y-81306900D01*
X156641800Y-81306900D02*
X156653900Y-81311100D01*
X156653900Y-81311100D02*
X156671800Y-81300500D01*
X156671800Y-81300500D02*
X156696700Y-81273500D01*
X156696700Y-81273500D02*
X156730100Y-81228400D01*
X156730100Y-81228400D02*
X156772900Y-81163800D01*
X156772900Y-81163800D02*
X156826600Y-81078000D01*
X156826600Y-81078000D02*
X156892300Y-80969300D01*
X156892300Y-80969300D02*
X156904900Y-80956700D01*
X156904900Y-80956700D02*
X156922000Y-80952700D01*
X156922000Y-80952700D02*
X156943500Y-80956400D01*
X156943500Y-80956400D02*
X156969000Y-80967000D01*
X156969000Y-80967000D02*
X156998400Y-80983400D01*
X156998400Y-80983400D02*
X157031600Y-81004900D01*
X157031600Y-81004900D02*
X157068100Y-81030600D01*
X157068100Y-81030600D02*
X157108000Y-81059500D01*
X157108000Y-81059500D02*
X157150900Y-81090900D01*
X157150900Y-81090900D02*
X157196600Y-81123700D01*
X157196600Y-81123700D02*
X157244900Y-81157200D01*
X157244900Y-81157200D02*
X157295600Y-81190500D01*
X157295600Y-81190500D02*
X157348500Y-81222600D01*
X157348500Y-81222600D02*
X157403300Y-81252800D01*
X157403300Y-81252800D02*
X157459900Y-81280000D01*
X157459900Y-81280000D02*
X157518100Y-81303400D01*
X157518100Y-81303400D02*
X157577600Y-81322200D01*
X157577600Y-81322200D02*
X157638200Y-81335500D01*
X157638200Y-81335500D02*
X157699700Y-81342300D01*
X157699700Y-81342300D02*
X157761900Y-81341800D01*
X157761900Y-81341800D02*
X157824600Y-81333100D01*
X157824600Y-81333100D02*
X157887600Y-81315400D01*
X157887600Y-81315400D02*
X157950600Y-81287700D01*
X157950600Y-81287700D02*
X158013400Y-81249200D01*
D15*
G36*
X152464400Y-74789700D02*
G01*
X151828800Y-76083800D01*
X151343500Y-75845400D01*
X151979100Y-74551300D01*
X152464400Y-74789700D01*
G37*
G36*
X151706200Y-76132200D02*
G01*
X151274700Y-77010800D01*
X150945200Y-76848900D01*
X151376700Y-75970300D01*
X151706200Y-76132200D01*
G37*
G36*
X151062300Y-77030800D02*
G01*
X151281000Y-77138100D01*
X151078600Y-77273800D01*
X150876300Y-77409500D01*
X150859900Y-77166500D01*
X150843600Y-76923400D01*
X151062300Y-77030800D01*
G37*
G36*
X170145000Y-71810000D02*
G01*
X184855000Y-71810000D01*
X184855000Y-72240000D01*
X170145000Y-72240000D01*
X170145000Y-71810000D01*
G37*
G36*
X170145000Y-72230000D02*
G01*
X184855000Y-72230000D01*
X184855000Y-72660000D01*
X170145000Y-72660000D01*
X170145000Y-72230000D01*
G37*
G36*
X170145000Y-72650000D02*
G01*
X184855000Y-72650000D01*
X184855000Y-73080000D01*
X170145000Y-73080000D01*
X170145000Y-72650000D01*
G37*
G36*
X170145000Y-73070000D02*
G01*
X171415000Y-73070000D01*
X171415000Y-73500000D01*
X170145000Y-73500000D01*
X170145000Y-73070000D01*
G37*
G36*
X174345000Y-73070000D02*
G01*
X175195000Y-73070000D01*
X175195000Y-73500000D01*
X174345000Y-73500000D01*
X174345000Y-73070000D01*
G37*
G36*
X175605000Y-73070000D02*
G01*
X176035000Y-73070000D01*
X176035000Y-73500000D01*
X175605000Y-73500000D01*
X175605000Y-73070000D01*
G37*
G36*
X177705000Y-73070000D02*
G01*
X178975000Y-73070000D01*
X178975000Y-73500000D01*
X177705000Y-73500000D01*
X177705000Y-73070000D01*
G37*
G36*
X180225000Y-73070000D02*
G01*
X180655000Y-73070000D01*
X180655000Y-73500000D01*
X180225000Y-73500000D01*
X180225000Y-73070000D01*
G37*
G36*
X183585000Y-73070000D02*
G01*
X184855000Y-73070000D01*
X184855000Y-73500000D01*
X183585000Y-73500000D01*
X183585000Y-73070000D01*
G37*
G36*
X170145000Y-73490000D02*
G01*
X171415000Y-73490000D01*
X171415000Y-73920000D01*
X170145000Y-73920000D01*
X170145000Y-73490000D01*
G37*
G36*
X171825000Y-73490000D02*
G01*
X173935000Y-73490000D01*
X173935000Y-73920000D01*
X171825000Y-73920000D01*
X171825000Y-73490000D01*
G37*
G36*
X174345000Y-73490000D02*
G01*
X174775000Y-73490000D01*
X174775000Y-73920000D01*
X174345000Y-73920000D01*
X174345000Y-73490000D01*
G37*
G36*
X175185000Y-73490000D02*
G01*
X176455000Y-73490000D01*
X176455000Y-73920000D01*
X175185000Y-73920000D01*
X175185000Y-73490000D01*
G37*
G36*
X176865000Y-73490000D02*
G01*
X177715000Y-73490000D01*
X177715000Y-73920000D01*
X176865000Y-73920000D01*
X176865000Y-73490000D01*
G37*
G36*
X178125000Y-73490000D02*
G01*
X179815000Y-73490000D01*
X179815000Y-73920000D01*
X178125000Y-73920000D01*
X178125000Y-73490000D01*
G37*
G36*
X180225000Y-73490000D02*
G01*
X180655000Y-73490000D01*
X180655000Y-73920000D01*
X180225000Y-73920000D01*
X180225000Y-73490000D01*
G37*
G36*
X181065000Y-73490000D02*
G01*
X183175000Y-73490000D01*
X183175000Y-73920000D01*
X181065000Y-73920000D01*
X181065000Y-73490000D01*
G37*
G36*
X183585000Y-73490000D02*
G01*
X184855000Y-73490000D01*
X184855000Y-73920000D01*
X183585000Y-73920000D01*
X183585000Y-73490000D01*
G37*
G36*
X170145000Y-73910000D02*
G01*
X171415000Y-73910000D01*
X171415000Y-74340000D01*
X170145000Y-74340000D01*
X170145000Y-73910000D01*
G37*
G36*
X171825000Y-73910000D02*
G01*
X172255000Y-73910000D01*
X172255000Y-74340000D01*
X171825000Y-74340000D01*
X171825000Y-73910000D01*
G37*
G36*
X173505000Y-73910000D02*
G01*
X173935000Y-73910000D01*
X173935000Y-74340000D01*
X173505000Y-74340000D01*
X173505000Y-73910000D01*
G37*
G36*
X174345000Y-73910000D02*
G01*
X174775000Y-73910000D01*
X174775000Y-74340000D01*
X174345000Y-74340000D01*
X174345000Y-73910000D01*
G37*
G36*
X175185000Y-73910000D02*
G01*
X176035000Y-73910000D01*
X176035000Y-74340000D01*
X175185000Y-74340000D01*
X175185000Y-73910000D01*
G37*
G36*
X176445000Y-73910000D02*
G01*
X176875000Y-73910000D01*
X176875000Y-74340000D01*
X176445000Y-74340000D01*
X176445000Y-73910000D01*
G37*
G36*
X177705000Y-73910000D02*
G01*
X178135000Y-73910000D01*
X178135000Y-74340000D01*
X177705000Y-74340000D01*
X177705000Y-73910000D01*
G37*
G36*
X178965000Y-73910000D02*
G01*
X179395000Y-73910000D01*
X179395000Y-74340000D01*
X178965000Y-74340000D01*
X178965000Y-73910000D01*
G37*
G36*
X179805000Y-73910000D02*
G01*
X180655000Y-73910000D01*
X180655000Y-74340000D01*
X179805000Y-74340000D01*
X179805000Y-73910000D01*
G37*
G36*
X181065000Y-73910000D02*
G01*
X181495000Y-73910000D01*
X181495000Y-74340000D01*
X181065000Y-74340000D01*
X181065000Y-73910000D01*
G37*
G36*
X182745000Y-73910000D02*
G01*
X183175000Y-73910000D01*
X183175000Y-74340000D01*
X182745000Y-74340000D01*
X182745000Y-73910000D01*
G37*
G36*
X183585000Y-73910000D02*
G01*
X184855000Y-73910000D01*
X184855000Y-74340000D01*
X183585000Y-74340000D01*
X183585000Y-73910000D01*
G37*
G36*
X170145000Y-74330000D02*
G01*
X171415000Y-74330000D01*
X171415000Y-74760000D01*
X170145000Y-74760000D01*
X170145000Y-74330000D01*
G37*
G36*
X171825000Y-74330000D02*
G01*
X172255000Y-74330000D01*
X172255000Y-74760000D01*
X171825000Y-74760000D01*
X171825000Y-74330000D01*
G37*
G36*
X173505000Y-74330000D02*
G01*
X173935000Y-74330000D01*
X173935000Y-74760000D01*
X173505000Y-74760000D01*
X173505000Y-74330000D01*
G37*
G36*
X174345000Y-74330000D02*
G01*
X174775000Y-74330000D01*
X174775000Y-74760000D01*
X174345000Y-74760000D01*
X174345000Y-74330000D01*
G37*
G36*
X176025000Y-74330000D02*
G01*
X176455000Y-74330000D01*
X176455000Y-74760000D01*
X176025000Y-74760000D01*
X176025000Y-74330000D01*
G37*
G36*
X176865000Y-74330000D02*
G01*
X177715000Y-74330000D01*
X177715000Y-74760000D01*
X176865000Y-74760000D01*
X176865000Y-74330000D01*
G37*
G36*
X180225000Y-74330000D02*
G01*
X180655000Y-74330000D01*
X180655000Y-74760000D01*
X180225000Y-74760000D01*
X180225000Y-74330000D01*
G37*
G36*
X181065000Y-74330000D02*
G01*
X181495000Y-74330000D01*
X181495000Y-74760000D01*
X181065000Y-74760000D01*
X181065000Y-74330000D01*
G37*
G36*
X182745000Y-74330000D02*
G01*
X183175000Y-74330000D01*
X183175000Y-74760000D01*
X182745000Y-74760000D01*
X182745000Y-74330000D01*
G37*
G36*
X183585000Y-74330000D02*
G01*
X184855000Y-74330000D01*
X184855000Y-74760000D01*
X183585000Y-74760000D01*
X183585000Y-74330000D01*
G37*
G36*
X170145000Y-74750000D02*
G01*
X171415000Y-74750000D01*
X171415000Y-75180000D01*
X170145000Y-75180000D01*
X170145000Y-74750000D01*
G37*
G36*
X171825000Y-74750000D02*
G01*
X172255000Y-74750000D01*
X172255000Y-75180000D01*
X171825000Y-75180000D01*
X171825000Y-74750000D01*
G37*
G36*
X173505000Y-74750000D02*
G01*
X173935000Y-74750000D01*
X173935000Y-75180000D01*
X173505000Y-75180000D01*
X173505000Y-74750000D01*
G37*
G36*
X174345000Y-74750000D02*
G01*
X174775000Y-74750000D01*
X174775000Y-75180000D01*
X174345000Y-75180000D01*
X174345000Y-74750000D01*
G37*
G36*
X175185000Y-74750000D02*
G01*
X175615000Y-74750000D01*
X175615000Y-75180000D01*
X175185000Y-75180000D01*
X175185000Y-74750000D01*
G37*
G36*
X176865000Y-74750000D02*
G01*
X177295000Y-74750000D01*
X177295000Y-75180000D01*
X176865000Y-75180000D01*
X176865000Y-74750000D01*
G37*
G36*
X178125000Y-74750000D02*
G01*
X178975000Y-74750000D01*
X178975000Y-75180000D01*
X178125000Y-75180000D01*
X178125000Y-74750000D01*
G37*
G36*
X179385000Y-74750000D02*
G01*
X180655000Y-74750000D01*
X180655000Y-75180000D01*
X179385000Y-75180000D01*
X179385000Y-74750000D01*
G37*
G36*
X181065000Y-74750000D02*
G01*
X181495000Y-74750000D01*
X181495000Y-75180000D01*
X181065000Y-75180000D01*
X181065000Y-74750000D01*
G37*
G36*
X182745000Y-74750000D02*
G01*
X183175000Y-74750000D01*
X183175000Y-75180000D01*
X182745000Y-75180000D01*
X182745000Y-74750000D01*
G37*
G36*
X183585000Y-74750000D02*
G01*
X184855000Y-74750000D01*
X184855000Y-75180000D01*
X183585000Y-75180000D01*
X183585000Y-74750000D01*
G37*
G36*
X170145000Y-75170000D02*
G01*
X171415000Y-75170000D01*
X171415000Y-75600000D01*
X170145000Y-75600000D01*
X170145000Y-75170000D01*
G37*
G36*
X171825000Y-75170000D02*
G01*
X173935000Y-75170000D01*
X173935000Y-75600000D01*
X171825000Y-75600000D01*
X171825000Y-75170000D01*
G37*
G36*
X174345000Y-75170000D02*
G01*
X174775000Y-75170000D01*
X174775000Y-75600000D01*
X174345000Y-75600000D01*
X174345000Y-75170000D01*
G37*
G36*
X175185000Y-75170000D02*
G01*
X176035000Y-75170000D01*
X176035000Y-75600000D01*
X175185000Y-75600000D01*
X175185000Y-75170000D01*
G37*
G36*
X177285000Y-75170000D02*
G01*
X178555000Y-75170000D01*
X178555000Y-75600000D01*
X177285000Y-75600000D01*
X177285000Y-75170000D01*
G37*
G36*
X179385000Y-75170000D02*
G01*
X179815000Y-75170000D01*
X179815000Y-75600000D01*
X179385000Y-75600000D01*
X179385000Y-75170000D01*
G37*
G36*
X180225000Y-75170000D02*
G01*
X180655000Y-75170000D01*
X180655000Y-75600000D01*
X180225000Y-75600000D01*
X180225000Y-75170000D01*
G37*
G36*
X181065000Y-75170000D02*
G01*
X183175000Y-75170000D01*
X183175000Y-75600000D01*
X181065000Y-75600000D01*
X181065000Y-75170000D01*
G37*
G36*
X183585000Y-75170000D02*
G01*
X184855000Y-75170000D01*
X184855000Y-75600000D01*
X183585000Y-75600000D01*
X183585000Y-75170000D01*
G37*
G36*
X170145000Y-75590000D02*
G01*
X171415000Y-75590000D01*
X171415000Y-76020000D01*
X170145000Y-76020000D01*
X170145000Y-75590000D01*
G37*
G36*
X174345000Y-75590000D02*
G01*
X174775000Y-75590000D01*
X174775000Y-76020000D01*
X174345000Y-76020000D01*
X174345000Y-75590000D01*
G37*
G36*
X175185000Y-75590000D02*
G01*
X175615000Y-75590000D01*
X175615000Y-76020000D01*
X175185000Y-76020000D01*
X175185000Y-75590000D01*
G37*
G36*
X176025000Y-75590000D02*
G01*
X176455000Y-75590000D01*
X176455000Y-76020000D01*
X176025000Y-76020000D01*
X176025000Y-75590000D01*
G37*
G36*
X176865000Y-75590000D02*
G01*
X177295000Y-75590000D01*
X177295000Y-76020000D01*
X176865000Y-76020000D01*
X176865000Y-75590000D01*
G37*
G36*
X177705000Y-75590000D02*
G01*
X178135000Y-75590000D01*
X178135000Y-76020000D01*
X177705000Y-76020000D01*
X177705000Y-75590000D01*
G37*
G36*
X178545000Y-75590000D02*
G01*
X178975000Y-75590000D01*
X178975000Y-76020000D01*
X178545000Y-76020000D01*
X178545000Y-75590000D01*
G37*
G36*
X179385000Y-75590000D02*
G01*
X179815000Y-75590000D01*
X179815000Y-76020000D01*
X179385000Y-76020000D01*
X179385000Y-75590000D01*
G37*
G36*
X180225000Y-75590000D02*
G01*
X180655000Y-75590000D01*
X180655000Y-76020000D01*
X180225000Y-76020000D01*
X180225000Y-75590000D01*
G37*
G36*
X183585000Y-75590000D02*
G01*
X184855000Y-75590000D01*
X184855000Y-76020000D01*
X183585000Y-76020000D01*
X183585000Y-75590000D01*
G37*
G36*
X170145000Y-76010000D02*
G01*
X175615000Y-76010000D01*
X175615000Y-76440000D01*
X170145000Y-76440000D01*
X170145000Y-76010000D01*
G37*
G36*
X177285000Y-76010000D02*
G01*
X178135000Y-76010000D01*
X178135000Y-76440000D01*
X177285000Y-76440000D01*
X177285000Y-76010000D01*
G37*
G36*
X178965000Y-76010000D02*
G01*
X179815000Y-76010000D01*
X179815000Y-76440000D01*
X178965000Y-76440000D01*
X178965000Y-76010000D01*
G37*
G36*
X180225000Y-76010000D02*
G01*
X184855000Y-76010000D01*
X184855000Y-76440000D01*
X180225000Y-76440000D01*
X180225000Y-76010000D01*
G37*
G36*
X170145000Y-76430000D02*
G01*
X172255000Y-76430000D01*
X172255000Y-76860000D01*
X170145000Y-76860000D01*
X170145000Y-76430000D01*
G37*
G36*
X172665000Y-76430000D02*
G01*
X173515000Y-76430000D01*
X173515000Y-76860000D01*
X172665000Y-76860000D01*
X172665000Y-76430000D01*
G37*
G36*
X175605000Y-76430000D02*
G01*
X176875000Y-76430000D01*
X176875000Y-76860000D01*
X175605000Y-76860000D01*
X175605000Y-76430000D01*
G37*
G36*
X178125000Y-76430000D02*
G01*
X178555000Y-76430000D01*
X178555000Y-76860000D01*
X178125000Y-76860000D01*
X178125000Y-76430000D01*
G37*
G36*
X178965000Y-76430000D02*
G01*
X179395000Y-76430000D01*
X179395000Y-76860000D01*
X178965000Y-76860000D01*
X178965000Y-76430000D01*
G37*
G36*
X180645000Y-76430000D02*
G01*
X181075000Y-76430000D01*
X181075000Y-76860000D01*
X180645000Y-76860000D01*
X180645000Y-76430000D01*
G37*
G36*
X183165000Y-76430000D02*
G01*
X184855000Y-76430000D01*
X184855000Y-76860000D01*
X183165000Y-76860000D01*
X183165000Y-76430000D01*
G37*
G36*
X170145000Y-76850000D02*
G01*
X171835000Y-76850000D01*
X171835000Y-77280000D01*
X170145000Y-77280000D01*
X170145000Y-76850000D01*
G37*
G36*
X172245000Y-76850000D02*
G01*
X172675000Y-76850000D01*
X172675000Y-77280000D01*
X172245000Y-77280000D01*
X172245000Y-76850000D01*
G37*
G36*
X173085000Y-76850000D02*
G01*
X174775000Y-76850000D01*
X174775000Y-77280000D01*
X173085000Y-77280000D01*
X173085000Y-76850000D01*
G37*
G36*
X176865000Y-76850000D02*
G01*
X177295000Y-76850000D01*
X177295000Y-77280000D01*
X176865000Y-77280000D01*
X176865000Y-76850000D01*
G37*
G36*
X177705000Y-76850000D02*
G01*
X178135000Y-76850000D01*
X178135000Y-77280000D01*
X177705000Y-77280000D01*
X177705000Y-76850000D01*
G37*
G36*
X178545000Y-76850000D02*
G01*
X179395000Y-76850000D01*
X179395000Y-77280000D01*
X178545000Y-77280000D01*
X178545000Y-76850000D01*
G37*
G36*
X180225000Y-76850000D02*
G01*
X180655000Y-76850000D01*
X180655000Y-77280000D01*
X180225000Y-77280000D01*
X180225000Y-76850000D01*
G37*
G36*
X181485000Y-76850000D02*
G01*
X181915000Y-76850000D01*
X181915000Y-77280000D01*
X181485000Y-77280000D01*
X181485000Y-76850000D01*
G37*
G36*
X182325000Y-76850000D02*
G01*
X182755000Y-76850000D01*
X182755000Y-77280000D01*
X182325000Y-77280000D01*
X182325000Y-76850000D01*
G37*
G36*
X183585000Y-76850000D02*
G01*
X184855000Y-76850000D01*
X184855000Y-77280000D01*
X183585000Y-77280000D01*
X183585000Y-76850000D01*
G37*
G36*
X170145000Y-77270000D02*
G01*
X171415000Y-77270000D01*
X171415000Y-77700000D01*
X170145000Y-77700000D01*
X170145000Y-77270000D01*
G37*
G36*
X172245000Y-77270000D02*
G01*
X172675000Y-77270000D01*
X172675000Y-77700000D01*
X172245000Y-77700000D01*
X172245000Y-77270000D01*
G37*
G36*
X174765000Y-77270000D02*
G01*
X175195000Y-77270000D01*
X175195000Y-77700000D01*
X174765000Y-77700000D01*
X174765000Y-77270000D01*
G37*
G36*
X176445000Y-77270000D02*
G01*
X178555000Y-77270000D01*
X178555000Y-77700000D01*
X176445000Y-77700000D01*
X176445000Y-77270000D01*
G37*
G36*
X178965000Y-77270000D02*
G01*
X179395000Y-77270000D01*
X179395000Y-77700000D01*
X178965000Y-77700000D01*
X178965000Y-77270000D01*
G37*
G36*
X179805000Y-77270000D02*
G01*
X180235000Y-77270000D01*
X180235000Y-77700000D01*
X179805000Y-77700000D01*
X179805000Y-77270000D01*
G37*
G36*
X180645000Y-77270000D02*
G01*
X181075000Y-77270000D01*
X181075000Y-77700000D01*
X180645000Y-77700000D01*
X180645000Y-77270000D01*
G37*
G36*
X182745000Y-77270000D02*
G01*
X183175000Y-77270000D01*
X183175000Y-77700000D01*
X182745000Y-77700000D01*
X182745000Y-77270000D01*
G37*
G36*
X183585000Y-77270000D02*
G01*
X184855000Y-77270000D01*
X184855000Y-77700000D01*
X183585000Y-77700000D01*
X183585000Y-77270000D01*
G37*
G36*
X170145000Y-77690000D02*
G01*
X171835000Y-77690000D01*
X171835000Y-78120000D01*
X170145000Y-78120000D01*
X170145000Y-77690000D01*
G37*
G36*
X173505000Y-77690000D02*
G01*
X174355000Y-77690000D01*
X174355000Y-78120000D01*
X173505000Y-78120000D01*
X173505000Y-77690000D01*
G37*
G36*
X176025000Y-77690000D02*
G01*
X176875000Y-77690000D01*
X176875000Y-78120000D01*
X176025000Y-78120000D01*
X176025000Y-77690000D01*
G37*
G36*
X177285000Y-77690000D02*
G01*
X178975000Y-77690000D01*
X178975000Y-78120000D01*
X177285000Y-78120000D01*
X177285000Y-77690000D01*
G37*
G36*
X180225000Y-77690000D02*
G01*
X180655000Y-77690000D01*
X180655000Y-78120000D01*
X180225000Y-78120000D01*
X180225000Y-77690000D01*
G37*
G36*
X182325000Y-77690000D02*
G01*
X184855000Y-77690000D01*
X184855000Y-78120000D01*
X182325000Y-78120000D01*
X182325000Y-77690000D01*
G37*
G36*
X170145000Y-78110000D02*
G01*
X172255000Y-78110000D01*
X172255000Y-78540000D01*
X170145000Y-78540000D01*
X170145000Y-78110000D01*
G37*
G36*
X172665000Y-78110000D02*
G01*
X173935000Y-78110000D01*
X173935000Y-78540000D01*
X172665000Y-78540000D01*
X172665000Y-78110000D01*
G37*
G36*
X174345000Y-78110000D02*
G01*
X175195000Y-78110000D01*
X175195000Y-78540000D01*
X174345000Y-78540000D01*
X174345000Y-78110000D01*
G37*
G36*
X176025000Y-78110000D02*
G01*
X176455000Y-78110000D01*
X176455000Y-78540000D01*
X176025000Y-78540000D01*
X176025000Y-78110000D01*
G37*
G36*
X176865000Y-78110000D02*
G01*
X178975000Y-78110000D01*
X178975000Y-78540000D01*
X176865000Y-78540000D01*
X176865000Y-78110000D01*
G37*
G36*
X179385000Y-78110000D02*
G01*
X179815000Y-78110000D01*
X179815000Y-78540000D01*
X179385000Y-78540000D01*
X179385000Y-78110000D01*
G37*
G36*
X181065000Y-78110000D02*
G01*
X181915000Y-78110000D01*
X181915000Y-78540000D01*
X181065000Y-78540000D01*
X181065000Y-78110000D01*
G37*
G36*
X182325000Y-78110000D02*
G01*
X182755000Y-78110000D01*
X182755000Y-78540000D01*
X182325000Y-78540000D01*
X182325000Y-78110000D01*
G37*
G36*
X183165000Y-78110000D02*
G01*
X184855000Y-78110000D01*
X184855000Y-78540000D01*
X183165000Y-78540000D01*
X183165000Y-78110000D01*
G37*
G36*
X170145000Y-78530000D02*
G01*
X172675000Y-78530000D01*
X172675000Y-78960000D01*
X170145000Y-78960000D01*
X170145000Y-78530000D01*
G37*
G36*
X173085000Y-78530000D02*
G01*
X174355000Y-78530000D01*
X174355000Y-78960000D01*
X173085000Y-78960000D01*
X173085000Y-78530000D01*
G37*
G36*
X174765000Y-78530000D02*
G01*
X175195000Y-78530000D01*
X175195000Y-78960000D01*
X174765000Y-78960000D01*
X174765000Y-78530000D01*
G37*
G36*
X175605000Y-78530000D02*
G01*
X176035000Y-78530000D01*
X176035000Y-78960000D01*
X175605000Y-78960000D01*
X175605000Y-78530000D01*
G37*
G36*
X176445000Y-78530000D02*
G01*
X176875000Y-78530000D01*
X176875000Y-78960000D01*
X176445000Y-78960000D01*
X176445000Y-78530000D01*
G37*
G36*
X177285000Y-78530000D02*
G01*
X177715000Y-78530000D01*
X177715000Y-78960000D01*
X177285000Y-78960000D01*
X177285000Y-78530000D01*
G37*
G36*
X178125000Y-78530000D02*
G01*
X178555000Y-78530000D01*
X178555000Y-78960000D01*
X178125000Y-78960000D01*
X178125000Y-78530000D01*
G37*
G36*
X178965000Y-78530000D02*
G01*
X179395000Y-78530000D01*
X179395000Y-78960000D01*
X178965000Y-78960000D01*
X178965000Y-78530000D01*
G37*
G36*
X180225000Y-78530000D02*
G01*
X180655000Y-78530000D01*
X180655000Y-78960000D01*
X180225000Y-78960000D01*
X180225000Y-78530000D01*
G37*
G36*
X181065000Y-78530000D02*
G01*
X181915000Y-78530000D01*
X181915000Y-78960000D01*
X181065000Y-78960000D01*
X181065000Y-78530000D01*
G37*
G36*
X182325000Y-78530000D02*
G01*
X183175000Y-78530000D01*
X183175000Y-78960000D01*
X182325000Y-78960000D01*
X182325000Y-78530000D01*
G37*
G36*
X183585000Y-78530000D02*
G01*
X184855000Y-78530000D01*
X184855000Y-78960000D01*
X183585000Y-78960000D01*
X183585000Y-78530000D01*
G37*
G36*
X170145000Y-78950000D02*
G01*
X171835000Y-78950000D01*
X171835000Y-79380000D01*
X170145000Y-79380000D01*
X170145000Y-78950000D01*
G37*
G36*
X172245000Y-78950000D02*
G01*
X173095000Y-78950000D01*
X173095000Y-79380000D01*
X172245000Y-79380000D01*
X172245000Y-78950000D01*
G37*
G36*
X173505000Y-78950000D02*
G01*
X173935000Y-78950000D01*
X173935000Y-79380000D01*
X173505000Y-79380000D01*
X173505000Y-78950000D01*
G37*
G36*
X174345000Y-78950000D02*
G01*
X175195000Y-78950000D01*
X175195000Y-79380000D01*
X174345000Y-79380000D01*
X174345000Y-78950000D01*
G37*
G36*
X176025000Y-78950000D02*
G01*
X176455000Y-78950000D01*
X176455000Y-79380000D01*
X176025000Y-79380000D01*
X176025000Y-78950000D01*
G37*
G36*
X178125000Y-78950000D02*
G01*
X178555000Y-78950000D01*
X178555000Y-79380000D01*
X178125000Y-79380000D01*
X178125000Y-78950000D01*
G37*
G36*
X178965000Y-78950000D02*
G01*
X179395000Y-78950000D01*
X179395000Y-79380000D01*
X178965000Y-79380000D01*
X178965000Y-78950000D01*
G37*
G36*
X179805000Y-78950000D02*
G01*
X180655000Y-78950000D01*
X180655000Y-79380000D01*
X179805000Y-79380000D01*
X179805000Y-78950000D01*
G37*
G36*
X181065000Y-78950000D02*
G01*
X181915000Y-78950000D01*
X181915000Y-79380000D01*
X181065000Y-79380000D01*
X181065000Y-78950000D01*
G37*
G36*
X182745000Y-78950000D02*
G01*
X183175000Y-78950000D01*
X183175000Y-79380000D01*
X182745000Y-79380000D01*
X182745000Y-78950000D01*
G37*
G36*
X183585000Y-78950000D02*
G01*
X184855000Y-78950000D01*
X184855000Y-79380000D01*
X183585000Y-79380000D01*
X183585000Y-78950000D01*
G37*
G36*
X170145000Y-79370000D02*
G01*
X171415000Y-79370000D01*
X171415000Y-79800000D01*
X170145000Y-79800000D01*
X170145000Y-79370000D01*
G37*
G36*
X171825000Y-79370000D02*
G01*
X172255000Y-79370000D01*
X172255000Y-79800000D01*
X171825000Y-79800000D01*
X171825000Y-79370000D01*
G37*
G36*
X173505000Y-79370000D02*
G01*
X174775000Y-79370000D01*
X174775000Y-79800000D01*
X173505000Y-79800000D01*
X173505000Y-79370000D01*
G37*
G36*
X175605000Y-79370000D02*
G01*
X177295000Y-79370000D01*
X177295000Y-79800000D01*
X175605000Y-79800000D01*
X175605000Y-79370000D01*
G37*
G36*
X178545000Y-79370000D02*
G01*
X178975000Y-79370000D01*
X178975000Y-79800000D01*
X178545000Y-79800000D01*
X178545000Y-79370000D01*
G37*
G36*
X179805000Y-79370000D02*
G01*
X180235000Y-79370000D01*
X180235000Y-79800000D01*
X179805000Y-79800000D01*
X179805000Y-79370000D01*
G37*
G36*
X180645000Y-79370000D02*
G01*
X181915000Y-79370000D01*
X181915000Y-79800000D01*
X180645000Y-79800000D01*
X180645000Y-79370000D01*
G37*
G36*
X182325000Y-79370000D02*
G01*
X183175000Y-79370000D01*
X183175000Y-79800000D01*
X182325000Y-79800000D01*
X182325000Y-79370000D01*
G37*
G36*
X183585000Y-79370000D02*
G01*
X184855000Y-79370000D01*
X184855000Y-79800000D01*
X183585000Y-79800000D01*
X183585000Y-79370000D01*
G37*
G36*
X170145000Y-79790000D02*
G01*
X171835000Y-79790000D01*
X171835000Y-80220000D01*
X170145000Y-80220000D01*
X170145000Y-79790000D01*
G37*
G36*
X173085000Y-79790000D02*
G01*
X173515000Y-79790000D01*
X173515000Y-80220000D01*
X173085000Y-80220000D01*
X173085000Y-79790000D01*
G37*
G36*
X175185000Y-79790000D02*
G01*
X176875000Y-79790000D01*
X176875000Y-80220000D01*
X175185000Y-80220000D01*
X175185000Y-79790000D01*
G37*
G36*
X177705000Y-79790000D02*
G01*
X178975000Y-79790000D01*
X178975000Y-80220000D01*
X177705000Y-80220000D01*
X177705000Y-79790000D01*
G37*
G36*
X179385000Y-79790000D02*
G01*
X179815000Y-79790000D01*
X179815000Y-80220000D01*
X179385000Y-80220000D01*
X179385000Y-79790000D01*
G37*
G36*
X181485000Y-79790000D02*
G01*
X184855000Y-79790000D01*
X184855000Y-80220000D01*
X181485000Y-80220000D01*
X181485000Y-79790000D01*
G37*
G36*
X170145000Y-80210000D02*
G01*
X172255000Y-80210000D01*
X172255000Y-80640000D01*
X170145000Y-80640000D01*
X170145000Y-80210000D01*
G37*
G36*
X172665000Y-80210000D02*
G01*
X173095000Y-80210000D01*
X173095000Y-80640000D01*
X172665000Y-80640000D01*
X172665000Y-80210000D01*
G37*
G36*
X173505000Y-80210000D02*
G01*
X174355000Y-80210000D01*
X174355000Y-80640000D01*
X173505000Y-80640000D01*
X173505000Y-80210000D01*
G37*
G36*
X175605000Y-80210000D02*
G01*
X176035000Y-80210000D01*
X176035000Y-80640000D01*
X175605000Y-80640000D01*
X175605000Y-80210000D01*
G37*
G36*
X176445000Y-80210000D02*
G01*
X176875000Y-80210000D01*
X176875000Y-80640000D01*
X176445000Y-80640000D01*
X176445000Y-80210000D01*
G37*
G36*
X177285000Y-80210000D02*
G01*
X177715000Y-80210000D01*
X177715000Y-80640000D01*
X177285000Y-80640000D01*
X177285000Y-80210000D01*
G37*
G36*
X180225000Y-80210000D02*
G01*
X180655000Y-80210000D01*
X180655000Y-80640000D01*
X180225000Y-80640000D01*
X180225000Y-80210000D01*
G37*
G36*
X181485000Y-80210000D02*
G01*
X183175000Y-80210000D01*
X183175000Y-80640000D01*
X181485000Y-80640000D01*
X181485000Y-80210000D01*
G37*
G36*
X183585000Y-80210000D02*
G01*
X184855000Y-80210000D01*
X184855000Y-80640000D01*
X183585000Y-80640000D01*
X183585000Y-80210000D01*
G37*
G36*
X170145000Y-80630000D02*
G01*
X171415000Y-80630000D01*
X171415000Y-81060000D01*
X170145000Y-81060000D01*
X170145000Y-80630000D01*
G37*
G36*
X172245000Y-80630000D02*
G01*
X172675000Y-80630000D01*
X172675000Y-81060000D01*
X172245000Y-81060000D01*
X172245000Y-80630000D01*
G37*
G36*
X175185000Y-80630000D02*
G01*
X175615000Y-80630000D01*
X175615000Y-81060000D01*
X175185000Y-81060000D01*
X175185000Y-80630000D01*
G37*
G36*
X176865000Y-80630000D02*
G01*
X177715000Y-80630000D01*
X177715000Y-81060000D01*
X176865000Y-81060000D01*
X176865000Y-80630000D01*
G37*
G36*
X178965000Y-80630000D02*
G01*
X179395000Y-80630000D01*
X179395000Y-81060000D01*
X178965000Y-81060000D01*
X178965000Y-80630000D01*
G37*
G36*
X179805000Y-80630000D02*
G01*
X181075000Y-80630000D01*
X181075000Y-81060000D01*
X179805000Y-81060000D01*
X179805000Y-80630000D01*
G37*
G36*
X181485000Y-80630000D02*
G01*
X183175000Y-80630000D01*
X183175000Y-81060000D01*
X181485000Y-81060000D01*
X181485000Y-80630000D01*
G37*
G36*
X183585000Y-80630000D02*
G01*
X184855000Y-80630000D01*
X184855000Y-81060000D01*
X183585000Y-81060000D01*
X183585000Y-80630000D01*
G37*
G36*
X170145000Y-81050000D02*
G01*
X172255000Y-81050000D01*
X172255000Y-81480000D01*
X170145000Y-81480000D01*
X170145000Y-81050000D01*
G37*
G36*
X173505000Y-81050000D02*
G01*
X174775000Y-81050000D01*
X174775000Y-81480000D01*
X173505000Y-81480000D01*
X173505000Y-81050000D01*
G37*
G36*
X175185000Y-81050000D02*
G01*
X177295000Y-81050000D01*
X177295000Y-81480000D01*
X175185000Y-81480000D01*
X175185000Y-81050000D01*
G37*
G36*
X178125000Y-81050000D02*
G01*
X179395000Y-81050000D01*
X179395000Y-81480000D01*
X178125000Y-81480000D01*
X178125000Y-81050000D01*
G37*
G36*
X179805000Y-81050000D02*
G01*
X180235000Y-81050000D01*
X180235000Y-81480000D01*
X179805000Y-81480000D01*
X179805000Y-81050000D01*
G37*
G36*
X181065000Y-81050000D02*
G01*
X181915000Y-81050000D01*
X181915000Y-81480000D01*
X181065000Y-81480000D01*
X181065000Y-81050000D01*
G37*
G36*
X182325000Y-81050000D02*
G01*
X182755000Y-81050000D01*
X182755000Y-81480000D01*
X182325000Y-81480000D01*
X182325000Y-81050000D01*
G37*
G36*
X183585000Y-81050000D02*
G01*
X184855000Y-81050000D01*
X184855000Y-81480000D01*
X183585000Y-81480000D01*
X183585000Y-81050000D01*
G37*
G36*
X170145000Y-81470000D02*
G01*
X171415000Y-81470000D01*
X171415000Y-81900000D01*
X170145000Y-81900000D01*
X170145000Y-81470000D01*
G37*
G36*
X173505000Y-81470000D02*
G01*
X173935000Y-81470000D01*
X173935000Y-81900000D01*
X173505000Y-81900000D01*
X173505000Y-81470000D01*
G37*
G36*
X174345000Y-81470000D02*
G01*
X174775000Y-81470000D01*
X174775000Y-81900000D01*
X174345000Y-81900000D01*
X174345000Y-81470000D01*
G37*
G36*
X175185000Y-81470000D02*
G01*
X176875000Y-81470000D01*
X176875000Y-81900000D01*
X175185000Y-81900000D01*
X175185000Y-81470000D01*
G37*
G36*
X177285000Y-81470000D02*
G01*
X177715000Y-81470000D01*
X177715000Y-81900000D01*
X177285000Y-81900000D01*
X177285000Y-81470000D01*
G37*
G36*
X178125000Y-81470000D02*
G01*
X178555000Y-81470000D01*
X178555000Y-81900000D01*
X178125000Y-81900000D01*
X178125000Y-81470000D01*
G37*
G36*
X182325000Y-81470000D02*
G01*
X183175000Y-81470000D01*
X183175000Y-81900000D01*
X182325000Y-81900000D01*
X182325000Y-81470000D01*
G37*
G36*
X183585000Y-81470000D02*
G01*
X184855000Y-81470000D01*
X184855000Y-81900000D01*
X183585000Y-81900000D01*
X183585000Y-81470000D01*
G37*
G36*
X170145000Y-81890000D02*
G01*
X174775000Y-81890000D01*
X174775000Y-82320000D01*
X170145000Y-82320000D01*
X170145000Y-81890000D01*
G37*
G36*
X175185000Y-81890000D02*
G01*
X175615000Y-81890000D01*
X175615000Y-82320000D01*
X175185000Y-82320000D01*
X175185000Y-81890000D01*
G37*
G36*
X176865000Y-81890000D02*
G01*
X178135000Y-81890000D01*
X178135000Y-82320000D01*
X176865000Y-82320000D01*
X176865000Y-81890000D01*
G37*
G36*
X178965000Y-81890000D02*
G01*
X179815000Y-81890000D01*
X179815000Y-82320000D01*
X178965000Y-82320000D01*
X178965000Y-81890000D01*
G37*
G36*
X180225000Y-81890000D02*
G01*
X181495000Y-81890000D01*
X181495000Y-82320000D01*
X180225000Y-82320000D01*
X180225000Y-81890000D01*
G37*
G36*
X182325000Y-81890000D02*
G01*
X183175000Y-81890000D01*
X183175000Y-82320000D01*
X182325000Y-82320000D01*
X182325000Y-81890000D01*
G37*
G36*
X183585000Y-81890000D02*
G01*
X184855000Y-81890000D01*
X184855000Y-82320000D01*
X183585000Y-82320000D01*
X183585000Y-81890000D01*
G37*
G36*
X170145000Y-82310000D02*
G01*
X171415000Y-82310000D01*
X171415000Y-82740000D01*
X170145000Y-82740000D01*
X170145000Y-82310000D01*
G37*
G36*
X174345000Y-82310000D02*
G01*
X174775000Y-82310000D01*
X174775000Y-82740000D01*
X174345000Y-82740000D01*
X174345000Y-82310000D01*
G37*
G36*
X175605000Y-82310000D02*
G01*
X176035000Y-82310000D01*
X176035000Y-82740000D01*
X175605000Y-82740000D01*
X175605000Y-82310000D01*
G37*
G36*
X177285000Y-82310000D02*
G01*
X177715000Y-82310000D01*
X177715000Y-82740000D01*
X177285000Y-82740000D01*
X177285000Y-82310000D01*
G37*
G36*
X178125000Y-82310000D02*
G01*
X178555000Y-82310000D01*
X178555000Y-82740000D01*
X178125000Y-82740000D01*
X178125000Y-82310000D01*
G37*
G36*
X179385000Y-82310000D02*
G01*
X179815000Y-82310000D01*
X179815000Y-82740000D01*
X179385000Y-82740000D01*
X179385000Y-82310000D01*
G37*
G36*
X180225000Y-82310000D02*
G01*
X180655000Y-82310000D01*
X180655000Y-82740000D01*
X180225000Y-82740000D01*
X180225000Y-82310000D01*
G37*
G36*
X181065000Y-82310000D02*
G01*
X181495000Y-82310000D01*
X181495000Y-82740000D01*
X181065000Y-82740000D01*
X181065000Y-82310000D01*
G37*
G36*
X182745000Y-82310000D02*
G01*
X183175000Y-82310000D01*
X183175000Y-82740000D01*
X182745000Y-82740000D01*
X182745000Y-82310000D01*
G37*
G36*
X183585000Y-82310000D02*
G01*
X184855000Y-82310000D01*
X184855000Y-82740000D01*
X183585000Y-82740000D01*
X183585000Y-82310000D01*
G37*
G36*
X170145000Y-82730000D02*
G01*
X171415000Y-82730000D01*
X171415000Y-83160000D01*
X170145000Y-83160000D01*
X170145000Y-82730000D01*
G37*
G36*
X171825000Y-82730000D02*
G01*
X173935000Y-82730000D01*
X173935000Y-83160000D01*
X171825000Y-83160000D01*
X171825000Y-82730000D01*
G37*
G36*
X174345000Y-82730000D02*
G01*
X174775000Y-82730000D01*
X174775000Y-83160000D01*
X174345000Y-83160000D01*
X174345000Y-82730000D01*
G37*
G36*
X175605000Y-82730000D02*
G01*
X176875000Y-82730000D01*
X176875000Y-83160000D01*
X175605000Y-83160000D01*
X175605000Y-82730000D01*
G37*
G36*
X177705000Y-82730000D02*
G01*
X178135000Y-82730000D01*
X178135000Y-83160000D01*
X177705000Y-83160000D01*
X177705000Y-82730000D01*
G37*
G36*
X178545000Y-82730000D02*
G01*
X179395000Y-82730000D01*
X179395000Y-83160000D01*
X178545000Y-83160000D01*
X178545000Y-82730000D01*
G37*
G36*
X180225000Y-82730000D02*
G01*
X181495000Y-82730000D01*
X181495000Y-83160000D01*
X180225000Y-83160000D01*
X180225000Y-82730000D01*
G37*
G36*
X182325000Y-82730000D02*
G01*
X182755000Y-82730000D01*
X182755000Y-83160000D01*
X182325000Y-83160000D01*
X182325000Y-82730000D01*
G37*
G36*
X183165000Y-82730000D02*
G01*
X184855000Y-82730000D01*
X184855000Y-83160000D01*
X183165000Y-83160000D01*
X183165000Y-82730000D01*
G37*
G36*
X170145000Y-83150000D02*
G01*
X171415000Y-83150000D01*
X171415000Y-83580000D01*
X170145000Y-83580000D01*
X170145000Y-83150000D01*
G37*
G36*
X171825000Y-83150000D02*
G01*
X172255000Y-83150000D01*
X172255000Y-83580000D01*
X171825000Y-83580000D01*
X171825000Y-83150000D01*
G37*
G36*
X173505000Y-83150000D02*
G01*
X173935000Y-83150000D01*
X173935000Y-83580000D01*
X173505000Y-83580000D01*
X173505000Y-83150000D01*
G37*
G36*
X174345000Y-83150000D02*
G01*
X175195000Y-83150000D01*
X175195000Y-83580000D01*
X174345000Y-83580000D01*
X174345000Y-83150000D01*
G37*
G36*
X175605000Y-83150000D02*
G01*
X176875000Y-83150000D01*
X176875000Y-83580000D01*
X175605000Y-83580000D01*
X175605000Y-83150000D01*
G37*
G36*
X177285000Y-83150000D02*
G01*
X178555000Y-83150000D01*
X178555000Y-83580000D01*
X177285000Y-83580000D01*
X177285000Y-83150000D01*
G37*
G36*
X181905000Y-83150000D02*
G01*
X182755000Y-83150000D01*
X182755000Y-83580000D01*
X181905000Y-83580000D01*
X181905000Y-83150000D01*
G37*
G36*
X183585000Y-83150000D02*
G01*
X184855000Y-83150000D01*
X184855000Y-83580000D01*
X183585000Y-83580000D01*
X183585000Y-83150000D01*
G37*
G36*
X170145000Y-83570000D02*
G01*
X171415000Y-83570000D01*
X171415000Y-84000000D01*
X170145000Y-84000000D01*
X170145000Y-83570000D01*
G37*
G36*
X171825000Y-83570000D02*
G01*
X172255000Y-83570000D01*
X172255000Y-84000000D01*
X171825000Y-84000000D01*
X171825000Y-83570000D01*
G37*
G36*
X173505000Y-83570000D02*
G01*
X173935000Y-83570000D01*
X173935000Y-84000000D01*
X173505000Y-84000000D01*
X173505000Y-83570000D01*
G37*
G36*
X174345000Y-83570000D02*
G01*
X175615000Y-83570000D01*
X175615000Y-84000000D01*
X174345000Y-84000000D01*
X174345000Y-83570000D01*
G37*
G36*
X176025000Y-83570000D02*
G01*
X176875000Y-83570000D01*
X176875000Y-84000000D01*
X176025000Y-84000000D01*
X176025000Y-83570000D01*
G37*
G36*
X177285000Y-83570000D02*
G01*
X177715000Y-83570000D01*
X177715000Y-84000000D01*
X177285000Y-84000000D01*
X177285000Y-83570000D01*
G37*
G36*
X178125000Y-83570000D02*
G01*
X178555000Y-83570000D01*
X178555000Y-84000000D01*
X178125000Y-84000000D01*
X178125000Y-83570000D01*
G37*
G36*
X178965000Y-83570000D02*
G01*
X179395000Y-83570000D01*
X179395000Y-84000000D01*
X178965000Y-84000000D01*
X178965000Y-83570000D01*
G37*
G36*
X180225000Y-83570000D02*
G01*
X181075000Y-83570000D01*
X181075000Y-84000000D01*
X180225000Y-84000000D01*
X180225000Y-83570000D01*
G37*
G36*
X181905000Y-83570000D02*
G01*
X182755000Y-83570000D01*
X182755000Y-84000000D01*
X181905000Y-84000000D01*
X181905000Y-83570000D01*
G37*
G36*
X183165000Y-83570000D02*
G01*
X184855000Y-83570000D01*
X184855000Y-84000000D01*
X183165000Y-84000000D01*
X183165000Y-83570000D01*
G37*
G36*
X170145000Y-83990000D02*
G01*
X171415000Y-83990000D01*
X171415000Y-84420000D01*
X170145000Y-84420000D01*
X170145000Y-83990000D01*
G37*
G36*
X171825000Y-83990000D02*
G01*
X172255000Y-83990000D01*
X172255000Y-84420000D01*
X171825000Y-84420000D01*
X171825000Y-83990000D01*
G37*
G36*
X173505000Y-83990000D02*
G01*
X173935000Y-83990000D01*
X173935000Y-84420000D01*
X173505000Y-84420000D01*
X173505000Y-83990000D01*
G37*
G36*
X174345000Y-83990000D02*
G01*
X174775000Y-83990000D01*
X174775000Y-84420000D01*
X174345000Y-84420000D01*
X174345000Y-83990000D01*
G37*
G36*
X175185000Y-83990000D02*
G01*
X176035000Y-83990000D01*
X176035000Y-84420000D01*
X175185000Y-84420000D01*
X175185000Y-83990000D01*
G37*
G36*
X176445000Y-83990000D02*
G01*
X178135000Y-83990000D01*
X178135000Y-84420000D01*
X176445000Y-84420000D01*
X176445000Y-83990000D01*
G37*
G36*
X178965000Y-83990000D02*
G01*
X180235000Y-83990000D01*
X180235000Y-84420000D01*
X178965000Y-84420000D01*
X178965000Y-83990000D01*
G37*
G36*
X180645000Y-83990000D02*
G01*
X181495000Y-83990000D01*
X181495000Y-84420000D01*
X180645000Y-84420000D01*
X180645000Y-83990000D01*
G37*
G36*
X181905000Y-83990000D02*
G01*
X182335000Y-83990000D01*
X182335000Y-84420000D01*
X181905000Y-84420000D01*
X181905000Y-83990000D01*
G37*
G36*
X183585000Y-83990000D02*
G01*
X184855000Y-83990000D01*
X184855000Y-84420000D01*
X183585000Y-84420000D01*
X183585000Y-83990000D01*
G37*
G36*
X170145000Y-84410000D02*
G01*
X171415000Y-84410000D01*
X171415000Y-84840000D01*
X170145000Y-84840000D01*
X170145000Y-84410000D01*
G37*
G36*
X171825000Y-84410000D02*
G01*
X173935000Y-84410000D01*
X173935000Y-84840000D01*
X171825000Y-84840000D01*
X171825000Y-84410000D01*
G37*
G36*
X174345000Y-84410000D02*
G01*
X176035000Y-84410000D01*
X176035000Y-84840000D01*
X174345000Y-84840000D01*
X174345000Y-84410000D01*
G37*
G36*
X177285000Y-84410000D02*
G01*
X177715000Y-84410000D01*
X177715000Y-84840000D01*
X177285000Y-84840000D01*
X177285000Y-84410000D01*
G37*
G36*
X178125000Y-84410000D02*
G01*
X178975000Y-84410000D01*
X178975000Y-84840000D01*
X178125000Y-84840000D01*
X178125000Y-84410000D01*
G37*
G36*
X179385000Y-84410000D02*
G01*
X179815000Y-84410000D01*
X179815000Y-84840000D01*
X179385000Y-84840000D01*
X179385000Y-84410000D01*
G37*
G36*
X181065000Y-84410000D02*
G01*
X181915000Y-84410000D01*
X181915000Y-84840000D01*
X181065000Y-84840000D01*
X181065000Y-84410000D01*
G37*
G36*
X182325000Y-84410000D02*
G01*
X184855000Y-84410000D01*
X184855000Y-84840000D01*
X182325000Y-84840000D01*
X182325000Y-84410000D01*
G37*
G36*
X170145000Y-84830000D02*
G01*
X171415000Y-84830000D01*
X171415000Y-85260000D01*
X170145000Y-85260000D01*
X170145000Y-84830000D01*
G37*
G36*
X174345000Y-84830000D02*
G01*
X175195000Y-84830000D01*
X175195000Y-85260000D01*
X174345000Y-85260000D01*
X174345000Y-84830000D01*
G37*
G36*
X175605000Y-84830000D02*
G01*
X176455000Y-84830000D01*
X176455000Y-85260000D01*
X175605000Y-85260000D01*
X175605000Y-84830000D01*
G37*
G36*
X177705000Y-84830000D02*
G01*
X178555000Y-84830000D01*
X178555000Y-85260000D01*
X177705000Y-85260000D01*
X177705000Y-84830000D01*
G37*
G36*
X178965000Y-84830000D02*
G01*
X179815000Y-84830000D01*
X179815000Y-85260000D01*
X178965000Y-85260000D01*
X178965000Y-84830000D01*
G37*
G36*
X180645000Y-84830000D02*
G01*
X181075000Y-84830000D01*
X181075000Y-85260000D01*
X180645000Y-85260000D01*
X180645000Y-84830000D01*
G37*
G36*
X182325000Y-84830000D02*
G01*
X183175000Y-84830000D01*
X183175000Y-85260000D01*
X182325000Y-85260000D01*
X182325000Y-84830000D01*
G37*
G36*
X183585000Y-84830000D02*
G01*
X184855000Y-84830000D01*
X184855000Y-85260000D01*
X183585000Y-85260000D01*
X183585000Y-84830000D01*
G37*
G36*
X170145000Y-85250000D02*
G01*
X184855000Y-85250000D01*
X184855000Y-85680000D01*
X170145000Y-85680000D01*
X170145000Y-85250000D01*
G37*
G36*
X170145000Y-85670000D02*
G01*
X184855000Y-85670000D01*
X184855000Y-86100000D01*
X170145000Y-86100000D01*
X170145000Y-85670000D01*
G37*
G36*
X170145000Y-86090000D02*
G01*
X184855000Y-86090000D01*
X184855000Y-86520000D01*
X170145000Y-86520000D01*
X170145000Y-86090000D01*
G37*
%TD*%
M02*
