%TF.GenerationSoftware,KiCad,Pcbnew,9.0.8+1*%
%TF.CreationDate,2026-06-10T17:13:08-04:00*%
%TF.ProjectId,om-84_strumplate,6f6d2d38-345f-4737-9472-756d706c6174,rev?*%
%TF.SameCoordinates,Original*%
%TF.FileFunction,Legend,Top*%
%TF.FilePolarity,Positive*%
%FSLAX46Y46*%
G04 Gerber Fmt 4.6, Leading zero omitted, Abs format (unit mm)*
G04 Created by KiCad (PCBNEW 9.0.8+1) date 2026-06-10 17:13:08*
%MOMM*%
%LPD*%
G01*
G04 APERTURE LIST*
%ADD10C,0.426490*%
%ADD11C,1.044999*%
%ADD12C,1.116999*%
G04 APERTURE END LIST*
%LPC*%
D10*
X54050000Y-95130000D02*
X52433423Y-95130000D01*
X52433423Y-94640284D01*
X54050000Y-94640284D01*
X54050000Y-95130000D01*
G36*
X54050000Y-95130000D02*
G01*
X52433423Y-95130000D01*
X52433423Y-94640284D01*
X54050000Y-94640284D01*
X54050000Y-95130000D01*
G37*
X54050000Y-113964595D02*
X52433423Y-113964595D01*
X52433423Y-113474879D01*
X54050000Y-113474879D01*
X54050000Y-113964595D01*
G36*
X54050000Y-113964595D02*
G01*
X52433423Y-113964595D01*
X52433423Y-113474879D01*
X54050000Y-113474879D01*
X54050000Y-113964595D01*
G37*
X54050000Y-112646235D02*
X52433423Y-112646235D01*
X52433423Y-112156520D01*
X54050000Y-112156520D01*
X54050000Y-112646235D01*
G36*
X54050000Y-112646235D02*
G01*
X52433423Y-112646235D01*
X52433423Y-112156520D01*
X54050000Y-112156520D01*
X54050000Y-112646235D01*
G37*
X54050000Y-111399470D02*
X52433423Y-111399470D01*
X52433423Y-110909754D01*
X54050000Y-110909754D01*
X54050000Y-111399470D01*
G36*
X54050000Y-111399470D02*
G01*
X52433423Y-111399470D01*
X52433423Y-110909754D01*
X54050000Y-110909754D01*
X54050000Y-111399470D01*
G37*
X54050000Y-110206538D02*
X52433423Y-110206538D01*
X52433423Y-109716822D01*
X54050000Y-109716822D01*
X54050000Y-110206538D01*
G36*
X54050000Y-110206538D02*
G01*
X52433423Y-110206538D01*
X52433423Y-109716822D01*
X54050000Y-109716822D01*
X54050000Y-110206538D01*
G37*
X54050000Y-108932856D02*
X52433423Y-108932856D01*
X52433423Y-108443141D01*
X54050000Y-108443141D01*
X54050000Y-108932856D01*
G36*
X54050000Y-108932856D02*
G01*
X52433423Y-108932856D01*
X52433423Y-108443141D01*
X54050000Y-108443141D01*
X54050000Y-108932856D01*
G37*
X54050000Y-107722163D02*
X52433423Y-107722163D01*
X52433423Y-107232447D01*
X54050000Y-107232447D01*
X54050000Y-107722163D01*
G36*
X54050000Y-107722163D02*
G01*
X52433423Y-107722163D01*
X52433423Y-107232447D01*
X54050000Y-107232447D01*
X54050000Y-107722163D01*
G37*
X54050000Y-106475398D02*
X52433423Y-106475398D01*
X52433423Y-105985682D01*
X54050000Y-105985682D01*
X54050000Y-106475398D01*
G36*
X54050000Y-106475398D02*
G01*
X52433423Y-106475398D01*
X52433423Y-105985682D01*
X54050000Y-105985682D01*
X54050000Y-106475398D01*
G37*
X54050000Y-105256098D02*
X52433423Y-105256098D01*
X52433423Y-104766383D01*
X54050000Y-104766383D01*
X54050000Y-105256098D01*
G36*
X54050000Y-105256098D02*
G01*
X52433423Y-105256098D01*
X52433423Y-104766383D01*
X54050000Y-104766383D01*
X54050000Y-105256098D01*
G37*
X54050000Y-104009333D02*
X52433423Y-104009333D01*
X52433423Y-103519618D01*
X54050000Y-103519618D01*
X54050000Y-104009333D01*
G36*
X54050000Y-104009333D02*
G01*
X52433423Y-104009333D01*
X52433423Y-103519618D01*
X54050000Y-103519618D01*
X54050000Y-104009333D01*
G37*
X54050000Y-102690974D02*
X52433423Y-102690974D01*
X52433423Y-102201258D01*
X54050000Y-102201258D01*
X54050000Y-102690974D01*
G36*
X54050000Y-102690974D02*
G01*
X52433423Y-102690974D01*
X52433423Y-102201258D01*
X54050000Y-102201258D01*
X54050000Y-102690974D01*
G37*
X54050000Y-101444209D02*
X52433423Y-101444209D01*
X52433423Y-100954493D01*
X54050000Y-100954493D01*
X54050000Y-101444209D01*
G36*
X54050000Y-101444209D02*
G01*
X52433423Y-101444209D01*
X52433423Y-100954493D01*
X54050000Y-100954493D01*
X54050000Y-101444209D01*
G37*
X54050000Y-100170527D02*
X52433423Y-100170527D01*
X52433423Y-99680812D01*
X54050000Y-99680812D01*
X54050000Y-100170527D01*
G36*
X54050000Y-100170527D02*
G01*
X52433423Y-100170527D01*
X52433423Y-99680812D01*
X54050000Y-99680812D01*
X54050000Y-100170527D01*
G37*
X54050000Y-98923762D02*
X52433423Y-98923762D01*
X52433423Y-98434046D01*
X54050000Y-98434046D01*
X54050000Y-98923762D01*
G36*
X54050000Y-98923762D02*
G01*
X52433423Y-98923762D01*
X52433423Y-98434046D01*
X54050000Y-98434046D01*
X54050000Y-98923762D01*
G37*
X54050000Y-97605403D02*
X52433423Y-97605403D01*
X52433423Y-97115687D01*
X54050000Y-97115687D01*
X54050000Y-97605403D01*
G36*
X54050000Y-97605403D02*
G01*
X52433423Y-97605403D01*
X52433423Y-97115687D01*
X54050000Y-97115687D01*
X54050000Y-97605403D01*
G37*
X54050000Y-96358638D02*
X52433423Y-96358638D01*
X52433423Y-95868922D01*
X54050000Y-95868922D01*
X54050000Y-96358638D01*
G36*
X54050000Y-96358638D02*
G01*
X52433423Y-96358638D01*
X52433423Y-95868922D01*
X54050000Y-95868922D01*
X54050000Y-96358638D01*
G37*
D11*
X123798230Y-162672206D02*
X130126477Y-162672206D01*
X123798230Y-158896022D02*
X123798230Y-162672206D01*
X130138959Y-158896022D02*
X123798230Y-158896022D01*
X123798230Y-147701808D02*
X130126477Y-147701808D01*
X123798230Y-143925624D02*
X123798230Y-147701808D01*
X130138959Y-143925624D02*
X123798230Y-143925624D01*
D12*
X131255749Y-164538844D02*
X123323682Y-164538844D01*
X131255749Y-156938044D02*
X123323682Y-156938044D01*
X131255749Y-149497584D02*
X123323682Y-149497584D01*
X131255749Y-160802485D02*
X125516461Y-160802485D01*
X131255749Y-145793391D02*
X125516461Y-145793391D01*
X160460126Y-167335871D02*
X147125622Y-167335871D01*
X160460126Y-162765803D02*
X147125622Y-162765803D01*
X160460126Y-160552943D02*
X147125622Y-160552943D01*
X160460126Y-156127101D02*
X147125622Y-156127101D01*
X160460126Y-151557032D02*
X147125622Y-151557032D01*
X160460126Y-149344172D02*
X147125622Y-149344172D01*
X160460126Y-144854182D02*
X147125622Y-144854182D01*
X160460126Y-140284114D02*
X147125622Y-140284114D01*
X160460126Y-138071254D02*
X147125622Y-138071254D01*
X160460126Y-133501094D02*
X147125622Y-133501094D01*
X160460126Y-128931025D02*
X147125622Y-128931025D01*
X160460126Y-126718165D02*
X147125622Y-126718165D01*
X160460126Y-122292323D02*
X147125622Y-122292323D01*
X160460126Y-117722254D02*
X147125622Y-117722254D01*
X160460126Y-115509394D02*
X147125622Y-115509394D01*
X160460126Y-111083583D02*
X147125622Y-111083583D01*
X160460126Y-106513514D02*
X147125653Y-106513514D01*
X160460126Y-99714534D02*
X147125622Y-99714534D01*
X160460126Y-95144465D02*
X147125622Y-95144465D01*
X160460126Y-92931605D02*
X147125622Y-92931605D01*
X160460126Y-88537837D02*
X147125622Y-88537837D01*
X160460126Y-83967768D02*
X147125622Y-83967768D01*
X160460126Y-81754908D02*
X147125622Y-81754908D01*
X160460126Y-77200801D02*
X147125622Y-77200801D01*
X160460126Y-72630732D02*
X147125622Y-72630732D01*
X160460126Y-70417872D02*
X147125622Y-70417872D01*
X160460126Y-65959956D02*
X147125622Y-65959956D01*
X160460126Y-61389888D02*
X147125622Y-61389888D01*
X160460126Y-59177027D02*
X147125622Y-59177027D01*
X160460126Y-54719172D02*
X147125622Y-54719172D01*
X160460126Y-50149104D02*
X147125622Y-50149104D01*
X160460126Y-47936244D02*
X147125622Y-47936244D01*
X160460126Y-32077265D02*
X147125622Y-32077265D01*
X160460126Y-43398249D02*
X147125622Y-43398249D01*
X160460126Y-38828181D02*
X147125622Y-38828181D01*
X160460126Y-36615321D02*
X147125622Y-36615321D01*
X131255780Y-141613520D02*
X123323712Y-141613520D01*
X131255780Y-169841059D02*
X131255780Y-141613520D01*
X160489026Y-173874079D02*
X145639372Y-171825420D01*
X131255780Y-169841059D01*
X160460126Y-27527491D02*
X160489026Y-173874079D01*
X147125622Y-27527491D02*
X160460126Y-27527491D01*
X147125653Y-104300563D02*
X147125653Y-106513514D01*
X160460156Y-104300563D02*
X147125653Y-104300563D01*
D11*
X145138165Y-169536647D02*
X158824139Y-169536647D01*
X145138165Y-165116053D02*
X145138165Y-169536647D01*
X158836621Y-165116053D02*
X145138165Y-165116053D01*
X145138165Y-158263728D02*
X158824139Y-158263728D01*
X145138165Y-153843135D02*
X145138165Y-158263728D01*
X158836621Y-153843135D02*
X145138165Y-153843135D01*
X145138165Y-147022883D02*
X158824139Y-147022883D01*
X145138165Y-142602290D02*
X145138165Y-147022883D01*
X158836621Y-142602290D02*
X145138165Y-142602290D01*
X145138165Y-135749964D02*
X158824139Y-135749964D01*
X145138165Y-131329371D02*
X145138165Y-135749964D01*
X158836621Y-131329371D02*
X145138165Y-131329371D01*
X145138165Y-124460994D02*
X158824139Y-124460994D01*
X145138165Y-120040400D02*
X145138165Y-124460994D01*
X158836621Y-120040400D02*
X145138165Y-120040400D01*
X145138165Y-113252223D02*
X158824139Y-113252223D01*
X145138165Y-108831629D02*
X145138165Y-113252223D01*
X158836621Y-108831629D02*
X145138165Y-108831629D01*
X145138165Y-101963252D02*
X158824139Y-101963252D01*
X145138165Y-97542659D02*
X145138165Y-101963252D01*
X158836621Y-97542659D02*
X145138165Y-97542659D01*
X145138165Y-90658259D02*
X158824139Y-90658259D01*
X145138165Y-86237666D02*
X145138165Y-90658259D01*
X158836621Y-86237666D02*
X145138165Y-86237666D01*
X145138165Y-79449488D02*
X158824139Y-79449488D01*
X145138165Y-75028895D02*
X145138165Y-79449488D01*
X158836621Y-75028895D02*
X145138165Y-75028895D01*
X145138165Y-68128443D02*
X158824139Y-68128443D01*
X145138165Y-63707850D02*
X145138165Y-68128443D01*
X158836621Y-63707850D02*
X145138165Y-63707850D01*
X145138165Y-56855525D02*
X158824139Y-56855525D01*
X145138165Y-52434931D02*
X145138165Y-56855525D01*
X158836621Y-52434931D02*
X145138165Y-52434931D01*
X145138165Y-45550593D02*
X158824139Y-45550593D01*
X145138165Y-41130000D02*
X145138165Y-45550593D01*
X158836621Y-41130000D02*
X145138165Y-41130000D01*
X145138165Y-34236384D02*
X158721936Y-34236384D01*
X145138165Y-29815791D02*
X145138165Y-34236384D01*
X158734418Y-29815791D02*
X145138165Y-29815791D01*
%LPD*%
M02*
