%TF.GenerationSoftware,KiCad,Pcbnew,9.0.8+1*%
%TF.CreationDate,2026-06-10T17:13:08-04:00*%
%TF.ProjectId,om-84_strumplate,6f6d2d38-345f-4737-9472-756d706c6174,rev?*%
%TF.SameCoordinates,Original*%
%TF.FileFunction,Profile,NP*%
%FSLAX46Y46*%
G04 Gerber Fmt 4.6, Leading zero omitted, Abs format (unit mm)*
G04 Created by KiCad (PCBNEW 9.0.8+1) date 2026-06-10 17:13:08*
%MOMM*%
%LPD*%
G01*
G04 APERTURE LIST*
%TA.AperFunction,Profile*%
%ADD10C,0.485000*%
%TD*%
G04 APERTURE END LIST*
D10*
X167351235Y-24583221D02*
X167667586Y-24600578D01*
X167961471Y-24628068D01*
X168228952Y-24666097D01*
X168466088Y-24715069D01*
X168668941Y-24775390D01*
X168833572Y-24847464D01*
X168900323Y-24888035D01*
X168956042Y-24931696D01*
X169000236Y-24978497D01*
X169032413Y-25028490D01*
X169052080Y-25081724D01*
X169058745Y-25138252D01*
X169058745Y-25186561D01*
X169058745Y-25484748D01*
X169058745Y-25959754D01*
X169058745Y-26114143D01*
X169058745Y-31351081D01*
X169058745Y-31508888D01*
X169058745Y-32141365D01*
X169058745Y-32936072D01*
X169058745Y-33074042D01*
X169058745Y-41003089D01*
X169058745Y-41045386D01*
X169058745Y-41722724D01*
X169058745Y-43458381D01*
X169058745Y-43754706D01*
X169058745Y-49215705D01*
X169058745Y-49385047D01*
X169058745Y-49681373D01*
X169058745Y-50951362D01*
X169058745Y-54439613D01*
X169058745Y-56111793D01*
X169058745Y-57978705D01*
X169058745Y-61166266D01*
X169058745Y-61449988D01*
X169058745Y-87188666D01*
X169058745Y-101637977D01*
X169058745Y-101791144D01*
X169058745Y-102073859D01*
X169058745Y-102132362D01*
X169058745Y-102640357D01*
X169058745Y-104672370D01*
X169058745Y-106408027D01*
X169058745Y-110133369D01*
X169058745Y-114176185D01*
X169058745Y-114874671D01*
X169058745Y-115924262D01*
X169058745Y-116935248D01*
X169058745Y-123357490D01*
X169058745Y-129479651D01*
X169058745Y-129775977D01*
X169058745Y-130834327D01*
X169058745Y-135744971D01*
X169058745Y-135956641D01*
X169058745Y-137226630D01*
X169058745Y-137480628D01*
X169058745Y-137798133D01*
X169058745Y-139258643D01*
X169058745Y-140507484D01*
X169058745Y-141502326D01*
X169058745Y-142278449D01*
X169058745Y-143344184D01*
X169058745Y-143499396D01*
X169058745Y-145354651D01*
X169058745Y-145566321D01*
X169058745Y-145777991D01*
X169058745Y-147831153D01*
X169058745Y-149722022D01*
X169058745Y-149757331D01*
X169058745Y-149877235D01*
X169058745Y-152020881D01*
X169058745Y-152782882D01*
X169058745Y-154840987D01*
X169058745Y-155242660D01*
X169058745Y-155853377D01*
X169058745Y-155905501D01*
X169058745Y-156387557D01*
X169058745Y-157250411D01*
X169058745Y-157584090D01*
X169058745Y-157970077D01*
X169058745Y-158456893D01*
X169058745Y-158774398D01*
X169058745Y-158922530D01*
X169058745Y-159557540D01*
X169058745Y-159705733D01*
X169058745Y-160256087D01*
X169058745Y-160594771D01*
X169058745Y-161030013D01*
X169058745Y-161816878D01*
X169058745Y-162034102D01*
X169058745Y-162250472D01*
X169058745Y-162592879D01*
X169058745Y-162965438D01*
X169058745Y-164171920D01*
X169058745Y-170226913D01*
X169050288Y-172398976D01*
X169036881Y-173267932D01*
X169011281Y-174005410D01*
X168968932Y-174621338D01*
X168905278Y-175125645D01*
X168815763Y-175528260D01*
X168759883Y-175694535D01*
X168695830Y-175839110D01*
X168623034Y-175963227D01*
X168540925Y-176068126D01*
X168448933Y-176155048D01*
X168346490Y-176225234D01*
X168233026Y-176279926D01*
X168107970Y-176320365D01*
X167970755Y-176347791D01*
X167820810Y-176363446D01*
X167480451Y-176364407D01*
X167082340Y-176333175D01*
X166094634Y-176213851D01*
X166096893Y-176213729D01*
X163224067Y-175832709D01*
X159916228Y-175364669D01*
X158952628Y-175224967D01*
X157884246Y-175073409D01*
X156728812Y-174906959D01*
X155555938Y-174731490D01*
X154470092Y-174570251D01*
X153523955Y-174438033D01*
X152590224Y-174308753D01*
X151534270Y-174154708D01*
X150639968Y-174022056D01*
X150094939Y-173944198D01*
X148835052Y-173770988D01*
X147258575Y-173549483D01*
X146700828Y-173471572D01*
X146073272Y-173386153D01*
X145776858Y-173344008D01*
X145470534Y-173296363D01*
X145190417Y-173249073D01*
X144972625Y-173207992D01*
X144878078Y-173189716D01*
X144771503Y-173171294D01*
X144656548Y-173153227D01*
X144536857Y-173136016D01*
X144416075Y-173120161D01*
X144297850Y-173106162D01*
X144185825Y-173094521D01*
X144083648Y-173085738D01*
X143981468Y-173076882D01*
X143869437Y-173065073D01*
X143751204Y-173050819D01*
X143630416Y-173034629D01*
X143510721Y-173017011D01*
X143395766Y-172998474D01*
X143289200Y-172979527D01*
X143194671Y-172960677D01*
X143090620Y-172939927D01*
X142956807Y-172915489D01*
X142622115Y-172859138D01*
X142235032Y-172798792D01*
X141839996Y-172741622D01*
X141461656Y-172685383D01*
X141120040Y-172627570D01*
X140974723Y-172600193D01*
X140852651Y-172574965D01*
X140758510Y-172552733D01*
X140696990Y-172534347D01*
X140672137Y-172526116D01*
X140641516Y-172517628D01*
X140564705Y-172500135D01*
X140470031Y-172482387D01*
X140360969Y-172464904D01*
X140240991Y-172448205D01*
X140113573Y-172432809D01*
X139982188Y-172419235D01*
X139850310Y-172408004D01*
X139574195Y-172382392D01*
X139219599Y-172342134D01*
X138347800Y-172227843D01*
X137380592Y-172085469D01*
X136463653Y-171935348D01*
X136206550Y-171892670D01*
X135913329Y-171847434D01*
X135620109Y-171805048D01*
X135363006Y-171770919D01*
X134070996Y-171597243D01*
X132946952Y-171422423D01*
X132495123Y-171342545D01*
X132141935Y-171271934D01*
X131906268Y-171213773D01*
X131838406Y-171190357D01*
X131807006Y-171171248D01*
X131804061Y-171168244D01*
X131799618Y-171165162D01*
X131786404Y-171158793D01*
X131767690Y-171152193D01*
X131743800Y-171145416D01*
X131715061Y-171138514D01*
X131681798Y-171131538D01*
X131644337Y-171124541D01*
X131603004Y-171117576D01*
X131510021Y-171103948D01*
X131405456Y-171091074D01*
X131291912Y-171079371D01*
X131171996Y-171069259D01*
X130935603Y-171050823D01*
X130725132Y-171031842D01*
X130515279Y-171008785D01*
X130280742Y-170978118D01*
X129996215Y-170936311D01*
X129636395Y-170879830D01*
X128589660Y-170708724D01*
X127143226Y-170472198D01*
X126176665Y-170324752D01*
X125913143Y-170284454D01*
X125633742Y-170239951D01*
X125371805Y-170196650D01*
X125160674Y-170159957D01*
X124538379Y-170052749D01*
X123636687Y-169902511D01*
X120980869Y-169466239D01*
X120512726Y-169375832D01*
X120112526Y-169284650D01*
X119775077Y-169188572D01*
X119495189Y-169083480D01*
X119267670Y-168965252D01*
X119171926Y-168899926D01*
X119087329Y-168829770D01*
X119013228Y-168754271D01*
X118948975Y-168672913D01*
X118893920Y-168585182D01*
X118847416Y-168490562D01*
X118777463Y-168278596D01*
X118733924Y-168032895D01*
X118711607Y-167749341D01*
X118705321Y-167423812D01*
X118705321Y-166631576D01*
X118705321Y-166334579D01*
X118705321Y-151789374D01*
X118705321Y-150223060D01*
X118705321Y-144021216D01*
X118705321Y-143745948D01*
X118705321Y-140465125D01*
X118705321Y-136845740D01*
X118705321Y-135512244D01*
X118705321Y-134517402D01*
X118705321Y-134178748D01*
X118705321Y-133840064D01*
X118705321Y-131427070D01*
X118705321Y-131215400D01*
X118705321Y-131130713D01*
X118705321Y-121753882D01*
X118705321Y-121648048D01*
X118705321Y-120293372D01*
X118705321Y-118938697D01*
X118705321Y-118598517D01*
X118705321Y-117960120D01*
X118708557Y-117889622D01*
X118718298Y-117825073D01*
X118734593Y-117766228D01*
X118757495Y-117712842D01*
X118787052Y-117664669D01*
X118823316Y-117621465D01*
X118866338Y-117582985D01*
X118916166Y-117548983D01*
X118972852Y-117519215D01*
X119036446Y-117493435D01*
X119106999Y-117471399D01*
X119184561Y-117452861D01*
X119269182Y-117437577D01*
X119360913Y-117425301D01*
X119459804Y-117415788D01*
X119565906Y-117408793D01*
X119679268Y-117404072D01*
X119799943Y-117401379D01*
X120063427Y-117401096D01*
X120356761Y-117405986D01*
X120680350Y-117414087D01*
X121419902Y-117432082D01*
X121836671Y-117438055D01*
X122285308Y-117439399D01*
X124488921Y-117439399D01*
X124546722Y-117439399D01*
X125059661Y-117439399D01*
X125514739Y-117439399D01*
X125630553Y-117439399D01*
X125818267Y-117439399D01*
X126000823Y-117439399D01*
X126628020Y-117439399D01*
X126746268Y-117434190D01*
X126862557Y-117423230D01*
X126976481Y-117407161D01*
X127087636Y-117386629D01*
X127195617Y-117362278D01*
X127300019Y-117334753D01*
X127400439Y-117304700D01*
X127496471Y-117272761D01*
X127673751Y-117205810D01*
X127828624Y-117139056D01*
X127957852Y-117077657D01*
X128058196Y-117026771D01*
X128290557Y-116906470D01*
X128434905Y-116567786D01*
X128359099Y-115170783D01*
X128251037Y-114832129D01*
X128166350Y-114832129D01*
X127743011Y-114832129D01*
X127072722Y-114832129D01*
X126374236Y-114832129D01*
X124991332Y-114832129D01*
X124600463Y-114832129D01*
X124377502Y-114832129D01*
X123001647Y-114832129D01*
X114492644Y-114832129D01*
X110456817Y-114832129D01*
X104551391Y-114832129D01*
X95682189Y-114832129D01*
X95495788Y-114832129D01*
X94718169Y-114832129D01*
X87912871Y-114832129D01*
X82044158Y-114832129D01*
X73602203Y-114832129D01*
X64091308Y-114832129D01*
X62698302Y-114832129D01*
X58563750Y-114832129D01*
X51881255Y-114832129D01*
X51881255Y-109582893D01*
X51881255Y-106083350D01*
X51881255Y-105391914D01*
X51881255Y-104375922D01*
X51881255Y-103359931D01*
X51881255Y-102682593D01*
X51881255Y-102005256D01*
X51881255Y-100989265D01*
X51881255Y-99973273D01*
X51881255Y-99634620D01*
X51881255Y-99295936D01*
X51881255Y-98957252D01*
X51881255Y-98618598D01*
X51881255Y-97941260D01*
X51881255Y-97263923D01*
X51881255Y-96311408D01*
X51881255Y-93521674D01*
X55056213Y-93521674D01*
X55718810Y-93521674D01*
X55824645Y-93521674D01*
X60157378Y-93521674D01*
X120418883Y-93521674D01*
X124228881Y-93521674D01*
X127467376Y-93521674D01*
X127742553Y-93521674D01*
X128162810Y-93521674D01*
X128215771Y-93527656D01*
X128265798Y-93531372D01*
X128312961Y-93532886D01*
X128357330Y-93532261D01*
X128398975Y-93529560D01*
X128437966Y-93524845D01*
X128474373Y-93518179D01*
X128508266Y-93509627D01*
X128539714Y-93499250D01*
X128568789Y-93487112D01*
X128595560Y-93473276D01*
X128620097Y-93457804D01*
X128642470Y-93440760D01*
X128662748Y-93422207D01*
X128681003Y-93402207D01*
X128697303Y-93380824D01*
X128711719Y-93358121D01*
X128724321Y-93334161D01*
X128735179Y-93309006D01*
X128744362Y-93282720D01*
X128751941Y-93255366D01*
X128757986Y-93227007D01*
X128762567Y-93197705D01*
X128765754Y-93167524D01*
X128768224Y-93104776D01*
X128765957Y-93039268D01*
X128759512Y-92971503D01*
X128749450Y-92901984D01*
X128739556Y-92803578D01*
X128727581Y-92629614D01*
X128698276Y-92148772D01*
X128663323Y-91646977D01*
X128644288Y-91446820D01*
X128634478Y-91369682D01*
X128624511Y-91311744D01*
X128584264Y-91132826D01*
X128563272Y-91052145D01*
X128540807Y-90977193D01*
X128516196Y-90907876D01*
X128488770Y-90844102D01*
X128457855Y-90785777D01*
X128440881Y-90758630D01*
X128422782Y-90732810D01*
X128403476Y-90708306D01*
X128382879Y-90685107D01*
X128360906Y-90663201D01*
X128337474Y-90642576D01*
X128312499Y-90623220D01*
X128285897Y-90605123D01*
X128257583Y-90588272D01*
X128227475Y-90572656D01*
X128195488Y-90558263D01*
X128161539Y-90545082D01*
X128125543Y-90533101D01*
X128087416Y-90522308D01*
X128047075Y-90512692D01*
X128004435Y-90504242D01*
X127911925Y-90490790D01*
X123982116Y-90490790D01*
X118735290Y-90490790D01*
X118735290Y-90018958D01*
X118735290Y-89813483D01*
X118735290Y-89622993D01*
X118735290Y-86934821D01*
X118735290Y-80415504D01*
X118735290Y-55115027D01*
X118735290Y-43972083D01*
X118735290Y-43717292D01*
X118735290Y-43681800D01*
X118735290Y-43410621D01*
X118735290Y-43094916D01*
X118735290Y-42756202D01*
X118735290Y-42421302D01*
X118735290Y-38738288D01*
X118744706Y-37491701D01*
X118776497Y-36527857D01*
X118799985Y-36139311D01*
X118828110Y-35806267D01*
X118860553Y-35523664D01*
X118896995Y-35286441D01*
X118937116Y-35089536D01*
X118980599Y-34927889D01*
X119027124Y-34796438D01*
X119076372Y-34690122D01*
X119128025Y-34603880D01*
X119181763Y-34532651D01*
X119294219Y-34414985D01*
X119336649Y-34380938D01*
X119401445Y-34338178D01*
X119485575Y-34288139D01*
X119586003Y-34232255D01*
X119823625Y-34108692D01*
X120090041Y-33978969D01*
X120360984Y-33854563D01*
X120612184Y-33746952D01*
X120722796Y-33703031D01*
X120819372Y-33667614D01*
X120898879Y-33642135D01*
X120958282Y-33628028D01*
X121006501Y-33619013D01*
X121058167Y-33607439D01*
X121111671Y-33593785D01*
X121165404Y-33578532D01*
X121217759Y-33562159D01*
X121267126Y-33545146D01*
X121311897Y-33527971D01*
X121350463Y-33511115D01*
X121483008Y-33454224D01*
X121723578Y-33356603D01*
X122429732Y-33077869D01*
X123270813Y-32752299D01*
X124048705Y-32457282D01*
X124169643Y-32413668D01*
X124290424Y-32372982D01*
X124407834Y-32336112D01*
X124518661Y-32303951D01*
X124619691Y-32277386D01*
X124707713Y-32257310D01*
X124779513Y-32244611D01*
X124808326Y-32241307D01*
X124831878Y-32240181D01*
X124852412Y-32239828D01*
X124872371Y-32238792D01*
X124891650Y-32237110D01*
X124910146Y-32234815D01*
X124927757Y-32231943D01*
X124944378Y-32228529D01*
X124959906Y-32224608D01*
X124974238Y-32220214D01*
X124987272Y-32215384D01*
X124998902Y-32210152D01*
X125009027Y-32204553D01*
X125017542Y-32198621D01*
X125024345Y-32192393D01*
X125027073Y-32189179D01*
X125029333Y-32185904D01*
X125031113Y-32182572D01*
X125032401Y-32179187D01*
X125033183Y-32175755D01*
X125033446Y-32172279D01*
X125034526Y-32168431D01*
X125037729Y-32163918D01*
X125043003Y-32158762D01*
X125050296Y-32152984D01*
X125070722Y-32139653D01*
X125098586Y-32124101D01*
X125133463Y-32106504D01*
X125174930Y-32087038D01*
X125222565Y-32065880D01*
X125275943Y-32043205D01*
X125334641Y-32019189D01*
X125398237Y-31994010D01*
X125538427Y-31940862D01*
X125693126Y-31885171D01*
X125858947Y-31828346D01*
X126191081Y-31714921D01*
X126485152Y-31610111D01*
X126709254Y-31525574D01*
X126785096Y-31494551D01*
X126831481Y-31472969D01*
X126847135Y-31464875D01*
X126863665Y-31457010D01*
X126880929Y-31449413D01*
X126898785Y-31442125D01*
X126917093Y-31435187D01*
X126935710Y-31428639D01*
X126954496Y-31422522D01*
X126973308Y-31416877D01*
X126992005Y-31411744D01*
X127010446Y-31407164D01*
X127028489Y-31403177D01*
X127045993Y-31399824D01*
X127062817Y-31397145D01*
X127078818Y-31395181D01*
X127093855Y-31393974D01*
X127107787Y-31393562D01*
X127121720Y-31393147D01*
X127136759Y-31391929D01*
X127152763Y-31389949D01*
X127169590Y-31387249D01*
X127187097Y-31383870D01*
X127205144Y-31379854D01*
X127223589Y-31375240D01*
X127242290Y-31370071D01*
X127261104Y-31364388D01*
X127279891Y-31358231D01*
X127298509Y-31351643D01*
X127316815Y-31344664D01*
X127334668Y-31337336D01*
X127351927Y-31329699D01*
X127368449Y-31321796D01*
X127384093Y-31313667D01*
X127402152Y-31304599D01*
X127425735Y-31293985D01*
X127487962Y-31268647D01*
X127567741Y-31238705D01*
X127662040Y-31205211D01*
X127767826Y-31169218D01*
X127882066Y-31131779D01*
X128001728Y-31093945D01*
X128123778Y-31056770D01*
X128367260Y-30982289D01*
X128592094Y-30910266D01*
X128773268Y-30848927D01*
X128839667Y-30824833D01*
X128885772Y-30806495D01*
X129045022Y-30750798D01*
X129335715Y-30660682D01*
X130151069Y-30422813D01*
X131011111Y-30184120D01*
X131357666Y-30092974D01*
X131595122Y-30035835D01*
X131674026Y-30017649D01*
X131768665Y-29993692D01*
X131875464Y-29964988D01*
X131990848Y-29932563D01*
X132111239Y-29897444D01*
X132233063Y-29860654D01*
X132352744Y-29823221D01*
X132466704Y-29786171D01*
X132581030Y-29749026D01*
X132701733Y-29711346D01*
X132947688Y-29638542D01*
X133175396Y-29576083D01*
X133273290Y-29551335D01*
X133355681Y-29532295D01*
X133907286Y-29400982D01*
X134806647Y-29176658D01*
X135778622Y-28928759D01*
X136548064Y-28726722D01*
X136928445Y-28626472D01*
X137319411Y-28528175D01*
X138070251Y-28351509D01*
X138398698Y-28280171D01*
X138674880Y-28224853D01*
X138883084Y-28189070D01*
X139007598Y-28176338D01*
X139030041Y-28175882D01*
X139052728Y-28174565D01*
X139075503Y-28172432D01*
X139098212Y-28169527D01*
X139120701Y-28165892D01*
X139142816Y-28161573D01*
X139164401Y-28156612D01*
X139185302Y-28151054D01*
X139205365Y-28144942D01*
X139224435Y-28138321D01*
X139242358Y-28131233D01*
X139258979Y-28123723D01*
X139274144Y-28115835D01*
X139287698Y-28107613D01*
X139299487Y-28099100D01*
X139309356Y-28090339D01*
X139314632Y-28085774D01*
X139321581Y-28080938D01*
X139340306Y-28070513D01*
X139365141Y-28059172D01*
X139395697Y-28047024D01*
X139431585Y-28034178D01*
X139472418Y-28020743D01*
X139517805Y-28006828D01*
X139567359Y-27992542D01*
X139677409Y-27963292D01*
X139799458Y-27933866D01*
X139930394Y-27905133D01*
X140067107Y-27877967D01*
X140777930Y-27738552D01*
X141543365Y-27581031D01*
X142849417Y-27314691D01*
X144127128Y-27070770D01*
X145142254Y-26892412D01*
X145478147Y-26841302D01*
X145660552Y-26822761D01*
X145689007Y-26822004D01*
X145719571Y-26820092D01*
X145751962Y-26817086D01*
X145785898Y-26813045D01*
X145857277Y-26802094D01*
X145931449Y-26787716D01*
X146006156Y-26770386D01*
X146079140Y-26750582D01*
X146114280Y-26739900D01*
X146148143Y-26728778D01*
X146180445Y-26717276D01*
X146210906Y-26705451D01*
X146244165Y-26692951D01*
X146284679Y-26679465D01*
X146385237Y-26650041D01*
X146508109Y-26618194D01*
X146648826Y-26584938D01*
X146802918Y-26551287D01*
X146965916Y-26518255D01*
X147133350Y-26486857D01*
X147300750Y-26458107D01*
X148739165Y-26224189D01*
X148870332Y-26201077D01*
X149000026Y-26174717D01*
X149124884Y-26146029D01*
X149241546Y-26115932D01*
X149346649Y-26085344D01*
X149436831Y-26055184D01*
X149475277Y-26040552D01*
X149508732Y-26026372D01*
X149536777Y-26012757D01*
X149558990Y-25999824D01*
X149583177Y-25984607D01*
X149606707Y-25971122D01*
X149629634Y-25959362D01*
X149652015Y-25949319D01*
X149673907Y-25940989D01*
X149695366Y-25934363D01*
X149716449Y-25929436D01*
X149737212Y-25926200D01*
X149757712Y-25924650D01*
X149778006Y-25924778D01*
X149798149Y-25926578D01*
X149818198Y-25930044D01*
X149838211Y-25935168D01*
X149858242Y-25941944D01*
X149878349Y-25950366D01*
X149898589Y-25960426D01*
X149908815Y-25965412D01*
X149920119Y-25970002D01*
X149945970Y-25977993D01*
X149976161Y-25984398D01*
X150010712Y-25989215D01*
X150049640Y-25992445D01*
X150092965Y-25994087D01*
X150140704Y-25994138D01*
X150192878Y-25992599D01*
X150249504Y-25989469D01*
X150310601Y-25984746D01*
X150376188Y-25978430D01*
X150446283Y-25970520D01*
X150520906Y-25961014D01*
X150600075Y-25949913D01*
X150683808Y-25937215D01*
X150772124Y-25922920D01*
X151122716Y-25866814D01*
X151480274Y-25814444D01*
X151854732Y-25764670D01*
X152256019Y-25716354D01*
X152694067Y-25668355D01*
X153178808Y-25619534D01*
X154328094Y-25514869D01*
X154883894Y-25464586D01*
X155364478Y-25417060D01*
X155718456Y-25377660D01*
X155831909Y-25362685D01*
X155894439Y-25351753D01*
X155951766Y-25341326D01*
X156050350Y-25327816D01*
X156184807Y-25311791D01*
X156349754Y-25293815D01*
X156749579Y-25254275D01*
X157206756Y-25213722D01*
X157704014Y-25169852D01*
X158212974Y-25121357D01*
X158673903Y-25074114D01*
X159027068Y-25034004D01*
X159293461Y-25002773D01*
X159560040Y-24976247D01*
X159854423Y-24952899D01*
X160204230Y-24931201D01*
X160637078Y-24909629D01*
X161180586Y-24886654D01*
X162710052Y-24830390D01*
X163388774Y-24803002D01*
X164016341Y-24771453D01*
X164522899Y-24739642D01*
X164838592Y-24711463D01*
X165570348Y-24634275D01*
X166306773Y-24587905D01*
X166666890Y-24577290D01*
X167016357Y-24575593D01*
X167351235Y-24583221D01*
M02*
