<?xml version="1.0" encoding="UTF-8" standalone="no"?>
<svg
   width="900mm"
   height="1050mm"
   viewBox="0 0 900 1050"
   version="1.1"
   id="svg8"
   inkscape:version="1.2.2 (b0a8486541, 2022-12-01)"
   sodipodi:docname="om27_plate_curve.svg"
   xml:space="preserve"
   xmlns:inkscape="http://www.inkscape.org/namespaces/inkscape"
   xmlns:sodipodi="http://sodipodi.sourceforge.net/DTD/sodipodi-0.dtd"
   xmlns="http://www.w3.org/2000/svg"
   xmlns:svg="http://www.w3.org/2000/svg"
   xmlns:rdf="http://www.w3.org/1999/02/22-rdf-syntax-ns#"
   xmlns:cc="http://creativecommons.org/ns#"
   xmlns:dc="http://purl.org/dc/elements/1.1/"><defs
     id="defs2" /><sodipodi:namedview
     id="base"
     pagecolor="#ffffff"
     bordercolor="#666666"
     borderopacity="1.0"
     inkscape:pageopacity="0.0"
     inkscape:pageshadow="2"
     inkscape:zoom="1.2950141"
     inkscape:cx="2120.0541"
     inkscape:cy="3672.1607"
     inkscape:document-units="mm"
     inkscape:current-layer="layer2"
     showgrid="true"
     inkscape:window-width="3840"
     inkscape:window-height="2106"
     inkscape:window-x="0"
     inkscape:window-y="0"
     inkscape:window-maximized="1"
     inkscape:pagecheckerboard="0"
     inkscape:document-rotation="0"
     units="mm"
     inkscape:showpageshadow="2"
     inkscape:deskcolor="#d1d1d1"><inkscape:grid
       type="xygrid"
       id="grid9"
       units="mm" /></sodipodi:namedview><metadata
     id="metadata5"><rdf:RDF><cc:Work
         rdf:about=""><dc:format>image/svg+xml</dc:format><dc:type
           rdf:resource="http://purl.org/dc/dcmitype/StillImage" /><dc:title /></cc:Work></rdf:RDF></metadata><g
     inkscape:label="bed outline"
     inkscape:groupmode="layer"
     id="layer1"
     transform="translate(0,753)"
     style="display:none"><text
       xml:space="preserve"
       style="font-style:normal;font-weight:normal;font-size:10.5833px;line-height:1.25;font-family:sans-serif;letter-spacing:0px;word-spacing:0px;fill:#000000;fill-opacity:1;stroke:none;stroke-width:0.264583"
       x="51.404758"
       y="135.22618"
       id="text817" /></g><g
     inkscape:groupmode="layer"
     id="layer2"
     inkscape:label="layer1"><path
       style="fill:none;stroke:#000000;stroke-width:2;stroke-dasharray:none;stroke-opacity:1"
       d="m 661.96592,854.51913 6.49679,124.806 c 0,0 0.53335,8.5862 0.37423,12.8776 -0.0335,0.90322 -0.0451,1.82411 -0.27927,2.6971 -0.57471,2.14291 -1.33053,4.34486 -2.71931,6.07507 -0.99543,1.2402 -2.33158,2.3113 -3.8296,2.845 -1.64454,0.5859 -3.48839,0.3272 -5.2319,0.2383 -1.24508,-0.064 -3.69954,-0.5492 -3.69954,-0.5492 l -14.99346,-4.46037 -14.4776,-2.4076 -32.36722,-5.848 -41.98832,-6.7826 -32.28112,-3.755 -38.87406,-3.8655 -25.70674,-2.632 -37.75286,-2.7528 -41.09609,-5.3671 -20.56122,-3.8368 -7.68009,-1.6116 -15.6983,-4.2944 -12.58991,-3.2017 -11.04435,-3.1456 c 0,0 -5.12525,-1.61318 -7.29826,-3.1232 -1.28719,-0.89446 -2.50017,-2.02553 -3.24149,-3.4066 -1.00365,-1.86981 -1.41846,-6.2064 -1.41846,-6.2064 l -6.23817,-113.41037 -46.02604,-709.57289 -0.33234,-6.733 0.4086,-4.70254 1.30521,-3.411679 5.64407,-4.20905 360.14586,-69.72388 4.43908,0.29158 5.94173,1.84597 1.79492,3.02592 1.38225,2.76876 0.2044,2.54312 0.28893,3.01741 0.12998,3.65064 0.28026,6.04029 z"
       id="path1188"
       sodipodi:nodetypes="ccaaaaacccccccccccccccaaccccccccccccccccc" /></g><g
     inkscape:groupmode="layer"
     id="layer3"
     inkscape:label="layer2" /><g
     inkscape:groupmode="layer"
     id="layer4"
     inkscape:label="layer3" /><g
     inkscape:groupmode="layer"
     id="layer5"
     inkscape:label="layer4" /><g
     inkscape:groupmode="layer"
     id="layer6"
     inkscape:label="layer5" /><g
     inkscape:groupmode="layer"
     id="layer7"
     inkscape:label="layer6" /><g
     inkscape:groupmode="layer"
     id="layer8"
     inkscape:label="layer7" /><g
     inkscape:groupmode="layer"
     id="layer9"
     inkscape:label="layer8" /><g
     inkscape:groupmode="layer"
     id="layer10"
     inkscape:label="layer9" /><g
     inkscape:groupmode="layer"
     id="layer11"
     inkscape:label="layer10" /></svg>
