<?xml version="1.0" encoding="UTF-8" standalone="no"?>
<svg
   width="112.34278mm"
   height="159.33624mm"
   viewBox="0 0 112.34278 159.33624"
   version="1.1"
   id="svg8"
   inkscape:version="1.2.2 (b0a8486541, 2022-12-01)"
   sodipodi:docname="outline.svg"
   xmlns:inkscape="http://www.inkscape.org/namespaces/inkscape"
   xmlns:sodipodi="http://sodipodi.sourceforge.net/DTD/sodipodi-0.dtd"
   xmlns="http://www.w3.org/2000/svg"
   xmlns:svg="http://www.w3.org/2000/svg"
   xmlns:rdf="http://www.w3.org/1999/02/22-rdf-syntax-ns#"
   xmlns:cc="http://creativecommons.org/ns#"
   xmlns:dc="http://purl.org/dc/elements/1.1/">
  <defs
     id="defs2" />
  <sodipodi:namedview
     id="base"
     pagecolor="#ffffff"
     bordercolor="#666666"
     borderopacity="1.0"
     inkscape:pageopacity="0.0"
     inkscape:pageshadow="2"
     inkscape:zoom="0.64750707"
     inkscape:cx="-140.53901"
     inkscape:cy="828.56238"
     inkscape:document-units="mm"
     inkscape:current-layer="layer2"
     showgrid="true"
     inkscape:window-width="3840"
     inkscape:window-height="2106"
     inkscape:window-x="0"
     inkscape:window-y="0"
     inkscape:window-maximized="1"
     inkscape:pagecheckerboard="0"
     inkscape:document-rotation="0"
     units="mm"
     inkscape:showpageshadow="2"
     inkscape:deskcolor="#d1d1d1">
    <inkscape:grid
       type="xygrid"
       id="grid9"
       units="mm"
       originx="-394.53475"
       originy="-342.02612" />
  </sodipodi:namedview>
  <metadata
     id="metadata5">
    <rdf:RDF>
      <cc:Work
         rdf:about="">
        <dc:format>image/svg+xml</dc:format>
        <dc:type
           rdf:resource="http://purl.org/dc/dcmitype/StillImage" />
      </cc:Work>
    </rdf:RDF>
  </metadata>
  <g
     inkscape:label="bed outline"
     inkscape:groupmode="layer"
     id="layer1"
     transform="translate(-394.53475,410.97388)"
     style="display:none">
    <text
       xml:space="preserve"
       style="font-style:normal;font-weight:normal;font-size:10.5833px;line-height:1.25;font-family:sans-serif;letter-spacing:0px;word-spacing:0px;fill:#000000;fill-opacity:1;stroke:none;stroke-width:0.264583"
       x="51.404758"
       y="135.22618"
       id="text817" />
  </g>
  <g
     inkscape:groupmode="layer"
     id="layer2"
     inkscape:label="layer1"
     transform="translate(-394.53475,-342.02612)">
    <path
       style="fill:none;stroke:#000000;stroke-width:0.2;stroke-dasharray:none;stroke-opacity:1"
       d="m 396.29752,501.2275 c -0.70402,-0.16986 -1.25124,-0.67761 -1.58108,-1.46705 -0.19979,-0.47814 0.0341,-5.77996 0,-55.00989 -0.0173,-25.02959 0.0391,-49.83269 0,-55.118 -0.0391,-5.28532 -9e-4,-17.74402 0,-27.686 v -18.07633 -0.38397 c 0.21933,-0.46134 0.46083,-0.96877 0.90239,-1.1951 0.36828,-0.18878 0.96425,-0.21363 1.8785,-0.0783 0.32597,0.0482 0.80412,0.0885 1.06257,0.0894 0.25844,9.2e-4 0.5069,0.0387 0.55213,0.0839 0.0452,0.0452 0.38517,0.10654 0.75542,0.13625 0.37025,0.0297 0.76316,0.0882 0.87314,0.13004 0.10997,0.0418 0.22691,0.0594 0.25986,0.039 0.033,-0.0204 0.43933,0.0174 0.90306,0.0839 0.46373,0.0665 1.0146,0.14076 1.22415,0.16496 0.20955,0.0242 0.762,0.10259 1.22767,0.1742 0.46567,0.0716 0.95144,0.1296 1.0795,0.12887 0.12806,-7.6e-4 0.23283,0.0402 0.23283,0.091 0,0.0582 0.10914,0.0746 0.29479,0.0445 0.16213,-0.0263 0.31677,-0.0122 0.34366,0.0312 0.0269,0.0435 0.19283,0.0791 0.36876,0.0791 0.17593,0 0.69756,0.06 1.15917,0.13325 0.46161,0.0733 0.97264,0.149 1.13562,0.16825 0.58492,0.0691 1.99704,0.29437 2.37067,0.3782 0.20955,0.047 0.6096,0.10244 0.889,0.12317 0.51209,0.038 0.89186,0.092 2.286,0.3251 0.4191,0.0701 1.2573,0.18944 1.86267,0.26526 0.60536,0.0758 1.27211,0.17268 1.48166,0.21526 0.20955,0.0426 0.8001,0.13511 1.31234,0.20563 0.51223,0.0705 1.08373,0.15044 1.27,0.1776 0.18626,0.0272 0.51011,0.0609 0.71966,0.0751 0.20955,0.0141 0.5334,0.0509 0.71967,0.0816 0.18627,0.0308 0.5193,0.0718 0.74007,0.0913 0.22078,0.0194 0.43574,0.0566 0.4777,0.0825 0.1097,0.0678 0.64832,0.14121 1.24852,0.17015 0.28543,0.0138 0.55242,0.0457 0.59331,0.071 0.0904,0.0559 0.54591,0.14005 1.0044,0.18564 0.18627,0.0185 0.64347,0.0763 1.016,0.12829 0.37253,0.052 0.86783,0.11027 1.10067,0.12942 0.51283,0.0422 0.78005,0.0813 1.42655,0.20911 0.27237,0.0538 0.53907,0.0812 0.59266,0.0608 0.0536,-0.0204 0.1927,6.8e-4 0.30912,0.0467 0.11642,0.0461 0.38312,0.0945 0.59267,0.1077 0.20955,0.0132 0.381,0.031 0.381,0.0397 0,0.009 0.20955,0.0331 0.46566,0.0542 0.25612,0.0212 0.57482,0.0745 0.70823,0.1184 0.1334,0.0439 0.27293,0.0611 0.31006,0.0382 0.0371,-0.0229 0.32803,0.0129 0.64644,0.0797 0.73436,0.15406 1.20966,0.22327 1.84894,0.26923 0.2794,0.0201 0.75565,0.0932 1.05833,0.1624 0.5326,0.12182 1.03024,0.19366 1.73567,0.25054 0.56492,0.0456 1.09416,0.12633 1.39719,0.21324 0.21162,0.0607 0.30579,0.0548 0.35686,-0.0223 0.0532,-0.0803 0.0874,-0.0745 0.14642,0.025 0.0556,0.0937 0.19631,0.1248 0.50645,0.11187 0.24288,-0.0101 0.42941,0.019 0.42941,0.0671 0,0.0468 0.10478,0.0767 0.23283,0.0665 0.12806,-0.0102 0.28999,0.003 0.35984,0.0292 0.0699,0.0262 0.42955,0.072 0.79933,0.10181 0.36979,0.0298 0.71269,0.0802 0.762,0.11207 0.0963,0.0622 0.21551,0.082 0.80933,0.13436 0.20955,0.0185 0.51435,0.056 0.67734,0.0833 1.52754,0.25625 2.55788,0.40309 3.00142,0.42776 0.29145,0.0162 0.60665,0.0705 0.70044,0.12074 0.0938,0.0502 0.1908,0.071 0.21557,0.0462 0.0248,-0.0248 0.34411,-3.4e-4 0.70963,0.0543 0.65845,0.0985 1.30867,0.17281 1.5536,0.17767 0.0698,10e-4 0.18415,0.0233 0.254,0.0488 0.0699,0.0254 0.37465,0.0599 0.67734,0.0765 0.30268,0.0166 0.66463,0.0517 0.80433,0.0779 0.1397,0.0262 0.34925,0.0646 0.46567,0.0853 1.07874,0.19166 1.94733,0.47439 1.94733,0.63386 0,0.0308 0.13042,0.19028 0.28981,0.35441 0.3802,0.39148 0.55686,1.0029 0.55686,1.92733 0,0.40133 0.0389,0.76863 0.0865,0.8162 0.0589,0.0589 0.063,0.28725 0,0.71543 -0.0653,0.44458 -0.0191,6.56162 0,20.86797 0.0265,19.85653 0.15985,20.24377 0,20.48934 -3.50447,-0.24042 -5.80253,-0.19157 -7.83721,0.88683 -0.31479,0.10389 -0.69371,0.49946 -0.75532,0.7885 -0.10464,0.49088 -0.10639,0.88111 -0.005,1.12365 0.11166,0.26724 0.52447,0.24767 0.81431,0.24767 h 56.40322 c 2.39529,0.30382 2.27912,-0.0664 2.27912,2.01697 v 1.77479 0.6985 0.24588 0.5715 0.70095 10.922 c 0.0851,2.31449 -3.23528,1.95825 -1.4141,1.85903 -15.70783,0.29555 -39.08992,-0.22662 -57.14999,0 -0.64886,0.56518 -1.28042,1.97246 -0.69847,2.68982 0.43186,0.48621 0.62233,0.5091 4.33917,0.52142 l 3.048,0.0101 0.277,0.20777 c 0.3866,0.28999 0.74573,0.71255 0.7869,1.22117 0.0489,0.6037 -0.005,30.13024 0,49.89786 l 0.004,16.44414 -0.19009,0.40453 c -0.10455,0.22249 -0.19253,0.46233 -0.19551,0.53298 -0.006,0.15301 -0.38641,0.58356 -0.38641,0.43785 0,-0.14227 -0.24979,-0.12545 -0.30583,0.0206 -0.0256,0.0667 -0.11012,0.11962 -0.18784,0.11766 -0.13566,-0.003 -0.80398,0.14555 -1.79233,0.39951 -0.61756,0.15869 -3.37957,0.79872 -4.02167,0.93193 -0.2794,0.058 -0.79375,0.16824 -1.143,0.24506 -0.34925,0.0768 -1.56845,0.30799 -2.70933,0.51372 -1.14088,0.20572 -2.26483,0.41271 -2.49767,0.45996 -0.58793,0.11933 -2.82735,0.4812 -4.48733,0.72512 -0.70322,0.10333 -2.12961,0.30372 -2.45467,0.34485 -0.1859,0.0235 -0.37137,0.0761 -0.41216,0.11693 -0.0408,0.0408 -0.19348,0.0554 -0.33932,0.0325 -0.14585,-0.0229 -0.87478,0.0362 -1.61985,0.13139 -1.15708,0.1478 -3.27361,0.37835 -5.26807,0.57386 -0.2897,0.0284 -0.5068,0.0839 -0.48243,0.12331 0.0244,0.0394 -0.009,0.0513 -0.0736,0.0264 -0.13846,-0.0531 -1.44064,0.0852 -2.04987,0.21783 -0.23283,0.0507 -0.70908,0.10512 -1.05833,0.121 -0.6983,0.0317 -2.2012,0.2866 -2.20156,0.37333 -8e-5,0.0301 -0.1811,0.0605 -0.40217,0.0677 -0.44703,0.0144 -1.48994,0.16569 -2.0106,0.29163 -0.18627,0.0451 -0.49107,0.0963 -0.67734,0.11384 -0.38754,0.0365 -0.56223,0.0665 -2.05316,0.35258 -0.10863,0.0208 -0.19161,0.0995 -0.19308,0.18311 -0.002,0.1376 -0.008,0.13747 -0.0892,-0.002 -0.0654,-0.1124 -0.12414,-0.12864 -0.24029,-0.0665 -0.0845,0.0452 -0.17487,0.0611 -0.20077,0.0352 -0.0771,-0.0771 -0.40522,0.0583 -0.35155,0.14518 0.0272,0.044 0.0822,0.0597 0.12238,0.0349 0.0401,-0.0248 0.0969,-0.006 0.12614,0.0409 0.0306,0.0495 -0.0367,0.0861 -0.15848,0.0861 -0.11642,0 -0.23635,-0.0399 -0.26651,-0.0887 -0.0339,-0.0549 -0.20535,-0.0674 -0.44949,-0.0328 -0.8264,0.1172 -2.90457,0.54542 -3.06588,0.63174 -0.0927,0.0496 -0.19947,0.0712 -0.23718,0.0479 -0.0377,-0.0233 -0.27504,0.0149 -0.52741,0.0849 -0.25237,0.07 -0.55411,0.14071 -0.67053,0.1572 -0.7009,0.0993 -5.0641,1.15968 -5.25351,1.27674 -0.0507,0.0313 -0.40383,0.12706 -0.78481,0.21278 -0.38097,0.0857 -0.90223,0.21751 -1.15834,0.29289 -0.25612,0.0754 -0.56092,0.1551 -0.67734,0.17718 -0.11641,0.0221 -0.38637,0.0969 -0.59991,0.16637 -0.21353,0.0694 -0.46118,0.14087 -0.55033,0.15877 -0.0892,0.0179 -0.33354,0.0902 -0.54309,0.1607 -0.20955,0.0705 -0.55245,0.17118 -0.762,0.22377 -0.34717,0.0871 -2.02606,0.58695 -2.96333,0.88224 -0.56065,0.17664 -0.85683,0.21246 -1.15723,0.13999 z"
       id="path1537"
       sodipodi:nodetypes="csssccsssssssssssssssssssssssssssssssssssssssssssssssssssssssscsssscssssssssssccssccccccccccccscssccscsscsssssssssssscssssssscssssscsssssssssssssssscc" />
  </g>
  <g
     inkscape:groupmode="layer"
     id="layer3"
     inkscape:label="layer2"
     transform="translate(-394.53475,-342.02612)" />
  <g
     inkscape:groupmode="layer"
     id="layer4"
     inkscape:label="layer3"
     transform="translate(-394.53475,-342.02612)" />
  <g
     inkscape:groupmode="layer"
     id="layer5"
     inkscape:label="layer4"
     transform="translate(-394.53475,-342.02612)" />
  <g
     inkscape:groupmode="layer"
     id="layer6"
     inkscape:label="layer5"
     transform="translate(-394.53475,-342.02612)" />
  <g
     inkscape:groupmode="layer"
     id="layer7"
     inkscape:label="layer6"
     transform="translate(-394.53475,-342.02612)" />
  <g
     inkscape:groupmode="layer"
     id="layer8"
     inkscape:label="layer7"
     transform="translate(-394.53475,-342.02612)" />
  <g
     inkscape:groupmode="layer"
     id="layer9"
     inkscape:label="layer8"
     transform="translate(-394.53475,-342.02612)" />
  <g
     inkscape:groupmode="layer"
     id="layer10"
     inkscape:label="layer9"
     transform="translate(-394.53475,-342.02612)" />
  <g
     inkscape:groupmode="layer"
     id="layer11"
     inkscape:label="layer10"
     transform="translate(-394.53475,-342.02612)" />
</svg>
