<?xml version="1.0" encoding="UTF-8" standalone="no"?>
<svg
   width="112.12991mm"
   height="159.33516mm"
   viewBox="0 0 112.12991 159.33516"
   version="1.1"
   id="svg8"
   inkscape:version="1.2.2 (b0a8486541, 2022-12-01)"
   sodipodi:docname="stiffener.svg"
   xmlns:inkscape="http://www.inkscape.org/namespaces/inkscape"
   xmlns:sodipodi="http://sodipodi.sourceforge.net/DTD/sodipodi-0.dtd"
   xmlns="http://www.w3.org/2000/svg"
   xmlns:svg="http://www.w3.org/2000/svg"
   xmlns:rdf="http://www.w3.org/1999/02/22-rdf-syntax-ns#"
   xmlns:cc="http://creativecommons.org/ns#"
   xmlns:dc="http://purl.org/dc/elements/1.1/">
  <defs
     id="defs2" />
  <sodipodi:namedview
     id="base"
     pagecolor="#ffffff"
     bordercolor="#666666"
     borderopacity="1.0"
     inkscape:pageopacity="0.0"
     inkscape:pageshadow="2"
     inkscape:zoom="0.64750707"
     inkscape:cx="89.574312"
     inkscape:cy="85.71335"
     inkscape:document-units="mm"
     inkscape:current-layer="layer2"
     showgrid="true"
     inkscape:window-width="3840"
     inkscape:window-height="2106"
     inkscape:window-x="0"
     inkscape:window-y="0"
     inkscape:window-maximized="1"
     inkscape:pagecheckerboard="0"
     inkscape:document-rotation="0"
     units="mm"
     inkscape:showpageshadow="2"
     inkscape:deskcolor="#d1d1d1">
    <inkscape:grid
       type="xygrid"
       id="grid9"
       units="mm"
       originx="-333.75704"
       originy="-538.57215" />
  </sodipodi:namedview>
  <metadata
     id="metadata5">
    <rdf:RDF>
      <cc:Work
         rdf:about="">
        <dc:format>image/svg+xml</dc:format>
        <dc:type
           rdf:resource="http://purl.org/dc/dcmitype/StillImage" />
      </cc:Work>
    </rdf:RDF>
  </metadata>
  <g
     inkscape:label="bed outline"
     inkscape:groupmode="layer"
     id="layer1"
     transform="translate(-333.75705,214.42787)"
     style="display:none">
    <text
       xml:space="preserve"
       style="font-style:normal;font-weight:normal;font-size:10.5833px;line-height:1.25;font-family:sans-serif;letter-spacing:0px;word-spacing:0px;fill:#000000;fill-opacity:1;stroke:none;stroke-width:0.264583"
       x="51.404758"
       y="135.22618"
       id="text817" />
  </g>
  <g
     inkscape:groupmode="layer"
     id="layer2"
     inkscape:label="layer1"
     transform="translate(-333.75705,-538.57213)">
    <g
       id="g21859"
       transform="translate(38.168286,-77.616282)">
      <path
         id="rect17065"
         style="fill:#000000;fill-opacity:1;stroke:#000000;stroke-width:0.2"
         d="m 297.75628,616.29179 c -0.30931,0.0129 -0.5507,0.0663 -0.73484,0.16071 -0.44156,0.22633 -0.92892,0.73394 -1.14825,1.19528 l -0.18241,0.38396 -0.002,18.07641 c -9e-4,9.94197 0.0301,22.40034 0.0692,27.68566 0.0391,5.2853 0.085,30.08852 0.10232,55.11807 0.0341,49.22988 0.0591,54.53194 0.2589,55.01008 0.32969,0.78909 0.87672,1.29701 1.58027,1.46709 h 10e-4 c 0.30006,0.0721 0.59597,0.0364 1.156,-0.14004 0.93727,-0.29529 2.61648,-0.79502 2.96365,-0.88212 0.20955,-0.0526 0.55216,-0.15326 0.76171,-0.22375 0.20955,-0.0705 0.45392,-0.14282 0.54312,-0.16071 0.0892,-0.0179 0.33682,-0.0892 0.55035,-0.15865 0.21354,-0.0695 0.48355,-0.14429 0.59996,-0.16639 0.11642,-0.0221 0.42136,-0.10185 0.67748,-0.17725 0.25611,-0.0754 0.7771,-0.20731 1.15807,-0.29301 0.38098,-0.0857 0.73427,-0.18161 0.78497,-0.21291 0.18941,-0.11706 4.55252,-1.1771 5.25342,-1.2764 0.11642,-0.0165 0.41839,-0.0871 0.67076,-0.1571 0.25237,-0.07 0.4894,-0.10857 0.5271,-0.0853 0.0377,0.0233 0.1445,0.002 0.2372,-0.0475 0.16131,-0.0863 2.23956,-0.5148 3.06596,-0.632 0.24414,-0.0346 0.41568,-0.0218 0.44958,0.0331 0.0302,0.0488 0.15023,0.0884 0.26665,0.0884 0.12178,0 0.18873,-0.0363 0.15813,-0.0858 -0.0292,-0.0469 -0.086,-0.0661 -0.12609,-0.0413 -0.0402,0.0248 -0.0953,0.009 -0.12247,-0.0346 -0.0537,-0.0869 0.27482,-0.22231 0.35192,-0.14521 0.0259,0.0259 0.116,0.0101 0.2005,-0.0351 0.11615,-0.0621 0.1749,-0.0462 0.2403,0.0662 0.0812,0.13947 0.0874,0.13966 0.0894,0.002 10e-4,-0.0836 0.0841,-0.16213 0.19275,-0.18293 1.49093,-0.28608 1.66608,-0.31593 2.05362,-0.35243 0.18627,-0.0175 0.49069,-0.0691 0.67696,-0.11421 0.52066,-0.12594 1.5637,-0.27705 2.01073,-0.29145 0.22107,-0.007 0.40197,-0.0376 0.40205,-0.0677 3.6e-4,-0.0867 1.50363,-0.3414 2.20193,-0.3731 0.34925,-0.0159 0.8255,-0.0702 1.05833,-0.12093 0.60923,-0.13263 1.91103,-0.27117 2.04949,-0.21807 0.0646,0.0249 0.0983,0.013 0.0739,-0.0264 -0.0244,-0.0394 0.19244,-0.0951 0.48214,-0.1235 1.99446,-0.19551 4.11133,-0.42581 5.26841,-0.57361 0.74507,-0.0952 1.47369,-0.15416 1.61954,-0.13126 0.14584,0.0229 0.29871,0.008 0.33951,-0.0326 0.0408,-0.0408 0.22597,-0.0938 0.41186,-0.1173 0.32506,-0.0411 1.75142,-0.24135 2.45464,-0.34468 1.65997,-0.24392 3.89965,-0.60569 4.48758,-0.72502 0.23284,-0.0473 1.35664,-0.2542 2.49752,-0.45992 1.14088,-0.20573 2.36014,-0.43687 2.70939,-0.51368 0.34925,-0.0768 0.86369,-0.18745 1.14309,-0.24545 0.6421,-0.13321 3.4039,-0.77305 4.02146,-0.93174 0.98835,-0.25396 1.65699,-0.40246 1.79265,-0.39945 0.0777,0.002 0.16199,-0.0511 0.18759,-0.11783 0.056,-0.14604 0.30592,-0.16294 0.30592,-0.0207 0,0.14571 0.38054,-0.28469 0.38654,-0.4377 0.003,-0.0707 0.0908,-0.31029 0.19534,-0.53278 l 0.19017,-0.40463 -0.004,-16.44395 c -0.005,-19.7676 -0.0839,-49.29454 -0.1328,-49.89824 -0.0412,-0.50862 -0.26711,-0.93114 -0.65371,-1.22112 l -0.27699,-0.20774 -3.04839,-0.01 c -3.71684,-0.0123 -3.90741,-0.0352 -4.33927,-0.52142 -0.58195,-0.71736 0.0498,-2.1251 0.69867,-2.69028 l -0.11834,-18.495 c -0.28984,0 -0.70276,-0.27485 -0.81442,-0.54209 -0.10138,-0.24254 -0.0995,-0.63256 0.005,-1.12344 0.0616,-0.28904 0.44072,-0.68469 0.75552,-0.78858 2.03467,-1.0784 4.12555,-1.12719 7.63002,-0.88676 0.15985,-0.24558 0.16241,-0.6332 0.13592,-20.48971 -0.0191,-14.30633 -1.9e-4,-20.42339 0.0651,-20.86797 0.063,-0.42818 0.0651,-0.65631 0.006,-0.71521 -0.0476,-0.0476 -0.0868,-0.41464 -0.0868,-0.81597 0,-0.92443 -0.17635,-1.53605 -0.55655,-1.92753 -0.15939,-0.16413 -0.28991,-0.3237 -0.28991,-0.3545 0,-0.15948 -0.86842,-0.44189 -1.94716,-0.63355 -0.11642,-0.0207 -0.32643,-0.0596 -0.46613,-0.0858 -0.13969,-0.0262 -0.5014,-0.0609 -0.80408,-0.0775 -0.30269,-0.0166 -0.60758,-0.0511 -0.67748,-0.0765 -0.0699,-0.0255 -0.18393,-0.0481 -0.25373,-0.0491 -0.24493,-0.005 -0.89546,-0.0793 -1.55391,-0.17777 -0.36552,-0.0546 -0.68472,-0.0791 -0.70952,-0.0543 -0.0248,0.0248 -0.12169,0.004 -0.21549,-0.046 -0.0938,-0.0502 -0.40876,-0.10473 -0.70021,-0.12092 -0.44354,-0.0247 -1.47435,-0.17112 -3.00189,-0.42737 -0.16299,-0.0273 -0.46741,-0.0652 -0.67696,-0.0837 -0.59382,-0.0524 -0.71295,-0.0722 -0.80925,-0.13436 -0.0493,-0.0319 -0.39244,-0.0823 -0.76223,-0.11214 -0.36978,-0.0298 -0.72953,-0.0756 -0.79943,-0.1018 -0.0699,-0.0262 -0.23161,-0.0391 -0.35967,-0.0289 -0.12805,0.0102 -0.23306,-0.0199 -0.23306,-0.0667 0,-0.0481 -0.18655,-0.0773 -0.42943,-0.0672 -0.31014,0.0129 -0.45083,-0.0179 -0.50643,-0.11162 -0.059,-0.0995 -0.0931,-0.10511 -0.14625,-0.0248 -0.0511,0.0771 -0.14546,0.0829 -0.35708,0.0222 -0.30303,-0.0869 -0.8319,-0.16782 -1.39682,-0.21342 -0.70542,-0.0569 -1.20321,-0.12882 -1.73581,-0.25063 -0.30268,-0.0692 -0.77893,-0.14217 -1.05833,-0.16227 -0.63928,-0.046 -1.11462,-0.11518 -1.84898,-0.26923 -0.31841,-0.0668 -0.60937,-0.10249 -0.64647,-0.0796 -0.0371,0.0229 -0.17666,0.006 -0.31006,-0.0382 -0.13341,-0.0439 -0.45185,-0.0971 -0.70797,-0.11834 -0.25611,-0.0211 -0.46612,-0.0453 -0.46612,-0.0543 0,-0.009 -0.17131,-0.0266 -0.38086,-0.0398 -0.20955,-0.0132 -0.47631,-0.0614 -0.59273,-0.10749 -0.11642,-0.046 -0.25542,-0.0674 -0.30902,-0.047 -0.0536,0.0204 -0.32036,-0.007 -0.59273,-0.0605 -0.6465,-0.12781 -0.91344,-0.16709 -1.42627,-0.20929 -0.23284,-0.0191 -0.72818,-0.0777 -1.10071,-0.1297 -0.37253,-0.052 -0.82969,-0.10965 -1.01596,-0.12815 -0.45849,-0.0456 -0.91419,-0.12963 -1.00459,-0.18552 -0.0409,-0.0253 -0.30781,-0.057 -0.59324,-0.0708 -0.6002,-0.0289 -1.1388,-0.10273 -1.2485,-0.17053 -0.042,-0.0259 -0.25671,-0.0628 -0.47749,-0.0822 -0.22077,-0.0195 -0.55426,-0.0607 -0.74053,-0.0915 -0.18627,-0.0307 -0.50978,-0.0675 -0.71933,-0.0816 -0.20955,-0.0142 -0.5336,-0.0477 -0.71986,-0.0749 -0.18627,-0.0272 -0.75746,-0.10727 -1.26969,-0.17777 -0.51224,-0.0705 -1.10303,-0.16307 -1.31258,-0.20567 -0.20955,-0.0426 -0.8762,-0.13918 -1.48156,-0.21498 -0.60537,-0.0758 -1.44384,-0.19551 -1.86294,-0.26561 -1.39413,-0.2331 -1.77355,-0.28705 -2.28564,-0.32505 -0.2794,-0.0207 -0.67981,-0.076 -0.88936,-0.12299 -0.37363,-0.0838 -1.78547,-0.30917 -2.37039,-0.37827 -0.16298,-0.0192 -0.67424,-0.0952 -1.13585,-0.16846 -0.46161,-0.0733 -0.98317,-0.13281 -1.1591,-0.13281 -0.17593,0 -0.34156,-0.0361 -0.36846,-0.0796 -0.0269,-0.0434 -0.18203,-0.0573 -0.34416,-0.031 -0.18565,0.0301 -0.29456,0.0138 -0.29456,-0.0444 0,-0.0508 -0.105,-0.0917 -0.23306,-0.091 -0.12806,7.3e-4 -0.61333,-0.0571 -1.079,-0.12868 -0.46567,-0.0716 -1.01828,-0.15046 -1.22783,-0.17466 -0.20955,-0.0242 -0.76049,-0.0983 -1.22422,-0.16485 -0.46373,-0.0665 -0.8703,-0.10412 -0.9033,-0.0837 -0.033,0.0204 -0.14945,0.003 -0.25942,-0.0393 -0.10998,-0.0418 -0.50308,-0.10001 -0.87333,-0.12971 -0.37025,-0.0297 -0.71031,-0.0912 -0.75551,-0.13643 -0.0452,-0.0452 -0.29346,-0.0828 -0.5519,-0.0837 -0.25845,-9e-4 -0.73702,-0.0412 -1.06299,-0.0894 -0.45712,-0.0677 -0.83429,-0.0956 -1.1436,-0.0827 z m 3.29696,6.53707 h 22.01313 v 144.47852 h -22.01313 z m 37.7517,19.41483 H 354.281 v 16.34422 h -15.47606 z" />
      <path
         id="rect21842"
         style="stroke:#000000;stroke-width:0.727847"
         d="m 399.60301,673.22848 h 7.75173 v 18.28404 h -7.75173 z" />
    </g>
    <g
       id="g22991"
       transform="translate(38.168286,-77.616282)">
      <path
         id="path22987"
         style="fill:#000000;fill-opacity:1;stroke:#000000;stroke-width:0.2"
         d="m 297.75628,616.29179 c -0.30931,0.0129 -0.5507,0.0663 -0.73484,0.16071 -0.44156,0.22633 -0.92892,0.73394 -1.14825,1.19528 l -0.18241,0.38396 -0.002,18.07641 c -9e-4,9.94197 0.0301,22.40034 0.0692,27.68566 0.0391,5.2853 0.085,30.08852 0.10232,55.11807 0.0341,49.22988 0.0591,54.53194 0.2589,55.01008 0.32969,0.78909 0.87672,1.29701 1.58027,1.46709 h 10e-4 c 0.30006,0.0721 0.59597,0.0364 1.156,-0.14004 0.93727,-0.29529 2.61648,-0.79502 2.96365,-0.88212 0.20955,-0.0526 0.55216,-0.15326 0.76171,-0.22375 0.20955,-0.0705 0.45392,-0.14282 0.54312,-0.16071 0.0892,-0.0179 0.33682,-0.0892 0.55035,-0.15865 0.21354,-0.0695 0.48355,-0.14429 0.59996,-0.16639 0.11642,-0.0221 0.42136,-0.10185 0.67748,-0.17725 0.25611,-0.0754 0.7771,-0.20731 1.15807,-0.29301 0.38098,-0.0857 0.73427,-0.18161 0.78497,-0.21291 0.18941,-0.11706 4.55252,-1.1771 5.25342,-1.2764 0.11642,-0.0165 0.41839,-0.0871 0.67076,-0.1571 0.25237,-0.07 0.4894,-0.10857 0.5271,-0.0853 0.0377,0.0233 0.1445,0.002 0.2372,-0.0475 0.16131,-0.0863 2.23956,-0.5148 3.06596,-0.632 0.24414,-0.0346 0.41568,-0.0218 0.44958,0.0331 0.0302,0.0488 0.15023,0.0884 0.26665,0.0884 0.12178,0 0.18873,-0.0363 0.15813,-0.0858 -0.0292,-0.0469 -0.086,-0.0661 -0.12609,-0.0413 -0.0402,0.0248 -0.0953,0.009 -0.12247,-0.0346 -0.0537,-0.0869 0.27482,-0.22231 0.35192,-0.14521 0.0259,0.0259 0.116,0.0101 0.2005,-0.0351 0.11615,-0.0621 0.1749,-0.0462 0.2403,0.0662 0.0812,0.13947 0.0874,0.13966 0.0894,0.002 10e-4,-0.0836 0.0841,-0.16213 0.19275,-0.18293 1.49093,-0.28608 1.66608,-0.31593 2.05362,-0.35243 0.18627,-0.0175 0.49069,-0.0691 0.67696,-0.11421 0.52066,-0.12594 1.5637,-0.27705 2.01073,-0.29145 0.22107,-0.007 0.40197,-0.0376 0.40205,-0.0677 3.6e-4,-0.0867 1.50363,-0.3414 2.20193,-0.3731 0.34925,-0.0159 0.8255,-0.0702 1.05833,-0.12093 0.60923,-0.13263 1.91103,-0.27117 2.04949,-0.21807 0.0646,0.0249 0.0983,0.013 0.0739,-0.0264 -0.0244,-0.0394 0.19244,-0.0951 0.48214,-0.1235 1.99446,-0.19551 4.11133,-0.42581 5.26841,-0.57361 0.74507,-0.0952 1.47369,-0.15416 1.61954,-0.13126 0.14584,0.0229 0.29871,0.008 0.33951,-0.0326 0.0408,-0.0408 0.22597,-0.0938 0.41186,-0.1173 0.32506,-0.0411 1.75142,-0.24135 2.45464,-0.34468 1.65997,-0.24392 3.89965,-0.60569 4.48758,-0.72502 0.23284,-0.0473 1.35664,-0.2542 2.49752,-0.45992 1.14088,-0.20573 2.36014,-0.43687 2.70939,-0.51368 0.34925,-0.0768 0.86369,-0.18745 1.14309,-0.24545 0.6421,-0.13321 3.4039,-0.77305 4.02146,-0.93174 0.98835,-0.25396 1.65699,-0.40246 1.79265,-0.39945 0.0777,0.002 0.16199,-0.0511 0.18759,-0.11783 0.056,-0.14604 0.30592,-0.16294 0.30592,-0.0207 0,0.14571 0.38054,-0.28469 0.38654,-0.4377 0.003,-0.0707 0.0908,-0.31029 0.19534,-0.53278 l 0.19017,-0.40463 -0.004,-16.44395 c -0.005,-19.7676 -0.0839,-49.29454 -0.1328,-49.89824 -0.0412,-0.50862 -0.26711,-0.93114 -0.65371,-1.22112 l -0.27699,-0.20774 -3.04839,-0.01 c -3.71684,-0.0123 -3.90741,-0.0352 -4.33927,-0.52142 -0.58195,-0.71736 0.0498,-2.1251 0.69867,-2.69028 l -0.11834,-18.495 c -0.28984,0 -0.70276,-0.27485 -0.81442,-0.54209 -0.10138,-0.24254 -0.0995,-0.63256 0.005,-1.12344 0.0616,-0.28904 0.44072,-0.68469 0.75552,-0.78858 2.03467,-1.0784 4.12555,-1.12719 7.63002,-0.88676 0.15985,-0.24558 0.16241,-0.6332 0.13592,-20.48971 -0.0191,-14.30633 -1.9e-4,-20.42339 0.0651,-20.86797 0.063,-0.42818 0.0651,-0.65631 0.006,-0.71521 -0.0476,-0.0476 -0.0868,-0.41464 -0.0868,-0.81597 0,-0.92443 -0.17635,-1.53605 -0.55655,-1.92753 -0.15939,-0.16413 -0.28991,-0.3237 -0.28991,-0.3545 0,-0.15948 -0.86842,-0.44189 -1.94716,-0.63355 -0.11642,-0.0207 -0.32643,-0.0596 -0.46613,-0.0858 -0.13969,-0.0262 -0.5014,-0.0609 -0.80408,-0.0775 -0.30269,-0.0166 -0.60758,-0.0511 -0.67748,-0.0765 -0.0699,-0.0255 -0.18393,-0.0481 -0.25373,-0.0491 -0.24493,-0.005 -0.89546,-0.0793 -1.55391,-0.17777 -0.36552,-0.0546 -0.68472,-0.0791 -0.70952,-0.0543 -0.0248,0.0248 -0.12169,0.004 -0.21549,-0.046 -0.0938,-0.0502 -0.40876,-0.10473 -0.70021,-0.12092 -0.44354,-0.0247 -1.47435,-0.17112 -3.00189,-0.42737 -0.16299,-0.0273 -0.46741,-0.0652 -0.67696,-0.0837 -0.59382,-0.0524 -0.71295,-0.0722 -0.80925,-0.13436 -0.0493,-0.0319 -0.39244,-0.0823 -0.76223,-0.11214 -0.36978,-0.0298 -0.72953,-0.0756 -0.79943,-0.1018 -0.0699,-0.0262 -0.23161,-0.0391 -0.35967,-0.0289 -0.12805,0.0102 -0.23306,-0.0199 -0.23306,-0.0667 0,-0.0481 -0.18655,-0.0773 -0.42943,-0.0672 -0.31014,0.0129 -0.45083,-0.0179 -0.50643,-0.11162 -0.059,-0.0995 -0.0931,-0.10511 -0.14625,-0.0248 -0.0511,0.0771 -0.14546,0.0829 -0.35708,0.0222 -0.30303,-0.0869 -0.8319,-0.16782 -1.39682,-0.21342 -0.70542,-0.0569 -1.20321,-0.12882 -1.73581,-0.25063 -0.30268,-0.0692 -0.77893,-0.14217 -1.05833,-0.16227 -0.63928,-0.046 -1.11462,-0.11518 -1.84898,-0.26923 -0.31841,-0.0668 -0.60937,-0.10249 -0.64647,-0.0796 -0.0371,0.0229 -0.17666,0.006 -0.31006,-0.0382 -0.13341,-0.0439 -0.45185,-0.0971 -0.70797,-0.11834 -0.25611,-0.0211 -0.46612,-0.0453 -0.46612,-0.0543 0,-0.009 -0.17131,-0.0266 -0.38086,-0.0398 -0.20955,-0.0132 -0.47631,-0.0614 -0.59273,-0.10749 -0.11642,-0.046 -0.25542,-0.0674 -0.30902,-0.047 -0.0536,0.0204 -0.32036,-0.007 -0.59273,-0.0605 -0.6465,-0.12781 -0.91344,-0.16709 -1.42627,-0.20929 -0.23284,-0.0191 -0.72818,-0.0777 -1.10071,-0.1297 -0.37253,-0.052 -0.82969,-0.10965 -1.01596,-0.12815 -0.45849,-0.0456 -0.91419,-0.12963 -1.00459,-0.18552 -0.0409,-0.0253 -0.30781,-0.057 -0.59324,-0.0708 -0.6002,-0.0289 -1.1388,-0.10273 -1.2485,-0.17053 -0.042,-0.0259 -0.25671,-0.0628 -0.47749,-0.0822 -0.22077,-0.0195 -0.55426,-0.0607 -0.74053,-0.0915 -0.18627,-0.0307 -0.50978,-0.0675 -0.71933,-0.0816 -0.20955,-0.0142 -0.5336,-0.0477 -0.71986,-0.0749 -0.18627,-0.0272 -0.75746,-0.10727 -1.26969,-0.17777 -0.51224,-0.0705 -1.10303,-0.16307 -1.31258,-0.20567 -0.20955,-0.0426 -0.8762,-0.13918 -1.48156,-0.21498 -0.60537,-0.0758 -1.44384,-0.19551 -1.86294,-0.26561 -1.39413,-0.2331 -1.77355,-0.28705 -2.28564,-0.32505 -0.2794,-0.0207 -0.67981,-0.076 -0.88936,-0.12299 -0.37363,-0.0838 -1.78547,-0.30917 -2.37039,-0.37827 -0.16298,-0.0192 -0.67424,-0.0952 -1.13585,-0.16846 -0.46161,-0.0733 -0.98317,-0.13281 -1.1591,-0.13281 -0.17593,0 -0.34156,-0.0361 -0.36846,-0.0796 -0.0269,-0.0434 -0.18203,-0.0573 -0.34416,-0.031 -0.18565,0.0301 -0.29456,0.0138 -0.29456,-0.0444 0,-0.0508 -0.105,-0.0917 -0.23306,-0.091 -0.12806,7.3e-4 -0.61333,-0.0571 -1.079,-0.12868 -0.46567,-0.0716 -1.01828,-0.15046 -1.22783,-0.17466 -0.20955,-0.0242 -0.76049,-0.0983 -1.22422,-0.16485 -0.46373,-0.0665 -0.8703,-0.10412 -0.9033,-0.0837 -0.033,0.0204 -0.14945,0.003 -0.25942,-0.0393 -0.10998,-0.0418 -0.50308,-0.10001 -0.87333,-0.12971 -0.37025,-0.0297 -0.71031,-0.0912 -0.75551,-0.13643 -0.0452,-0.0452 -0.29346,-0.0828 -0.5519,-0.0837 -0.25845,-9e-4 -0.73702,-0.0412 -1.06299,-0.0894 -0.45712,-0.0677 -0.83429,-0.0956 -1.1436,-0.0827 z m 3.29696,6.53707 h 22.01313 v 144.47852 h -22.01313 z m 37.7517,19.41483 H 354.281 v 16.34422 h -15.47606 z" />
      <path
         id="path22989"
         style="stroke:#000000;stroke-width:0.727847"
         d="m 399.60301,673.22848 h 7.75173 v 18.28404 h -7.75173 z" />
    </g>
  </g>
  <g
     inkscape:groupmode="layer"
     id="layer3"
     inkscape:label="layer2"
     transform="translate(-333.75705,-538.57213)" />
  <g
     inkscape:groupmode="layer"
     id="layer4"
     inkscape:label="layer3"
     transform="translate(-333.75705,-538.57213)" />
  <g
     inkscape:groupmode="layer"
     id="layer5"
     inkscape:label="layer4"
     transform="translate(-333.75705,-538.57213)" />
  <g
     inkscape:groupmode="layer"
     id="layer6"
     inkscape:label="layer5"
     transform="translate(-333.75705,-538.57213)" />
  <g
     inkscape:groupmode="layer"
     id="layer7"
     inkscape:label="layer6"
     transform="translate(-333.75705,-538.57213)" />
  <g
     inkscape:groupmode="layer"
     id="layer8"
     inkscape:label="layer7"
     transform="translate(-333.75705,-538.57213)" />
  <g
     inkscape:groupmode="layer"
     id="layer9"
     inkscape:label="layer8"
     transform="translate(-333.75705,-538.57213)" />
  <g
     inkscape:groupmode="layer"
     id="layer10"
     inkscape:label="layer9"
     transform="translate(-333.75705,-538.57213)" />
  <g
     inkscape:groupmode="layer"
     id="layer11"
     inkscape:label="layer10"
     transform="translate(-333.75705,-538.57213)" />
</svg>
